<svg width="15" height="17" viewBox="0 0 15 17" fill="none" xmlns="http://www.w3.org/2000/svg">
<path d="M13.2637 12.57C12.972 12.57 12.7324 12.4737 12.5449 12.2809C12.3574 12.0882 12.2637 11.8513 12.2637 11.57V7.57001C12.2637 7.28876 12.3574 7.05178 12.5449 6.85907C12.7324 6.66636 12.9694 6.57001 13.2559 6.57001C13.5423 6.57001 13.7819 6.66636 13.9746 6.85907C14.1673 7.05178 14.2637 7.28876 14.2637 7.57001V11.57C14.2637 11.8513 14.1673 12.0882 13.9746 12.2809C13.7819 12.4737 13.5449 12.57 13.2637 12.57ZM10.2637 13.2419V15.57C10.2637 15.8513 10.1673 16.0882 9.97461 16.2809C9.7819 16.4737 9.54232 16.57 9.25586 16.57C8.9694 16.57 8.73242 16.4737 8.54492 16.2809C8.35742 16.0882 8.26367 15.8513 8.26367 15.57V13.2419H6.91992V15.57C6.91992 15.8513 6.82617 16.0882 6.63867 16.2809C6.45117 16.4737 6.21419 16.57 5.92773 16.57C5.64128 16.57 5.40169 16.4737 5.20898 16.2809C5.01628 16.0882 4.91992 15.8513 4.91992 15.57V13.2419C4.55534 13.2419 4.24284 13.1117 3.98242 12.8513C3.72201 12.5908 3.5918 12.2731 3.5918 11.8981V7.24188C3.5918 7.05438 3.6569 6.89553 3.78711 6.76532C3.91732 6.63511 4.07617 6.57001 4.26367 6.57001H10.9199C11.1074 6.57001 11.2663 6.63511 11.3965 6.76532C11.5267 6.89553 11.5918 7.05438 11.5918 7.24188V11.8981C11.5918 12.2731 11.4616 12.5908 11.2012 12.8513C10.9408 13.1117 10.6283 13.2419 10.2637 13.2419ZM11.5918 5.89813H3.5918C3.5918 5.24188 3.73763 4.63251 4.0293 4.07001C4.32096 3.50751 4.72201 3.03876 5.23242 2.66376L4.29492 1.07001C4.29492 1.04917 4.28971 1.02053 4.2793 0.98407C4.26888 0.947612 4.26367 0.918965 4.26367 0.898132C4.26367 0.804382 4.29232 0.726257 4.34961 0.663757C4.4069 0.601257 4.48763 0.570007 4.5918 0.570007C4.7168 0.570007 4.81576 0.627299 4.88867 0.741882L5.79492 2.33563C6.36784 2.04397 6.9668 1.89813 7.5918 1.89813C8.2168 1.89813 8.81576 2.04397 9.38867 2.33563L10.2949 0.741882C10.3678 0.627299 10.4668 0.570007 10.5918 0.570007C10.696 0.570007 10.7767 0.601257 10.834 0.663757C10.8913 0.726257 10.9199 0.804382 10.9199 0.898132C10.9199 0.918965 10.9147 0.947612 10.9043 0.98407C10.8939 1.02053 10.8887 1.04917 10.8887 1.07001L9.95117 2.66376C10.4616 3.03876 10.8626 3.50751 11.1543 4.07001C11.446 4.63251 11.5918 5.24188 11.5918 5.89813ZM1.91992 12.57C1.63867 12.57 1.40169 12.4737 1.20898 12.2809C1.01628 12.0882 0.919922 11.8513 0.919922 11.57V7.57001C0.919922 7.28876 1.01628 7.05178 1.20898 6.85907C1.40169 6.66636 1.64128 6.57001 1.92773 6.57001C2.21419 6.57001 2.45117 6.66636 2.63867 6.85907C2.82617 7.05178 2.91992 7.28876 2.91992 7.57001V11.57C2.91992 11.8513 2.82617 12.0882 2.63867 12.2809C2.45117 12.4737 2.21159 12.57 1.91992 12.57Z" fill="white"/>
</svg>
