<svg width="80" height="80" viewBox="0 0 80 80" fill="none" xmlns="http://www.w3.org/2000/svg">
<rect width="80" height="80" rx="40" fill="white" fill-opacity="0.07"/>
<g clip-path="url(#clip0_28_7931)">
<path d="M55 23.5H25C23.3432 23.5 22 24.8432 22 26.5V46C22 47.6569 23.3432 49 25 49H55C56.6569 49 58 47.6569 58 46V26.5C58 24.8432 56.6569 23.5 55 23.5Z" fill="#E6F9FE"/>
<path d="M25 43V23.5C24.2046 23.5009 23.4421 23.8173 22.8797 24.3797C22.3173 24.9421 22.0009 25.7046 22 26.5V46C22.0009 46.7954 22.3173 47.5579 22.8797 48.1203C23.4421 48.6827 24.2046 48.9991 25 49H55C55.7954 48.9991 56.5579 48.6827 57.1203 48.1203C57.6827 47.5579 57.9991 46.7954 58 46H28C27.2046 45.9991 26.4421 45.6827 25.8797 45.1203C25.3173 44.5579 25.0009 43.7954 25 43Z" fill="#CCF2FE"/>
<path d="M22 29.5H58V35.5H22V29.5Z" fill="url(#paint0_linear_28_7931)"/>
<path d="M42.6843 47.8107L44.8053 45.6897L53.054 53.9384L50.933 56.0594L42.6843 47.8107Z" fill="#01C0F9"/>
<path d="M37 49C41.9706 49 46 44.9706 46 40C46 35.0294 41.9706 31 37 31C32.0294 31 28 35.0294 28 40C28 44.9706 32.0294 49 37 49Z" fill="#E6F9FE"/>
<path d="M37 50.5C34.9233 50.5 32.8932 49.8842 31.1665 48.7304C29.4398 47.5767 28.094 45.9368 27.2993 44.0182C26.5046 42.0996 26.2966 39.9884 26.7018 37.9516C27.1069 35.9148 28.1069 34.0438 29.5754 32.5754C31.0438 31.1069 32.9148 30.1069 34.9516 29.7018C36.9884 29.2966 39.0996 29.5046 41.0182 30.2993C42.9368 31.094 44.5767 32.4398 45.7304 34.1665C46.8842 35.8932 47.5 37.9233 47.5 40C47.4969 42.7838 46.3896 45.4527 44.4212 47.4212C42.4527 49.3896 39.7838 50.4969 37 50.5ZM37 32.5C35.5166 32.5 34.0666 32.9399 32.8332 33.764C31.5999 34.5881 30.6386 35.7594 30.0709 37.1299C29.5033 38.5003 29.3547 40.0083 29.6441 41.4632C29.9335 42.918 30.6478 44.2544 31.6967 45.3033C32.7456 46.3522 34.082 47.0665 35.5368 47.3559C36.9917 47.6453 38.4997 47.4968 39.8701 46.9291C41.2406 46.3614 42.4119 45.4002 43.236 44.1668C44.0601 42.9334 44.5 41.4834 44.5 40C44.4978 38.0116 43.7069 36.1052 42.3008 34.6992C40.8948 33.2931 38.9884 32.5022 37 32.5Z" fill="#99E6FD"/>
<path d="M37 41.5C37.8284 41.5 38.5 40.8284 38.5 40C38.5 39.1716 37.8284 38.5 37 38.5C36.1716 38.5 35.5 39.1716 35.5 40C35.5 40.8284 36.1716 41.5 37 41.5Z" fill="#34CDFA"/>
<path d="M41.5 41.5C42.3284 41.5 43 40.8284 43 40C43 39.1716 42.3284 38.5 41.5 38.5C40.6716 38.5 40 39.1716 40 40C40 40.8284 40.6716 41.5 41.5 41.5Z" fill="#34CDFA"/>
<path d="M32.5 41.5C33.3284 41.5 34 40.8284 34 40C34 39.1716 33.3284 38.5 32.5 38.5C31.6716 38.5 31 39.1716 31 40C31 40.8284 31.6716 41.5 32.5 41.5Z" fill="#34CDFA"/>
</g>
<rect x="2" y="2" width="76" height="76" rx="38" stroke="white" stroke-opacity="0.06" stroke-width="4"/>
<defs>
<linearGradient id="paint0_linear_28_7931" x1="29.5" y1="43" x2="50.5" y2="22" gradientUnits="userSpaceOnUse">
<stop stop-color="#34CDFA"/>
<stop offset="1" stop-color="#E8D9F1"/>
</linearGradient>
<clipPath id="clip0_28_7931">
<rect width="36" height="34" fill="white" transform="translate(22 23)"/>
</clipPath>
</defs>
</svg>
