<svg width="80" height="80" viewBox="0 0 80 80" fill="none" xmlns="http://www.w3.org/2000/svg">
<rect width="80" height="80" rx="40" fill="white" fill-opacity="0.07"/>
<g clip-path="url(#clip0_28_7911)">
<mask id="mask0_28_7911" style="mask-type:luminance" maskUnits="userSpaceOnUse" x="21" y="21" width="38" height="38">
<path d="M59 21H21V59H59V21Z" fill="white"/>
</mask>
<g mask="url(#mask0_28_7911)">
<path d="M44.75 36.8333H41.5833V30.5C41.5833 28.8203 40.9161 27.2094 39.7283 26.0217C38.5406 24.8339 36.9297 24.1667 35.25 24.1667C33.5703 24.1667 31.9594 24.8339 30.7717 26.0217C29.5839 27.2094 28.9167 28.8203 28.9167 30.5V36.8333H25.75V30.5C25.75 27.9804 26.7509 25.5641 28.5325 23.7825C30.3141 22.0009 32.7304 21 35.25 21C37.7696 21 40.1859 22.0009 41.9675 23.7825C43.7491 25.5641 44.75 27.9804 44.75 30.5V36.8333Z" fill="#34CDFA"/>
<path d="M46.3335 35.25H24.1668C23.2924 35.25 22.5835 35.9589 22.5835 36.8333V54.25C22.5835 55.1245 23.2924 55.8333 24.1668 55.8333H46.3335C47.2079 55.8333 47.9168 55.1245 47.9168 54.25V36.8333C47.9168 35.9589 47.2079 35.25 46.3335 35.25Z" fill="#CCF2FE"/>
<path d="M28.9168 52.6667C28.4969 52.6667 28.0942 52.4999 27.7972 52.2029C27.5003 51.906 27.3335 51.5033 27.3335 51.0833V35.25H24.1668C23.7469 35.25 23.3442 35.4168 23.0472 35.7137C22.7503 36.0107 22.5835 36.4134 22.5835 36.8333V54.25C22.5835 54.6699 22.7503 55.0727 23.0472 55.3696C23.3442 55.6665 23.7469 55.8333 24.1668 55.8333H46.3335C46.7534 55.8333 47.1562 55.6665 47.4531 55.3696C47.75 55.0727 47.9168 54.6699 47.9168 54.25V52.6667H28.9168Z" fill="#99E6FD"/>
<path d="M38.4168 43.1667C38.4173 42.6107 38.2714 42.0644 37.9938 41.5827C37.7162 41.101 37.3167 40.7008 36.8353 40.4225C36.354 40.1442 35.8079 39.9975 35.2519 39.9972C34.696 39.9969 34.1497 40.143 33.6681 40.4207C33.1864 40.6985 32.7864 41.0982 32.5083 41.5796C32.2301 42.061 32.0836 42.6072 32.0835 43.1631C32.0834 43.7191 32.2296 44.2654 32.5076 44.7469C32.7855 45.2284 33.1853 45.6283 33.6668 45.9063V51.0834H36.8335V45.9063C37.3147 45.6289 37.7144 45.2297 37.9924 44.7487C38.2703 44.2678 38.4167 43.7222 38.4168 43.1667Z" fill="#34CDFA"/>
<path d="M33.6666 43.1667C33.667 42.4651 33.9005 41.7836 34.3304 41.2292C34.7603 40.6747 35.3622 40.2789 36.0416 40.1037C35.3006 39.9115 34.5151 39.9944 33.8307 40.3371C33.1462 40.6798 32.6092 41.2591 32.3192 41.9675C32.0293 42.6759 32.006 43.4654 32.2538 44.1897C32.5015 44.914 33.0035 45.5238 33.6666 45.9063V51.0834H35.2499V45.9063C34.7686 45.6289 34.3689 45.2296 34.091 44.7487C33.813 44.2678 33.6667 43.7222 33.6666 43.1667Z" fill="#01C0F9"/>
<path d="M49.5 59C54.7467 59 59 54.7467 59 49.5C59 44.2533 54.7467 40 49.5 40C44.2533 40 40 44.2533 40 49.5C40 54.7467 44.2533 59 49.5 59Z" fill="url(#paint0_linear_28_7911)"/>
<path d="M49.4998 52.6666C49.2543 52.6667 49.0121 52.6094 48.7926 52.4992L45.626 50.9159L47.0423 48.0837L48.9587 49.0418L51.3501 45.455L53.9848 47.2115L50.8181 51.9615C50.6735 52.1785 50.4774 52.3564 50.2474 52.4795C50.0174 52.6025 49.7606 52.6668 49.4998 52.6666Z" fill="white"/>
</g>
</g>
<rect x="2" y="2" width="76" height="76" rx="38" stroke="white" stroke-opacity="0.06" stroke-width="4"/>
<defs>
<linearGradient id="paint0_linear_28_7911" x1="42.7857" y1="56.2143" x2="56.2143" y2="42.7857" gradientUnits="userSpaceOnUse">
<stop stop-color="#34CDFA"/>
<stop offset="1" stop-color="#E8D9F1"/>
</linearGradient>
<clipPath id="clip0_28_7911">
<rect width="38" height="38" fill="white" transform="translate(21 21)"/>
</clipPath>
</defs>
</svg>
