<svg width="80" height="80" viewBox="0 0 80 80" fill="none" xmlns="http://www.w3.org/2000/svg">
<rect width="80" height="80" rx="40" fill="white" fill-opacity="0.07"/>
<g clip-path="url(#clip0_28_7894)">
<mask id="mask0_28_7894" style="mask-type:luminance" maskUnits="userSpaceOnUse" x="21" y="21" width="38" height="38">
<path d="M59 21H21V59H59V21Z" fill="white"/>
</mask>
<g mask="url(#mask0_28_7894)">
<path d="M56.9527 26.2135L52.2027 21.4635C51.9612 21.2221 51.648 21.0652 51.31 21.0162C50.9721 20.9673 50.6273 21.0289 50.3272 21.192C48.8679 21.9818 47.2358 22.3983 45.5765 22.4044C43.9172 22.4106 42.2821 22.0062 40.8169 21.2272C40.5703 21.0787 40.2878 21.0002 39.9999 21.0002C39.712 21.0002 39.4295 21.0787 39.1829 21.2272C37.7165 22.002 36.0819 22.4041 34.4234 22.3979C32.7648 22.3918 31.1333 21.9776 29.6726 21.192C29.3726 21.0289 29.0278 20.9673 28.6898 21.0162C28.3518 21.0652 28.0387 21.2221 27.7972 21.4635L23.0472 26.2135C22.9001 26.3606 22.7834 26.5352 22.7038 26.7273C22.6242 26.9194 22.5832 27.1254 22.5833 27.3334V44.75C22.5833 44.9874 22.6367 45.2218 22.7395 45.4359C22.8422 45.6499 22.9918 45.8381 23.177 45.9866L39.0103 58.6533C39.2912 58.8781 39.6402 59.0006 39.9999 59.0006C40.3597 59.0006 40.7087 58.8781 40.9895 58.6533L56.8228 45.9866C57.0081 45.8381 57.1576 45.6499 57.2604 45.4359C57.3631 45.2218 57.4165 44.9874 57.4166 44.75V27.3334C57.4166 27.1254 57.3756 26.9194 57.296 26.7273C57.2164 26.5352 57.0998 26.3606 56.9527 26.2135Z" fill="#E6F9FE"/>
<path d="M31.0937 42.8199C30.9083 42.6715 30.7587 42.4833 30.6559 42.2693C30.5532 42.0552 30.4998 41.8208 30.4999 41.5834V24.1667C30.5 23.7468 30.6669 23.3441 30.9638 23.0473L31.9218 22.0893C31.1387 21.8819 30.3835 21.5806 29.6726 21.192C29.3726 21.0289 29.0278 20.9673 28.6898 21.0162C28.3518 21.0652 28.0387 21.2221 27.7972 21.4635L23.0472 26.2135C22.9001 26.3606 22.7834 26.5352 22.7038 26.7273C22.6242 26.9194 22.5832 27.1254 22.5833 27.3334V44.75C22.5833 44.9874 22.6367 45.2218 22.7395 45.4359C22.8422 45.6499 22.9918 45.8381 23.177 45.9866L39.0103 58.6533C39.2912 58.8781 39.6402 59.0006 39.9999 59.0006C40.3597 59.0006 40.7087 58.8781 40.9895 58.6533L45.9374 54.6949L31.0937 42.8199Z" fill="#CCF2FE"/>
<path d="M52.2027 28.1812L51.0528 27.0333C50.8539 26.8348 50.6059 26.6927 50.3341 26.6216C50.0623 26.5504 49.7765 26.5528 49.5059 26.6284C46.5474 27.4361 43.4119 27.3117 40.5268 26.2721C40.1858 26.1518 39.814 26.1518 39.4731 26.2721C36.5879 27.3116 33.4524 27.436 30.494 26.6284C30.2234 26.5528 29.9376 26.5505 29.6658 26.6216C29.394 26.6928 29.1459 26.8348 28.9471 27.0333L27.7972 28.1812C27.6501 28.3282 27.5334 28.5028 27.4538 28.695C27.3742 28.8871 27.3332 29.093 27.3333 29.301V42.4668C27.3332 42.7043 27.3865 42.9387 27.4893 43.1528C27.592 43.3668 27.7416 43.555 27.927 43.7034L39.0103 52.5701C39.2912 52.7949 39.6402 52.9174 39.9999 52.9174C40.3597 52.9174 40.7087 52.7949 40.9895 52.5701L52.0728 43.7034C52.2582 43.555 52.4078 43.3668 52.5106 43.1528C52.6134 42.9387 52.6667 42.7043 52.6666 42.4668V29.301C52.6666 29.093 52.6256 28.8871 52.546 28.695C52.4664 28.5028 52.3498 28.3282 52.2027 28.1812Z" fill="url(#paint0_linear_28_7894)"/>
<path d="M38.4167 43.1667C38.2088 43.167 38.0029 43.1261 37.8108 43.0466C37.6187 42.967 37.4442 42.8503 37.2973 42.7032L34.1306 39.5365L36.3694 37.2969L38.4167 39.3442L43.6306 34.1302L45.8694 36.3699L39.5361 42.7032C39.3892 42.8503 39.2147 42.967 39.0226 43.0466C38.8305 43.1261 38.6246 43.167 38.4167 43.1667Z" fill="white"/>
</g>
</g>
<rect x="2" y="2" width="76" height="76" rx="38" stroke="white" stroke-opacity="0.06" stroke-width="4"/>
<defs>
<linearGradient id="paint0_linear_28_7894" x1="30.0471" y1="45.837" x2="49.9528" y2="25.9313" gradientUnits="userSpaceOnUse">
<stop stop-color="#34CDFA"/>
<stop offset="1" stop-color="#E8D9F1"/>
</linearGradient>
<clipPath id="clip0_28_7894">
<rect width="38" height="38" fill="white" transform="translate(21 21)"/>
</clipPath>
</defs>
</svg>
