<svg width="235" height="177" viewBox="0 0 235 177" fill="none" xmlns="http://www.w3.org/2000/svg">
<path d="M28.1644 48L56.3288 64.2607V96.7822L28.1644 113.043L0 96.7822V64.2607L28.1644 48Z" fill="white"/>
<path d="M116.164 74.9045L160 100.213V150.83L116.164 176.138L72.3289 150.83V100.213L116.164 74.9045Z" fill="white"/>
<path d="M76.8356 0L97.6712 12.0294V36.0883L76.8356 48.1177L56 36.0883V12.0294L76.8356 0Z" fill="white"/>
<path d="M156.836 0L177.671 12.0294V36.0883L156.836 48.1177L136 36.0883V12.0294L156.836 0Z" fill="white"/>
<path d="M44.9459 83.7019H28.3338L26.3104 87.3198L40.589 87.3812C39.5784 89.1363 38.0916 90.6002 36.2842 91.6196C34.4769 92.639 32.4154 93.1764 30.3155 93.1757C23.8424 93.1757 18.595 88.1743 18.595 81.9998C18.595 81.6639 18.6116 81.3312 18.6418 81.0028L34.0675 81.0485L35.5851 77.4307L19.6395 77.3823C20.5701 75.4266 22.0719 73.768 23.9653 72.6049C25.8586 71.4418 28.0633 70.8235 30.3155 70.824C33.349 70.8202 36.2651 71.942 38.4465 73.952H44.8199C41.9123 69.1958 36.5041 65.9998 30.3144 65.9998C22.7369 65.9998 16.334 70.7892 14.2502 77.366L9.02335 77.3502L7 80.968L13.5689 80.9876C13.5472 81.3225 13.5347 81.6595 13.5347 81.9998C13.5347 90.8365 21.0471 97.9998 30.3144 97.9998C38.9802 97.9998 46.1066 91.7383 47 83.7025L44.9459 83.7019Z" fill="#447CD5"/>
<path d="M145.303 131.085H115.401L111.759 137.642L137.46 137.754C135.641 140.935 132.965 143.588 129.712 145.436C126.458 147.283 122.748 148.257 118.968 148.256C107.316 148.256 97.8711 139.191 97.8711 128C97.8711 127.391 97.9008 126.788 97.9552 126.193L125.721 126.276L128.453 119.718L99.7511 119.631C101.426 116.086 104.13 113.08 107.538 110.972C110.946 108.863 114.914 107.743 118.968 107.744C124.428 107.737 129.677 109.77 133.604 113.413H145.076C139.842 104.793 130.107 98.9998 118.966 98.9998C105.327 98.9998 93.8011 107.681 90.0503 119.601L80.642 119.572L77 126.13L88.824 126.165C88.785 126.772 88.7624 127.383 88.7624 128C88.7624 144.016 102.285 157 118.966 157C134.564 157 147.392 145.651 149 131.086L145.303 131.085Z" fill="#447CD5"/>
<path d="M88.2846 25.7075H77.0715L75.7057 28.1948L85.3437 28.237C84.6616 29.4437 83.658 30.4501 82.438 31.1509C81.218 31.8518 79.8265 32.2213 78.4091 32.2208C74.0398 32.2208 70.4978 28.7823 70.4978 24.5374C70.4978 24.3064 70.509 24.0776 70.5294 23.8519L80.9417 23.8833L81.9661 21.396L71.2028 21.3628C71.831 20.0183 72.8447 18.878 74.1227 18.0784C75.4007 17.2787 76.8889 16.8536 78.4091 16.8539C80.4567 16.8514 82.4251 17.6226 83.8976 19.0045H88.1996C86.2369 15.7346 82.5864 13.5374 78.4083 13.5374C73.2936 13.5374 68.9716 16.83 67.565 21.3516L64.0369 21.3407L62.6711 23.828L67.1051 23.8414C67.0905 24.0717 67.0821 24.3034 67.0821 24.5374C67.0821 30.6125 72.1529 35.5374 78.4083 35.5374C84.2578 35.5374 89.0681 31.2326 89.6711 25.7079L88.2846 25.7075Z" fill="#447CD5"/>
<path d="M168.613 26.17H157.4L156.035 28.6573L165.673 28.6995C164.99 29.9062 163.987 30.9126 162.767 31.6134C161.547 32.3142 160.155 32.6837 158.738 32.6832C154.369 32.6832 150.827 29.2448 150.827 24.9998C150.827 24.7689 150.838 24.5401 150.858 24.3144L161.271 24.3458L162.295 21.8585L151.532 21.8253C152.16 20.4807 153.174 19.3405 154.452 18.5408C155.73 17.7412 157.218 17.3161 158.738 17.3164C160.786 17.3138 162.754 18.0851 164.226 19.4669H168.528C166.566 16.1971 162.915 13.9998 158.737 13.9998C153.622 13.9998 149.3 17.2925 147.894 21.814L144.366 21.8032L143 24.2905L147.434 24.3039C147.419 24.5341 147.411 24.7659 147.411 24.9998C147.411 31.075 152.482 35.9998 158.737 35.9998C164.587 35.9998 169.397 31.6951 170 26.1704L168.613 26.17Z" fill="#447CD5"/>
<path d="M206.164 60.9998L234.329 77.2606V109.782L206.164 126.043L178 109.782V77.2606L206.164 60.9998Z" fill="white"/>
<path d="M222.946 96.2551H206.334L204.31 99.986L218.589 100.049C217.578 101.859 216.092 103.369 214.284 104.42C212.477 105.471 210.415 106.026 208.316 106.025C201.842 106.025 196.595 100.867 196.595 94.4998C196.595 94.1534 196.612 93.8103 196.642 93.4717L212.067 93.5188L213.585 89.7879L197.64 89.738C198.57 87.7212 200.072 86.0108 201.965 84.8113C203.859 83.6119 206.063 82.9743 208.316 82.9747C211.349 82.9708 214.265 84.1277 216.447 86.2005H222.82C219.912 81.2957 214.504 77.9998 208.314 77.9998C200.737 77.9998 194.334 82.9388 192.25 89.7212L187.023 89.7049L185 93.4358L191.569 93.456C191.547 93.8013 191.535 94.1489 191.535 94.4998C191.535 103.613 199.047 111 208.314 111C216.98 111 224.107 104.543 225 96.2557L222.946 96.2551Z" fill="#447CD5"/>
</svg>
