<?xml version="1.0" encoding="utf-8"?>
<!-- Generator: Adobe Illustrator 26.0.2, SVG Export Plug-In . SVG Version: 6.00 Build 0)  -->
<svg version="1.1" id="Layer_1" xmlns="http://www.w3.org/2000/svg" xmlns:xlink="http://www.w3.org/1999/xlink" x="0px" y="0px"
	 viewBox="0 0 249.7 232.2" style="enable-background:new 0 0 249.7 232.2;" xml:space="preserve">
<style type="text/css">
	.st0{fill:#F0F5F6;}
	.st1{fill-rule:evenodd;clip-rule:evenodd;fill:#78B6FF;stroke:#78B6FF;stroke-width:1.3022;stroke-linejoin:round;}
	.st2{fill-rule:evenodd;clip-rule:evenodd;fill:#2D89F4;stroke:#2D89F4;stroke-width:1.3022;stroke-linejoin:round;}
	.st3{fill-rule:evenodd;clip-rule:evenodd;fill:#9AC8FF;stroke:#9AC8FF;stroke-width:1.3022;stroke-linejoin:round;}
	.st4{fill-rule:evenodd;clip-rule:evenodd;fill:#508CD1;}
	.st5{fill-rule:evenodd;clip-rule:evenodd;fill:#447CD5;}
	.st6{fill:#447CD5;}
</style>
<g>
	<path d="M167.8,0l37.8,21.8v43.7l-37.8,21.8l-37.8-21.8V21.8L167.8,0z"/>
</g>
<path class="st0" d="M167.8,0l37.8,21.8v43.7l-37.8,21.8l-37.8-21.8V21.8L167.8,0z"/>
<path class="st1" d="M146.2,35.5v24.4l21.4,12.3V46.6L146.2,35.5z"/>
<path class="st2" d="M188.9,35.5v24.4l-21.4,12.3V46.6L188.9,35.5z"/>
<path class="st3" d="M188.9,35.5l-21.4,11.1l-21.3-11.1L167.6,24L188.9,35.5z"/>
<path class="st4" d="M160.2,31.5l12.7,7.1l1.6-1l-12.6-6.9L160.2,31.5z"/>
<path class="st5" d="M164,11.9V27l9,4.8V16.6L164,11.9z"/>
<g>
	<path d="M79.4,0l37.8,21.8v43.7L79.4,87.4L41.5,65.5V21.8L79.4,0z"/>
</g>
<path class="st0" d="M79.4,0l37.8,21.8v43.7L79.4,87.4L41.5,65.5V21.8L79.4,0z"/>
<path class="st1" d="M57.8,35.5v24.4l21.4,12.3V46.6L57.8,35.5z"/>
<path class="st2" d="M100.5,35.5v24.4L79.1,72.3V46.6L100.5,35.5z"/>
<path class="st3" d="M100.5,35.5L79.1,46.6L57.8,35.5L79.2,24L100.5,35.5z"/>
<path class="st4" d="M71.8,31.5l12.7,7.1l1.6-1l-12.6-6.9L71.8,31.5z"/>
<path class="st5" d="M75.6,11.9V27l9,4.8V16.6L75.6,11.9z"/>
<g>
	<path d="M209.3,72.4l37.8,21.8V138l-37.8,21.8L171.5,138V94.3L209.3,72.4z"/>
</g>
<path class="st0" d="M209.3,72.4l37.8,21.8V138l-37.8,21.8L171.5,138V94.3L209.3,72.4z"/>
<path class="st1" d="M187.8,108v24.4l21.4,12.3V119L187.8,108z"/>
<path class="st2" d="M230.4,108v24.4L209,144.7V119L230.4,108z"/>
<path class="st3" d="M230.4,108L209,119L187.8,108l21.4-11.6L230.4,108z"/>
<path class="st4" d="M201.8,103.9l12.7,7.1l1.6-1l-12.6-6.9L201.8,103.9z"/>
<path class="st5" d="M205.5,84.4v15.1l9,4.8V89L205.5,84.4z"/>
<g>
	<path d="M123,71.4l37.8,21.8v43.7L123,158.7l-37.8-21.8V93.2L123,71.4z"/>
</g>
<path class="st0" d="M123,71.4l37.8,21.8v43.7L123,158.7l-37.8-21.8V93.2L123,71.4z"/>
<path class="st1" d="M101.5,106.9v24.4l21.4,12.3V118L101.5,106.9z"/>
<path class="st2" d="M144.1,106.9v24.4l-21.4,12.3V118L144.1,106.9z"/>
<path class="st3" d="M144.1,106.9L122.8,118l-21.3-11.1l21.4-11.6L144.1,106.9z"/>
<path class="st4" d="M115.5,102.9l12.7,7.1l1.6-1l-12.6-6.9L115.5,102.9z"/>
<path class="st5" d="M119.3,83.3v15.1l9,4.8V88L119.3,83.3z"/>
<g>
	<path d="M166.7,144.8l37.8,21.8v43.7l-37.8,21.8l-37.8-21.8v-43.7L166.7,144.8z"/>
</g>
<path class="st0" d="M166.7,144.8l37.8,21.8v43.7l-37.8,21.8l-37.8-21.8v-43.7L166.7,144.8z"/>
<path class="st3" d="M145.2,180.4v24.4l21.4,12.3v-25.6L145.2,180.4z"/>
<path class="st2" d="M187.8,180.4v24.4l-21.4,12.3v-25.6L187.8,180.4z"/>
<path class="st3" d="M187.8,180.4l-21.4,11.1l-21.3-11.1l21.4-11.6L187.8,180.4z"/>
<path class="st4" d="M159.2,176.4l12.7,7.1l1.6-1l-12.6-6.9L159.2,176.4z"/>
<path class="st5" d="M162.9,156.8v15.1l9,4.8v-15.2L162.9,156.8z"/>
<g>
	<path d="M78.3,144.8l37.8,21.8v43.7l-37.8,21.8l-37.8-21.8v-43.7L78.3,144.8z"/>
</g>
<path class="st0" d="M78.3,144.8l37.8,21.8v43.7l-37.8,21.8l-37.8-21.8v-43.7L78.3,144.8z"/>
<path class="st3" d="M56.8,180.4v24.4l21.4,12.3v-25.6L56.8,180.4z"/>
<path class="st2" d="M99.4,180.4v24.4L78,217.1v-25.6L99.4,180.4z"/>
<path class="st3" d="M99.4,180.4L78,191.5l-21.3-11.1l21.4-11.6L99.4,180.4z"/>
<path class="st4" d="M70.8,176.4l12.7,7.1l1.6-1l-12.6-6.9L70.8,176.4z"/>
<path class="st5" d="M74.5,156.8v15.1l9,4.8v-15.2L74.5,156.8z"/>
<g>
	<path d="M37.8,74.6l37.8,21.8v43.7l-37.8,21.8L0,140.1V96.4L37.8,74.6z"/>
</g>
<path class="st0" d="M37.8,74.6l37.8,21.8v43.7l-37.8,21.8L0,140.1V96.4L37.8,74.6z"/>
<path class="st1" d="M16.3,110.1v24.4l21.4,12.3v-25.6L16.3,110.1z"/>
<path class="st2" d="M58.9,110.1v24.4l-21.4,12.3v-25.6L58.9,110.1z"/>
<path class="st3" d="M58.9,110.1l-21.4,11.1l-21.3-11.1l21.4-11.6L58.9,110.1z"/>
<path class="st4" d="M30.3,106.1l12.7,7.1l1.6-1l-12.6-6.9L30.3,106.1z"/>
<path class="st5" d="M34.1,86.5v15.1l9,4.8V91.2L34.1,86.5z"/>
<path class="st6" d="M32,137.4v-2c0-0.2-0.1-0.4-0.3-0.7c-0.2-0.3-0.3-0.4-0.3-0.4l-2.9-3.1c0.2-0.1,0.4-0.2,0.6-0.3
	c0.2-0.2,0.3-0.4,0.4-0.6c0.1-0.2,0.2-0.5,0.2-0.7c0-0.3,0.1-0.5,0.1-0.7v-1.7c0-0.3-0.1-0.6-0.3-1c-0.2-0.4-0.4-0.8-0.7-1.2
	c-0.3-0.4-0.6-0.8-1-1.1c-0.4-0.4-0.7-0.6-1.1-0.8c-0.4-0.2-0.7-0.3-1.1-0.4c-0.4-0.1-0.7-0.1-1,0c-0.3,0.1-0.5,0.2-0.7,0.4
	c-0.2,0.2-0.3,0.4-0.3,0.7v1.7c0,0.2,0,0.4,0.1,0.7c0,0.3,0.1,0.6,0.2,1c0.1,0.3,0.2,0.7,0.4,1.1c0.2,0.4,0.4,0.7,0.6,1l-2.9-0.2
	c0,0-0.1,0-0.3,0s-0.3,0.1-0.3,0.3v2L32,137.4z"/>
<path class="st6" d="M160.8,206.6v-2c0-0.2-0.1-0.4-0.3-0.7c-0.2-0.3-0.3-0.4-0.3-0.4l-2.9-3.1c0.2-0.1,0.4-0.2,0.6-0.3
	c0.2-0.2,0.3-0.4,0.4-0.6c0.1-0.2,0.2-0.5,0.2-0.7c0-0.3,0.1-0.5,0.1-0.7v-1.7c0-0.3-0.1-0.6-0.3-1c-0.2-0.4-0.4-0.8-0.7-1.2
	c-0.3-0.4-0.6-0.8-1-1.1c-0.4-0.4-0.7-0.6-1.1-0.8c-0.4-0.2-0.7-0.3-1.1-0.4c-0.4-0.1-0.7-0.1-1,0c-0.3,0.1-0.5,0.2-0.7,0.4
	c-0.2,0.2-0.3,0.4-0.3,0.7v1.7c0,0.2,0,0.4,0.1,0.7c0,0.3,0.1,0.6,0.2,1c0.1,0.3,0.2,0.7,0.4,1.1c0.2,0.4,0.4,0.7,0.6,1l-2.9-0.2
	c0,0-0.1,0-0.3,0c-0.2,0-0.3,0.1-0.3,0.3v2L160.8,206.6z"/>
<path class="st6" d="M72.4,206.6v-2c0-0.2-0.1-0.4-0.3-0.7c-0.2-0.3-0.3-0.4-0.3-0.4l-2.9-3.1c0.2-0.1,0.4-0.2,0.6-0.3
	c0.2-0.2,0.3-0.4,0.4-0.6c0.1-0.2,0.2-0.5,0.2-0.7c0-0.3,0.1-0.5,0.1-0.7v-1.7c0-0.3-0.1-0.6-0.3-1c-0.2-0.4-0.4-0.8-0.7-1.2
	c-0.3-0.4-0.6-0.8-1-1.1c-0.4-0.4-0.7-0.6-1.1-0.8c-0.4-0.2-0.7-0.3-1.1-0.4c-0.4-0.1-0.7-0.1-1,0c-0.3,0.1-0.5,0.2-0.7,0.4
	c-0.2,0.2-0.3,0.4-0.3,0.7v1.7c0,0.2,0,0.4,0.1,0.7c0,0.3,0.1,0.6,0.2,1c0.1,0.3,0.2,0.7,0.4,1.1c0.2,0.4,0.4,0.7,0.6,1l-2.9-0.2
	c0,0-0.1,0-0.3,0c-0.2,0-0.3,0.1-0.3,0.3v2L72.4,206.6z"/>
<path class="st6" d="M161.9,62.8v-2c0-0.2-0.1-0.4-0.3-0.7c-0.2-0.3-0.3-0.4-0.3-0.4l-2.9-3.1c0.2-0.1,0.4-0.2,0.6-0.3
	c0.2-0.2,0.3-0.4,0.4-0.6c0.1-0.2,0.2-0.5,0.2-0.7c0-0.3,0.1-0.5,0.1-0.7v-1.7c0-0.3-0.1-0.6-0.3-1c-0.2-0.4-0.4-0.8-0.7-1.2
	c-0.3-0.4-0.6-0.8-1-1.1c-0.4-0.4-0.7-0.6-1.1-0.8s-0.7-0.3-1.1-0.4c-0.4-0.1-0.7-0.1-1,0c-0.3,0.1-0.5,0.2-0.7,0.4
	c-0.2,0.2-0.3,0.4-0.3,0.7v1.7c0,0.2,0,0.4,0.1,0.7c0,0.3,0.1,0.6,0.2,1c0.1,0.3,0.2,0.7,0.4,1.1c0.2,0.4,0.4,0.7,0.6,1l-2.9-0.2
	c0,0-0.1,0-0.3,0c-0.2,0-0.3,0.1-0.3,0.3v2L161.9,62.8z"/>
<path class="st6" d="M73.5,62.8v-2c0-0.2-0.1-0.4-0.3-0.7c-0.2-0.3-0.3-0.4-0.3-0.4l-2.9-3.1c0.2-0.1,0.4-0.2,0.6-0.3
	c0.2-0.2,0.3-0.4,0.4-0.6c0.1-0.2,0.2-0.5,0.2-0.7c0-0.3,0.1-0.5,0.1-0.7v-1.7c0-0.3-0.1-0.6-0.3-1c-0.2-0.4-0.4-0.8-0.7-1.2
	c-0.3-0.4-0.6-0.8-1-1.1c-0.4-0.4-0.7-0.6-1.1-0.8c-0.4-0.2-0.7-0.3-1.1-0.4c-0.4-0.1-0.7-0.1-1,0c-0.3,0.1-0.5,0.2-0.7,0.4
	c-0.2,0.2-0.3,0.4-0.3,0.7v1.7c0,0.2,0,0.4,0.1,0.7c0,0.3,0.1,0.6,0.2,1c0.1,0.3,0.2,0.7,0.4,1.1c0.2,0.4,0.4,0.7,0.6,1l-2.9-0.2
	c0,0-0.1,0-0.3,0s-0.3,0.1-0.3,0.3v2L73.5,62.8z"/>
<path class="st6" d="M117.2,134.2v-2c0-0.2-0.1-0.4-0.3-0.7c-0.2-0.3-0.3-0.4-0.3-0.4l-2.9-3.1c0.2-0.1,0.4-0.2,0.6-0.3
	c0.2-0.2,0.3-0.4,0.4-0.6c0.1-0.2,0.2-0.5,0.2-0.7c0-0.3,0.1-0.5,0.1-0.7v-1.7c0-0.3-0.1-0.6-0.3-1c-0.2-0.4-0.4-0.8-0.7-1.2
	c-0.3-0.4-0.6-0.8-1-1.1c-0.4-0.4-0.7-0.6-1.1-0.8c-0.4-0.2-0.7-0.4-1.1-0.4c-0.4-0.1-0.7-0.1-1,0c-0.3,0.1-0.5,0.2-0.7,0.4
	c-0.2,0.2-0.3,0.4-0.3,0.7v1.7c0,0.2,0,0.4,0.1,0.7c0,0.3,0.1,0.6,0.2,1c0.1,0.3,0.2,0.7,0.4,1.1c0.2,0.4,0.4,0.7,0.6,1l-2.9-0.2
	c0,0-0.1,0-0.3,0c-0.2,0-0.3,0.1-0.3,0.3v2L117.2,134.2z"/>
<path class="st6" d="M203.4,135.3v-2c0-0.2-0.1-0.4-0.3-0.7c-0.2-0.3-0.3-0.4-0.3-0.4l-2.9-3.1c0.2-0.1,0.4-0.2,0.6-0.3
	c0.2-0.2,0.3-0.4,0.4-0.6c0.1-0.2,0.2-0.5,0.2-0.7c0-0.3,0.1-0.5,0.1-0.7V125c0-0.3-0.1-0.6-0.3-1c-0.2-0.4-0.4-0.8-0.7-1.2
	c-0.3-0.4-0.6-0.8-1-1.1c-0.4-0.4-0.7-0.6-1.1-0.8c-0.4-0.2-0.7-0.4-1.1-0.4c-0.4-0.1-0.7-0.1-1,0c-0.3,0.1-0.5,0.2-0.7,0.4
	c-0.2,0.2-0.3,0.4-0.3,0.7v1.7c0,0.2,0,0.4,0.1,0.7c0,0.3,0.1,0.6,0.2,1c0.1,0.3,0.2,0.7,0.4,1.1c0.2,0.4,0.4,0.7,0.6,1l-2.9-0.2
	c0,0-0.1,0-0.3,0s-0.3,0.1-0.3,0.3v2L203.4,135.3z"/>
</svg>
