<svg width="72" height="75" viewBox="0 0 72 75" fill="none" xmlns="http://www.w3.org/2000/svg">
<path d="M1.68687e-07 0V18C-0.00030533 19.737 0.414348 21.4489 1.2093 22.992C2.00425 24.5351 3.15637 25.8645 4.569 26.869L72 75V61.0951C72.0002 58.5178 71.3942 55.9769 70.2311 53.6787C69.0681 51.3805 67.381 49.3899 65.3067 47.869L1.68687e-07 0Z" fill="white"/>
<path d="M51.6923 1.82932V19.1443C51.6921 20.8179 52.0975 22.4672 52.8747 23.9544C53.652 25.4416 54.7785 26.7236 56.16 27.693L72 36.5853V23.2008C72.0012 20.7197 71.409 18.2734 70.2717 16.0611C69.1344 13.8487 67.4841 11.9329 65.4551 10.4696L51.6923 1.82932Z" fill="white"/>
<path d="M1.68687e-07 38.4147V56.6531C-0.000298558 58.4131 0.405225 60.1474 1.18255 61.711C1.95989 63.2746 3.08642 64.6216 4.46773 65.6395L20.3077 75V60.911C20.3079 58.2995 19.7154 55.7249 18.5782 53.3963C17.4409 51.0676 15.7911 49.0508 13.7628 47.5097L1.68687e-07 38.4147Z" fill="white"/>
</svg>
