<svg width="71" height="55" viewBox="0 0 71 55" fill="none" xmlns="http://www.w3.org/2000/svg">
<mask id="mask0_296_21601" style="mask-type:luminance" maskUnits="userSpaceOnUse" x="0" y="0" width="71" height="55">
<path d="M71 0H0V55H71V0Z" fill="white"/>
</mask>
<g mask="url(#mask0_296_21601)">
<path d="M60.1045 4.89621C55.5792 2.81981 50.7265 1.29001 45.6527 0.413832C45.5603 0.396922 45.468 0.439181 45.4204 0.523701C44.7963 1.63371 44.105 3.08181 43.6209 4.22001C38.1637 3.40301 32.7345 3.40301 27.3892 4.22001C26.905 3.05651 26.1886 1.63371 25.5617 0.523701C25.5141 0.442001 25.4218 0.399742 25.3294 0.413832C20.2584 1.28721 15.4057 2.81701 10.8776 4.89621C10.8384 4.91311 10.8048 4.94131 10.7825 4.97791C1.57795 18.7293 -0.943561 32.1427 0.293408 45.3898C0.299005 45.4546 0.335386 45.5166 0.385761 45.556C6.45866 50.0158 12.3413 52.7233 18.1147 54.5179C18.2071 54.5461 18.305 54.5123 18.3638 54.4362C19.7295 52.5712 20.9469 50.6047 21.9907 48.5367C22.0523 48.4156 21.9935 48.2719 21.8676 48.224C19.9366 47.4915 18.0979 46.5984 16.3292 45.5842C16.1893 45.5025 16.1781 45.3024 16.3068 45.2066C16.679 44.9277 17.0513 44.6375 17.4067 44.3445C17.471 44.291 17.5606 44.2797 17.6362 44.3135C29.2558 49.6186 41.8354 49.6186 53.3179 44.3135C53.3935 44.2769 53.4831 44.2882 53.5502 44.3417C53.9057 44.6347 54.2779 44.9277 54.6529 45.2066C54.7816 45.3024 54.7732 45.5025 54.6333 45.5842C52.8646 46.6181 51.0259 47.4915 49.0921 48.2212C48.9662 48.2691 48.9102 48.4156 48.9718 48.5367C50.038 50.6018 51.2554 52.5683 52.5959 54.4334C52.6519 54.5123 52.7526 54.5461 52.845 54.5179C58.6464 52.7233 64.529 50.0158 70.6019 45.556C70.6551 45.5166 70.6887 45.4574 70.6943 45.3926C72.1747 30.0775 68.2147 16.7741 60.1968 4.98071C60.1772 4.94131 60.1437 4.91311 60.1045 4.89621ZM23.7259 37.3237C20.2276 37.3237 17.3451 34.112 17.3451 30.1677C17.3451 26.2234 20.1717 23.0117 23.7259 23.0117C27.308 23.0117 30.1626 26.2516 30.1066 30.1677C30.1066 34.112 27.28 37.3237 23.7259 37.3237ZM47.3178 37.3237C43.8196 37.3237 40.9371 34.112 40.9371 30.1677C40.9371 26.2234 43.7636 23.0117 47.3178 23.0117C50.9 23.0117 53.7545 26.2516 53.6986 30.1677C53.6986 34.112 50.9 37.3237 47.3178 37.3237Z" fill="white"/>
</g>
</svg>
