<svg width="67" height="56" viewBox="0 0 67 56" fill="none" xmlns="http://www.w3.org/2000/svg">
<path d="M4.08924 24.0187L43.8205 7.64875C47.7424 5.94355 61.043 0.486897 61.043 0.486897C61.043 0.486897 67.1817 -1.90039 66.6702 3.8973C66.4997 6.28459 65.1355 14.6401 63.7713 23.6777L59.5083 50.4493C59.5083 50.4493 59.1673 54.3713 56.2684 55.0534C53.3696 55.7355 48.595 52.6661 47.7424 51.984C47.0603 51.4725 34.9534 43.799 30.5199 40.0476C29.3262 39.0245 27.9621 36.9782 30.6904 34.591C36.8291 28.9638 44.1615 21.9725 48.595 17.5389C50.6413 15.4927 52.6875 10.7181 44.1615 16.5158L20.1181 32.7152C20.1181 32.7152 17.3898 34.4204 12.2742 32.8857C7.1586 31.3511 1.19039 29.3048 1.19039 29.3048C1.19039 29.3048 -2.9021 26.747 4.08924 24.0187Z" fill="white"/>
</svg>
