<svg width="76" height="76" viewBox="0 0 76 76" fill="none" xmlns="http://www.w3.org/2000/svg">
<path d="M71.3688 21.1362C70.5772 18.1279 68.2022 15.7529 65.1938 14.9216C59.7709 13.457 38.0001 13.457 38.0001 13.457C38.0001 13.457 16.2292 13.457 10.7667 14.9216C7.75841 15.7133 5.423 18.0883 4.59175 21.1362C3.16675 26.5987 3.16675 37.9987 3.16675 37.9987C3.16675 37.9987 3.16675 49.3987 4.63133 54.8612C5.423 57.8695 7.798 60.2445 10.8063 61.0758C16.2292 62.5404 38.0001 62.5404 38.0001 62.5404C38.0001 62.5404 59.7709 62.5404 65.2334 61.0758C68.2417 60.2841 70.5772 57.9091 71.4084 54.8612C72.8334 49.3987 72.8334 37.9987 72.8334 37.9987C72.8334 37.9987 72.8334 26.5987 71.3688 21.1362Z" fill="white"/>
<path d="M30.875 48.3706V27.6289L49.0833 37.9997L30.875 48.3706Z" fill="#051122"/>
</svg>
