<svg width="449" height="491" viewBox="0 0 449 491" fill="none" xmlns="http://www.w3.org/2000/svg">
<g style="mix-blend-mode:lighten">
<path d="M86.9783 194.659V172.18L53.3282 152.761C18.9721 132.989 18.9721 100.625 53.3282 80.8528L173.81 11.1805L154.396 0L33.797 69.5546C-11.2658 95.5641 -11.2658 137.932 33.797 164.059L86.9783 194.659Z" fill="url(#paint0_linear_297_28457)"/>
</g>
<path d="M162.632 145.354L238.404 101.574L162.632 57.793L86.9782 101.574L162.632 145.354Z" fill="url(#paint1_radial_297_28457)"/>
<path d="M162.632 362.963V145.355L86.9783 101.574V362.963H162.632Z" fill="url(#paint2_linear_297_28457)" style="mix-blend-mode:lighten"/>
<path style="mix-blend-mode:lighten" d="M162.632 362.963V145.355L238.403 101.574V362.963H162.632Z" fill="url(#paint3_linear_297_28457)"/>
<path d="M163.102 433.812L161.691 145.943L86.978 101.574L162.632 144.06L238.403 101.574L163.691 145.826L163.102 433.812Z" fill="url(#paint4_linear_297_28457)"/>
<g opacity="0.2">
<path d="M109.804 259.628L83.0959 244.211L109.804 228.676L136.63 244.211L109.804 259.628Z" fill="url(#paint5_radial_297_28457)"/>
<path style="mix-blend-mode:lighten" d="M109.804 461.109V259.624L136.63 244.207V461.109H109.804Z" fill="url(#paint6_linear_297_28457)"/>
<path style="mix-blend-mode:lighten" d="M109.804 461.109V259.624L83.0959 244.207V461.109H109.804Z" fill="url(#paint7_linear_297_28457)"/>
<path d="M109.687 461.109L110.157 259.86L136.63 244.207L109.804 259.271L83.0961 244.207L109.451 259.86L109.687 461.109Z" fill="url(#paint8_linear_297_28457)"/>
</g>
<g opacity="0.2">
<path d="M322.549 152.952L295.841 137.535L322.549 122L349.375 137.535L322.549 152.952Z" fill="url(#paint9_radial_297_28457)"/>
<path style="mix-blend-mode:lighten" d="M322.549 354.433V152.949L349.375 137.531V354.433H322.549Z" fill="url(#paint10_linear_297_28457)"/>
<path style="mix-blend-mode:lighten" d="M322.549 354.433V152.949L295.841 137.531V354.433H322.549Z" fill="url(#paint11_linear_297_28457)"/>
<path d="M322.431 354.433L322.902 153.184L349.375 137.531L322.549 152.596L295.841 137.531L322.196 153.184L322.431 354.433Z" fill="url(#paint12_linear_297_28457)"/>
</g>
<g opacity="0.2">
<path d="M421.549 232.952L394.841 217.535L421.549 202L448.375 217.535L421.549 232.952Z" fill="url(#paint13_radial_297_28457)"/>
<path style="mix-blend-mode:lighten" d="M421.549 434.433V232.949L448.375 217.531V434.433H421.549Z" fill="url(#paint14_linear_297_28457)"/>
<path style="mix-blend-mode:lighten" d="M421.549 434.433V232.949L394.841 217.531V434.433H421.549Z" fill="url(#paint15_linear_297_28457)"/>
<path d="M421.431 434.433L421.902 233.184L448.375 217.531L421.549 232.596L394.841 217.531L421.196 233.184L421.431 434.433Z" fill="url(#paint16_linear_297_28457)"/>
</g>
<path style="mix-blend-mode:lighten" d="M87.2136 194.781V379.789L83.2133 377.435V207.491C83.0739 205.345 82.4381 203.26 81.356 201.402C80.2738 199.543 78.7749 197.962 76.9774 196.781C73.5653 194.898 70.8593 196.428 70.8593 200.43V370.374L66.8589 368.02V188.19L62.9762 186.072V183.483L30.2674 164.535V161.945L87.2136 194.781Z" fill="url(#paint17_linear_297_28457)"/>
<path d="M195.341 255.507L212.048 245.738V228.085C212.048 222.318 208.636 219.729 204.283 222.2L203.106 222.906C198.753 225.378 195.341 232.086 195.341 237.735V255.507Z" fill="black"/>
<path style="mix-blend-mode:lighten" d="M212.048 245.855L411.007 360.721V363.31L386.888 349.422V352.012L383.122 349.893V488.885L379.122 486.531V357.425C379.033 355.281 378.431 353.189 377.366 351.325C376.302 349.462 374.806 347.881 373.004 346.716C369.592 344.715 366.768 346.363 366.768 350.246V479.47L362.768 477.116V338.124L359.003 335.888V333.299L329.824 316.469V319.058L326.059 316.94V464.405L322.058 462.052V324.472C321.969 322.328 321.367 320.236 320.302 318.372C319.238 316.509 317.742 314.928 315.94 313.762C312.528 311.762 309.704 313.292 309.704 317.293V454.872L305.704 452.636V305.171L301.939 302.935V300.346L272.76 283.516V286.105L268.995 283.987V479.234L264.994 476.88V291.519C264.912 289.359 264.301 287.253 263.213 285.385C262.126 283.518 260.596 281.946 258.758 280.809C255.346 278.809 252.64 280.339 252.64 284.34V469.819L248.64 467.465V272.218L244.875 269.982V267.393L212.048 248.445V245.855Z" fill="url(#paint18_linear_297_28457)"/>
<path style="mix-blend-mode:lighten" d="M195.341 255.504L394.182 370.369V372.958L370.18 359.071V361.66L366.298 359.424V491.001L362.297 488.647V366.956C362.18 364.818 361.566 362.737 360.504 360.878C359.442 359.018 357.961 357.433 356.179 356.246C352.767 354.363 349.943 355.893 349.943 359.895V481.586L345.943 479.232V347.655L342.178 345.537V342.947L313.116 326.118V328.707L309.234 326.471V479.232L305.233 476.878V334.003C305.116 331.865 304.502 329.784 303.44 327.924C302.378 326.065 300.897 324.48 299.115 323.293C295.703 321.41 292.879 322.94 292.879 326.942V469.817L288.879 467.463V314.702L285.114 312.583V309.994L256.052 293.165V295.754L252.17 293.518V473.348L248.169 470.994V301.05C248.052 298.912 247.438 296.83 246.376 294.971C245.314 293.112 243.833 291.526 242.051 290.34C238.639 288.457 235.815 289.987 235.815 293.988V463.932L231.815 461.579V281.749L228.05 279.63V277.041L195.341 258.093V255.504Z" fill="url(#paint19_linear_297_28457)"/>
<path style="mix-blend-mode:lighten" d="M195.341 236.203L212.048 245.736L411.007 360.719L394.182 370.369L195.341 255.504V236.203Z" fill="url(#paint20_linear_297_28457)"/>
<g style="mix-blend-mode:multiply">
<mask id="mask0_297_28457" style="mask-type:luminance" maskUnits="userSpaceOnUse" x="122" y="86" width="67" height="39">
<path d="M155.455 124.874C137.196 124.874 122.394 116.338 122.394 105.808C122.394 95.2782 137.196 86.7422 155.455 86.7422C173.715 86.7422 188.517 95.2782 188.517 105.808C188.517 116.338 173.715 124.874 155.455 124.874Z" fill="white"/>
</mask>
<g mask="url(#mask0_297_28457)">
<path d="M119.099 84.8555H191.811V126.824H119.099V84.8555Z" fill="white"/>
<path d="M123.946 105.867C123.931 97.1569 137.983 90.0717 155.333 90.0414C172.683 90.0111 186.76 97.0472 186.775 105.757C186.79 114.467 172.738 121.552 155.388 121.582C138.038 121.612 123.961 114.576 123.946 105.867Z" fill="white"/>
<path d="M124.064 105.866C124.048 97.1564 138.048 90.0713 155.333 90.0412C172.618 90.011 186.642 97.0472 186.657 105.757C186.672 114.467 172.673 121.552 155.388 121.582C138.103 121.612 124.079 114.576 124.064 105.866Z" fill="white"/>
<path d="M124.299 105.866C124.284 97.2211 138.178 90.1889 155.333 90.159C172.488 90.129 186.407 97.1127 186.422 105.757C186.437 114.402 172.542 121.434 155.388 121.464C138.233 121.494 124.314 114.511 124.299 105.866Z" fill="white"/>
<path d="M124.511 105.805C124.511 114.514 138.395 121.458 155.455 121.458C172.515 121.458 186.517 114.396 186.399 105.805C186.281 97.2137 172.515 90.1523 155.455 90.1523C138.395 90.1523 124.511 97.2137 124.511 105.805Z" fill="white"/>
<path d="M124.629 105.801C124.629 114.392 138.512 121.336 155.455 121.336C172.398 121.336 186.281 114.392 186.281 105.801C186.281 97.2093 172.515 90.2656 155.455 90.2656C138.395 90.2656 124.629 97.327 124.629 105.801Z" fill="white"/>
<path d="M124.652 105.866C124.637 97.3509 138.374 90.4244 155.334 90.3948C172.293 90.3651 186.054 97.2437 186.069 105.758C186.084 114.273 172.347 121.2 155.387 121.229C138.427 121.259 124.667 114.38 124.652 105.866Z" fill="white"/>
<path d="M124.77 105.865C124.755 97.3505 138.439 90.424 155.334 90.3945C172.229 90.365 185.937 97.2437 185.952 105.758C185.966 114.273 172.282 121.2 155.388 121.229C138.493 121.259 124.785 114.38 124.77 105.865Z" fill="white"/>
<path d="M125.911 105.607C125.911 97.1568 139.502 90.3069 156.267 90.3069C173.032 90.3069 186.623 97.1568 186.623 105.607C186.623 114.056 173.032 120.906 156.267 120.906C139.502 120.906 125.911 114.056 125.911 105.607Z" fill="#FEFEFF"/>
<path d="M125.122 105.868C125.108 97.4187 138.634 90.5452 155.334 90.516C172.034 90.4869 185.584 97.3131 185.598 105.763C185.613 114.213 172.087 121.086 155.387 121.115C138.687 121.144 125.137 114.318 125.122 105.868Z" fill="#FEFEFE"/>
<path d="M125.24 105.865C125.226 97.4798 138.699 90.6591 155.334 90.6301C171.969 90.601 185.466 97.3747 185.481 105.759C185.495 114.144 172.022 120.965 155.387 120.994C138.752 121.023 125.255 114.249 125.24 105.865Z" fill="#FEFEFE"/>
<path d="M125.358 105.869C125.343 97.5488 138.764 90.7809 155.334 90.752C171.904 90.723 185.349 97.4441 185.363 105.764C185.378 114.084 171.957 120.852 155.387 120.881C138.817 120.909 125.372 114.188 125.358 105.869Z" fill="#FEFEFE"/>
<path d="M125.475 105.868C125.461 97.5484 138.829 90.7806 155.334 90.7518C171.839 90.723 185.231 97.4441 185.245 105.764C185.26 114.084 171.892 120.851 155.387 120.88C138.882 120.909 125.49 114.188 125.475 105.868Z" fill="#FEFEFE"/>
<path d="M125.711 105.864C125.696 97.6092 138.959 90.8942 155.334 90.8657C171.709 90.8371 184.996 97.5057 185.01 105.76C185.024 114.015 171.762 120.73 155.386 120.759C139.011 120.787 125.725 114.119 125.711 105.864Z" fill="#FDFDFE"/>
<path d="M125.828 105.864C125.814 97.6088 139.024 90.8939 155.334 90.8654C171.644 90.837 184.878 97.5057 184.892 105.76C184.907 114.015 171.697 120.73 155.386 120.759C139.076 120.787 125.843 114.118 125.828 105.864Z" fill="#FDFDFE"/>
<path d="M125.946 105.864C125.932 97.6739 139.09 91.0118 155.335 90.9835C171.58 90.9551 184.761 97.5712 184.775 105.761C184.789 113.951 171.632 120.613 155.386 120.641C139.141 120.67 125.96 114.053 125.946 105.864Z" fill="#FDFDFE"/>
<path d="M126.064 105.864C126.05 97.739 139.155 91.1297 155.335 91.1014C171.515 91.0732 184.643 97.6367 184.657 105.761C184.671 113.886 171.566 120.496 155.386 120.524C139.206 120.552 126.078 113.989 126.064 105.864Z" fill="#FDFDFD"/>
<path d="M126.181 105.863C126.167 97.7386 139.219 91.1293 155.335 91.1012C171.45 91.0731 184.525 97.6367 184.539 105.761C184.553 113.886 171.501 120.495 155.386 120.524C139.271 120.552 126.195 113.988 126.181 105.863Z" fill="#FDFCFD"/>
<path d="M126.417 105.863C126.403 97.8032 139.35 91.2469 155.335 91.219C171.32 91.1911 184.29 97.7022 184.304 105.762C184.318 113.822 171.371 120.378 155.386 120.406C139.401 120.434 126.431 113.923 126.417 105.863Z" fill="#FCFCFD"/>
<path d="M126.535 105.863C126.521 97.8028 139.415 91.2466 155.335 91.2188C171.256 91.191 184.173 97.7022 184.187 105.762C184.201 113.822 171.307 120.378 155.386 120.406C139.466 120.434 126.549 113.922 126.535 105.863Z" fill="#FCFCFD"/>
<path d="M126.652 105.863C126.638 97.8679 139.48 91.3644 155.335 91.3368C171.191 91.3091 184.055 97.7677 184.069 105.762C184.083 113.757 171.241 120.261 155.386 120.288C139.531 120.316 126.666 113.857 126.652 105.863Z" fill="#FCFCFD"/>
<path d="M126.864 105.803C126.864 113.806 139.688 120.279 155.455 120.162C171.221 120.044 184.045 113.689 184.045 105.803C184.045 97.9182 171.221 91.4453 155.455 91.4453C139.688 91.4453 126.864 97.9182 126.864 105.803Z" fill="#FBFBFC"/>
<path d="M126.887 105.858C126.874 97.9287 139.61 91.4781 155.335 91.4507C171.061 91.4232 183.82 97.8293 183.834 105.759C183.847 113.689 171.111 120.139 155.386 120.167C139.66 120.194 126.901 113.788 126.887 105.858Z" fill="#FBFBFC"/>
<path d="M127.217 105.807C127.217 113.692 139.924 120.047 155.455 120.047C170.986 120.047 183.811 113.692 183.811 105.807C183.811 97.9216 171.104 91.5664 155.455 91.5664C139.807 91.5664 127.217 98.0393 127.217 105.807Z" fill="#FBFBFC"/>
<path d="M127.24 105.866C127.227 98.0663 139.806 91.7213 155.336 91.6942C170.866 91.6671 183.467 97.9681 183.481 105.768C183.494 113.568 170.916 119.913 155.385 119.94C139.855 119.967 127.254 113.666 127.24 105.866Z" fill="#FAFAFC"/>
<path d="M127.452 105.802C127.452 113.688 140.042 119.925 155.455 119.925C170.868 119.925 183.458 113.57 183.458 105.802C183.458 98.0349 170.868 91.6797 155.455 91.6797C140.042 91.6797 127.452 98.0349 127.452 105.802Z" fill="#FAFAFB"/>
<path d="M127.57 105.806C127.57 113.573 140.159 119.811 155.455 119.811C170.75 119.811 183.34 113.573 183.34 105.806C183.34 98.0383 170.868 91.8008 155.455 91.8008C140.042 91.8008 127.57 98.156 127.57 105.806Z" fill="#FAFAFB"/>
<path d="M128.5 105.604C128.5 97.8695 140.931 91.5992 156.267 91.5992C171.602 91.5992 184.034 97.8695 184.034 105.604C184.034 113.339 171.602 119.609 156.267 119.609C140.931 119.609 128.5 113.339 128.5 105.604Z" fill="#F9F9FB"/>
<path d="M127.923 105.805C127.923 113.573 140.277 119.693 155.455 119.693C170.633 119.693 183.104 113.455 183.104 105.805C183.104 98.1555 170.633 91.918 155.455 91.918C140.277 91.918 127.923 98.1555 127.923 105.805Z" fill="#F9F9FA"/>
<path d="M128.041 105.803C128.041 113.452 140.395 119.69 155.455 119.572C170.515 119.455 182.869 113.452 182.869 105.803C182.869 98.1528 170.633 91.9152 155.455 92.0329C140.277 92.1506 128.041 98.2704 128.041 105.803Z" fill="#F9F8FA"/>
<path d="M128.158 105.805C128.158 113.455 140.394 119.575 155.455 119.575C170.515 119.575 182.751 113.337 182.751 105.805C182.751 98.2727 170.515 92.0352 155.455 92.0352C140.394 92.0352 128.158 98.2727 128.158 105.805Z" fill="#F8F8FA"/>
<path d="M128.182 105.857C128.169 98.3172 140.327 92.1838 155.337 92.1576C170.347 92.1314 182.526 98.2223 182.54 105.762C182.553 113.302 170.395 119.435 155.385 119.462C140.374 119.488 128.195 113.397 128.182 105.857Z" fill="#F8F8FA"/>
<path d="M128.511 105.804C128.511 113.336 140.63 119.456 155.455 119.456C170.28 119.456 182.516 113.336 182.516 105.804C182.516 98.2722 170.397 92.1523 155.455 92.1523C140.512 92.1523 128.394 98.3899 128.511 105.804Z" fill="#F7F7F9"/>
<path d="M128.535 105.86C128.522 98.3854 140.522 92.3049 155.337 92.279C170.153 92.2532 182.174 98.2917 182.187 105.766C182.2 113.241 170.2 119.322 155.384 119.348C140.569 119.373 128.548 113.335 128.535 105.86Z" fill="#F7F7F9"/>
<path d="M128.652 105.856C128.639 98.4465 140.586 92.4188 155.337 92.3931C170.088 92.3673 182.056 98.3533 182.069 105.763C182.082 113.173 170.134 119.201 155.384 119.226C140.633 119.252 128.665 113.266 128.652 105.856Z" fill="#F6F6F9"/>
<path d="M129.676 105.607C129.676 98.197 141.581 92.1902 156.267 92.1902C170.953 92.1902 182.858 98.197 182.858 105.607C182.858 113.017 170.953 119.023 156.267 119.023C141.581 119.023 129.676 113.017 129.676 105.607Z" fill="#F6F6F8"/>
<path d="M128.982 105.807C128.982 113.221 140.865 119.106 155.455 119.106C170.045 119.106 181.928 113.104 181.928 105.807C181.928 98.51 170.045 92.5078 155.455 92.5078C140.865 92.5078 128.982 98.51 128.982 105.807Z" fill="#F5F5F8"/>
<path d="M129.217 105.807C129.217 113.221 140.983 119.106 155.455 119.106C169.927 119.106 181.81 113.104 181.81 105.807C181.81 98.51 169.927 92.5078 155.455 92.5078C140.983 92.5078 129.1 98.51 129.217 105.807Z" fill="#F5F5F8"/>
<path d="M129.241 105.863C129.228 98.5833 140.912 92.6615 155.337 92.6363C169.763 92.6111 181.468 98.4921 181.48 105.772C181.493 113.052 169.809 118.974 155.383 118.999C140.958 119.024 129.253 113.143 129.241 105.863Z" fill="#F5F5F7"/>
<path d="M129.358 105.859C129.346 98.6445 140.977 92.7754 155.338 92.7504C169.698 92.7253 181.35 98.5537 181.363 105.768C181.375 112.983 169.744 118.852 155.383 118.877C141.023 118.902 129.371 113.074 129.358 105.859Z" fill="#F4F4F7"/>
<path d="M129.476 105.859C129.463 98.6441 141.042 92.7751 155.338 92.7502C169.633 92.7252 181.232 98.5537 181.245 105.768C181.258 112.983 169.679 118.852 155.383 118.877C141.087 118.902 129.488 113.074 129.476 105.859Z" fill="#F4F4F7"/>
<path d="M129.594 105.859C129.581 98.7092 141.107 92.893 155.338 92.8681C169.569 92.8433 181.115 98.6192 181.128 105.769C181.14 112.919 169.614 118.735 155.383 118.76C141.152 118.785 129.606 113.009 129.594 105.859Z" fill="#F3F3F6"/>
<path d="M129.711 105.859C129.699 98.7088 141.172 92.8927 155.338 92.8679C169.504 92.8432 180.997 98.6192 181.01 105.769C181.022 112.919 169.549 118.735 155.383 118.76C141.217 118.784 129.724 113.008 129.711 105.859Z" fill="#F3F2F6"/>
<path d="M129.947 105.858C129.934 98.7734 141.303 93.0102 155.338 92.9857C169.374 92.9612 180.762 98.6847 180.775 105.769C180.787 112.854 169.419 118.618 155.383 118.642C141.347 118.667 129.959 112.943 129.947 105.858Z" fill="#F2F2F5"/>
<path d="M130.064 105.854C130.052 98.8346 141.368 93.1242 155.338 93.0998C169.309 93.0754 180.645 98.7463 180.657 105.766C180.669 112.786 169.354 118.496 155.383 118.521C141.412 118.545 130.077 112.874 130.064 105.854Z" fill="#F1F1F5"/>
<path d="M130.182 105.854C130.169 98.8342 141.432 93.1238 155.338 93.0996C169.244 93.0753 180.527 98.7463 180.539 105.766C180.551 112.786 169.288 118.496 155.383 118.521C141.477 118.545 130.194 112.874 130.182 105.854Z" fill="#F1F1F5"/>
<path d="M130.3 105.858C130.287 98.9032 141.498 93.2456 155.339 93.2215C169.179 93.1973 180.409 98.8157 180.422 105.77C180.434 112.725 169.223 118.383 155.383 118.407C141.542 118.431 130.312 112.813 130.3 105.858Z" fill="#F0F0F4"/>
<path d="M130.417 105.858C130.405 98.9028 141.563 93.2453 155.338 93.2213C169.114 93.1972 180.292 98.8157 180.304 105.77C180.316 112.725 169.158 118.383 155.382 118.407C141.606 118.431 130.429 112.812 130.417 105.858Z" fill="#F0F0F4"/>
<path d="M130.652 105.853C130.64 98.9636 141.693 93.359 155.338 93.3352C168.984 93.3113 180.056 98.8773 180.068 105.767C180.08 112.657 169.028 118.261 155.382 118.285C141.736 118.309 130.664 112.743 130.652 105.853Z" fill="#EFEFF3"/>
<path d="M130.77 105.853C130.758 99.0287 141.758 93.4768 155.339 93.4531C168.92 93.4294 179.939 98.9428 179.951 105.768C179.963 112.592 168.963 118.144 155.382 118.168C141.801 118.192 130.782 112.678 130.77 105.853Z" fill="#EFEFF3"/>
<path d="M130.888 105.853C130.876 99.0282 141.823 93.4765 155.339 93.4529C168.855 93.4293 179.821 98.9428 179.833 105.768C179.845 112.592 168.898 118.144 155.382 118.168C141.866 118.191 130.9 112.678 130.888 105.853Z" fill="#EEEEF2"/>
<path d="M131.005 105.853C130.993 99.0933 141.888 93.5944 155.339 93.5709C168.79 93.5474 179.704 99.0083 179.715 105.768C179.727 112.528 168.833 118.027 155.382 118.05C141.931 118.074 131.017 112.613 131.005 105.853Z" fill="#EEEDF2"/>
<path d="M131.335 105.804C131.335 112.63 142.16 118.043 155.455 118.043C168.75 118.043 179.692 112.512 179.692 105.804C179.692 99.0953 168.868 93.5638 155.455 93.6815C142.042 93.7992 131.217 99.0953 131.335 105.804Z" fill="#EDEDF2"/>
<path d="M131.358 105.856C131.346 99.1615 142.083 93.7155 155.339 93.6924C168.595 93.6692 179.351 99.0777 179.362 105.772C179.374 112.467 168.637 117.913 155.381 117.936C142.125 117.96 131.37 112.551 131.358 105.856Z" fill="#ECECF1"/>
<path d="M131.476 105.856C131.464 99.2266 142.148 93.8334 155.34 93.8104C168.531 93.7874 179.233 99.1432 179.245 105.773C179.256 112.403 168.572 117.796 155.381 117.819C142.19 117.842 131.488 112.486 131.476 105.856Z" fill="#ECECF1"/>
<path d="M131.594 105.856C131.582 99.2262 142.214 93.8331 155.34 93.8102C168.466 93.7873 179.116 99.1432 179.127 105.773C179.139 112.403 168.508 117.796 155.382 117.819C142.256 117.842 131.605 112.486 131.594 105.856Z" fill="#EBEBF0"/>
<path d="M131.806 105.809C131.806 112.399 142.395 117.695 155.455 117.695C168.515 117.695 179.104 112.399 179.104 105.809C179.104 99.2179 168.515 93.9219 155.455 93.9219C142.395 93.9219 131.806 99.3356 131.806 105.809Z" fill="#EAEAF0"/>
<path d="M131.829 105.852C131.818 99.3525 142.344 94.0649 155.34 94.0422C168.336 94.0195 178.88 99.2703 178.892 105.77C178.903 112.27 168.377 117.557 155.381 117.58C142.385 117.603 131.84 112.352 131.829 105.852Z" fill="#EAEAEF"/>
<path d="M132.159 105.8C132.159 112.391 142.63 117.569 155.455 117.569C168.28 117.569 178.869 112.273 178.751 105.8C178.634 99.3273 168.397 94.0312 155.455 94.0312C142.513 94.0312 132.159 99.3273 132.159 105.8Z" fill="#E9E9EF"/>
<path d="M132.182 105.855C132.171 99.4206 142.539 94.186 155.34 94.1637C168.142 94.1413 178.528 99.3397 178.539 105.774C178.55 112.209 168.182 117.444 155.381 117.466C142.58 117.489 132.193 112.29 132.182 105.855Z" fill="#E8E8EE"/>
<path d="M132.394 105.808C132.394 112.28 142.748 117.459 155.455 117.459C168.162 117.459 178.516 112.163 178.516 105.808C178.516 99.4523 168.162 94.1562 155.455 94.1562C142.748 94.1562 132.394 99.4523 132.394 105.808Z" fill="#E8E8EE"/>
<path d="M132.417 105.851C132.406 99.4814 142.669 94.2997 155.341 94.2776C168.012 94.2555 178.293 99.4013 178.304 105.771C178.315 112.141 168.052 117.323 155.381 117.345C142.71 117.367 132.429 112.221 132.417 105.851Z" fill="#E7E7ED"/>
<path d="M132.747 105.805C132.747 112.16 142.866 117.338 155.455 117.338C168.045 117.338 178.281 112.16 178.281 105.805C178.281 99.4493 168.045 94.271 155.455 94.3887C142.866 94.5064 132.747 99.567 132.747 105.805Z" fill="#E6E6ED"/>
<path d="M132.865 105.803C132.865 112.158 142.983 117.219 155.455 117.219C167.927 117.219 178.163 112.04 178.045 105.803C177.927 99.5651 167.927 94.3867 155.455 94.3867C142.983 94.3867 132.865 99.5651 132.865 105.803Z" fill="#E6E6EC"/>
<path d="M132.982 105.802C132.982 112.04 143.101 117.1 155.455 117.1C167.809 117.1 177.927 112.04 177.927 105.802C177.927 99.5646 167.927 94.5039 155.455 94.5039C142.983 94.5039 132.982 99.5646 132.982 105.802Z" fill="#E5E5EC"/>
<path d="M133.006 105.85C132.995 99.6103 142.994 94.5345 155.341 94.513C167.687 94.4914 177.705 99.5323 177.715 105.772C177.726 112.012 167.726 117.088 155.38 117.109C143.034 117.131 133.016 112.09 133.006 105.85Z" fill="#E4E4EB"/>
<path d="M133.123 105.846C133.113 99.6715 143.06 94.6485 155.341 94.627C167.622 94.6056 177.587 99.5939 177.598 105.769C177.609 111.944 167.661 116.967 155.38 116.988C143.099 117.009 133.134 112.021 133.123 105.846Z" fill="#E4E4EB"/>
<path d="M133.241 105.854C133.23 99.7444 143.125 94.7741 155.341 94.7528C167.557 94.7315 177.469 99.6672 177.48 105.777C177.491 111.887 167.596 116.857 155.38 116.878C143.163 116.9 133.251 111.964 133.241 105.854Z" fill="#E3E3EA"/>
<path d="M133.57 105.801C133.57 111.921 143.336 116.864 155.455 116.864C167.573 116.864 177.457 111.921 177.339 105.801C177.221 99.6812 167.573 94.7383 155.455 94.7383C143.336 94.7383 133.57 99.6812 133.57 105.801Z" fill="#E2E2EA"/>
<path d="M133.688 105.805C133.688 111.924 143.454 116.75 155.455 116.75C167.456 116.75 177.222 111.807 177.222 105.805C177.222 99.8023 167.456 94.8594 155.455 94.8594C143.454 94.8594 133.688 99.8023 133.688 105.805Z" fill="#E1E1E9"/>
<path d="M133.712 105.853C133.701 99.8083 143.385 94.8911 155.341 94.8702C167.298 94.8493 176.999 99.7327 177.009 105.778C177.02 111.822 167.336 116.74 155.38 116.76C143.423 116.781 133.722 111.898 133.712 105.853Z" fill="#E1E1E9"/>
<path d="M133.829 105.849C133.819 99.8695 143.45 95.005 155.342 94.9843C167.233 94.9635 176.881 99.7943 176.892 105.774C176.902 111.754 167.271 116.618 155.379 116.639C143.488 116.66 133.84 111.829 133.829 105.849Z" fill="#E0E0E8"/>
<path d="M133.947 105.849C133.936 99.9346 143.515 95.1229 155.342 95.1023C167.168 95.0816 176.764 99.8598 176.774 105.775C176.784 111.689 167.206 116.501 155.379 116.522C143.553 116.542 133.957 111.764 133.947 105.849Z" fill="#DFDFE7"/>
<path d="M134.277 105.804C134.277 111.688 143.807 116.513 155.455 116.513C167.103 116.513 176.751 111.688 176.633 105.804C176.516 99.919 167.221 95.0938 155.455 95.0938C143.689 95.0938 134.277 99.919 134.277 105.804Z" fill="#DEDEE7"/>
<path d="M134.394 105.803C134.394 111.687 143.807 116.395 155.455 116.395C167.103 116.395 176.516 111.687 176.516 105.803C176.516 99.9185 167.103 95.2109 155.455 95.2109C143.807 95.2109 134.394 99.9185 134.394 105.803Z" fill="#DEDEE6"/>
<path d="M134.417 105.848C134.407 99.9984 143.775 95.2398 155.342 95.2196C166.908 95.1994 176.293 99.9253 176.303 105.775C176.314 111.625 166.945 116.384 155.379 116.404C143.812 116.424 134.427 111.698 134.417 105.848Z" fill="#DDDDE6"/>
<path d="M134.535 105.848C134.525 100.063 143.841 95.3577 155.342 95.3376C166.844 95.3175 176.176 99.9908 176.186 105.776C176.196 111.56 166.88 116.266 155.379 116.286C143.877 116.306 134.545 111.633 134.535 105.848Z" fill="#DCDCE5"/>
<path d="M134.865 105.802C134.865 111.569 144.042 116.276 155.455 116.159C166.868 116.041 176.163 111.569 176.163 105.802C176.163 100.035 166.868 95.4453 155.455 95.4453C144.042 95.4453 134.865 100.035 134.865 105.802Z" fill="#DBDBE4"/>
<path d="M134.983 105.802C134.983 111.569 144.16 116.159 155.455 116.159C166.75 116.159 176.045 111.451 175.928 105.802C175.81 100.153 166.75 95.4453 155.455 95.4453C144.16 95.4453 134.983 100.153 134.983 105.802Z" fill="#DADAE4"/>
<path d="M135.1 105.802C135.1 111.451 144.278 116.041 155.455 116.041C166.632 116.041 175.81 111.451 175.81 105.802C175.81 100.152 166.75 95.5625 155.455 95.5625C144.16 95.5625 135.1 100.152 135.1 105.802Z" fill="#DAD9E3"/>
<path d="M135.123 105.843C135.114 100.189 144.166 95.5886 155.343 95.5691C166.519 95.5496 175.588 100.118 175.598 105.773C175.607 111.428 166.555 116.028 155.378 116.047C144.202 116.067 135.133 111.498 135.123 105.843Z" fill="#D9D9E3"/>
<path d="M135.336 105.805C135.453 111.454 144.395 115.926 155.455 115.926C166.515 115.926 175.574 111.336 175.574 105.805C175.574 100.273 166.515 95.6836 155.455 95.6836C144.395 95.6836 135.336 100.273 135.336 105.805Z" fill="#D8D8E2"/>
<path d="M135.571 105.801C135.571 111.332 144.513 115.922 155.455 115.804C166.397 115.686 175.457 111.332 175.457 105.801C175.457 100.269 166.515 95.7969 155.455 95.7969C144.395 95.7969 135.571 100.269 135.571 105.801Z" fill="#D7D7E1"/>
<path d="M135.689 105.801C135.689 111.332 144.513 115.804 155.455 115.804C166.397 115.804 175.339 111.332 175.222 105.801C175.104 100.269 166.397 95.7969 155.455 95.7969C144.513 95.7969 135.689 100.269 135.689 105.801Z" fill="#D6D6E1"/>
<path d="M135.806 105.804C135.806 111.335 144.631 115.69 155.455 115.69C166.28 115.69 175.104 111.218 175.104 105.804C175.104 100.39 166.28 95.918 155.455 95.918C144.631 95.918 135.806 100.39 135.806 105.804Z" fill="#D5D5E0"/>
<path d="M135.829 105.846C135.82 100.386 144.557 95.9451 155.343 95.9263C166.13 95.9075 174.882 100.318 174.892 105.778C174.901 111.238 166.165 115.679 155.378 115.698C144.591 115.717 135.839 111.306 135.829 105.846Z" fill="#D5D4E0"/>
<path d="M136.041 105.803C136.159 111.217 144.748 115.572 155.455 115.572C166.162 115.572 174.868 111.217 174.868 105.803C174.868 100.39 166.162 96.0352 155.455 96.0352C144.748 96.0352 136.041 100.39 136.041 105.803Z" fill="#D4D4DF"/>
<path d="M136.277 105.803C136.277 111.217 144.866 115.571 155.455 115.453C166.044 115.336 174.751 111.099 174.751 105.803C174.751 100.507 166.044 96.1523 155.455 96.1523C144.866 96.1523 136.277 100.507 136.277 105.803Z" fill="#D3D3DE"/>
<path d="M136.395 105.803C136.395 111.099 144.984 115.453 155.455 115.453C165.927 115.453 174.516 111.099 174.516 105.803C174.516 100.507 166.044 96.1523 155.455 96.1523C144.866 96.1523 136.395 100.507 136.395 105.803Z" fill="#D2D2DE"/>
<path d="M136.418 105.846C136.409 100.581 144.882 96.2982 155.344 96.2799C165.806 96.2616 174.294 100.515 174.303 105.78C174.313 111.044 165.839 115.327 155.377 115.346C144.915 115.364 136.427 111.111 136.418 105.846Z" fill="#D1D1DD"/>
<path d="M136.63 105.804C136.63 111.1 145.101 115.337 155.455 115.337C165.809 115.337 174.28 110.983 174.28 105.804C174.28 100.626 165.809 96.2714 155.455 96.389C145.101 96.5067 136.63 100.626 136.63 105.804Z" fill="#D0D0DC"/>
<path d="M136.653 105.845C136.644 100.646 145.012 96.4157 155.344 96.3976C165.676 96.3796 174.059 100.58 174.068 105.78C174.077 110.98 165.709 115.21 155.377 115.228C145.045 115.246 136.662 111.045 136.653 105.845Z" fill="#CFCFDC"/>
<path d="M136.888 105.841C136.879 100.706 145.142 96.5293 155.344 96.5115C165.546 96.4937 173.824 100.642 173.833 105.777C173.842 110.912 165.579 115.089 155.377 115.106C145.175 115.124 136.897 110.976 136.888 105.841Z" fill="#CECEDB"/>
<path d="M137.101 105.805C137.101 110.984 145.337 115.103 155.455 115.103C165.574 115.103 173.81 110.866 173.81 105.805C173.81 100.745 165.574 96.5078 155.455 96.5078C145.337 96.5078 137.101 100.745 137.101 105.805Z" fill="#CECDDA"/>
<path d="M137.124 105.845C137.115 100.775 145.273 96.6508 155.345 96.6332C165.417 96.6156 173.589 100.711 173.598 105.781C173.606 110.851 165.449 114.975 155.377 114.993C145.305 115.01 137.133 110.915 137.124 105.845Z" fill="#CDCCDA"/>
<path d="M137.241 105.845C137.233 100.84 145.338 96.7687 155.345 96.7512C165.352 96.7337 173.471 100.777 173.48 105.782C173.489 110.786 165.383 114.858 155.376 114.875C145.369 114.893 137.25 110.85 137.241 105.845Z" fill="#CCCBD9"/>
<path d="M137.454 105.804C137.571 110.865 145.572 114.866 155.455 114.866C165.338 114.866 173.457 110.747 173.457 105.804C173.457 100.861 165.338 96.7422 155.455 96.7422C145.572 96.7422 137.454 100.861 137.454 105.804Z" fill="#CBCAD8"/>
<path d="M137.689 105.804C137.689 110.747 145.689 114.748 155.455 114.748C165.22 114.748 173.339 110.747 173.339 105.804C173.339 100.861 165.338 96.8594 155.455 96.8594C145.572 96.8594 137.689 100.861 137.689 105.804Z" fill="#CACAD8"/>
<path d="M137.712 105.844C137.703 100.904 145.598 96.8856 155.345 96.8686C165.092 96.8516 173 100.842 173.009 105.782C173.018 110.722 165.123 114.74 155.376 114.757C145.629 114.774 137.72 110.784 137.712 105.844Z" fill="#C9C9D7"/>
<path d="M137.829 105.844C137.821 100.969 145.663 97.0034 155.345 96.9865C165.027 96.9696 172.883 100.908 172.891 105.783C172.9 110.658 165.058 114.623 155.376 114.64C145.694 114.657 137.838 110.719 137.829 105.844Z" fill="#C8C8D6"/>
<path d="M137.947 105.844C137.939 101.034 145.728 97.1213 155.345 97.1045C164.962 97.0877 172.765 100.973 172.774 105.783C172.782 110.593 164.993 114.506 155.376 114.523C145.759 114.539 137.956 110.654 137.947 105.844Z" fill="#C7C7D5"/>
<path d="M138.065 105.844C138.057 101.034 145.793 97.121 155.345 97.1043C164.897 97.0876 172.648 100.973 172.656 105.783C172.665 110.593 164.928 114.506 155.376 114.522C145.824 114.539 138.073 110.653 138.065 105.844Z" fill="#C6C6D5"/>
<path d="M138.3 105.843C138.292 101.098 145.923 97.2386 155.345 97.2221C164.768 97.2057 172.413 101.039 172.421 105.784C172.429 110.529 164.798 114.388 155.375 114.405C145.953 114.421 138.308 110.588 138.3 105.843Z" fill="#C5C5D4"/>
<path d="M139.324 105.604C139.324 100.859 146.909 97.0126 156.267 97.0126C165.624 97.0126 173.209 100.859 173.209 105.604C173.209 110.349 165.624 114.195 156.267 114.195C146.909 114.195 139.324 110.349 139.324 105.604Z" fill="#C4C4D3"/>
<path d="M138.63 105.806C138.63 110.513 146.16 114.279 155.455 114.279C164.75 114.279 172.28 110.513 172.28 105.806C172.28 101.098 164.75 97.332 155.455 97.332C146.16 97.332 138.63 101.098 138.63 105.806Z" fill="#C3C3D2"/>
<path d="M138.748 105.804C138.748 110.511 146.278 114.278 155.455 114.16C164.632 114.042 172.162 110.394 172.162 105.804C172.162 101.214 164.632 97.3302 155.455 97.4479C146.278 97.5656 138.748 101.214 138.748 105.804Z" fill="#C2C2D2"/>
<path d="M138.865 105.805C138.983 110.395 146.395 114.161 155.455 114.161C164.515 114.161 172.045 110.395 172.045 105.805C172.045 101.215 164.632 97.4492 155.455 97.4492C146.278 97.4492 138.865 101.215 138.865 105.805Z" fill="#C1C1D1"/>
<path d="M139.006 105.838C138.998 101.288 146.314 97.5873 155.346 97.5715C164.379 97.5558 171.707 101.231 171.715 105.781C171.723 110.331 164.407 114.032 155.375 114.048C146.343 114.064 139.014 110.388 139.006 105.838Z" fill="#C0C0D0"/>
<path d="M139.218 105.805C139.218 110.395 146.513 114.043 155.455 114.043C164.397 114.043 171.692 110.277 171.692 105.805C171.692 101.332 164.397 97.5664 155.455 97.5664C146.513 97.5664 139.218 101.332 139.218 105.805Z" fill="#BFBFCF"/>
<path d="M139.336 105.804C139.336 110.276 146.631 113.925 155.455 113.925C164.279 113.925 171.574 110.276 171.574 105.804C171.574 101.332 164.397 97.6836 155.455 97.6836C146.513 97.6836 139.336 101.332 139.336 105.804Z" fill="#BEBECF"/>
<path d="M139.454 105.804C139.454 110.276 146.631 113.924 155.455 113.807C164.279 113.689 171.457 110.276 171.457 105.804C171.457 101.331 164.279 97.8008 155.455 97.8008C146.631 97.8008 139.454 101.331 139.454 105.804Z" fill="#BDBDCE"/>
<path d="M139.477 105.842C139.469 101.422 146.574 97.8263 155.347 97.811C164.119 97.7957 171.237 101.366 171.244 105.786C171.252 110.206 164.147 113.801 155.375 113.817C146.602 113.832 139.485 110.261 139.477 105.842Z" fill="#BCBCCD"/>
<path d="M139.712 105.841C139.704 101.486 146.704 97.9439 155.347 97.9288C163.989 97.9137 171.001 101.432 171.009 105.787C171.017 110.142 164.017 113.684 155.374 113.699C146.732 113.714 139.72 110.196 139.712 105.841Z" fill="#BBBACC"/>
<path d="M139.924 105.807C139.924 110.162 146.866 113.692 155.455 113.692C164.044 113.692 170.986 110.162 170.986 105.807C170.986 101.453 164.044 97.9219 155.455 97.9219C146.866 97.9219 139.924 101.453 139.924 105.807Z" fill="#BAB9CC"/>
<path d="M140.042 105.803C140.042 110.157 146.984 113.57 155.455 113.57C163.926 113.57 170.868 110.04 170.868 105.803C170.868 101.566 163.926 98.0352 155.455 98.0352C146.984 98.0352 140.042 101.566 140.042 105.803Z" fill="#B9B8CB"/>
<path d="M140.16 105.806C140.16 110.043 147.101 113.574 155.455 113.456C163.809 113.338 170.75 110.043 170.75 105.806C170.75 101.569 163.926 98.1562 155.455 98.1562C146.984 98.1562 140.16 101.569 140.16 105.806Z" fill="#B8B7CA"/>
<path d="M140.395 105.806C140.395 110.043 147.101 113.456 155.455 113.456C163.809 113.456 170.633 110.043 170.633 105.806C170.633 101.569 163.809 98.1562 155.455 98.1562C147.101 98.1562 140.277 101.569 140.395 105.806Z" fill="#B7B6C9"/>
<path d="M140.512 105.806C140.512 110.042 147.219 113.338 155.455 113.338C163.691 113.338 170.515 109.925 170.515 105.806C170.515 101.686 163.691 98.2734 155.455 98.2734C147.219 98.2734 140.512 101.686 140.512 105.806Z" fill="#B5B5C8"/>
<path d="M140.63 105.806C140.63 109.925 147.337 113.338 155.455 113.338C163.573 113.338 170.28 109.925 170.28 105.806C170.28 101.686 163.691 98.2734 155.455 98.2734C147.219 98.2734 140.63 101.686 140.63 105.806Z" fill="#B4B4C8"/>
<path d="M140.748 105.805C140.748 109.924 147.337 113.22 155.455 113.22C163.574 113.22 170.162 109.924 170.162 105.805C170.162 101.686 163.574 98.3906 155.455 98.3906C147.337 98.3906 140.748 101.686 140.748 105.805Z" fill="#B3B3C7"/>
<path d="M140.866 105.805C140.866 109.924 147.454 113.101 155.455 113.101C163.456 113.101 170.045 109.806 170.045 105.805C170.045 101.803 163.456 98.5078 155.455 98.5078C147.454 98.5078 140.866 101.803 140.866 105.805Z" fill="#B2B2C6"/>
<path d="M141.101 105.805C141.101 109.806 147.572 113.101 155.455 113.101C163.338 113.101 169.927 109.806 169.927 105.805C169.927 101.803 163.456 98.5078 155.455 98.5078C147.454 98.5078 140.983 101.803 141.101 105.805Z" fill="#B1B1C5"/>
<path d="M141.219 105.804C141.219 109.806 147.572 112.983 155.455 112.983C163.338 112.983 169.809 109.806 169.809 105.804C169.809 101.803 163.338 98.625 155.455 98.625C147.572 98.625 141.219 101.803 141.219 105.804Z" fill="#B0B0C4"/>
<path d="M141.336 105.804C141.336 109.806 147.689 112.983 155.455 112.983C163.22 112.983 169.574 109.688 169.574 105.804C169.574 101.92 163.22 98.625 155.455 98.625C147.689 98.625 141.336 101.92 141.336 105.804Z" fill="#AFAFC4"/>
<path d="M141.454 105.804C141.454 109.687 147.807 112.865 155.455 112.865C163.103 112.865 169.456 109.687 169.456 105.804C169.456 101.92 163.22 98.7422 155.455 98.7422C147.69 98.7422 141.454 101.92 141.454 105.804Z" fill="#AEADC3"/>
<path d="M141.571 105.807C141.571 109.691 147.807 112.751 155.455 112.751C163.103 112.751 169.339 109.691 169.339 105.807C169.339 101.923 163.103 98.8633 155.455 98.8633C147.807 98.8633 141.571 101.923 141.571 105.807Z" fill="#ADACC2"/>
<path d="M141.807 105.807C141.807 109.691 147.925 112.751 155.455 112.751C162.985 112.751 169.221 109.573 169.221 105.807C169.221 102.041 162.985 98.8633 155.455 98.8633C147.925 98.8633 141.689 102.041 141.807 105.807Z" fill="#ABABC1"/>
<path d="M141.924 105.806C141.924 109.573 147.925 112.632 155.455 112.632C162.985 112.632 169.103 109.573 169.103 105.806C169.103 102.04 162.985 98.9805 155.455 98.9805C147.925 98.9805 141.924 102.04 141.924 105.806Z" fill="#AAAAC0"/>
<path d="M142.042 105.805C142.042 109.571 148.042 112.631 155.455 112.631C162.867 112.631 168.868 109.571 168.868 105.805C168.868 102.039 162.867 98.9793 155.455 99.097C148.042 99.2147 142.042 102.039 142.042 105.805Z" fill="#A9A9BF"/>
<path d="M142.16 105.806C142.16 109.572 148.16 112.514 155.455 112.514C162.75 112.514 168.75 109.454 168.75 105.806C168.75 102.158 162.75 99.0977 155.455 99.0977C148.16 99.0977 142.16 102.158 142.16 105.806Z" fill="#A8A8BE"/>
<path d="M142.277 105.805C142.277 109.454 148.16 112.396 155.455 112.396C162.75 112.396 168.633 109.454 168.633 105.805C168.633 102.157 162.75 99.2148 155.455 99.2148C148.16 99.2148 142.277 102.157 142.277 105.805Z" fill="#A7A6BE"/>
<path d="M142.513 105.805C142.513 109.454 148.278 112.396 155.455 112.396C162.632 112.396 168.515 109.454 168.515 105.805C168.515 102.157 162.632 99.2148 155.455 99.2148C148.278 99.2148 142.513 102.157 142.513 105.805Z" fill="#A6A5BD"/>
<path d="M142.63 105.805C142.63 109.453 148.396 112.278 155.455 112.278C162.515 112.278 168.397 109.336 168.397 105.805C168.397 102.274 162.515 99.332 155.455 99.332C148.396 99.332 142.63 102.274 142.63 105.805Z" fill="#A5A4BC"/>
<path d="M142.654 105.834C142.647 102.324 148.332 99.4685 155.349 99.4562C162.367 99.444 168.061 102.279 168.068 105.789C168.074 109.299 162.389 112.154 155.372 112.167C148.354 112.179 142.66 109.344 142.654 105.834Z" fill="#A3A3BB"/>
<path d="M142.865 105.804C142.865 109.335 148.513 112.16 155.455 112.16C162.397 112.16 168.044 109.335 168.044 105.804C168.044 102.274 162.397 99.4492 155.455 99.4492C148.513 99.4492 142.865 102.274 142.865 105.804Z" fill="#A2A2BA"/>
<path d="M142.983 105.804C142.983 109.335 148.631 112.042 155.455 112.042C162.279 112.042 167.927 109.217 167.927 105.804C167.927 102.391 162.279 99.5664 155.455 99.5664C148.631 99.5664 142.983 102.391 142.983 105.804Z" fill="#A1A1B9"/>
<path d="M143.007 105.833C143.001 102.388 148.527 99.5857 155.35 99.5738C162.173 99.5619 167.709 102.345 167.715 105.79C167.721 109.235 162.194 112.037 155.372 112.049C148.549 112.061 143.013 109.278 143.007 105.833Z" fill="#A09FB8"/>
<path d="M143.336 105.807C143.336 109.22 148.749 111.927 155.455 111.927C162.161 111.927 167.691 109.22 167.691 105.807C167.691 102.394 162.161 99.6875 155.455 99.6875C148.749 99.6875 143.336 102.394 143.336 105.807Z" fill="#9F9EB7"/>
<path d="M143.454 105.807C143.454 109.22 148.866 111.926 155.455 111.809C162.044 111.691 167.456 109.102 167.456 105.807C167.456 102.511 162.044 99.6866 155.455 99.8043C148.866 99.922 143.454 102.511 143.454 105.807Z" fill="#9D9DB7"/>
<path d="M143.572 105.807C143.572 109.102 148.866 111.809 155.455 111.809C162.044 111.809 167.338 109.102 167.338 105.807C167.338 102.512 162.044 99.8047 155.455 99.8047C148.866 99.8047 143.572 102.512 143.572 105.807Z" fill="#9C9CB6"/>
<path d="M143.689 105.806C143.689 109.102 148.984 111.691 155.455 111.691C161.926 111.691 167.221 109.102 167.221 105.806C167.221 102.511 161.926 99.9219 155.455 99.9219C148.984 99.9219 143.689 102.511 143.689 105.806Z" fill="#9B9AB5"/>
<path d="M143.712 105.832C143.707 102.582 148.917 99.9384 155.35 99.9272C161.783 99.9159 167.003 102.541 167.009 105.791C167.014 109.041 161.804 111.685 155.371 111.696C148.938 111.707 143.718 109.082 143.712 105.832Z" fill="#9A99B4"/>
<path d="M144.042 105.806C144.042 108.983 149.101 111.573 155.455 111.573C161.808 111.573 166.985 108.983 166.985 105.806C166.985 102.628 161.808 100.039 155.455 100.039C149.101 100.039 144.042 102.628 144.042 105.806Z" fill="#9898B3"/>
<path d="M144.16 105.805C144.16 108.983 149.219 111.572 155.455 111.454C161.691 111.337 166.75 108.983 166.75 105.805C166.75 102.628 161.691 100.156 155.455 100.156C149.219 100.156 144.16 102.628 144.16 105.805Z" fill="#9797B2"/>
<path d="M144.277 105.805C144.277 108.983 149.337 111.454 155.455 111.454C161.573 111.454 166.632 108.865 166.632 105.805C166.632 102.745 161.691 100.156 155.455 100.156C149.219 100.156 144.277 102.745 144.277 105.805Z" fill="#9695B1"/>
<path d="M144.395 105.809C144.395 108.869 149.337 111.34 155.455 111.34C161.573 111.34 166.515 108.869 166.515 105.809C166.515 102.749 161.573 100.277 155.455 100.277C149.337 100.277 144.395 102.749 144.395 105.809Z" fill="#9594B0"/>
<path d="M144.631 105.809C144.631 108.869 149.454 111.34 155.455 111.34C161.456 111.34 166.397 108.869 166.397 105.809C166.397 102.749 161.456 100.277 155.455 100.277C149.454 100.277 144.631 102.749 144.631 105.809Z" fill="#9393AF"/>
<path d="M144.748 105.8C144.748 108.86 149.572 111.214 155.455 111.214C161.338 111.214 166.28 108.743 166.28 105.8C166.28 102.858 161.456 100.387 155.455 100.387C149.454 100.387 144.748 102.858 144.748 105.8Z" fill="#9292AE"/>
<path d="M144.866 105.808C144.866 108.75 149.572 111.221 155.455 111.104C161.338 110.986 166.044 108.75 166.044 105.808C166.044 102.866 161.338 100.512 155.455 100.512C149.572 100.512 144.866 102.866 144.866 105.808Z" fill="#9190AD"/>
<path d="M144.983 105.808C144.983 108.75 149.69 111.104 155.455 111.104C161.22 111.104 165.927 108.75 165.927 105.808C165.927 102.866 161.22 100.512 155.455 100.512C149.69 100.512 144.983 102.866 144.983 105.808Z" fill="#908FAC"/>
<path d="M145.101 105.803C145.101 108.746 149.807 110.982 155.455 110.982C161.102 110.982 165.809 108.628 165.809 105.803C165.809 102.979 161.22 100.625 155.455 100.625C149.689 100.625 145.101 102.979 145.101 105.803Z" fill="#8E8EAB"/>
<path d="M145.336 105.803C145.336 108.628 149.807 110.982 155.455 110.982C161.103 110.982 165.691 108.628 165.691 105.803C165.691 102.979 161.103 100.625 155.455 100.625C149.807 100.625 145.336 102.979 145.336 105.803Z" fill="#8D8CAA"/>
<path d="M145.454 105.803C145.454 108.627 149.925 110.864 155.455 110.864C160.985 110.864 165.573 108.627 165.456 105.803C165.338 102.978 160.985 100.742 155.455 100.742C149.925 100.742 145.454 102.978 145.454 105.803Z" fill="#8C8BA9"/>
<path d="M145.572 105.802C145.572 108.627 150.043 110.745 155.455 110.745C160.868 110.745 165.339 108.509 165.339 105.802C165.339 103.095 160.985 100.859 155.455 100.859C149.925 100.859 145.572 103.095 145.572 105.802Z" fill="#8A8AA8"/>
<path d="M145.595 105.829C145.59 103.099 149.959 100.879 155.352 100.869C160.745 100.86 165.121 103.065 165.126 105.795C165.131 108.525 160.763 110.746 155.369 110.755C149.976 110.765 145.6 108.559 145.595 105.829Z" fill="#8989A7"/>
<path d="M145.807 105.802C145.807 108.509 150.16 110.627 155.455 110.627C160.75 110.627 165.103 108.509 165.103 105.802C165.103 103.095 160.75 100.977 155.455 100.977C150.16 100.977 145.807 103.095 145.807 105.802Z" fill="#8887A6"/>
<path d="M146.042 105.802C146.042 108.509 150.278 110.627 155.455 110.627C160.632 110.627 164.985 108.391 164.985 105.802C164.985 103.213 160.749 100.977 155.455 100.977C150.16 100.977 146.042 103.213 146.042 105.802Z" fill="#8686A6"/>
<path d="M146.16 105.801C146.16 108.391 150.278 110.509 155.455 110.509C160.632 110.509 164.868 108.391 164.75 105.801C164.632 103.212 160.632 101.094 155.455 101.094C150.278 101.094 146.16 103.212 146.16 105.801Z" fill="#8585A5"/>
<path d="M146.278 105.805C146.278 108.394 150.396 110.395 155.455 110.395C160.514 110.395 164.632 108.394 164.632 105.805C164.632 103.216 160.514 101.215 155.455 101.215C150.396 101.215 146.278 103.216 146.278 105.805Z" fill="#8483A4"/>
<path d="M146.301 105.828C146.296 103.294 150.349 101.231 155.352 101.223C160.356 101.214 164.416 103.262 164.42 105.797C164.424 108.332 160.372 110.394 155.368 110.403C150.365 110.411 146.305 108.363 146.301 105.828Z" fill="#8282A3"/>
<path d="M146.513 105.8C146.513 108.272 150.513 110.273 155.455 110.273C160.397 110.273 164.397 108.272 164.397 105.8C164.397 103.329 160.397 101.328 155.455 101.328C150.513 101.328 146.513 103.329 146.513 105.8Z" fill="#8180A2"/>
<path d="M146.748 105.805C146.748 108.276 150.631 110.277 155.455 110.277C160.279 110.277 164.279 108.276 164.279 105.805C164.279 103.333 160.279 101.333 155.455 101.45C150.631 101.568 146.748 103.333 146.748 105.805Z" fill="#807FA1"/>
<path d="M146.866 105.804C146.866 108.275 150.749 110.158 155.455 110.158C160.161 110.158 164.162 108.158 164.044 105.804C163.926 103.45 160.279 101.449 155.455 101.449C150.631 101.449 146.866 103.45 146.866 105.804Z" fill="#7E7EA0"/>
<path d="M146.984 105.803C146.984 108.157 150.749 110.04 155.455 110.04C160.161 110.04 163.926 108.157 163.926 105.803C163.926 103.449 160.161 101.566 155.455 101.566C150.749 101.566 146.984 103.449 146.984 105.803Z" fill="#7D7C9E"/>
<path d="M147.101 105.803C147.101 108.157 150.866 110.04 155.455 110.04C160.044 110.04 163.809 108.157 163.809 105.803C163.809 103.449 160.044 101.566 155.455 101.566C150.866 101.566 147.101 103.449 147.101 105.803Z" fill="#7C7B9D"/>
<path d="M147.125 105.824C147.121 103.549 150.805 101.698 155.353 101.69C159.902 101.682 163.593 103.52 163.597 105.795C163.601 108.07 159.916 109.92 155.368 109.928C150.819 109.936 147.129 108.099 147.125 105.824Z" fill="#7A7A9C"/>
<path d="M147.454 105.804C147.454 108.04 150.984 109.923 155.455 109.923C159.926 109.923 163.573 108.04 163.573 105.804C163.573 103.567 159.926 101.684 155.455 101.802C150.984 101.92 147.454 103.567 147.454 105.804Z" fill="#79789B"/>
<path d="M147.572 105.802C147.572 108.038 151.102 109.804 155.455 109.804C159.809 109.804 163.338 108.038 163.338 105.802C163.338 103.566 159.809 101.801 155.455 101.801C151.102 101.801 147.572 103.566 147.572 105.802Z" fill="#77779A"/>
<path d="M147.689 105.802C147.689 108.038 151.219 109.685 155.455 109.685C159.69 109.685 163.22 107.92 163.22 105.802C163.22 103.683 159.808 101.918 155.455 101.918C151.101 101.918 147.689 103.683 147.689 105.802Z" fill="#767599"/>
<path d="M147.807 105.802C147.807 107.92 151.219 109.685 155.455 109.685C159.691 109.685 163.103 107.92 163.103 105.802C163.103 103.683 159.691 101.918 155.455 101.918C151.219 101.918 147.807 103.683 147.807 105.802Z" fill="#757498"/>
<path d="M147.925 105.805C147.925 107.924 151.337 109.571 155.455 109.571C159.573 109.571 162.985 107.924 162.985 105.805C162.985 103.687 159.573 102.039 155.455 102.039C151.337 102.039 147.925 103.687 147.925 105.805Z" fill="#737397"/>
<path d="M148.16 105.801C148.16 107.919 151.455 109.567 155.455 109.567C159.455 109.567 162.867 107.801 162.867 105.801C162.867 103.8 159.573 102.152 155.455 102.152C151.337 102.152 148.16 103.8 148.16 105.801Z" fill="#727196"/>
<path d="M148.278 105.801C148.278 107.801 151.455 109.449 155.455 109.449C159.455 109.449 162.632 107.801 162.632 105.801C162.632 103.8 159.455 102.152 155.455 102.152C151.455 102.152 148.278 103.8 148.278 105.801Z" fill="#707095"/>
<path d="M148.395 105.804C148.395 107.805 151.572 109.335 155.455 109.335C159.337 109.335 162.514 107.805 162.514 105.804C162.514 103.803 159.337 102.273 155.455 102.273C151.572 102.273 148.395 103.803 148.395 105.804Z" fill="#6F6E94"/>
<path d="M148.513 105.804C148.513 107.805 151.69 109.335 155.455 109.335C159.22 109.335 162.397 107.687 162.397 105.804C162.397 103.921 159.338 102.273 155.455 102.273C151.572 102.273 148.513 103.921 148.513 105.804Z" fill="#6E6D93"/>
<path d="M148.631 105.804C148.631 107.687 151.69 109.217 155.455 109.217C159.22 109.217 162.279 107.687 162.279 105.804C162.279 103.921 159.22 102.391 155.455 102.391C151.69 102.391 148.631 103.921 148.631 105.804Z" fill="#6C6B92"/>
<path d="M148.866 105.803C148.866 107.686 151.807 109.216 155.455 109.098C159.102 108.981 162.161 107.686 162.161 105.803C162.161 103.92 159.102 102.508 155.455 102.508C151.807 102.508 148.866 103.92 148.866 105.803Z" fill="#6B6A91"/>
<path d="M148.984 105.803C148.984 107.686 151.925 109.098 155.455 109.098C158.985 109.098 161.926 107.568 161.926 105.803C161.926 104.038 159.102 102.508 155.455 102.508C151.807 102.508 148.984 104.038 148.984 105.803Z" fill="#696990"/>
<path d="M149.102 105.807C149.102 107.572 151.925 108.984 155.455 108.984C158.985 108.984 161.809 107.572 161.809 105.807C161.809 104.041 158.985 102.629 155.455 102.629C151.925 102.629 149.102 104.041 149.102 105.807Z" fill="#68678F"/>
<path d="M149.219 105.807C149.219 107.572 152.043 108.984 155.455 108.984C158.867 108.984 161.691 107.572 161.691 105.807C161.691 104.041 158.867 102.629 155.455 102.629C152.043 102.629 149.219 104.041 149.219 105.807Z" fill="#66668E"/>
<path d="M149.337 105.802C149.337 107.45 152.161 108.862 155.455 108.862C158.749 108.862 161.573 107.45 161.573 105.802C161.573 104.154 158.867 102.742 155.455 102.742C152.043 102.742 149.337 104.154 149.337 105.802Z" fill="#65648D"/>
<path d="M149.572 105.806C149.572 107.453 152.16 108.865 155.455 108.748C158.749 108.63 161.455 107.453 161.455 105.806C161.455 104.158 158.749 102.863 155.455 102.863C152.16 102.863 149.572 104.158 149.572 105.806Z" fill="#63638B"/>
<path d="M149.69 105.806C149.69 107.453 152.278 108.748 155.455 108.748C158.632 108.748 161.22 107.453 161.22 105.806C161.22 104.158 158.632 102.863 155.455 102.863C152.278 102.863 149.69 104.158 149.69 105.806Z" fill="#62618A"/>
<path d="M149.808 105.801C149.808 107.331 152.396 108.626 155.455 108.626C158.514 108.626 161.103 107.331 161.103 105.801C161.103 104.271 158.632 102.977 155.455 102.977C152.278 102.977 149.808 104.271 149.808 105.801Z" fill="#606089"/>
<path d="M149.925 105.801C149.925 107.331 152.396 108.626 155.455 108.626C158.514 108.626 160.985 107.331 160.985 105.801C160.985 104.271 158.514 102.977 155.455 102.977C152.396 102.977 149.925 104.271 149.925 105.801Z" fill="#5F5E88"/>
<path d="M149.949 105.82C149.946 104.325 152.367 103.109 155.356 103.104C158.345 103.098 160.771 104.306 160.773 105.801C160.776 107.296 158.355 108.512 155.366 108.517C152.376 108.522 149.951 107.315 149.949 105.82Z" fill="#5D5D87"/>
<path d="M150.278 105.804C150.278 107.216 152.631 108.393 155.455 108.393C158.279 108.393 160.75 107.216 160.75 105.804C160.75 104.392 158.396 103.215 155.455 103.215C152.513 103.215 150.278 104.392 150.278 105.804Z" fill="#5C5B86"/>
<path d="M150.396 105.804C150.396 107.216 152.631 108.393 155.455 108.393C158.279 108.393 160.514 107.216 160.514 105.804C160.514 104.392 158.279 103.215 155.455 103.215C152.631 103.215 150.396 104.392 150.396 105.804Z" fill="#5A5A85"/>
<path d="M150.513 105.804C150.513 107.216 152.749 108.275 155.455 108.275C158.161 108.275 160.396 107.216 160.396 105.804C160.396 104.391 158.161 103.332 155.455 103.332C152.749 103.332 150.513 104.391 150.513 105.804Z" fill="#595884"/>
<path d="M150.631 105.804C150.631 107.098 152.866 108.275 155.455 108.275C158.043 108.275 160.279 107.098 160.279 105.804C160.279 104.509 158.161 103.332 155.455 103.332C152.749 103.332 150.631 104.509 150.631 105.804Z" fill="#575783"/>
<path d="M150.749 105.807C150.749 107.102 152.866 108.161 155.455 108.161C158.043 108.161 160.161 107.102 160.161 105.807C160.161 104.512 158.043 103.453 155.455 103.453C152.866 103.453 150.749 104.512 150.749 105.807Z" fill="#565581"/>
<path d="M150.984 105.803C150.984 107.097 152.984 108.039 155.455 108.039C157.926 108.039 160.043 107.097 160.043 105.803C160.043 104.508 157.926 103.566 155.455 103.566C152.984 103.566 150.984 104.508 150.984 105.803Z" fill="#545380"/>
<path d="M151.102 105.803C151.102 106.979 153.102 108.039 155.455 108.039C157.808 108.039 159.808 106.979 159.808 105.803C159.808 104.626 157.926 103.566 155.455 103.566C152.984 103.566 151.102 104.626 151.102 105.803Z" fill="#53527F"/>
<path d="M151.219 105.806C151.219 106.983 153.102 107.924 155.455 107.924C157.808 107.924 159.691 106.983 159.691 105.806C159.691 104.629 157.808 103.688 155.455 103.688C153.102 103.688 151.219 104.629 151.219 105.806Z" fill="#51507E"/>
<path d="M151.242 105.818C151.24 104.648 153.082 103.696 155.357 103.692C157.631 103.688 159.476 104.633 159.478 105.803C159.481 106.973 157.638 107.925 155.364 107.929C153.09 107.933 151.245 106.988 151.242 105.818Z" fill="#504F7D"/>
<path d="M151.455 105.805C151.455 106.865 153.337 107.806 155.455 107.806C157.573 107.806 159.455 106.865 159.455 105.805C159.455 104.746 157.69 103.805 155.455 103.805C153.219 103.805 151.455 104.746 151.455 105.805Z" fill="#4E4D7C"/>
<path d="M151.69 105.805C151.69 106.864 153.337 107.688 155.455 107.688C157.573 107.688 159.338 106.864 159.338 105.805C159.338 104.746 157.573 103.922 155.455 103.922C153.337 103.922 151.69 104.746 151.69 105.805Z" fill="#4D4C7B"/>
<path d="M151.808 105.805C151.808 106.864 153.455 107.688 155.455 107.688C157.455 107.688 159.103 106.864 159.103 105.805C159.103 104.746 157.455 103.922 155.455 103.922C153.455 103.922 151.808 104.746 151.808 105.805Z" fill="#4B4A79"/>
<path d="M151.925 105.804C151.925 106.746 153.572 107.57 155.455 107.57C157.337 107.57 158.985 106.746 158.985 105.804C158.985 104.863 157.455 104.039 155.455 104.039C153.455 104.039 151.925 104.863 151.925 105.804Z" fill="#494978"/>
<path d="M152.043 105.803C152.043 106.745 153.573 107.569 155.455 107.569C157.338 107.569 158.867 106.745 158.867 105.803C158.867 104.862 157.338 104.038 155.455 104.156C153.573 104.273 152.043 104.862 152.043 105.803Z" fill="#484777"/>
<path d="M152.16 105.804C152.278 106.745 153.69 107.452 155.455 107.452C157.22 107.452 158.749 106.745 158.749 105.804C158.749 104.862 157.22 104.156 155.455 104.156C153.69 104.156 152.16 104.862 152.16 105.804Z" fill="#464576"/>
<path d="M152.396 105.803C152.396 106.627 153.808 107.333 155.455 107.333C157.102 107.333 158.632 106.627 158.632 105.803C158.632 104.98 157.22 104.273 155.455 104.273C153.69 104.273 152.396 104.98 152.396 105.803Z" fill="#454475"/>
<path d="M152.513 105.803C152.513 106.627 153.808 107.333 155.455 107.333C157.102 107.333 158.396 106.627 158.396 105.803C158.396 104.98 157.102 104.273 155.455 104.273C153.808 104.273 152.513 104.98 152.513 105.803Z" fill="#434274"/>
<path d="M152.631 105.803C152.631 106.627 153.925 107.215 155.455 107.215C156.985 107.215 158.279 106.627 158.279 105.803C158.279 104.979 156.985 104.391 155.455 104.391C153.925 104.391 152.631 104.979 152.631 105.803Z" fill="#414172"/>
<path d="M152.749 105.806C152.749 106.512 154.043 107.219 155.455 107.219C156.867 107.219 158.161 106.512 158.161 105.806C158.161 105.1 156.984 104.512 155.455 104.512C153.925 104.512 152.749 105.1 152.749 105.806Z" fill="#403F71"/>
<path d="M152.984 105.806C152.984 106.512 154.043 107.101 155.455 107.101C156.867 107.101 158.044 106.512 158.044 105.806C158.044 105.1 156.867 104.512 155.455 104.512C154.043 104.512 152.867 105.1 152.984 105.806Z" fill="#3E3D70"/>
<path d="M153.102 105.806C153.102 106.512 154.161 106.983 155.455 106.983C156.749 106.983 157.926 106.512 157.926 105.806C157.926 105.1 156.749 104.629 155.455 104.629C154.161 104.629 153.102 105.1 153.102 105.806Z" fill="#3D3C6F"/>
<path d="M153.219 105.806C153.219 106.394 154.278 106.983 155.455 106.983C156.631 106.983 157.69 106.394 157.69 105.806C157.69 105.217 156.749 104.629 155.455 104.629C154.161 104.629 153.219 105.217 153.219 105.806Z" fill="#3B3A6E"/>
<path d="M153.337 105.805C153.337 106.394 154.279 106.865 155.455 106.865C156.632 106.865 157.573 106.394 157.573 105.805C157.573 105.217 156.632 104.746 155.455 104.746C154.279 104.746 153.337 105.217 153.337 105.805Z" fill="#39386C"/>
<path d="M153.455 105.805C153.455 106.393 154.396 106.864 155.455 106.864C156.514 106.864 157.455 106.393 157.455 105.805C157.455 105.216 156.514 104.863 155.455 104.863C154.396 104.863 153.455 105.216 153.455 105.805Z" fill="#38376B"/>
<path d="M153.69 105.805C153.69 106.276 154.514 106.746 155.455 106.746C156.396 106.746 157.337 106.276 157.337 105.805C157.337 105.334 156.514 104.863 155.455 104.863C154.396 104.863 153.69 105.334 153.69 105.805Z" fill="#36356A"/>
<path d="M153.808 105.804C153.808 106.275 154.514 106.628 155.455 106.628C156.396 106.628 157.22 106.275 157.22 105.804C157.22 105.334 156.396 104.98 155.455 104.98C154.514 104.98 153.808 105.334 153.808 105.804Z" fill="#343469"/>
<path d="M153.926 105.804C153.926 106.275 154.631 106.628 155.455 106.628C156.279 106.628 156.985 106.275 156.985 105.804C156.985 105.334 156.279 104.98 155.455 104.98C154.631 104.98 153.926 105.334 153.926 105.804Z" fill="#333267"/>
<path d="M154.043 105.804C154.043 106.157 154.749 106.51 155.455 106.51C156.161 106.51 156.867 106.157 156.867 105.804C156.867 105.451 156.278 105.098 155.455 105.098C154.631 105.098 154.043 105.451 154.043 105.804Z" fill="#313066"/>
<path d="M154.161 105.807C154.161 106.16 154.749 106.396 155.455 106.396C156.161 106.396 156.75 106.16 156.75 105.807C156.75 105.454 156.161 105.219 155.455 105.219C154.749 105.219 154.161 105.454 154.161 105.807Z" fill="#2F2F65"/>
<path d="M154.396 105.807C154.396 106.16 154.867 106.396 155.455 106.396C156.043 106.396 156.632 106.16 156.632 105.807C156.632 105.454 156.043 105.219 155.455 105.219C154.867 105.219 154.396 105.454 154.396 105.807Z" fill="#2E2D64"/>
<path d="M154.514 105.807C154.514 106.042 154.985 106.277 155.455 106.277C155.926 106.277 156.514 106.042 156.514 105.807C156.514 105.571 156.044 105.336 155.455 105.336C154.867 105.336 154.514 105.571 154.514 105.807Z" fill="#2C2B63"/>
<path d="M154.631 105.807C154.631 106.042 154.984 106.277 155.455 106.277C155.926 106.277 156.279 106.042 156.279 105.807C156.279 105.571 155.926 105.336 155.455 105.336C154.984 105.336 154.631 105.571 154.631 105.807Z" fill="#2A2A61"/>
<path d="M154.749 105.806C154.749 106.042 155.102 106.159 155.455 106.159C155.808 106.159 156.161 106.042 156.161 105.806C156.161 105.571 155.808 105.453 155.455 105.453C155.102 105.453 154.749 105.571 154.749 105.806Z" fill="#292860"/>
<path d="M154.867 105.806C154.867 105.923 155.102 106.041 155.455 106.041C155.808 106.041 156.043 105.923 156.043 105.806C156.043 105.688 155.808 105.57 155.455 105.57C155.102 105.57 154.867 105.688 154.867 105.806Z" fill="#27265F"/>
<path d="M155.102 105.806C155.102 105.923 155.22 106.041 155.455 106.041L155.926 105.806C155.926 105.688 155.69 105.57 155.455 105.57C155.22 105.57 155.102 105.688 155.102 105.806Z" fill="#25245E"/>
<path d="M155.22 105.805H155.808C155.808 105.687 155.573 105.688 155.455 105.688C155.337 105.688 155.22 105.687 155.22 105.805Z" fill="#24235C"/>
<path d="M155.337 105.806H155.573C155.573 105.774 155.56 105.744 155.538 105.722C155.516 105.7 155.486 105.688 155.455 105.688C155.423 105.688 155.393 105.7 155.371 105.722C155.349 105.744 155.337 105.774 155.337 105.806Z" fill="#22215B"/>
</g>
</g>
<path d="M163.456 107.217C142.337 107.217 125.217 90.0923 125.217 68.9679C125.217 47.8435 142.337 30.7188 163.456 30.7188C184.574 30.7188 201.694 47.8435 201.694 68.9679C201.694 90.0923 184.574 107.217 163.456 107.217Z" fill="url(#paint21_radial_297_28457)"/>
<path d="M108.846 322.274L109.434 260.016L135.79 244.363L109.081 259.31L82.2553 244.363L108.728 260.016L108.846 322.274Z" fill="url(#paint22_linear_297_28457)"/>
<path d="M321.591 215.598L322.179 153.34L348.534 137.688L321.826 152.634L295 137.688L321.473 153.34L321.591 215.598Z" fill="url(#paint23_linear_297_28457)"/>
<path d="M420.591 295.598L421.179 233.34L447.534 217.688L420.826 232.634L394 217.688L420.473 233.34L420.591 295.598Z" fill="url(#paint24_linear_297_28457)"/>
<defs>
<linearGradient id="paint0_linear_297_28457" x1="174" y1="20" x2="-5.98687" y2="155.853" gradientUnits="userSpaceOnUse">
<stop stop-color="#04142B" stop-opacity="0"/>
<stop offset="1" stop-color="#F3F3FF"/>
</linearGradient>
<radialGradient id="paint1_radial_297_28457" cx="0" cy="0" r="1" gradientUnits="userSpaceOnUse" gradientTransform="translate(160.62 -8.46636) rotate(180) scale(143.013 143.052)">
<stop stop-color="#F3F3FF"/>
<stop offset="1" stop-color="#9EB5D6"/>
</radialGradient>
<linearGradient id="paint2_linear_297_28457" x1="118.203" y1="348.35" x2="117.894" y2="89.7932" gradientUnits="userSpaceOnUse">
<stop stop-color="#05152B" stop-opacity="0"/>
<stop offset="0.965217" stop-color="#163055"/>
<stop offset="1" stop-color="#173156"/>
</linearGradient>
<linearGradient id="paint3_linear_297_28457" x1="174.048" y1="301.76" x2="122.18" y2="96.5964" gradientUnits="userSpaceOnUse">
<stop stop-color="#04142A" stop-opacity="0"/>
<stop offset="1" stop-color="#1E3C67"/>
<stop offset="1" stop-color="#1E3C67"/>
</linearGradient>
<linearGradient id="paint4_linear_297_28457" x1="162.667" y1="433.753" x2="162.667" y2="101.562" gradientUnits="userSpaceOnUse">
<stop stop-color="#161242"/>
<stop offset="0.33" stop-color="#6D6A88"/>
<stop offset="0.66" stop-color="#BBBAC8"/>
<stop offset="0.89" stop-color="#ECECF0"/>
<stop offset="1" stop-color="white"/>
</linearGradient>
<radialGradient id="paint5_radial_297_28457" cx="0" cy="0" r="1" gradientUnits="userSpaceOnUse" gradientTransform="translate(110.545 205.279) scale(50.5693 50.5831)">
<stop stop-color="#F3F3FF"/>
<stop offset="1" stop-color="#CECEEF"/>
</radialGradient>
<linearGradient id="paint6_linear_297_28457" x1="123.217" y1="461.144" x2="123.217" y2="244.183" gradientUnits="userSpaceOnUse">
<stop stop-color="#161242" stop-opacity="0"/>
<stop offset="0.2" stop-color="#181546"/>
<stop offset="0.4" stop-color="#201D52"/>
<stop offset="0.59" stop-color="#2C2A66"/>
<stop offset="0.79" stop-color="#3E3C81"/>
<stop offset="0.99" stop-color="#5454A5"/>
<stop offset="1" stop-color="#5656A8"/>
</linearGradient>
<linearGradient id="paint7_linear_297_28457" x1="46.1279" y1="439.831" x2="140.092" y2="277.123" gradientUnits="userSpaceOnUse">
<stop stop-color="#161242" stop-opacity="0"/>
<stop offset="0.4" stop-color="#181446"/>
<stop offset="0.8" stop-color="#1E1B52"/>
<stop offset="1" stop-color="#22215B"/>
</linearGradient>
<linearGradient id="paint8_linear_297_28457" x1="109.828" y1="461.144" x2="109.828" y2="244.183" gradientUnits="userSpaceOnUse">
<stop stop-color="#161242"/>
<stop offset="0.33" stop-color="#6D6A88"/>
<stop offset="0.66" stop-color="#BBBAC8"/>
<stop offset="0.89" stop-color="#ECECF0"/>
<stop offset="1" stop-color="white"/>
</linearGradient>
<radialGradient id="paint9_radial_297_28457" cx="0" cy="0" r="1" gradientUnits="userSpaceOnUse" gradientTransform="translate(323.29 98.6033) scale(50.5693 50.5831)">
<stop stop-color="#F3F3FF"/>
<stop offset="1" stop-color="#CECEEF"/>
</radialGradient>
<linearGradient id="paint10_linear_297_28457" x1="335.962" y1="354.469" x2="335.962" y2="137.508" gradientUnits="userSpaceOnUse">
<stop stop-color="#161242" stop-opacity="0"/>
<stop offset="0.2" stop-color="#181546"/>
<stop offset="0.4" stop-color="#201D52"/>
<stop offset="0.59" stop-color="#2C2A66"/>
<stop offset="0.79" stop-color="#3E3C81"/>
<stop offset="0.99" stop-color="#5454A5"/>
<stop offset="1" stop-color="#5656A8"/>
</linearGradient>
<linearGradient id="paint11_linear_297_28457" x1="258.872" y1="333.155" x2="352.837" y2="170.448" gradientUnits="userSpaceOnUse">
<stop stop-color="#161242" stop-opacity="0"/>
<stop offset="0.4" stop-color="#181446"/>
<stop offset="0.8" stop-color="#1E1B52"/>
<stop offset="1" stop-color="#22215B"/>
</linearGradient>
<linearGradient id="paint12_linear_297_28457" x1="322.573" y1="354.469" x2="322.573" y2="137.508" gradientUnits="userSpaceOnUse">
<stop stop-color="#161242"/>
<stop offset="0.33" stop-color="#6D6A88"/>
<stop offset="0.66" stop-color="#BBBAC8"/>
<stop offset="0.89" stop-color="#ECECF0"/>
<stop offset="1" stop-color="white"/>
</linearGradient>
<radialGradient id="paint13_radial_297_28457" cx="0" cy="0" r="1" gradientUnits="userSpaceOnUse" gradientTransform="translate(422.29 178.603) scale(50.5693 50.5831)">
<stop stop-color="#F3F3FF"/>
<stop offset="1" stop-color="#CECEEF"/>
</radialGradient>
<linearGradient id="paint14_linear_297_28457" x1="434.962" y1="434.469" x2="434.962" y2="217.508" gradientUnits="userSpaceOnUse">
<stop stop-color="#161242" stop-opacity="0"/>
<stop offset="0.2" stop-color="#181546"/>
<stop offset="0.4" stop-color="#201D52"/>
<stop offset="0.59" stop-color="#2C2A66"/>
<stop offset="0.79" stop-color="#3E3C81"/>
<stop offset="0.99" stop-color="#5454A5"/>
<stop offset="1" stop-color="#5656A8"/>
</linearGradient>
<linearGradient id="paint15_linear_297_28457" x1="357.872" y1="413.155" x2="451.837" y2="250.448" gradientUnits="userSpaceOnUse">
<stop stop-color="#161242" stop-opacity="0"/>
<stop offset="0.4" stop-color="#181446"/>
<stop offset="0.8" stop-color="#1E1B52"/>
<stop offset="1" stop-color="#22215B"/>
</linearGradient>
<linearGradient id="paint16_linear_297_28457" x1="421.573" y1="434.469" x2="421.573" y2="217.508" gradientUnits="userSpaceOnUse">
<stop stop-color="#161242"/>
<stop offset="0.33" stop-color="#6D6A88"/>
<stop offset="0.66" stop-color="#BBBAC8"/>
<stop offset="0.89" stop-color="#ECECF0"/>
<stop offset="1" stop-color="white"/>
</linearGradient>
<linearGradient id="paint17_linear_297_28457" x1="75.0478" y1="303.973" x2="52.1747" y2="129.688" gradientUnits="userSpaceOnUse">
<stop stop-color="#041630" stop-opacity="0"/>
<stop offset="0.99" stop-color="#11294A"/>
</linearGradient>
<linearGradient id="paint18_linear_297_28457" x1="304.561" y1="380.432" x2="345.833" y2="295.899" gradientUnits="userSpaceOnUse">
<stop stop-color="#04142B" stop-opacity="0"/>
<stop offset="0.889892" stop-color="#142D50"/>
</linearGradient>
<linearGradient id="paint19_linear_297_28457" x1="285.431" y1="433.807" x2="356.939" y2="310.417" gradientUnits="userSpaceOnUse">
<stop stop-color="#041327" stop-opacity="0"/>
<stop offset="0.411458" stop-color="#05152B"/>
<stop offset="0.708333" stop-color="#163054"/>
</linearGradient>
<linearGradient id="paint20_linear_297_28457" x1="395.394" y1="370.407" x2="197.312" y2="247.36" gradientUnits="userSpaceOnUse">
<stop stop-color="#050F1F"/>
<stop offset="1" stop-color="#F3F3FF"/>
</linearGradient>
<radialGradient id="paint21_radial_297_28457" cx="0" cy="0" r="1" gradientUnits="userSpaceOnUse" gradientTransform="translate(187.87 55.3983) rotate(180) scale(54.7108 54.7257)">
<stop stop-color="#214170"/>
<stop offset="1" stop-color="#0B1C35"/>
</radialGradient>
<linearGradient id="paint22_linear_297_28457" x1="109.058" y1="322.297" x2="109.058" y2="244.316" gradientUnits="userSpaceOnUse">
<stop stop-color="#161242"/>
<stop offset="0.33" stop-color="#6D6A88"/>
<stop offset="0.66" stop-color="#BBBAC8"/>
<stop offset="0.89" stop-color="#ECECF0"/>
<stop offset="1" stop-color="white"/>
</linearGradient>
<linearGradient id="paint23_linear_297_28457" x1="321.802" y1="215.622" x2="321.802" y2="137.64" gradientUnits="userSpaceOnUse">
<stop stop-color="#161242"/>
<stop offset="0.33" stop-color="#6D6A88"/>
<stop offset="0.66" stop-color="#BBBAC8"/>
<stop offset="0.89" stop-color="#ECECF0"/>
<stop offset="1" stop-color="white"/>
</linearGradient>
<linearGradient id="paint24_linear_297_28457" x1="420.802" y1="295.622" x2="420.802" y2="217.64" gradientUnits="userSpaceOnUse">
<stop stop-color="#161242"/>
<stop offset="0.33" stop-color="#6D6A88"/>
<stop offset="0.66" stop-color="#BBBAC8"/>
<stop offset="0.89" stop-color="#ECECF0"/>
<stop offset="1" stop-color="white"/>
</linearGradient>
</defs>
</svg>
