<svg width="353" height="277" viewBox="0 0 353 277" fill="none" xmlns="http://www.w3.org/2000/svg">
<g opacity="0.85">
<path d="M313.4 155.539C313.4 144.662 304.58 135.844 293.7 135.844C282.82 135.844 274 144.662 274 155.539C274 166.416 282.82 175.234 293.7 175.234C304.58 175.234 313.4 166.416 313.4 155.539Z" fill="white" fill-opacity="0.08"/>
<path d="M293.7 136.344C304.304 136.344 312.9 144.938 312.9 155.539C312.9 166.14 304.304 174.734 293.7 174.734C283.096 174.734 274.5 166.14 274.5 155.539C274.5 144.938 283.096 136.344 293.7 136.344Z" stroke="white" stroke-opacity="0.5"/>
</g>
<path opacity="0.54" d="M308.26 193.399V193.4C308.26 198.386 309.244 203.322 311.155 207.927C313.066 212.532 315.866 216.715 319.396 220.235C322.926 223.756 327.117 226.545 331.726 228.444C336.336 230.343 341.276 231.313 346.261 231.3H350.929C350.244 242.572 348.885 250.998 346.189 257.313C343.464 263.698 339.368 267.936 333.165 270.77C326.932 273.618 318.555 275.058 307.258 275.779C295.966 276.5 281.816 276.5 264.06 276.5H45.0599C32.9781 276.5 24.2015 273.952 17.8136 269.451C11.429 264.952 7.3753 258.462 4.81102 250.472C2.24422 242.474 1.17768 232.996 0.756406 222.558C0.445161 214.846 0.486546 206.635 0.529421 198.128C0.544586 195.12 0.559938 192.074 0.559938 189V88C0.559938 64.7936 9.77866 42.5376 26.1881 26.1282C42.5975 9.71872 64.8535 0.5 88.0599 0.5H264.06C286.072 0.50007 302.539 0.500871 314.88 1.87211C327.224 3.24377 335.33 5.97771 340.706 11.3538C346.082 16.7299 348.816 24.836 350.188 37.1804C351.559 49.5212 351.56 65.9879 351.56 88V155.5H346.26C336.199 155.5 326.549 159.49 319.426 166.594C312.302 173.699 308.287 183.338 308.26 193.399Z" fill="url(#paint0_linear_363_35)" stroke="url(#paint1_linear_363_35)"/>
<g opacity="0.54">
<path d="M340.5 74.3506V124.773H290.311C281.845 124.773 273.727 128.135 267.741 134.119C261.755 140.103 258.392 148.219 258.392 156.681C258.392 165.144 261.755 173.26 267.741 179.244C273.727 185.227 281.845 188.589 290.311 188.589H340.5V190.602C340.5 240.644 306.311 271.344 277.324 271.344L34.519 271.344L34.5178 271.344C30.0475 271.355 25.619 270.482 21.4869 268.777C17.3547 267.072 13.6003 264.568 10.4393 261.408C7.2783 258.248 4.77303 254.495 3.06735 250.364C1.36167 246.234 0.489211 241.807 0.500102 237.338V237.337V74.3506C0.500102 65.3315 4.08418 56.6817 10.4639 50.3042C16.8437 43.9266 25.4966 40.3438 34.519 40.3438H306.481C315.504 40.3438 324.156 43.9266 330.536 50.3042C336.916 56.6817 340.5 65.3315 340.5 74.3506Z" fill="url(#paint2_linear_363_35)"/>
<path d="M340.5 74.3506V124.773H290.311C281.845 124.773 273.727 128.135 267.741 134.119C261.755 140.103 258.392 148.219 258.392 156.681C258.392 165.144 261.755 173.26 267.741 179.244C273.727 185.227 281.845 188.589 290.311 188.589H340.5V190.602C340.5 240.644 306.311 271.344 277.324 271.344L34.519 271.344L34.5178 271.344C30.0475 271.355 25.619 270.482 21.4869 268.777C17.3547 267.072 13.6003 264.568 10.4393 261.408C7.2783 258.248 4.77303 254.495 3.06735 250.364C1.36167 246.234 0.489211 241.807 0.500102 237.338V237.337V74.3506C0.500102 65.3315 4.08418 56.6817 10.4639 50.3042C16.8437 43.9266 25.4966 40.3438 34.519 40.3438H306.481C315.504 40.3438 324.156 43.9266 330.536 50.3042C336.916 56.6817 340.5 65.3315 340.5 74.3506Z" stroke="white" stroke-opacity="0.2"/>
<path d="M340.5 74.3506V124.773H290.311C281.845 124.773 273.727 128.135 267.741 134.119C261.755 140.103 258.392 148.219 258.392 156.681C258.392 165.144 261.755 173.26 267.741 179.244C273.727 185.227 281.845 188.589 290.311 188.589H340.5V190.602C340.5 240.644 306.311 271.344 277.324 271.344L34.519 271.344L34.5178 271.344C30.0475 271.355 25.619 270.482 21.4869 268.777C17.3547 267.072 13.6003 264.568 10.4393 261.408C7.2783 258.248 4.77303 254.495 3.06735 250.364C1.36167 246.234 0.489211 241.807 0.500102 237.338V237.337V74.3506C0.500102 65.3315 4.08418 56.6817 10.4639 50.3042C16.8437 43.9266 25.4966 40.3438 34.519 40.3438H306.481C315.504 40.3438 324.156 43.9266 330.536 50.3042C336.916 56.6817 340.5 65.3315 340.5 74.3506Z" stroke="url(#paint3_linear_363_35)"/>
</g>
<defs>
<linearGradient id="paint0_linear_363_35" x1="176.03" y1="-1.15625" x2="182.56" y2="128.402" gradientUnits="userSpaceOnUse">
<stop stop-color="#193356"/>
<stop offset="1" stop-color="#071323" stop-opacity="0"/>
</linearGradient>
<linearGradient id="paint1_linear_363_35" x1="152.56" y1="27.9023" x2="176.03" y2="277.001" gradientUnits="userSpaceOnUse">
<stop stop-color="white"/>
<stop offset="0.182292" stop-color="white" stop-opacity="0"/>
</linearGradient>
<linearGradient id="paint2_linear_363_35" x1="170.5" y1="39.8437" x2="170.5" y2="271.844" gradientUnits="userSpaceOnUse">
<stop stop-color="#2D3C56"/>
<stop offset="1" stop-color="#2D3C56" stop-opacity="0.16"/>
</linearGradient>
<linearGradient id="paint3_linear_363_35" x1="170.5" y1="39.8437" x2="170.5" y2="271.844" gradientUnits="userSpaceOnUse">
<stop stop-color="white"/>
<stop offset="1" stop-color="white" stop-opacity="0"/>
</linearGradient>
</defs>
</svg>
