<svg width="272" height="37" viewBox="0 0 272 37" fill="none" xmlns="http://www.w3.org/2000/svg">
<path d="M8.27541e-08 0V8.88C-0.000149805 9.73691 0.203315 10.5814 0.593346 11.3427C0.983376 12.104 1.54861 12.7598 2.24169 13.2554L35.3256 37V30.1403C35.3257 28.8688 35.0283 27.6153 34.4577 26.4815C33.8871 25.3477 33.0593 24.3657 32.0416 23.6154L8.27541e-08 0Z" fill="#447CD5"/>
<path d="M25.3619 0.902439V9.44452C25.3618 10.2702 25.5607 11.0838 25.9421 11.8175C26.3234 12.5512 26.8761 13.1836 27.5539 13.6618L35.3256 18.0488V11.4457C35.3261 10.2217 35.0356 9.0149 34.4776 7.92348C33.9196 6.83206 33.1099 5.8869 32.1144 5.16496L25.3619 0.902439Z" fill="#447CD5"/>
<path d="M8.09194e-08 18.9512V27.9488C-0.000146484 28.8171 0.198808 29.6727 0.580192 30.4441C0.961575 31.2154 1.51428 31.88 2.192 32.3822L9.96362 37V30.0494C9.96373 28.7611 9.673 27.4909 9.11503 26.3421C8.55707 25.1934 7.74761 24.1984 6.75248 23.4381L8.09194e-08 18.9512Z" fill="#447CD5"/>
<path d="M65.47 12.56C64.6327 11.8667 63.7953 11.36 62.958 11.04C62.1206 10.6933 61.3095 10.52 60.5244 10.52C59.5301 10.52 58.7189 10.76 58.0909 11.24C57.4629 11.72 57.1489 12.3467 57.1489 13.12C57.1489 13.6533 57.3059 14.0933 57.6199 14.44C57.9339 14.7867 58.3395 15.0933 58.8367 15.36C59.36 15.6 59.9357 15.8133 60.5637 16C61.2179 16.1867 61.859 16.3867 62.487 16.6C64.999 17.4533 66.8307 18.6 67.9821 20.04C69.1596 21.4533 69.7483 23.3067 69.7483 25.6C69.7483 27.1467 69.4867 28.5467 68.9633 29.8C68.4662 31.0533 67.7204 32.1333 66.726 33.04C65.7579 33.92 64.5542 34.6 63.115 35.08C61.702 35.5867 60.0927 35.84 58.2872 35.84C54.5453 35.84 51.0781 34.7067 47.8857 32.44L51.1828 26.12C52.3342 27.16 53.4724 27.9333 54.5976 28.44C55.7228 28.9467 56.8349 29.2 57.9339 29.2C59.1899 29.2 60.1189 28.9067 60.7207 28.32C61.3487 27.7333 61.6627 27.0667 61.6627 26.32C61.6627 25.8667 61.5842 25.48 61.4272 25.16C61.2702 24.8133 61.0085 24.5067 60.6422 24.24C60.2759 23.9467 59.7918 23.68 59.1899 23.44C58.6143 23.2 57.9077 22.9333 57.0704 22.64C56.076 22.32 55.0948 21.9733 54.1266 21.6C53.1846 21.2 52.3342 20.68 51.5753 20.04C50.8426 19.4 50.2408 18.6 49.7698 17.64C49.3249 16.6533 49.1025 15.4133 49.1025 13.92C49.1025 12.4267 49.338 11.08 49.809 9.88C50.3062 8.65333 50.9865 7.61333 51.8501 6.76C52.7397 5.88 53.8126 5.2 55.0686 4.72C56.3508 4.24 57.7769 4 59.3469 4C60.8123 4 62.3431 4.21333 63.9393 4.64C65.5354 5.04 67.0662 5.64 68.5316 6.44L65.47 12.56Z" fill="white"/>
<path d="M82.2883 18.68H84.8396C87.6656 18.68 89.0787 17.4267 89.0787 14.92C89.0787 12.4133 87.6656 11.16 84.8396 11.16H82.2883V18.68ZM82.2883 35H74.5952V4.84H86.8414C90.1646 4.84 92.7028 5.72 94.456 7.48C96.2354 9.24 97.125 11.72 97.125 14.92C97.125 18.12 96.2354 20.6 94.456 22.36C92.7028 24.12 90.1646 25 86.8414 25H82.2883V35Z" fill="white"/>
<path d="M108.89 4.84V28.36H118.114V35H101.197V4.84H108.89Z" fill="white"/>
<path d="M138.925 11.48H129.78V16.52H138.415V23.16H129.78V28.36H138.925V35H122.087V4.84H138.925V11.48Z" fill="white"/>
<path d="M144.472 35V4.84H152.165L166.374 23.28V4.84H174.028V35H166.374L152.165 16.56V35H144.472Z" fill="white"/>
<path d="M187.928 28.36H189.694C191.028 28.36 192.219 28.1467 193.266 27.72C194.312 27.2933 195.189 26.7067 195.896 25.96C196.628 25.2133 197.178 24.3333 197.544 23.32C197.937 22.28 198.133 21.1467 198.133 19.92C198.133 18.72 197.937 17.6 197.544 16.56C197.152 15.52 196.589 14.6267 195.856 13.88C195.15 13.1333 194.273 12.5467 193.226 12.12C192.18 11.6933 191.002 11.48 189.694 11.48H187.928V28.36ZM180.235 4.84H191.617C193.632 4.84 195.516 5.25333 197.269 6.08C199.049 6.90667 200.593 8.01333 201.901 9.4C203.235 10.76 204.282 12.36 205.041 14.2C205.8 16.0133 206.179 17.92 206.179 19.92C206.179 21.8933 205.8 23.8 205.041 25.64C204.308 27.4533 203.275 29.0533 201.94 30.44C200.632 31.8267 199.088 32.9333 197.309 33.76C195.555 34.5867 193.658 35 191.617 35H180.235V4.84Z" fill="white"/>
<path d="M217.803 19.92C217.803 21.12 218.025 22.2267 218.47 23.24C218.915 24.2533 219.517 25.1333 220.275 25.88C221.034 26.6267 221.911 27.2133 222.905 27.64C223.926 28.04 224.999 28.24 226.124 28.24C227.249 28.24 228.309 28.04 229.303 27.64C230.324 27.2133 231.213 26.6267 231.972 25.88C232.757 25.1333 233.372 24.2533 233.817 23.24C234.262 22.2267 234.484 21.12 234.484 19.92C234.484 18.72 234.262 17.6133 233.817 16.6C233.372 15.5867 232.757 14.7067 231.972 13.96C231.213 13.2133 230.324 12.64 229.303 12.24C228.309 11.8133 227.249 11.6 226.124 11.6C224.999 11.6 223.926 11.8133 222.905 12.24C221.911 12.64 221.034 13.2133 220.275 13.96C219.517 14.7067 218.915 15.5867 218.47 16.6C218.025 17.6133 217.803 18.72 217.803 19.92ZM209.756 19.92C209.756 17.68 210.162 15.6 210.973 13.68C211.784 11.7333 212.909 10.04 214.349 8.6C215.788 7.16 217.502 6.04 219.49 5.24C221.505 4.41333 223.716 4 226.124 4C228.505 4 230.703 4.41333 232.718 5.24C234.733 6.04 236.46 7.16 237.899 8.6C239.364 10.04 240.503 11.7333 241.314 13.68C242.125 15.6 242.53 17.68 242.53 19.92C242.53 22.16 242.125 24.2533 241.314 26.2C240.503 28.12 239.364 29.8 237.899 31.24C236.46 32.68 234.733 33.8133 232.718 34.64C230.703 35.44 228.505 35.84 226.124 35.84C223.716 35.84 221.505 35.44 219.49 34.64C217.502 33.8133 215.788 32.68 214.349 31.24C212.909 29.8 211.784 28.12 210.973 26.2C210.162 24.2533 209.756 22.16 209.756 19.92Z" fill="white"/>
<path d="M255.083 18.32H256.535C258.053 18.32 259.217 18 260.029 17.36C260.84 16.72 261.245 15.8 261.245 14.6C261.245 13.4 260.84 12.48 260.029 11.84C259.217 11.2 258.053 10.88 256.535 10.88H255.083V18.32ZM272 35H262.423L255.083 23.4V35H247.39V4.84H259.361C261.01 4.84 262.449 5.09333 263.679 5.6C264.909 6.08 265.916 6.74667 266.701 7.6C267.512 8.45333 268.114 9.44 268.507 10.56C268.925 11.68 269.135 12.88 269.135 14.16C269.135 16.4533 268.585 18.32 267.486 19.76C266.413 21.1733 264.817 22.1333 262.698 22.64L272 35Z" fill="white"/>
</svg>
