<svg width="135" height="41" viewBox="0 0 135 41" fill="none" xmlns="http://www.w3.org/2000/svg">
    <g clip-path="url(#clip0_129_355)">
        <g clip-path="url(#clip1_129_355)">
            <path d="M76.6973 25.0962L79.5293 13.1333H81.1113L81.4727 15.1255L78.4551 27.3521H76.7559L76.6973 25.0962ZM75.2422 13.1333L77.5859 25.0962L77.3906 27.3521H75.4961L72.3418 13.1333H75.2422ZM83.9629 25.0474L86.2773 13.1333H89.1777L86.0332 27.3521H84.1387L83.9629 25.0474ZM82 13.1333L84.8516 25.145L84.7734 27.3521H83.0742L80.0371 15.1157L80.4277 13.1333H82ZM93.5625 16.7856V27.3521H90.7402V16.7856H93.5625ZM90.5645 14.0317C90.5645 13.6216 90.7077 13.283 90.9941 13.0161C91.2806 12.7492 91.6647 12.6157 92.1465 12.6157C92.6217 12.6157 93.0026 12.7492 93.2891 13.0161C93.582 13.283 93.7285 13.6216 93.7285 14.0317C93.7285 14.4419 93.582 14.7804 93.2891 15.0474C93.0026 15.3143 92.6217 15.4478 92.1465 15.4478C91.6647 15.4478 91.2806 15.3143 90.9941 15.0474C90.7077 14.7804 90.5645 14.4419 90.5645 14.0317ZM98.6992 12.3423V27.3521H95.8867V12.3423H98.6992ZM105.359 16.7856L100.77 22.02L98.3086 24.5103L97.2832 22.479L99.2363 19.9985L101.98 16.7856H105.359ZM102.439 27.3521L99.3145 22.4692L101.258 20.77L105.682 27.3521H102.439ZM109.539 16.7856V27.3521H106.717V16.7856H109.539ZM106.541 14.0317C106.541 13.6216 106.684 13.283 106.971 13.0161C107.257 12.7492 107.641 12.6157 108.123 12.6157C108.598 12.6157 108.979 12.7492 109.266 13.0161C109.559 13.283 109.705 13.6216 109.705 14.0317C109.705 14.4419 109.559 14.7804 109.266 15.0474C108.979 15.3143 108.598 15.4478 108.123 15.4478C107.641 15.4478 107.257 15.3143 106.971 15.0474C106.684 14.7804 106.541 14.4419 106.541 14.0317Z" fill="#EAF2F7"/>
        </g>
    </g>
    <path d="M17.373 0.352051V9.71208C17.3729 10.6153 17.586 11.5055 17.9945 12.3079C18.403 13.1103 18.9951 13.8016 19.721 14.324L54.373 39.3521V32.1216C54.373 30.7815 54.0618 29.4603 53.4641 28.2651C52.8663 27.0701 51.9993 26.0349 50.9334 25.2439L17.373 0.352051Z" fill="white"/>
    <path d="M43.8655 1.25378V10.2384C43.8655 11.1068 44.0752 11.9626 44.4774 12.7344C44.8793 13.506 45.4624 14.1712 46.177 14.6743L54.373 19.2885V12.3433C54.3737 11.0559 54.0674 9.7865 53.4786 8.63855C52.8902 7.49056 52.0364 6.4965 50.9866 5.73715L43.8655 1.25378Z" fill="white"/>
    <path d="M17.373 20.4156V29.8557C17.3729 30.7667 17.5827 31.6644 17.9849 32.4739C18.3871 33.283 18.97 33.9802 19.6847 34.5073L27.8806 39.3521V32.0598C27.8807 30.7081 27.5741 29.3755 26.9857 28.17C26.3973 26.9648 25.5436 25.9206 24.4942 25.1232L17.373 20.4156Z" fill="white"/>
    <defs>
        <clipPath id="clip0_129_355">
            <rect width="38.78" height="24" fill="white" transform="translate(72 8.35205)"/>
        </clipPath>
        <clipPath id="clip1_129_355">
            <rect width="38.78" height="23.5" fill="white" transform="translate(72 8.35205)"/>
        </clipPath>
    </defs>
</svg>
