<svg width="24" height="24" viewBox="0 0 24 24" fill="none" xmlns="http://www.w3.org/2000/svg">
    <path d="M8.48413 20.4373C9.26078 20.4373 9.89038 19.8077 9.89038 19.0311C9.89038 18.2544 9.26078 17.6248 8.48413 17.6248C7.70748 17.6248 7.07788 18.2544 7.07788 19.0311C7.07788 19.8077 7.70748 20.4373 8.48413 20.4373Z" fill="white"/>
    <path d="M18.3279 20.4373C19.1045 20.4373 19.7341 19.8077 19.7341 19.0311C19.7341 18.2544 19.1045 17.6248 18.3279 17.6248C17.5512 17.6248 16.9216 18.2544 16.9216 19.0311C16.9216 19.8077 17.5512 20.4373 18.3279 20.4373Z" fill="white"/>
    <path d="M20.824 6.05787C20.7252 5.93704 20.6007 5.83972 20.4597 5.77298C20.3186 5.70625 20.1644 5.67176 20.0083 5.67203H6.63359L6.36421 4.14361C6.33548 3.9808 6.25031 3.83333 6.12365 3.72708C5.99699 3.62084 5.83695 3.56262 5.67163 3.56265H2.85913C2.67265 3.56265 2.49381 3.63673 2.36195 3.76859C2.23008 3.90045 2.15601 4.0793 2.15601 4.26578C2.15601 4.45226 2.23008 4.6311 2.36195 4.76296C2.49381 4.89482 2.67265 4.9689 2.85913 4.9689H5.08188L7.08843 16.3411C7.11715 16.5039 7.20232 16.6513 7.32898 16.7576C7.45564 16.8638 7.61568 16.9221 7.781 16.922H19.031C19.2175 16.922 19.3963 16.8479 19.5282 16.7161C19.66 16.5842 19.7341 16.4054 19.7341 16.2189C19.7341 16.0324 19.66 15.8536 19.5282 15.7217C19.3963 15.5899 19.2175 15.5158 19.031 15.5158H8.37075L8.1229 14.1095H18.7427C18.9866 14.1092 19.2228 14.0247 19.4115 13.8702C19.6001 13.7157 19.7296 13.5008 19.7781 13.2618L21.0437 6.9337C21.0742 6.78055 21.0703 6.62254 21.0323 6.47108C20.9943 6.31962 20.9231 6.17848 20.824 6.05787Z" fill="white"/>
</svg>
