<svg width="11" height="12" viewBox="0 0 11 12" fill="none" xmlns="http://www.w3.org/2000/svg">
    <path d="M10.9111 0.684654C10.9067 0.663061 10.8962 0.643187 10.8808 0.627361C10.8655 0.611535 10.8459 0.600413 10.8245 0.595298C9.39454 0.245689 6.09058 1.49154 4.30054 3.28084C3.98128 3.59753 3.69022 3.94144 3.43067 4.30868C2.87867 4.25985 2.32667 4.30062 1.85621 4.5057C0.528816 5.08993 0.142342 6.61434 0.0346761 7.2701C0.028569 7.30599 0.0308726 7.34281 0.0414055 7.37766C0.0519384 7.41252 0.0704134 7.44445 0.0953775 7.47095C0.120342 7.49745 0.151114 7.5178 0.185274 7.5304C0.219434 7.54299 0.256051 7.54749 0.292244 7.54354L2.42384 7.30843C2.42536 7.46914 2.43505 7.62966 2.45289 7.78939C2.46361 7.9003 2.51285 8.00396 2.59205 8.08236L3.41749 8.90584C3.49595 8.98494 3.59957 9.03415 3.71046 9.045C3.86929 9.06277 4.02891 9.07246 4.18873 9.07405L3.95484 11.203C3.95094 11.2391 3.95547 11.2757 3.96809 11.3099C3.9807 11.344 4.00105 11.3748 4.02754 11.3997C4.05403 11.4247 4.08594 11.4431 4.12077 11.4537C4.15559 11.4642 4.19239 11.4666 4.22828 11.4605C4.88282 11.3555 6.40992 10.9691 6.99073 9.64168C7.19581 9.17122 7.2378 8.62191 7.19043 8.07259C7.55856 7.81303 7.90337 7.52189 8.22095 7.20247C10.0166 5.41585 11.2554 2.18563 10.9111 0.684654ZM6.42945 5.07113C6.26548 4.90727 6.1538 4.69846 6.10852 4.47112C6.06324 4.24378 6.0864 4.00811 6.17507 3.79393C6.26375 3.57976 6.41395 3.39669 6.60668 3.26789C6.79941 3.13909 7.02601 3.07034 7.25782 3.07034C7.48962 3.07034 7.71623 3.13909 7.90896 3.26789C8.10169 3.39669 8.25189 3.57976 8.34056 3.79393C8.42924 4.00811 8.4524 4.24378 8.40712 4.47112C8.36184 4.69846 8.25015 4.90727 8.08619 5.07113C7.97746 5.18001 7.84833 5.26639 7.70619 5.32532C7.56405 5.38426 7.41169 5.41459 7.25782 5.41459C7.10394 5.41459 6.95158 5.38426 6.80944 5.32532C6.6673 5.26639 6.53818 5.18001 6.42945 5.07113Z" fill="white"/>
</svg>
