<svg width="24" height="24" viewBox="0 0 24 24" fill="none" xmlns="http://www.w3.org/2000/svg">
    <path d="M13.4061 10.6056H19.5584C19.6019 10.6056 19.6437 10.6229 19.6744 10.6537C19.7052 10.6844 19.7225 10.7262 19.7225 10.7697V19.0314C19.7225 19.7742 19.4274 20.4866 18.9021 21.0119C18.3769 21.5371 17.6645 21.8322 16.9217 21.8322H7.07794C6.33513 21.8322 5.62274 21.5371 5.09749 21.0119C4.57224 20.4866 4.27716 19.7742 4.27716 19.0314V4.9689C4.27716 4.22609 4.57224 3.5137 5.09749 2.98845C5.62274 2.4632 6.33513 2.16812 7.07794 2.16812H11.1209C11.1644 2.16812 11.2062 2.18541 11.2369 2.21617C11.2677 2.24694 11.285 2.28867 11.285 2.33218V8.48453C11.285 9.04707 11.5084 9.58658 11.9062 9.98437C12.304 10.3821 12.8435 10.6056 13.4061 10.6056ZM8.48419 17.6369H15.5154C15.705 17.6369 15.8869 17.5616 16.0209 17.4275C16.155 17.2934 16.2303 17.1116 16.2303 16.922C16.2303 16.7324 16.155 16.5506 16.0209 16.4166C15.8869 16.2825 15.705 16.2072 15.5154 16.2072H8.48419C8.2946 16.2072 8.11278 16.2825 7.97872 16.4166C7.84466 16.5506 7.76935 16.7324 7.76935 16.922C7.76935 17.1116 7.84466 17.2934 7.97872 17.4275C8.11278 17.5616 8.2946 17.6369 8.48419 17.6369ZM8.48419 14.1212H15.5154C15.705 14.1212 15.8869 14.0459 16.0209 13.9119C16.155 13.7778 16.2303 13.596 16.2303 13.4064C16.2303 13.2168 16.155 13.035 16.0209 12.9009C15.8869 12.7669 15.705 12.6916 15.5154 12.6916H8.48419C8.2946 12.6916 8.11278 12.7669 7.97872 12.9009C7.84466 13.035 7.76935 13.2168 7.76935 13.4064C7.76935 13.596 7.84466 13.7778 7.97872 13.9119C8.11278 14.0459 8.2946 14.1212 8.48419 14.1212Z" fill="white" stroke="#0075FF" stroke-width="0.0234375"/>
    <path d="M12.8445 2.72744L19.1642 9.04717L12.8445 2.72744ZM12.8445 2.72744C12.8445 2.72744 12.8445 2.72743 12.8445 2.72743M12.8445 2.72744L12.8445 2.72743M12.8445 2.72743C12.8338 2.71685 12.8203 2.70965 12.8056 2.70674C12.7908 2.70383 12.7756 2.70533 12.7617 2.71107C12.7478 2.71681 12.7359 2.72652 12.7276 2.73899C12.7192 2.75145 12.7147 2.76611 12.7146 2.78112V8.48564C12.7146 8.66901 12.7875 8.84487 12.9171 8.97453C13.0468 9.1042 13.2227 9.17704 13.406 9.17704H19.1105C19.1255 9.17698 19.1402 9.17248 19.1527 9.1641C19.1651 9.15573 19.1749 9.14386 19.1806 9.12998C19.1863 9.1161 19.1878 9.10083 19.1849 9.0861C19.182 9.07138 19.1748 9.05784 19.1643 9.04719L12.8445 2.72743Z" fill="white" stroke="#0075FF" stroke-width="0.0234375"/>
</svg>
