<svg width="37" height="38" viewBox="0 0 37 38" fill="none" xmlns="http://www.w3.org/2000/svg">
    <rect opacity="0.08" x="-0.00012207" y="0.500031" width="37" height="37" rx="12" fill="white"/>
    <g clip-path="url(#clip0_0_243)">
        <path d="M11.9999 17.5C10.8999 17.5 9.99988 18.4 9.99988 19.5C9.99988 20.6 10.8999 21.5 11.9999 21.5C13.0999 21.5 13.9999 20.6 13.9999 19.5C13.9999 18.4 13.0999 17.5 11.9999 17.5ZM23.9999 17.5C22.8999 17.5 21.9999 18.4 21.9999 19.5C21.9999 20.6 22.8999 21.5 23.9999 21.5C25.0999 21.5 25.9999 20.6 25.9999 19.5C25.9999 18.4 25.0999 17.5 23.9999 17.5ZM17.9999 17.5C16.8999 17.5 15.9999 18.4 15.9999 19.5C15.9999 20.6 16.8999 21.5 17.9999 21.5C19.0999 21.5 19.9999 20.6 19.9999 19.5C19.9999 18.4 19.0999 17.5 17.9999 17.5Z" fill="#7551FF"/>
    </g>
    <defs>
        <clipPath id="clip0_0_243">
            <rect width="24" height="24" fill="white" transform="translate(5.99988 7.50003)"/>
        </clipPath>
    </defs>
</svg>
