<svg width="13" height="14" viewBox="0 0 13 14" fill="none" xmlns="http://www.w3.org/2000/svg">
    <path d="M11.7139 3.69288C11.6858 3.63817 11.6451 3.59088 11.5953 3.55486C11.5454 3.51884 11.4877 3.4951 11.427 3.48559C11.3662 3.47607 11.304 3.48104 11.2455 3.50009C11.187 3.51914 11.1339 3.55174 11.0904 3.59522L9.59037 5.0962C9.51674 5.16876 9.41751 5.20944 9.31412 5.20944C9.21074 5.20944 9.11151 5.16876 9.03788 5.0962L8.38944 4.44678C8.35316 4.41051 8.32438 4.36744 8.30474 4.32005C8.28511 4.27265 8.275 4.22185 8.275 4.17054C8.275 4.11924 8.28511 4.06843 8.30474 4.02103C8.32438 3.97364 8.35316 3.93057 8.38944 3.89429L9.88309 2.4004C9.92787 2.35563 9.96109 2.30064 9.9799 2.24018C9.9987 2.17972 10.0025 2.11559 9.99105 2.05332C9.97956 1.99106 9.95312 1.93251 9.91398 1.88273C9.87484 1.83296 9.82419 1.79344 9.76639 1.76759C8.63822 1.26319 7.23002 1.52638 6.34208 2.40772C5.58769 3.15675 5.36283 4.32716 5.72562 5.6189C5.74518 5.68779 5.7453 5.76074 5.72595 5.82969C5.7066 5.89863 5.66855 5.96088 5.61601 6.00953L1.55155 9.72169C1.39321 9.86385 1.2655 10.0368 1.17619 10.2299C1.08689 10.4231 1.03787 10.6324 1.03213 10.8451C1.02638 11.0578 1.06403 11.2695 1.14279 11.4672C1.22154 11.6649 1.33974 11.8445 1.49017 11.995C1.64061 12.1455 1.82013 12.2637 2.01778 12.3426C2.21544 12.4214 2.42708 12.4592 2.6398 12.4535C2.85252 12.4479 3.06186 12.3989 3.25505 12.3097C3.44824 12.2205 3.62123 12.0929 3.76347 11.9346L7.51542 7.86109C7.56337 7.80922 7.62456 7.77142 7.69241 7.75176C7.76025 7.7321 7.83218 7.73133 7.90043 7.74952C8.26819 7.85028 8.64754 7.90257 9.02885 7.90504C9.84428 7.90504 10.5599 7.64112 11.076 7.13258C12.0318 6.19093 12.1775 4.59376 11.7139 3.69288ZM2.67924 11.6672C2.51845 11.6848 2.35617 11.652 2.21481 11.5734C2.07345 11.4948 1.95997 11.3743 1.89003 11.2284C1.82009 11.0826 1.79714 10.9186 1.82435 10.7592C1.85156 10.5997 1.92759 10.4527 2.04194 10.3383C2.15629 10.2239 2.30333 10.1478 2.46276 10.1205C2.62219 10.0933 2.78616 10.1162 2.93203 10.186C3.0779 10.2559 3.19848 10.3694 3.27713 10.5107C3.35578 10.652 3.38863 10.8143 3.37113 10.9751C3.35189 11.152 3.27281 11.3171 3.14699 11.4429C3.02117 11.5688 2.85615 11.6479 2.67924 11.6672Z" fill="white"/>
</svg>
