<svg width="217" height="18" viewBox="0 0 217 18" fill="none" xmlns="http://www.w3.org/2000/svg">
    <path d="M17.9739 17.752V0.23943H29.8932V3.29216H21.7138V7.46508H29.28V10.5178H21.7138V14.6993H29.9278V17.752H17.9739Z" fill="white"/>
    <path d="M49.7544 17.752V0.23943H61.6736V3.29216H53.4942V7.46508H61.0604V10.5178H53.4942V14.6993H61.7082V17.752H49.7544Z" fill="white"/>
    <path d="M79.4424 0.23943V17.752H76.2121L68.5164 6.72969H68.3869V17.752H64.647V0.23943H67.9291L75.5644 11.2532H75.7198V0.23943H79.4424Z" fill="white"/>
    <path d="M81.8587 3.29216V0.23943H96.3864V3.29216H90.9709V17.752H87.2742V3.29216H81.8587Z" fill="white"/>
    <path d="M98.7789 17.752V0.23943H110.698V3.29216H102.519V7.46508H110.085V10.5178H102.519V14.6993H110.733V17.752H98.7789Z" fill="white"/>
    <path d="M113.671 17.752V0.23943H120.65C121.986 0.23943 123.126 0.47601 124.071 0.949169C125.021 1.41663 125.743 2.08076 126.239 2.94157C126.74 3.79667 126.99 4.80285 126.99 5.96009C126.99 7.12304 126.737 8.12352 126.23 8.96152C125.723 9.79382 124.989 10.4323 124.027 10.877C123.072 11.3216 121.914 11.5439 120.555 11.5439H115.883V8.56817H119.951C120.665 8.56817 121.258 8.47126 121.73 8.27744C122.202 8.08361 122.553 7.79287 122.784 7.40523C123.02 7.01758 123.138 6.53587 123.138 5.96009C123.138 5.37862 123.02 4.88836 122.784 4.48931C122.553 4.09026 122.199 3.78812 121.721 3.5829C121.249 3.37197 120.653 3.26651 119.933 3.26651H117.411V17.752H113.671ZM123.224 9.78242L127.621 17.752H123.492L119.191 9.78242H123.224Z" fill="white"/>
    <path d="M152.15 17.752V0.23943H155.89V14.6993H163.473V17.752H152.15Z" fill="white"/>
    <path d="M181.516 8.99572C181.516 10.9055 181.151 12.5302 180.419 13.8698C179.694 15.2095 178.704 16.2328 177.448 16.9397C176.199 17.6409 174.794 17.9914 173.233 17.9914C171.661 17.9914 170.251 17.638 169.001 16.9311C167.752 16.2242 166.764 15.201 166.039 13.8613C165.313 12.5216 164.95 10.8998 164.95 8.99572C164.95 7.08599 165.313 5.46128 166.039 4.12162C166.764 2.78195 167.752 1.76152 169.001 1.06033C170.251 0.353444 171.661 0 173.233 0C174.794 0 176.199 0.353444 177.448 1.06033C178.704 1.76152 179.694 2.78195 180.419 4.12162C181.151 5.46128 181.516 7.08599 181.516 8.99572ZM177.725 8.99572C177.725 7.75867 177.538 6.71544 177.163 5.86603C176.795 5.01663 176.274 4.37245 175.6 3.93349C174.926 3.49454 174.137 3.27506 173.233 3.27506C172.329 3.27506 171.54 3.49454 170.867 3.93349C170.193 4.37245 169.669 5.01663 169.295 5.86603C168.926 6.71544 168.742 7.75867 168.742 8.99572C168.742 10.2328 168.926 11.276 169.295 12.1254C169.669 12.9748 170.193 13.619 170.867 14.058C171.54 14.4969 172.329 14.7164 173.233 14.7164C174.137 14.7164 174.926 14.4969 175.6 14.058C176.274 13.619 176.795 12.9748 177.163 12.1254C177.538 11.276 177.725 10.2328 177.725 8.99572Z" fill="white"/>
    <path d="M195.213 0.23943H198.953V11.6124C198.953 12.8893 198.645 14.0067 198.028 14.9644C197.418 15.9221 196.563 16.6689 195.463 17.2048C194.363 17.7349 193.082 18 191.62 18C190.151 18 188.867 17.7349 187.768 17.2048C186.668 16.6689 185.813 15.9221 185.202 14.9644C184.592 14.0067 184.287 12.8893 184.287 11.6124V0.23943H188.027V11.296C188.027 11.9629 188.173 12.5558 188.467 13.0746C188.767 13.5933 189.187 14.0009 189.728 14.2974C190.269 14.5938 190.9 14.742 191.62 14.742C192.345 14.742 192.976 14.5938 193.511 14.2974C194.052 14.0009 194.47 13.5933 194.764 13.0746C195.063 12.5558 195.213 11.9629 195.213 11.296V0.23943Z" fill="white"/>
    <path d="M214.826 14.742V0.444656H202.559V3.29046H211.68V14.742H202.559V17.752H217V14.742H214.826Z" fill="white"/>
    <path d="M12.2675 14.742V0.444656H0V3.29046H9.12084V14.742H0L0 17.752H14.4413V14.742H12.2675Z" fill="white"/>
    <path d="M33.8231 0.444656H46.0906V3.29046H36.9697V14.742H46.0906V17.752H33.8231V0.444656Z" fill="white"/>
    <path d="M136.813 0.444656H149.08V3.29046H139.959V14.742H149.08V17.752H136.813V0.444656Z" fill="white"/>
    <path d="M17.9739 17.752V0.23943H29.8932V3.29216H21.7138V7.46508H29.28V10.5178H21.7138V14.6993H29.9278V17.752H17.9739Z" stroke="white"/>
    <path d="M49.7544 17.752V0.23943H61.6736V3.29216H53.4942V7.46508H61.0604V10.5178H53.4942V14.6993H61.7082V17.752H49.7544Z" stroke="white"/>
    <path d="M79.4424 0.23943V17.752H76.2121L68.5164 6.72969H68.3869V17.752H64.647V0.23943H67.9291L75.5644 11.2532H75.7198V0.23943H79.4424Z" stroke="white"/>
    <path d="M81.8587 3.29216V0.23943H96.3864V3.29216H90.9709V17.752H87.2742V3.29216H81.8587Z" stroke="white"/>
    <path d="M98.7789 17.752V0.23943H110.698V3.29216H102.519V7.46508H110.085V10.5178H102.519V14.6993H110.733V17.752H98.7789Z" stroke="white"/>
    <path d="M113.671 17.752V0.23943H120.65C121.986 0.23943 123.126 0.47601 124.071 0.949169C125.021 1.41663 125.743 2.08076 126.239 2.94157C126.74 3.79667 126.99 4.80285 126.99 5.96009C126.99 7.12304 126.737 8.12352 126.23 8.96152C125.723 9.79382 124.989 10.4323 124.027 10.877C123.072 11.3216 121.914 11.5439 120.555 11.5439H115.883V8.56817H119.951C120.665 8.56817 121.258 8.47126 121.73 8.27744C122.202 8.08361 122.553 7.79287 122.784 7.40523C123.02 7.01758 123.138 6.53587 123.138 5.96009C123.138 5.37862 123.02 4.88836 122.784 4.48931C122.553 4.09026 122.199 3.78812 121.721 3.5829C121.249 3.37197 120.653 3.26651 119.933 3.26651H117.411V17.752H113.671ZM123.224 9.78242L127.621 17.752H123.492L119.191 9.78242H123.224Z" stroke="white"/>
    <path d="M152.15 17.752V0.23943H155.89V14.6993H163.473V17.752H152.15Z" stroke="white"/>
    <path d="M181.516 8.99572C181.516 10.9055 181.151 12.5302 180.419 13.8698C179.694 15.2095 178.704 16.2328 177.448 16.9397C176.199 17.6409 174.794 17.9914 173.233 17.9914C171.661 17.9914 170.251 17.638 169.001 16.9311C167.752 16.2242 166.764 15.201 166.039 13.8613C165.313 12.5216 164.95 10.8998 164.95 8.99572C164.95 7.08599 165.313 5.46128 166.039 4.12162C166.764 2.78195 167.752 1.76152 169.001 1.06033C170.251 0.353444 171.661 0 173.233 0C174.794 0 176.199 0.353444 177.448 1.06033C178.704 1.76152 179.694 2.78195 180.419 4.12162C181.151 5.46128 181.516 7.08599 181.516 8.99572ZM177.725 8.99572C177.725 7.75867 177.538 6.71544 177.163 5.86603C176.795 5.01663 176.274 4.37245 175.6 3.93349C174.926 3.49454 174.137 3.27506 173.233 3.27506C172.329 3.27506 171.54 3.49454 170.867 3.93349C170.193 4.37245 169.669 5.01663 169.295 5.86603C168.926 6.71544 168.742 7.75867 168.742 8.99572C168.742 10.2328 168.926 11.276 169.295 12.1254C169.669 12.9748 170.193 13.619 170.867 14.058C171.54 14.4969 172.329 14.7164 173.233 14.7164C174.137 14.7164 174.926 14.4969 175.6 14.058C176.274 13.619 176.795 12.9748 177.163 12.1254C177.538 11.276 177.725 10.2328 177.725 8.99572Z" stroke="white"/>
    <path d="M195.213 0.23943H198.953V11.6124C198.953 12.8893 198.645 14.0067 198.028 14.9644C197.418 15.9221 196.563 16.6689 195.463 17.2048C194.363 17.7349 193.082 18 191.62 18C190.151 18 188.867 17.7349 187.768 17.2048C186.668 16.6689 185.813 15.9221 185.202 14.9644C184.592 14.0067 184.287 12.8893 184.287 11.6124V0.23943H188.027V11.296C188.027 11.9629 188.173 12.5558 188.467 13.0746C188.767 13.5933 189.187 14.0009 189.728 14.2974C190.269 14.5938 190.9 14.742 191.62 14.742C192.345 14.742 192.976 14.5938 193.511 14.2974C194.052 14.0009 194.47 13.5933 194.764 13.0746C195.063 12.5558 195.213 11.9629 195.213 11.296V0.23943Z" stroke="white"/>
    <path d="M214.826 14.742V0.444656H202.559V3.29046H211.68V14.742H202.559V17.752H217V14.742H214.826Z" stroke="white"/>
    <path d="M12.2675 14.742V0.444656H0V3.29046H9.12084V14.742H0L0 17.752H14.4413V14.742H12.2675Z" stroke="white"/>
    <path d="M33.8231 0.444656H46.0906V3.29046H36.9697V14.742H46.0906V17.752H33.8231V0.444656Z" stroke="white"/>
    <path d="M136.813 0.444656H149.08V3.29046H139.959V14.742H149.08V17.752H136.813V0.444656Z" stroke="white"/>
</svg>
