<svg width="24" height="24" viewBox="0 0 24 24" fill="none" xmlns="http://www.w3.org/2000/svg">
    <path d="M12 2.85849C6.95201 2.85849 2.85938 6.95112 2.85938 11.9991C2.85938 17.0471 6.95201 21.1397 12 21.1397C17.048 21.1397 21.1406 17.0471 21.1406 11.9991C21.1406 6.95112 17.048 2.85849 12 2.85849Z" fill="white" stroke="#0075FF" stroke-width="0.75" stroke-miterlimit="10"/>
    <path d="M11.9999 2.85849C9.44801 2.85849 7.0486 6.95112 7.0486 11.9991C7.0486 17.0471 9.44801 21.1397 11.9999 21.1397C14.5518 21.1397 16.9512 17.0471 16.9512 11.9991C16.9512 6.95112 14.5518 2.85849 11.9999 2.85849Z" fill="white" stroke="#0075FF" stroke-width="0.75" stroke-miterlimit="10"/>
    <path d="M5.90605 5.90543C7.58652 7.09854 9.70205 7.81002 11.9999 7.81002C14.2978 7.81002 16.4134 7.09854 18.0938 5.90543" fill="white"/>
    <path d="M5.90605 5.90543C7.58652 7.09854 9.70205 7.81002 11.9999 7.81002C14.2978 7.81002 16.4134 7.09854 18.0938 5.90543" stroke="#0075FF" stroke-width="0.75" stroke-linecap="round" stroke-linejoin="round"/>
    <path d="M18.0938 18.0943C16.4134 16.9012 14.2978 16.1897 11.9999 16.1897C9.70205 16.1897 7.58652 16.9012 5.90605 18.0943" stroke="#0075FF" stroke-width="0.75" stroke-linecap="round" stroke-linejoin="round"/>
    <path d="M11.9999 2.85849V21.1397" stroke="#0075FF" stroke-width="0.75" stroke-miterlimit="10"/>
    <path d="M21.1406 11.9989H2.85938" stroke="#0075FF" stroke-width="0.75" stroke-miterlimit="10"/>
</svg>
