<svg width="13" height="14" viewBox="0 0 13 14" fill="none" xmlns="http://www.w3.org/2000/svg">
    <path d="M4.54681 11.6875C4.97829 11.6875 5.32806 11.3377 5.32806 10.9062C5.32806 10.4748 4.97829 10.125 4.54681 10.125C4.11534 10.125 3.76556 10.4748 3.76556 10.9062C3.76556 11.3377 4.11534 11.6875 4.54681 11.6875Z" fill="white"/>
    <path d="M10.0156 11.6875C10.4471 11.6875 10.7969 11.3377 10.7969 10.9062C10.7969 10.4748 10.4471 10.125 10.0156 10.125C9.58415 10.125 9.23438 10.4748 9.23438 10.9062C9.23438 11.3377 9.58415 11.6875 10.0156 11.6875Z" fill="white"/>
    <path d="M11.4023 3.69891C11.3474 3.63179 11.2783 3.57772 11.1999 3.54065C11.1215 3.50357 11.0359 3.48441 10.9492 3.48456H3.51874L3.36908 2.63544C3.35312 2.54499 3.3058 2.46306 3.23544 2.40403C3.16507 2.34501 3.07616 2.31266 2.98431 2.31268H1.42181C1.31821 2.31268 1.21886 2.35384 1.1456 2.42709C1.07234 2.50035 1.03119 2.59971 1.03119 2.70331C1.03119 2.80691 1.07234 2.90627 1.1456 2.97952C1.21886 3.05278 1.31821 3.09393 1.42181 3.09393H2.65668L3.77142 9.4118C3.78738 9.50225 3.8347 9.58418 3.90506 9.64321C3.97543 9.70223 4.06434 9.73458 4.15619 9.73456H10.4062C10.5098 9.73456 10.6091 9.6934 10.6824 9.62014C10.7557 9.54689 10.7968 9.44753 10.7968 9.34393C10.7968 9.24033 10.7557 9.14097 10.6824 9.06772C10.6091 8.99446 10.5098 8.95331 10.4062 8.95331H4.48382L4.34613 8.17206H10.246C10.3815 8.17188 10.5127 8.12491 10.6176 8.03909C10.7224 7.95328 10.7943 7.83388 10.8212 7.70111L11.5243 4.18549C11.5413 4.1004 11.5391 4.01262 11.518 3.92847C11.4969 3.84433 11.4574 3.76592 11.4023 3.69891Z" fill="white"/>
</svg>
