<svg width="49" height="55" viewBox="0 0 49 55" fill="none" xmlns="http://www.w3.org/2000/svg">
    <circle cx="24.0091" cy="30.5184" r="24" transform="rotate(0.0220573 24.0091 30.5184)" fill="white" fill-opacity="0.1"/>
    <circle cx="24.0091" cy="30.5184" r="23.5" transform="rotate(0.0220573 24.0091 30.5184)" stroke="white" stroke-opacity="0.2"/>
    <path d="M26.9845 22.5092C28.5668 22.5092 30.1135 22.9783 31.4291 23.8574C32.7447 24.7364 33.7701 25.9859 34.3756 27.4477C34.9811 28.9095 35.1395 30.518 34.8308 32.0699C34.5221 33.6217 33.7602 35.0472 32.6414 36.166C31.5226 37.2848 30.0971 38.0468 28.5453 38.3554C26.9934 38.6641 25.3849 38.5057 23.9231 37.9002C22.4613 37.2947 21.2118 36.2693 20.3328 34.9537C19.4537 33.6381 18.9845 32.0914 18.9845 30.5092C18.9845 28.3874 19.8274 26.3526 21.3277 24.8523C22.828 23.352 24.8628 22.5092 26.9845 22.5092ZM14.9845 30.5092C14.986 31.7488 15.3713 32.9575 16.0875 33.9692C16.8038 34.9809 17.8158 35.746 18.9845 36.1592V38.2492C17.2725 37.8017 15.7572 36.7993 14.6757 35.3987C13.5942 33.9982 13.0075 32.2787 13.0075 30.5092C13.0075 28.7397 13.5942 27.0201 14.6757 25.6196C15.7572 24.219 17.2725 23.2166 18.9845 22.7692V24.8592C17.8158 25.2724 16.8038 26.0374 16.0875 27.0491C15.3713 28.0608 14.986 29.2696 14.9845 30.5092Z" fill="white"/>
</svg>
