<svg width="13" height="14" viewBox="0 0 13 14" fill="none" xmlns="http://www.w3.org/2000/svg">
    <path d="M2.58154 3.28791H10.394C10.4853 3.28787 10.5765 3.29366 10.667 3.30525C10.6363 3.08986 10.5623 2.88292 10.4495 2.6969C10.3367 2.51087 10.1873 2.34963 10.0105 2.22288C9.8337 2.09612 9.63303 2.0065 9.42063 1.95939C9.20823 1.91229 8.98849 1.90869 8.77466 1.9488L2.34961 3.04573H2.34228C1.93898 3.12285 1.58034 3.35103 1.3396 3.68367C1.70229 3.42569 2.13646 3.28734 2.58154 3.28791Z" fill="white"/>
    <path d="M10.3941 3.87494H2.58163C2.16737 3.87539 1.77021 4.04016 1.47728 4.33308C1.18435 4.62601 1.01959 5.02318 1.01913 5.43744V10.1249C1.01959 10.5392 1.18435 10.9364 1.47728 11.2293C1.77021 11.5222 2.16737 11.687 2.58163 11.6874H10.3941C10.8084 11.687 11.2056 11.5222 11.4985 11.2293C11.7914 10.9364 11.9562 10.5392 11.9566 10.1249V5.43744C11.9562 5.02318 11.7914 4.62601 11.4985 4.33308C11.2056 4.04016 10.8084 3.87539 10.3941 3.87494ZM9.23446 8.56244C9.07995 8.56244 8.9289 8.51662 8.80043 8.43077C8.67195 8.34493 8.57182 8.22291 8.51268 8.08016C8.45355 7.9374 8.43808 7.78032 8.46823 7.62877C8.49837 7.47723 8.57278 7.33802 8.68204 7.22876C8.7913 7.1195 8.9305 7.04509 9.08205 7.01495C9.2336 6.9848 9.39068 7.00028 9.53344 7.05941C9.67619 7.11854 9.79821 7.21867 9.88405 7.34715C9.9699 7.47562 10.0157 7.62667 10.0157 7.78119C10.0157 7.98839 9.9334 8.1871 9.78689 8.33361C9.64038 8.48013 9.44166 8.56244 9.23446 8.56244Z" fill="white"/>
    <path d="M1.03131 7.08414V4.65494C1.03131 4.12588 1.32428 3.23892 2.34113 3.04678C3.20416 2.88492 4.05865 2.88492 4.05865 2.88492C4.05865 2.88492 4.62018 3.27554 4.15631 3.27554C3.69244 3.27554 3.70465 3.87369 4.15631 3.87369C4.60797 3.87369 4.15631 4.44742 4.15631 4.44742L2.33746 6.51041L1.03131 7.08414Z" fill="white"/>
</svg>
