<svg width="24" height="24" viewBox="0 0 24 24" fill="none" xmlns="http://www.w3.org/2000/svg">
    <path d="M4.94656 5.3181H19.0091C19.1733 5.31803 19.3374 5.32845 19.5004 5.3493C19.4451 4.96161 19.312 4.58911 19.1089 4.25427C18.9058 3.91943 18.637 3.62919 18.3187 3.40104C18.0004 3.17288 17.6392 3.01155 17.2569 2.92676C16.8746 2.84198 16.4791 2.83549 16.0942 2.9077L4.52908 4.88217H4.51589C3.78995 5.02099 3.14439 5.43171 2.71106 6.03046C3.36391 5.5661 4.14541 5.31707 4.94656 5.3181Z" fill="white"/>
    <path d="M19.0092 6.37476H4.94672C4.20104 6.37557 3.48615 6.67215 2.95888 7.19942C2.43161 7.72669 2.13503 8.44158 2.13422 9.18725V17.6248C2.13503 18.3704 2.43161 19.0853 2.95888 19.6126C3.48615 20.1399 4.20104 20.4364 4.94672 20.4373H19.0092C19.7549 20.4364 20.4698 20.1399 20.997 19.6126C21.5243 19.0853 21.8209 18.3704 21.8217 17.6248V9.18725C21.8209 8.44158 21.5243 7.72669 20.997 7.19942C20.4698 6.67215 19.7549 6.37557 19.0092 6.37476ZM16.9218 14.8123C16.6437 14.8123 16.3718 14.7298 16.1405 14.5753C15.9093 14.4207 15.729 14.2011 15.6226 13.9442C15.5162 13.6872 15.4883 13.4044 15.5426 13.1317C15.5968 12.8589 15.7308 12.6083 15.9274 12.4116C16.1241 12.215 16.3747 12.081 16.6475 12.0268C16.9202 11.9725 17.203 12.0004 17.46 12.1068C17.7169 12.2132 17.9365 12.3935 18.0911 12.6247C18.2456 12.856 18.3281 13.1279 18.3281 13.406C18.3281 13.779 18.1799 14.1366 17.9162 14.4004C17.6525 14.6641 17.2948 14.8123 16.9218 14.8123Z" fill="white"/>
    <path d="M2.1561 12.1513V7.77875C2.1561 6.82645 2.68344 5.22992 4.51376 4.88407C6.06723 4.59271 7.60532 4.59271 7.60532 4.59271C7.60532 4.59271 8.61606 5.29584 7.7811 5.29584C6.94614 5.29584 6.96811 6.3725 7.7811 6.3725C8.59408 6.3725 7.7811 7.40521 7.7811 7.40521L4.50717 11.1186L2.1561 12.1513Z" fill="white"/>
</svg>
