<svg width="104" height="106" viewBox="0 0 104 106" fill="none" xmlns="http://www.w3.org/2000/svg">
    <path d="M73.1034 45.2783V48.9568H76.5884V45.2783H78.3309V48.9568H81.8158V50.7961H78.3309V54.4747H81.8158V56.314H78.3309V59.9926H76.5884V56.314H73.1034V59.9926H71.3609V56.314H67.876V54.4747H71.3609V50.7961H67.876V48.9568H71.3609V45.2783H73.1034ZM76.5884 50.7961H73.1034V54.4747H76.5884V50.7961Z" fill="#073B4C"/>
    <path d="M53.3307 27.4658C62.8474 27.4658 71.1563 32.6003 75.6068 40.2321L75.5633 40.1587L64.3664 46.5635C62.1603 42.8528 58.116 40.3487 53.4768 40.2971L53.3307 40.2963C46.256 40.2963 40.5204 45.9938 40.5204 53.022C40.5204 55.3204 41.1373 57.4748 42.2099 59.3356C44.418 63.1651 48.569 65.748 53.3307 65.748C58.1218 65.748 62.2964 63.1323 64.4933 59.2619L64.4399 59.3548L75.6201 65.7891C71.2185 73.3563 63.0234 78.475 53.6172 78.577L53.3307 78.5785C43.7839 78.5785 35.4514 73.4124 31.0122 65.7402C28.845 61.9947 27.605 57.6524 27.605 53.022C27.605 38.9079 39.1225 27.4658 53.3307 27.4658Z" fill="#073B4C"/>
    <path d="M46.819 3.8741C50.0324 2.05108 53.9676 2.05108 57.181 3.8741L74.2269 13.5443L91.1208 23.7662C94.2206 25.6417 96.1344 28.9828 96.1842 32.6054L96.4595 52.6344L96.1842 72.6634C96.1344 76.2861 94.2206 79.6272 91.1208 81.5027L74.2269 91.7246L57.181 101.395C53.9676 103.218 50.0324 103.218 46.819 101.395L29.7731 91.7246L12.8792 81.5027C9.77943 79.6271 7.86557 76.2861 7.81579 72.6634L7.54053 52.6344L7.81579 32.6054C7.86557 28.9828 9.77943 25.6417 12.8792 23.7662L29.7731 13.5443L46.819 3.8741Z" stroke="#073B4C"/>
</svg>
