<svg width="130" height="106" viewBox="0 0 130 106" fill="none" xmlns="http://www.w3.org/2000/svg">
    <g clip-path="url(#clip0_1_4689)">
        <mask id="mask0_1_4689" style="mask-type:luminance" maskUnits="userSpaceOnUse" x="0" y="27" width="130" height="51">
            <path d="M129.5 27.8604H0.5V77.8604H129.5V27.8604Z" fill="white"/>
        </mask>
        <g mask="url(#mask0_1_4689)">
            <path d="M10.2313 43.4071C9.98175 43.4071 9.91937 43.2811 10.0441 43.092L11.3541 41.3902C11.4788 41.2011 11.7907 41.075 12.0403 41.075H34.3096C34.5591 41.075 34.6215 41.2641 34.4967 41.4532L33.4363 43.092C33.3115 43.2811 32.9996 43.4702 32.8125 43.4702L10.2313 43.4071ZM0.812016 49.2058C0.5625 49.2058 0.500121 49.0797 0.624879 48.8907L1.93484 47.1889C2.0596 46.9998 2.37149 46.8737 2.62101 46.8737H31.0659C31.3154 46.8737 31.4402 47.0628 31.3778 47.2519L30.8787 48.7646C30.8164 49.0167 30.5669 49.1428 30.3173 49.1428L0.812016 49.2058ZM15.9078 55.0045C15.6582 55.0045 15.5959 54.8154 15.7206 54.6263L16.5939 53.0506C16.7187 52.8615 16.9682 52.6724 17.2177 52.6724H29.6935C29.9431 52.6724 30.0678 52.8615 30.0678 53.1136L29.9431 54.6263C29.9431 54.8784 29.6935 55.0675 29.5064 55.0675L15.9078 55.0045ZM80.6573 42.2726C76.7274 43.2811 74.0451 44.0374 70.1776 45.0459C69.2419 45.298 69.1795 45.361 68.3686 44.4156C67.4329 43.3441 66.7467 42.6508 65.4368 42.0205C61.5069 40.0666 57.7018 40.6338 54.1462 42.9659C49.9044 45.7392 47.7211 49.8361 47.7835 54.9414C47.8459 59.9838 51.2767 64.1437 56.2047 64.837C60.4464 65.4043 64.0021 63.8916 66.8091 60.6771C67.3705 59.9838 67.8696 59.2274 68.4934 58.345H56.4542C55.1442 58.345 54.8323 57.5256 55.269 56.4541C56.0799 54.5002 57.577 51.2227 58.4503 49.584C58.6375 49.2058 59.0741 48.5755 60.0098 48.5755H82.7158C82.591 50.2773 82.591 51.9791 82.3415 53.6809C81.6554 58.219 79.9711 62.3788 77.2264 66.0345C72.7351 72.0223 66.8715 75.741 59.4484 76.7495C53.3352 77.5689 47.6587 76.3713 42.6684 72.5896C38.0523 69.06 35.4324 64.3958 34.7463 58.5971C33.9353 51.727 35.9315 45.5501 40.0485 40.1296C44.4774 34.2679 50.341 30.5491 57.5146 29.2255C63.3783 28.154 68.9924 28.8474 74.0451 32.314C77.3512 34.52 79.7216 37.5454 81.2811 41.2011C81.6553 41.7684 81.4058 42.0835 80.6573 42.2726Z" fill="#073B4C"/>
            <path d="M101.305 76.8604C95.6279 76.7344 90.4504 75.0956 86.0839 71.3139C82.4035 68.0993 80.0955 64.0025 79.3469 59.1493C78.2241 52.027 80.1578 45.7241 84.3996 40.1145C88.9533 34.0637 94.4426 30.9122 101.866 29.5886C108.229 28.4541 114.217 29.0844 119.644 32.8031C124.572 36.2066 127.629 40.8078 128.439 46.8586C129.5 55.3675 127.067 62.3007 121.266 68.2255C117.149 72.4484 112.096 75.0956 106.295 76.2932C104.611 76.6083 102.926 76.6714 101.305 76.8604ZM116.151 51.3967C116.088 50.5773 116.088 49.947 115.964 49.3167C114.841 43.0769 109.164 39.5472 103.238 40.9339C97.4369 42.2575 93.6941 45.9762 92.3218 51.9009C91.1989 56.8172 93.5693 61.7965 98.0606 63.8134C101.492 65.326 104.923 65.137 108.229 63.4353C113.157 60.8511 115.839 56.8172 116.151 51.3967Z" fill="#073B4C"/>
        </g>
    </g>
    <defs>
        <clipPath id="clip0_1_4689">
            <rect width="129" height="50" fill="white" transform="translate(0.5 27.8604)"/>
        </clipPath>
    </defs>
</svg>
