<svg width="79" height="106" viewBox="0 0 79 106" fill="none" xmlns="http://www.w3.org/2000/svg">
    <path d="M50.0399 1.36035C52.3842 4.03411 53.1573 7.85733 52.484 11.3058C51.7607 15.179 49.616 18.6024 47.0972 21.551C45.0496 23.8986 42.7869 26.0487 40.3387 27.973C37.5206 30.247 34.7524 32.6958 32.9817 35.8944C32.231 37.1864 31.7687 38.6261 31.6266 40.1144C31.4845 41.6027 31.6661 43.104 32.1587 44.5154C33.8297 49.3631 37.7201 52.9614 39.8399 57.5343C37.4957 55.4603 35.2013 53.3112 33.0566 51.0373C30.9118 48.7634 28.6922 46.0896 27.2957 43.091C26.348 40.992 25.924 38.5431 26.6473 36.3192C27.3705 34.0952 28.9915 32.2211 30.6125 30.5219C35.1265 25.999 40.6879 22.6755 45.102 18.0776C47.5461 15.5538 49.5661 12.5302 50.2644 9.05678C50.838 6.50796 50.5637 3.88418 50.0399 1.36035Z" fill="#073B4C" stroke="#073B4C" stroke-width="0.09375" stroke-miterlimit="10"/>
    <path d="M46.0326 29.6676C50.9788 26.0188 56.7664 23.6968 62.6304 22.0127C57.9902 24.9726 53.146 27.6773 49.1431 31.4793C47.6898 32.8826 46.3131 34.4902 45.6757 36.4549C45.1912 37.9093 45.3952 39.5169 45.9816 40.8947C47.0524 43.3443 48.8627 45.3346 50.2394 47.58C50.824 48.5365 51.1728 49.6184 51.257 50.7365C51.3413 51.8546 51.1585 52.9766 50.7239 54.0101C49.3726 57.0465 46.721 59.2664 43.9674 61.027C43.6105 61.2311 43.3045 61.6139 42.8711 61.6649C44.7068 60.0064 46.1346 57.6589 46.0836 55.1328C46.0326 53.2446 44.9873 51.586 43.7635 50.2337C41.2394 47.2227 39.1232 43.3953 39.5567 39.3382C39.9901 35.2812 42.8966 32.0151 46.0326 29.6676Z" fill="#073B4C" stroke="#073B4C" stroke-width="0.09375" stroke-miterlimit="10"/>
    <path d="M63.3298 58.6428C64.3917 57.3369 66.0857 57.0041 67.628 56.7992C70.308 56.4408 73.165 57.1321 75.1876 59.0013C76.0318 59.7599 76.6787 60.7174 77.0711 61.7891C77.4636 62.8608 77.5895 64.0139 77.4378 65.1465C77.0586 67.7839 75.3141 69.9859 73.342 71.6503C69.777 74.5437 65.3777 76.2336 60.9785 77.3602C61.2288 77.0727 61.5183 76.8227 61.8381 76.6177C65.1755 74.7997 68.4876 72.6745 70.9401 69.7043C72.4318 67.8607 73.5948 65.4538 73.1144 63.0213C72.634 60.5888 69.9034 58.1563 67.1476 58.0027C65.8329 57.8747 64.594 58.3868 63.3298 58.6428Z" fill="#073B4C" stroke="#073B4C" stroke-width="0.09375" stroke-miterlimit="10"/>
    <path d="M13.0311 61.2745C17.6762 59.4635 22.7252 58.2944 27.7994 58.3632C24.8457 59.1426 21.8164 59.8074 19.0394 60.9994C18.3831 61.3203 17.6257 61.6183 17.247 62.2373C16.8684 62.8562 17.6005 63.0396 18.0044 63.2001C19.721 63.842 21.6144 63.9336 23.4573 64.0941C29.92 64.4838 36.4079 64.2546 42.8454 63.8878C49.2828 63.521 55.5183 62.7416 61.8043 61.8247C60.3953 62.3917 59.0291 63.0426 57.7146 63.7732C57.0582 64.1858 56.2504 64.3004 55.5183 64.4609C47.7934 66.0197 39.8665 66.5011 31.99 66.6157C28.9354 66.6386 25.906 66.5928 22.8766 66.4094C19.8473 66.226 16.0858 65.9739 12.7787 65.1715C11.8194 64.9194 10.8096 64.6443 10.0522 64.0253C9.96486 63.9537 9.89415 63.867 9.84422 63.7703C9.7943 63.6735 9.76616 63.5687 9.76145 63.4619C9.75675 63.3551 9.77558 63.2486 9.81684 63.1485C9.85809 63.0484 9.92095 62.9569 10.0017 62.8792C10.8348 62.0998 11.9961 61.733 13.0311 61.2745Z" fill="#073B4C" stroke="#073B4C" stroke-width="0.09375" stroke-miterlimit="10"/>
    <path d="M19.0232 72.0762C20.3291 71.0515 21.8862 70.4766 23.4432 69.9268C22.941 70.5266 22.2378 71.1015 22.1875 71.9262C22.1373 72.751 22.5894 72.851 23.0163 73.1009C23.8451 73.5258 24.7743 73.6757 25.7035 73.8007C30.5254 74.3005 35.3975 74.5755 40.2697 74.2506C44.7148 74.0256 49.1349 73.3008 53.5299 72.5261C54.7354 73.6507 56.1669 74.4255 57.6737 75.1003C52.3806 76.6159 46.9435 77.5791 41.45 77.9745C36.2765 78.3244 31.0277 78.2994 25.8793 77.4746C23.8451 77.0997 21.7606 76.6749 19.9022 75.7251C19.1487 75.3253 18.2949 74.8004 18.0688 73.9257C17.8428 73.0509 18.4707 72.5011 19.0232 72.0762Z" fill="#073B4C" stroke="#073B4C" stroke-width="0.09375" stroke-miterlimit="10"/>
    <path d="M22.1898 82.6082C23.3408 81.6096 24.7672 81.0968 26.1685 80.665C25.7181 81.1238 24.9173 81.6906 25.2677 82.4733C25.618 83.256 27.1945 83.5259 28.1954 83.7688C32.4245 84.3356 36.7035 84.7134 40.9325 84.3625C44.1356 84.1466 47.2885 83.5259 50.4165 82.9321C52.2212 84.056 54.0938 85.0479 56.0218 85.901C53.069 87.3314 49.891 88.249 46.713 88.8968C41.3411 89.9487 35.8444 90.0308 30.4476 89.1397C28.0703 88.6809 25.643 88.0871 23.491 86.8186C22.6652 86.3058 21.7894 85.712 21.439 84.7134C21.0887 83.7148 21.6142 83.094 22.1898 82.6082Z" fill="#073B4C" stroke="#073B4C" stroke-width="0.09375" stroke-miterlimit="10"/>
    <path d="M8.03297 89.667C10.3212 88.8458 12.6841 88.1836 15.0967 88.1041C16.0667 88.0776 17.0616 88.1306 17.9072 88.6604C14.9995 88.8293 12.1551 89.6317 9.55017 91.018C8.97811 91.3624 8.33144 91.7598 8.10759 92.475C7.88374 93.1903 8.97811 93.5611 9.55017 93.826C13.1566 95.2565 17.0118 95.7068 20.7924 96.1307C32.0594 97.1373 43.4011 96.8724 54.6682 95.7863C58.9213 95.283 63.1993 94.7797 67.3281 93.5346C68.6463 93.0578 70.1387 92.581 71.0092 91.3359C71.5315 90.5942 71.1833 89.667 70.661 89.0313C71.5066 89.5346 72.7005 90.1704 72.5264 91.3889C72.3523 92.6075 70.9843 93.3227 69.9894 93.932C66.8058 95.6538 63.2988 96.528 59.8167 97.2962C49.6938 99.4155 39.3221 99.8923 29.025 99.5744C21.2543 99.3013 13.5097 98.4694 5.84422 97.0843C4.47626 96.74 2.93419 96.4486 1.9393 95.3095C0.944417 94.1704 1.86468 93.4022 2.48649 92.8194C4.05343 91.283 6.06807 90.4353 8.03297 89.667Z" fill="#073B4C" stroke="#073B4C" stroke-width="0.09375" stroke-miterlimit="10"/>
    <path d="M70.4135 98.6385C72.9337 97.7335 75.6286 96.7767 77.5 94.708C77.1756 96.9577 75.3042 98.5092 73.4577 99.5178C69.9145 101.431 65.9471 102.31 62.0046 103.034C53.6705 104.405 45.2117 104.741 36.7529 104.586C30.9889 104.405 25.175 104.172 19.5109 102.931C18.1634 102.543 16.7162 102.284 15.5435 101.457C20.5838 102.336 25.699 102.698 30.8143 102.905C39.2312 103.19 47.6569 102.801 56.0161 101.741C60.8568 101.043 65.7225 100.19 70.4135 98.6385Z" fill="#073B4C" stroke="#073B4C" stroke-width="0.09375" stroke-miterlimit="10"/>
</svg>
