<svg width="103" height="106" viewBox="0 0 103 106" fill="none" xmlns="http://www.w3.org/2000/svg">
    <g clip-path="url(#clip0_1_4707)">
        <mask id="mask0_1_4707" style="mask-type:luminance" maskUnits="userSpaceOnUse" x="0" y="2" width="103" height="102">
            <path d="M102.5 2.36035H0.5V103.36H102.5V2.36035Z" fill="white"/>
        </mask>
        <g mask="url(#mask0_1_4707)">
            <path d="M14.9544 77.0626L14.9692 77.0617H14.9851H23.0954V65.5452L23.0953 65.5401L23.0946 65.5051C23.0942 65.4752 23.0937 65.4321 23.0938 65.3765C23.094 65.2654 23.0963 65.1049 23.1046 64.9019C23.1211 64.4961 23.1614 63.9195 23.2567 63.229C23.4469 61.8506 23.858 60.0044 24.7451 58.1515C25.6333 56.2961 27.0033 54.426 29.1118 53.0212C31.2228 51.6149 34.0422 50.6964 37.7925 50.6964H62.2414L62.25 50.6965H62.2555L62.281 50.6966C62.2891 50.6966 62.2987 50.6966 62.3098 50.6966C62.3306 50.6964 62.3565 50.6962 62.3874 50.6957C62.4823 50.6941 62.6236 50.6901 62.8048 50.6804C63.1674 50.6609 63.6885 50.6185 64.3151 50.5265C65.5708 50.3423 67.2367 49.9612 68.896 49.1775C70.5536 48.3946 72.1934 47.2154 73.4199 45.4381C74.6438 43.6645 75.4777 41.264 75.4777 37.9995V15.8137V15.7751L75.4835 15.7382L75.4837 15.737L75.4839 15.735L75.4866 15.7142C75.4891 15.6942 75.4927 15.6622 75.4965 15.6189C75.5041 15.5323 75.5127 15.4009 75.5146 15.231C75.5186 14.8909 75.4965 14.3984 75.3897 13.8044C75.1765 12.6184 74.6258 11.0253 73.2651 9.4245C70.5483 6.22822 64.4975 2.8877 51.0681 2.8877C38.205 2.8877 32.3109 5.6634 29.6229 8.31178C28.2819 9.63292 27.7195 10.9398 27.4871 11.901C27.3704 12.3837 27.3363 12.7824 27.3306 13.0555C27.3277 13.192 27.332 13.2969 27.3366 13.3648C27.3389 13.3988 27.3413 13.4235 27.3428 13.4382L27.3445 13.4529C27.3446 13.4534 27.3447 13.4541 27.3447 13.4543L27.3495 13.4869V13.5223L27.3771 24.5602H51.5288H52.0288V25.0602V28.524V29.024H51.5288H17.0873H17.0592L17.0312 29.0209L17.0254 29.0203L16.9963 29.0175C16.9693 29.0152 16.9274 29.0119 16.8714 29.0085C16.7596 29.0017 16.592 28.9947 16.3766 28.9945C15.9457 28.9942 15.325 29.0213 14.578 29.1322C13.0832 29.3542 11.0918 29.9104 9.10104 31.2462C5.14788 33.8988 1.05762 39.726 1.05762 52.5704C1.05762 65.4362 4.63734 71.5166 8.09164 74.3984C9.82544 75.8448 11.5547 76.5096 12.8454 76.8137C13.4912 76.9659 14.0269 77.0277 14.3974 77.0516C14.5825 77.0636 14.7261 77.066 14.8211 77.0657C14.8476 77.0656 14.8703 77.0652 14.8891 77.0648C14.904 77.0644 14.9164 77.0642 14.9263 77.0638L14.9499 77.0629L14.9533 77.0627L14.9544 77.0626ZM14.9544 77.0626C14.9545 77.0626 14.9547 77.0626 14.9544 77.0626ZM42.4105 14.5541C42.4105 11.8371 40.2016 9.64555 37.4757 9.64555C34.7499 9.64555 32.541 11.8371 32.541 14.5541C32.541 17.2711 34.7499 19.4627 37.4757 19.4627C40.2016 19.4627 42.4105 17.2711 42.4105 14.5541Z" stroke="#073B4C"/>
            <path d="M51.8019 103.015C77.6336 103.015 76.0205 91.879 76.0205 91.879L75.9917 80.3424H51.3412V76.8786H85.7828C85.7828 76.8786 102.312 78.7421 102.312 52.8321C102.312 26.9221 87.885 27.8409 87.885 27.8409H79.2746V39.8641C79.2746 39.8641 79.7387 54.2062 65.0775 54.2062H40.6286C40.6286 54.2062 26.8923 53.9854 26.8923 67.4031V89.5889C26.8923 89.5889 24.8067 103.015 51.8019 103.015ZM65.3943 95.257C62.9417 95.257 60.9595 93.2865 60.9595 90.8485C60.9595 88.4104 62.9417 86.4399 65.3943 86.4399C67.8468 86.4399 69.8291 88.4104 69.8291 90.8485C69.8291 93.2865 67.8468 95.257 65.3943 95.257Z" fill="#073B4C"/>
        </g>
    </g>
    <defs>
        <clipPath id="clip0_1_4707">
            <rect width="102" height="101" fill="white" transform="translate(0.5 2.36035)"/>
        </clipPath>
    </defs>
</svg>
