<svg width="101" height="106" viewBox="0 0 101 106" fill="none" xmlns="http://www.w3.org/2000/svg">
    <path d="M10.5 10.8604C9.96958 10.8604 9.46091 11.0711 9.08584 11.4462C8.71078 11.8213 8.50005 12.3299 8.5 12.8604V92.8604C8.50005 93.3908 8.71078 93.8994 9.08584 94.2745C9.46091 94.6496 9.96958 94.8603 10.5 94.8604H90.5C91.0304 94.8603 91.5391 94.6496 91.9142 94.2745C92.2892 93.8994 92.4999 93.3908 92.5 92.8604V12.8604C92.4999 12.3299 92.2892 11.8213 91.9142 11.4462C91.5391 11.0711 91.0304 10.8604 90.5 10.8604H10.5ZM12.5 14.8604H88.5V90.8604H12.5V14.8604ZM30.5 48.8604V55.751H40.5V86.8604H48.5V55.751H58.5V48.8604H30.5ZM73.8828 48.8799C67.6536 48.8551 60.5352 50.7428 60.5352 59.5088C60.5352 70.9688 75.9766 70.9716 75.9766 76.1416C75.9766 76.6316 76.1844 80.1924 70.7344 80.1924C65.2844 80.1924 60.7422 76.7666 60.7422 76.7666V85.083C60.7422 85.083 84.5039 92.7685 84.5039 75.4385C84.5019 64.1885 68.918 64.7511 68.918 59.1611C68.918 56.9951 70.4567 54.9697 74.7188 54.9697C78.9808 54.9697 82.7539 57.4854 82.7539 57.4854L83.0352 50.0752C83.0352 50.0752 78.7278 48.8992 73.8828 48.8799Z" fill="#073B4C"/>
</svg>
