<svg width="29" height="30" viewBox="0 0 29 30" fill="none" xmlns="http://www.w3.org/2000/svg">
    <path d="M4.89751e-08 0V7.20002C-0.000104414 7.89482 0.166906 8.57957 0.487086 9.19683C0.807265 9.81407 1.27132 10.3458 1.8403 10.7476L29 30V24.4381C29 23.4073 28.7561 22.391 28.2876 21.4715C27.819 20.5524 27.1395 19.756 26.3041 19.1476L4.89751e-08 0Z" fill="black"/>
    <path d="M20.7644 0.693642V7.60488C20.7644 8.27291 20.9287 8.93122 21.244 9.52485C21.559 10.1185 22.016 10.6301 22.5761 11.0171L29 14.5665V9.22404C29.0005 8.23374 28.7605 7.25727 28.299 6.37423C27.8378 5.49116 27.1685 4.7265 26.3458 4.14239L20.7644 0.693642Z" fill="black"/>
    <path d="M5.04226e-08 15.4335V22.6951C-0.00010513 23.3959 0.164344 24.0864 0.479596 24.7091C0.794821 25.3315 1.25167 25.8678 1.81186 26.2733L8.23565 30V24.3905C8.23575 23.3508 7.99544 22.3257 7.53425 21.3984C7.07304 20.4714 6.40399 19.6682 5.58142 19.0548L5.04226e-08 15.4335Z" fill="black"/>
</svg>
