<svg width="122" height="103" viewBox="0 0 122 103" fill="none" xmlns="http://www.w3.org/2000/svg">
<path d="M115.735 56.9786H65.0681L58.8969 68.6235L102.447 68.8212C99.3641 74.4706 94.8293 79.1824 89.3169 82.4636C83.8044 85.7447 77.5169 87.4747 71.1123 87.4723C51.3693 87.4723 35.3649 71.3742 35.3649 51.5C35.3649 50.4186 35.4153 49.3477 35.5075 48.2909L82.5558 48.4378L87.1846 36.793L38.5505 36.6372C41.3889 30.3424 45.9694 25.0038 51.7441 21.2602C57.5188 17.5165 64.243 15.5263 71.1123 15.5277C80.3645 15.5156 89.2584 19.1264 95.9119 25.596H115.351C106.482 10.287 89.9876 0 71.1088 0C47.9977 0 28.4686 15.4157 22.1131 36.5847L6.1712 36.534L0 48.1789L20.0351 48.2419C19.969 49.3197 19.9308 50.4046 19.9308 51.5C19.9308 79.9429 42.8437 103 71.1088 103C97.5395 103 119.275 82.8459 122 56.9804L115.735 56.9786Z" fill="white"/>
</svg>
