<svg width="198" height="31" viewBox="0 0 198 31" fill="none" xmlns="http://www.w3.org/2000/svg">
<path d="M47.8955 25.3032C46.6152 25.3032 45.4884 25.1797 44.5151 24.9326C43.5493 24.6855 42.6509 24.3786 41.8198 24.0117V20.0361H42.2017C43.0402 20.7474 43.9648 21.2939 44.9756 21.6758C45.9863 22.0576 46.9671 22.2485 47.918 22.2485C48.1576 22.2485 48.472 22.2223 48.8613 22.1699C49.2581 22.1175 49.5763 22.0352 49.8159 21.9229C50.1079 21.7956 50.355 21.6196 50.5571 21.395C50.7593 21.1629 50.8604 20.8597 50.8604 20.4854C50.8604 20.0661 50.6956 19.7254 50.3662 19.4634C50.0368 19.2013 49.6437 19.0104 49.187 18.8906C48.618 18.7409 48.0078 18.5986 47.3564 18.4639C46.7126 18.3291 46.1099 18.1644 45.5483 17.9697C44.2531 17.513 43.3247 16.8991 42.7632 16.1279C42.2017 15.3568 41.9209 14.391 41.9209 13.2305C41.9209 11.6657 42.5835 10.4004 43.9087 9.43457C45.2339 8.46126 46.8885 7.97461 48.8726 7.97461C49.8683 7.97461 50.8566 8.07568 51.8374 8.27783C52.8257 8.47998 53.7091 8.75326 54.4878 9.09766V12.916H54.1172C53.4958 12.3844 52.7358 11.9352 51.8374 11.5684C50.9465 11.2015 50.0293 11.0181 49.0859 11.0181C48.7191 11.0181 48.3896 11.0443 48.0977 11.0967C47.8057 11.1491 47.4987 11.2502 47.1768 11.3999C46.9147 11.5197 46.6864 11.6994 46.4917 11.939C46.3045 12.1711 46.2109 12.4331 46.2109 12.7251C46.2109 13.1519 46.3607 13.4925 46.6602 13.7471C46.9671 13.9941 47.5549 14.2188 48.4233 14.4209C48.9849 14.5482 49.5239 14.6717 50.0405 14.7915C50.5646 14.9113 51.1224 15.076 51.7139 15.2856C52.8743 15.7049 53.7354 16.2702 54.2969 16.9814C54.8659 17.6852 55.1504 18.6174 55.1504 19.7778C55.1504 21.4399 54.4953 22.7764 53.1851 23.7871C51.8823 24.7979 50.1191 25.3032 47.8955 25.3032ZM69.4468 18.52C69.4468 20.534 68.9339 22.1587 67.9082 23.394C66.89 24.6294 65.6322 25.2471 64.1348 25.2471C63.5059 25.2471 62.9593 25.1759 62.4951 25.0337C62.0309 24.8914 61.5368 24.6706 61.0127 24.3711V29.627H57.082V12.3882H61.0127V13.7021C61.5892 13.208 62.1769 12.8075 62.7759 12.5005C63.3748 12.1935 64.0674 12.04 64.8535 12.04C66.3135 12.04 67.444 12.6203 68.2451 13.7808C69.0462 14.9412 69.4468 16.521 69.4468 18.52ZM65.4263 18.5986C65.4263 17.3708 65.2354 16.4798 64.8535 15.9258C64.4792 15.3717 63.8914 15.0947 63.0903 15.0947C62.7384 15.0947 62.3866 15.1509 62.0347 15.2632C61.6903 15.3755 61.3496 15.5439 61.0127 15.7686V22.1138C61.2223 22.2036 61.4507 22.2673 61.6978 22.3047C61.9523 22.3421 62.2518 22.3608 62.5962 22.3608C63.5545 22.3608 64.2658 22.0501 64.73 21.4287C65.1942 20.7998 65.4263 19.8564 65.4263 18.5986ZM75.5 25H71.5693V7.52539H75.5V25ZM84.9673 25.3369C82.5864 25.3369 80.7596 24.7679 79.4868 23.6299C78.2215 22.4919 77.5889 20.8709 77.5889 18.7671C77.5889 16.7082 78.1803 15.0648 79.3633 13.8369C80.5462 12.609 82.2008 11.9951 84.3271 11.9951C86.2588 11.9951 87.7113 12.5155 88.6846 13.5562C89.6579 14.5968 90.1445 16.0868 90.1445 18.0259V19.4409H81.5308C81.5682 20.0249 81.6917 20.5153 81.9014 20.9121C82.111 21.3014 82.388 21.6121 82.7324 21.8442C83.0693 22.0763 83.4624 22.2448 83.9116 22.3496C84.3608 22.4469 84.8512 22.4956 85.3828 22.4956C85.8395 22.4956 86.2887 22.4469 86.7305 22.3496C87.1722 22.2448 87.5765 22.11 87.9434 21.9453C88.2653 21.8031 88.561 21.6496 88.8306 21.4849C89.1076 21.3201 89.3322 21.1742 89.5044 21.0469H89.9199V24.2925C89.598 24.4198 89.3022 24.5396 89.0327 24.6519C88.7707 24.7567 88.4076 24.8652 87.9434 24.9775C87.5166 25.0898 87.0749 25.1759 86.6182 25.2358C86.1689 25.3032 85.6187 25.3369 84.9673 25.3369ZM86.27 17.0713C86.2476 16.2402 86.0529 15.6076 85.686 15.1733C85.3267 14.7391 84.7726 14.522 84.0239 14.522C83.2603 14.522 82.6613 14.7503 82.2271 15.207C81.8003 15.6637 81.5645 16.2852 81.5195 17.0713H86.27ZM103.98 25H100.027V18.7446C100.027 18.2355 100.005 17.7301 99.96 17.2285C99.9225 16.7194 99.8477 16.3451 99.7354 16.1055C99.6006 15.821 99.4059 15.6188 99.1514 15.499C98.8968 15.3717 98.5562 15.3081 98.1294 15.3081C97.8075 15.3081 97.4818 15.368 97.1523 15.4878C96.8229 15.6076 96.471 15.7985 96.0967 16.0605V25H92.166V12.3882H96.0967V13.7808C96.7406 13.2342 97.3657 12.8075 97.9722 12.5005C98.5861 12.1935 99.2637 12.04 100.005 12.04C101.293 12.04 102.277 12.4481 102.958 13.2642C103.64 14.0728 103.98 15.2482 103.98 16.7905V25ZM118.367 25H114.436V23.686C114.181 23.8957 113.889 24.1203 113.56 24.3599C113.238 24.5994 112.954 24.7791 112.707 24.8989C112.392 25.0487 112.081 25.161 111.774 25.2358C111.467 25.3107 111.101 25.3481 110.674 25.3481C109.236 25.3481 108.098 24.7529 107.26 23.5625C106.421 22.3721 106.002 20.7811 106.002 18.7896C106.002 17.689 106.144 16.7344 106.429 15.9258C106.713 15.1172 107.106 14.4134 107.608 13.8145C108.065 13.2679 108.619 12.8374 109.27 12.5229C109.921 12.201 110.61 12.04 111.336 12.04C111.995 12.04 112.534 12.1112 112.954 12.2534C113.38 12.3882 113.875 12.6016 114.436 12.8936V7.52539H118.367V25ZM114.436 21.5186V15.3306C114.241 15.2332 113.987 15.1546 113.672 15.0947C113.358 15.0273 113.088 14.9937 112.864 14.9937C111.92 14.9937 111.209 15.3231 110.73 15.9819C110.258 16.6408 110.022 17.5617 110.022 18.7446C110.022 19.9875 110.21 20.8859 110.584 21.4399C110.966 21.994 111.58 22.271 112.426 22.271C112.77 22.271 113.118 22.2036 113.47 22.0688C113.822 21.9341 114.144 21.7507 114.436 21.5186ZM133.494 18.6997C133.494 20.7736 132.925 22.4095 131.787 23.6074C130.657 24.7979 129.054 25.3931 126.98 25.3931C124.922 25.3931 123.319 24.7979 122.174 23.6074C121.036 22.4095 120.467 20.7736 120.467 18.6997C120.467 16.6034 121.036 14.9637 122.174 13.7808C123.319 12.5903 124.922 11.9951 126.98 11.9951C129.047 11.9951 130.649 12.5941 131.787 13.792C132.925 14.9824 133.494 16.6183 133.494 18.6997ZM129.462 18.7222C129.462 17.9735 129.399 17.3521 129.271 16.8579C129.152 16.3563 128.983 15.9557 128.766 15.6562C128.534 15.3418 128.272 15.1247 127.98 15.0049C127.688 14.8776 127.355 14.814 126.98 14.814C126.629 14.814 126.31 14.8701 126.026 14.9824C125.741 15.0872 125.479 15.2931 125.24 15.6001C125.015 15.8921 124.835 16.2926 124.701 16.8018C124.566 17.3109 124.499 17.951 124.499 18.7222C124.499 19.4933 124.562 20.1185 124.689 20.5977C124.817 21.0693 124.981 21.4474 125.184 21.7319C125.393 22.0239 125.655 22.2373 125.97 22.3721C126.284 22.5068 126.632 22.5742 127.014 22.5742C127.329 22.5742 127.647 22.5068 127.969 22.3721C128.298 22.2373 128.56 22.0352 128.755 21.7656C128.987 21.4437 129.163 21.0581 129.283 20.6089C129.403 20.1522 129.462 19.5233 129.462 18.7222ZM144.051 16.1055H143.725C143.575 16.0531 143.358 16.0156 143.074 15.9932C142.789 15.9632 142.475 15.9482 142.13 15.9482C141.719 15.9482 141.284 16.0081 140.828 16.1279C140.378 16.2477 139.94 16.39 139.514 16.5547V25H135.583V12.3882H139.514V14.1963C139.693 14.0316 139.94 13.8257 140.255 13.5786C140.577 13.3241 140.869 13.1219 141.131 12.9722C141.415 12.8 141.745 12.654 142.119 12.5342C142.501 12.4069 142.86 12.3433 143.197 12.3433C143.325 12.3433 143.467 12.347 143.624 12.3545C143.781 12.362 143.924 12.3732 144.051 12.3882V16.1055ZM159.021 25.3032C157.928 25.3032 156.921 25.1198 156 24.7529C155.087 24.3861 154.297 23.8395 153.63 23.1133C152.964 22.387 152.447 21.4811 152.081 20.3955C151.714 19.3099 151.53 18.0633 151.53 16.6558C151.53 15.2557 151.706 14.0353 152.058 12.9946C152.417 11.9539 152.938 11.048 153.619 10.2769C154.285 9.52816 155.075 8.95915 155.989 8.56982C156.902 8.17301 157.924 7.97461 159.055 7.97461C159.616 7.97461 160.14 8.01579 160.627 8.09814C161.121 8.1805 161.578 8.28532 161.997 8.4126C162.356 8.5249 162.723 8.66715 163.098 8.83936C163.479 9.00407 163.854 9.1875 164.221 9.38965V12.0737H164.041C163.846 11.894 163.596 11.6769 163.289 11.4224C162.982 11.1678 162.607 10.917 162.166 10.6699C161.739 10.4378 161.275 10.2469 160.773 10.0972C160.271 9.94743 159.691 9.87256 159.032 9.87256C158.321 9.87256 157.647 10.0186 157.011 10.3105C156.374 10.6025 155.817 11.033 155.337 11.6021C154.866 12.1711 154.499 12.8861 154.237 13.7471C153.975 14.6081 153.844 15.5776 153.844 16.6558C153.844 17.8013 153.982 18.7896 154.259 19.6206C154.536 20.4442 154.914 21.1405 155.394 21.7095C155.858 22.2635 156.404 22.6828 157.033 22.9673C157.662 23.2443 158.328 23.3828 159.032 23.3828C159.676 23.3828 160.271 23.3042 160.818 23.147C161.364 22.9897 161.851 22.7913 162.278 22.5518C162.69 22.3197 163.045 22.0838 163.345 21.8442C163.644 21.5972 163.88 21.3875 164.052 21.2153H164.221V23.8657C163.854 24.0379 163.506 24.2026 163.176 24.3599C162.854 24.5171 162.461 24.6706 161.997 24.8203C161.51 24.9775 161.057 25.0973 160.638 25.1797C160.226 25.262 159.687 25.3032 159.021 25.3032ZM176.451 18.7334C176.451 20.8447 175.942 22.4769 174.923 23.6299C173.905 24.7754 172.55 25.3481 170.858 25.3481C169.113 25.3481 167.74 24.7567 166.736 23.5737C165.741 22.3833 165.243 20.7699 165.243 18.7334C165.243 16.637 165.756 15.0086 166.781 13.8481C167.814 12.6877 169.173 12.1074 170.858 12.1074C172.55 12.1074 173.905 12.6877 174.923 13.8481C175.942 15.0011 176.451 16.6296 176.451 18.7334ZM174.272 18.7334C174.272 17.1087 173.976 15.9033 173.385 15.1172C172.793 14.3236 171.951 13.9268 170.858 13.9268C169.757 13.9268 168.908 14.3236 168.309 15.1172C167.717 15.9033 167.421 17.1087 167.421 18.7334C167.421 20.3057 167.717 21.4998 168.309 22.3159C168.908 23.1245 169.757 23.5288 170.858 23.5288C171.944 23.5288 172.782 23.132 173.374 22.3384C173.972 21.5373 174.272 20.3356 174.272 18.7334ZM185.267 14.7241H185.154C184.997 14.6792 184.829 14.653 184.649 14.6455C184.477 14.6305 184.267 14.623 184.02 14.623C183.451 14.623 182.886 14.7466 182.324 14.9937C181.763 15.2407 181.231 15.6076 180.729 16.0942V25H178.618V12.4556H180.729V14.3198C181.501 13.6385 182.171 13.1593 182.74 12.8823C183.316 12.5978 183.874 12.4556 184.413 12.4556C184.63 12.4556 184.791 12.4631 184.896 12.478C185.008 12.4855 185.132 12.5005 185.267 12.5229V14.7241ZM192.241 25.292C190.242 25.292 188.688 24.7305 187.58 23.6074C186.479 22.4769 185.929 20.8747 185.929 18.8008C185.929 16.7568 186.465 15.1322 187.535 13.9268C188.606 12.7139 190.006 12.1074 191.735 12.1074C192.514 12.1074 193.203 12.2197 193.802 12.4443C194.401 12.6689 194.925 13.0208 195.374 13.5C195.823 13.9792 196.168 14.5669 196.407 15.2632C196.647 15.952 196.767 16.798 196.767 17.8013V18.9468H188.074C188.074 20.4067 188.441 21.5223 189.175 22.2935C189.909 23.0646 190.923 23.4502 192.218 23.4502C192.682 23.4502 193.135 23.3978 193.577 23.293C194.026 23.1882 194.431 23.0534 194.79 22.8887C195.172 22.7165 195.494 22.5518 195.756 22.3945C196.018 22.2298 196.235 22.0763 196.407 21.9341H196.531V24.2363C196.284 24.3337 195.977 24.4572 195.61 24.6069C195.243 24.7492 194.914 24.8615 194.622 24.9438C194.21 25.0562 193.835 25.1423 193.499 25.2021C193.169 25.262 192.75 25.292 192.241 25.292ZM194.711 17.3296C194.696 16.7606 194.629 16.2702 194.509 15.8584C194.389 15.4466 194.217 15.0985 193.993 14.814C193.746 14.4995 193.427 14.2599 193.038 14.0952C192.656 13.9305 192.181 13.8481 191.612 13.8481C191.05 13.8481 190.571 13.9342 190.174 14.1064C189.785 14.2712 189.429 14.5145 189.107 14.8364C188.793 15.1659 188.553 15.5327 188.389 15.937C188.224 16.3338 188.119 16.798 188.074 17.3296H194.711Z" fill="white"/>
<path d="M2 3.95905V7.29145V7.29175C1.99994 7.67887 2.09187 8.0596 2.26715 8.40182L2 3.95905ZM2 3.95905L25.1169 21.0003C25.6984 21.4292 26.1731 21.9918 26.5011 22.6434C26.8288 23.2948 27 24.016 27 24.7485V26.4833L3.00662 9.2594L3.00373 9.25733C2.6954 9.03682 2.44236 8.74386 2.26717 8.40185L2 3.95905Z" fill="white" stroke="white" stroke-width="4"/>
<path d="M27 11.1273L29 12.2207V9.18196C29.0005 8.19618 28.759 7.22417 28.2947 6.34515C27.8307 5.46612 27.1574 4.70495 26.3296 4.1235M27 11.1273V9.18196V9.18089C27.0004 8.52363 26.8395 7.87236 26.5262 7.27924L26.526 7.27881C26.2212 6.70127 25.7787 6.1917 25.2272 5.79363M27 11.1273L23.597 9.26696M27 11.1273V13.4067L22.537 10.9668M25.2272 5.79363L25.2864 5.82987L26.3296 4.1235M25.2272 5.79363C25.2115 5.78236 25.1958 5.77118 25.18 5.76009L26.3296 4.1235M25.2272 5.79363L22.7143 4.25737M26.3296 4.1235L22.7143 1.91321V4.25737M22.7143 4.25737L20.7143 3.03464V7.57019C20.7143 8.23517 20.8796 8.89048 21.1968 9.4814C21.5138 10.0723 21.9736 10.5816 22.537 10.9668M22.7143 4.25737V7.57019C22.7143 7.90246 22.7967 8.2331 22.959 8.5355L22.9593 8.53608C23.1092 8.81545 23.3254 9.06649 23.597 9.26696M23.597 9.26696C23.6195 9.28356 23.6424 9.29982 23.6657 9.31571L22.537 10.9668M23.597 9.26696L23.4964 9.21194L22.537 10.9668" fill="white" stroke="white" stroke-width="4"/>
<path d="M5.59524 26.7688L2.83556 25.0407C2.60482 24.844 2.40206 24.5825 2.253 24.2649L5.59524 26.7688ZM5.59524 26.7688V24.7971V24.7969C5.59531 24.0456 5.43409 23.3114 5.13204 22.6558L5.59524 26.7688ZM2 19.7232V23.1094V23.1097C1.99994 23.5192 2.08934 23.9159 2.2529 24.2646L2 19.7232ZM2 19.7232L3.93992 21.0817C4.42681 21.4857 4.83921 22.0206 5.13194 22.6556L2 19.7232Z" fill="white" stroke="white" stroke-width="4"/>
</svg>
