<svg width="29" height="31" viewBox="0 0 29 31" fill="none" xmlns="http://www.w3.org/2000/svg">
<path d="M2 3.95905V7.29145V7.29175C1.99994 7.67887 2.09187 8.0596 2.26715 8.40182L2 3.95905ZM2 3.95905L25.1169 21.0003C25.6984 21.4292 26.1731 21.9918 26.5011 22.6434C26.8288 23.2948 27 24.016 27 24.7485V26.4833L3.00662 9.2594L3.00373 9.25733C2.6954 9.03682 2.44236 8.74386 2.26717 8.40185L2 3.95905Z" fill="white" stroke="white" stroke-width="4"/>
<path d="M27 11.1273L29 12.2207V9.18196C29.0005 8.19618 28.759 7.22417 28.2947 6.34515C27.8307 5.46612 27.1574 4.70495 26.3296 4.1235M27 11.1273V9.18196V9.18089C27.0004 8.52363 26.8395 7.87236 26.5262 7.27924L26.526 7.27881C26.2212 6.70127 25.7787 6.1917 25.2272 5.79363M27 11.1273L23.597 9.26696M27 11.1273V13.4067L22.537 10.9668M25.2272 5.79363L25.2864 5.82987L26.3296 4.1235M25.2272 5.79363C25.2115 5.78236 25.1958 5.77118 25.18 5.76009L26.3296 4.1235M25.2272 5.79363L22.7143 4.25737M26.3296 4.1235L22.7143 1.91321V4.25737M22.7143 4.25737L20.7143 3.03464V7.57019C20.7143 8.23517 20.8796 8.89048 21.1968 9.4814C21.5138 10.0723 21.9736 10.5816 22.537 10.9668M22.7143 4.25737V7.57019C22.7143 7.90246 22.7967 8.2331 22.959 8.5355L22.9593 8.53608C23.1092 8.81545 23.3254 9.06649 23.597 9.26696M23.597 9.26696C23.6195 9.28356 23.6424 9.29982 23.6657 9.31571L22.537 10.9668M23.597 9.26696L23.4964 9.21194L22.537 10.9668" fill="white" stroke="white" stroke-width="4"/>
<path d="M5.59524 26.7688L2.83556 25.0407C2.60482 24.844 2.40206 24.5825 2.253 24.2649L5.59524 26.7688ZM5.59524 26.7688V24.7971V24.7969C5.59531 24.0456 5.43409 23.3114 5.13204 22.6558L5.59524 26.7688ZM2 19.7232V23.1094V23.1097C1.99994 23.5192 2.08934 23.9159 2.2529 24.2646L2 19.7232ZM2 19.7232L3.93992 21.0817C4.42681 21.4857 4.83921 22.0206 5.13194 22.6556L2 19.7232Z" fill="white" stroke="white" stroke-width="4"/>
</svg>
