<svg width="18" height="19" viewBox="0 0 18 19" fill="none" xmlns="http://www.w3.org/2000/svg">
    <path fill-rule="evenodd" clip-rule="evenodd" d="M6.2726 4.37514C6.39916 4.24873 6.57073 4.17773 6.7496 4.17773C6.92848 4.17773 7.10004 4.24873 7.2266 4.37514L11.7266 8.87514C11.853 9.0017 11.924 9.17326 11.924 9.35214C11.924 9.53102 11.853 9.70258 11.7266 9.82914L7.2266 14.3291C7.09864 14.4484 6.9294 14.5133 6.75453 14.5102C6.57966 14.5071 6.41281 14.4363 6.28914 14.3126C6.16547 14.1889 6.09463 14.0221 6.09154 13.8472C6.08846 13.6723 6.15337 13.5031 6.2726 13.3751L10.2934 9.35214L6.2726 5.32914C6.1462 5.20258 6.0752 5.03102 6.0752 4.85214C6.0752 4.67326 6.1462 4.5017 6.2726 4.37514Z" fill="#5C6975"/>
</svg>
