<svg width="115" height="46" viewBox="0 0 115 46" fill="none" xmlns="http://www.w3.org/2000/svg">
<path d="M32.6071 24.3084C32.5863 20.5395 34.3063 17.6947 37.7877 15.5997C35.8398 12.8372 32.8972 11.3172 29.0117 11.0194C25.3334 10.7319 21.3132 13.1452 19.8419 13.1452C18.2877 13.1452 14.7234 11.1221 11.9259 11.1221C6.14426 11.2145 0 15.6921 0 24.8014C0 27.4921 0.497343 30.2717 1.49203 33.1404C2.81828 36.9094 7.60521 46.1521 12.5994 45.9981C15.2104 45.9365 17.0547 44.1598 20.4532 44.1598C23.7481 44.1598 25.4578 45.9981 28.3693 45.9981C33.4049 45.9262 37.7359 37.5256 39 33.7463C32.2444 30.5935 32.6071 24.5036 32.6071 24.3084ZM26.7426 7.44555C29.5712 4.11816 29.3122 1.08859 29.2293 0C26.7322 0.143776 23.8414 1.68424 22.1939 3.58413C20.3807 5.61754 19.3135 8.13362 19.5414 10.9681C22.2457 11.1735 24.7117 9.79732 26.7426 7.44555Z" fill="white"/>
<path d="M50.4482 39V15.7485H54.6216L62.1465 34.2949H62.2432L69.7681 15.7485H73.9575V39H70.6543V21.8555H68.9946L72.7651 16.3931L63.5322 39H60.8574L51.6406 16.3931L55.4111 21.8555H53.7515V39H50.4482ZM83.835 39V19.3418H83.7544L77.6797 23.5312V20.0991L83.8027 15.7485H87.3799V39H83.835ZM93.084 31.1528V27.9785H109.858V31.1528H93.084ZM99.8838 37.6465V21.4849H103.042V37.6465H99.8838Z" fill="white"/>
</svg>
