<svg width="38" height="46" viewBox="0 0 38 46" fill="none" xmlns="http://www.w3.org/2000/svg">
<path d="M31.771 24.3084C31.7508 20.5395 33.4267 17.6947 36.8188 15.5997C34.9208 12.8372 32.0537 11.3172 28.2678 11.0194C24.6838 10.7319 20.7667 13.1452 19.3332 13.1452C17.8188 13.1452 14.3459 11.1221 11.6201 11.1221C5.98672 11.2145 0 15.6921 0 24.8014C0 27.4921 0.484591 30.2717 1.45377 33.1404C2.74601 36.9094 7.4102 46.1521 12.2763 45.9981C14.8204 45.9365 16.6174 44.1598 19.9288 44.1598C23.1392 44.1598 24.805 45.9981 27.6419 45.9981C32.5484 45.9262 36.7683 37.5256 38 33.7463C31.4176 30.5935 31.771 24.5036 31.771 24.3084ZM26.0569 7.44555C28.813 4.11816 28.5606 1.08859 28.4798 0C26.0468 0.143776 23.2301 1.68424 21.6249 3.58413C19.8581 5.61754 18.8183 8.13362 19.0404 10.9681C21.6753 11.1735 24.0781 9.79732 26.0569 7.44555Z" fill="white"/>
</svg>
