<svg width="205" height="32" viewBox="0 0 205 32" fill="none" xmlns="http://www.w3.org/2000/svg">
<path d="M55.8955 25.3032C54.6152 25.3032 53.4884 25.1797 52.5151 24.9326C51.5493 24.6855 50.6509 24.3786 49.8198 24.0117V20.0361H50.2017C51.0402 20.7474 51.9648 21.2939 52.9756 21.6758C53.9863 22.0576 54.9671 22.2485 55.918 22.2485C56.1576 22.2485 56.472 22.2223 56.8613 22.1699C57.2581 22.1175 57.5763 22.0352 57.8159 21.9229C58.1079 21.7956 58.355 21.6196 58.5571 21.395C58.7593 21.1629 58.8604 20.8597 58.8604 20.4854C58.8604 20.0661 58.6956 19.7254 58.3662 19.4634C58.0368 19.2013 57.6437 19.0104 57.187 18.8906C56.618 18.7409 56.0078 18.5986 55.3564 18.4639C54.7126 18.3291 54.1099 18.1644 53.5483 17.9697C52.2531 17.513 51.3247 16.8991 50.7632 16.1279C50.2017 15.3568 49.9209 14.391 49.9209 13.2305C49.9209 11.6657 50.5835 10.4004 51.9087 9.43457C53.2339 8.46126 54.8885 7.97461 56.8726 7.97461C57.8683 7.97461 58.8566 8.07568 59.8374 8.27783C60.8257 8.47998 61.7091 8.75326 62.4878 9.09766V12.916H62.1172C61.4958 12.3844 60.7358 11.9352 59.8374 11.5684C58.9465 11.2015 58.0293 11.0181 57.0859 11.0181C56.7191 11.0181 56.3896 11.0443 56.0977 11.0967C55.8057 11.1491 55.4987 11.2502 55.1768 11.3999C54.9147 11.5197 54.6864 11.6994 54.4917 11.939C54.3045 12.1711 54.2109 12.4331 54.2109 12.7251C54.2109 13.1519 54.3607 13.4925 54.6602 13.7471C54.9671 13.9941 55.5549 14.2188 56.4233 14.4209C56.9849 14.5482 57.5239 14.6717 58.0405 14.7915C58.5646 14.9113 59.1224 15.076 59.7139 15.2856C60.8743 15.7049 61.7354 16.2702 62.2969 16.9814C62.8659 17.6852 63.1504 18.6174 63.1504 19.7778C63.1504 21.4399 62.4953 22.7764 61.1851 23.7871C59.8823 24.7979 58.1191 25.3032 55.8955 25.3032ZM77.4468 18.52C77.4468 20.534 76.9339 22.1587 75.9082 23.394C74.89 24.6294 73.6322 25.2471 72.1348 25.2471C71.5059 25.2471 70.9593 25.1759 70.4951 25.0337C70.0309 24.8914 69.5368 24.6706 69.0127 24.3711V29.627H65.082V12.3882H69.0127V13.7021C69.5892 13.208 70.1769 12.8075 70.7759 12.5005C71.3748 12.1935 72.0674 12.04 72.8535 12.04C74.3135 12.04 75.444 12.6203 76.2451 13.7808C77.0462 14.9412 77.4468 16.521 77.4468 18.52ZM73.4263 18.5986C73.4263 17.3708 73.2354 16.4798 72.8535 15.9258C72.4792 15.3717 71.8914 15.0947 71.0903 15.0947C70.7384 15.0947 70.3866 15.1509 70.0347 15.2632C69.6903 15.3755 69.3496 15.5439 69.0127 15.7686V22.1138C69.2223 22.2036 69.4507 22.2673 69.6978 22.3047C69.9523 22.3421 70.2518 22.3608 70.5962 22.3608C71.5545 22.3608 72.2658 22.0501 72.73 21.4287C73.1942 20.7998 73.4263 19.8564 73.4263 18.5986ZM83.5 25H79.5693V7.52539H83.5V25ZM92.9673 25.3369C90.5864 25.3369 88.7596 24.7679 87.4868 23.6299C86.2215 22.4919 85.5889 20.8709 85.5889 18.7671C85.5889 16.7082 86.1803 15.0648 87.3633 13.8369C88.5462 12.609 90.2008 11.9951 92.3271 11.9951C94.2588 11.9951 95.7113 12.5155 96.6846 13.5562C97.6579 14.5968 98.1445 16.0868 98.1445 18.0259V19.4409H89.5308C89.5682 20.0249 89.6917 20.5153 89.9014 20.9121C90.111 21.3014 90.388 21.6121 90.7324 21.8442C91.0693 22.0763 91.4624 22.2448 91.9116 22.3496C92.3608 22.4469 92.8512 22.4956 93.3828 22.4956C93.8395 22.4956 94.2887 22.4469 94.7305 22.3496C95.1722 22.2448 95.5765 22.11 95.9434 21.9453C96.2653 21.8031 96.561 21.6496 96.8306 21.4849C97.1076 21.3201 97.3322 21.1742 97.5044 21.0469H97.9199V24.2925C97.598 24.4198 97.3022 24.5396 97.0327 24.6519C96.7707 24.7567 96.4076 24.8652 95.9434 24.9775C95.5166 25.0898 95.0749 25.1759 94.6182 25.2358C94.1689 25.3032 93.6187 25.3369 92.9673 25.3369ZM94.27 17.0713C94.2476 16.2402 94.0529 15.6076 93.686 15.1733C93.3267 14.7391 92.7726 14.522 92.0239 14.522C91.2603 14.522 90.6613 14.7503 90.2271 15.207C89.8003 15.6637 89.5645 16.2852 89.5195 17.0713H94.27ZM111.98 25H108.027V18.7446C108.027 18.2355 108.005 17.7301 107.96 17.2285C107.922 16.7194 107.848 16.3451 107.735 16.1055C107.601 15.821 107.406 15.6188 107.151 15.499C106.897 15.3717 106.556 15.3081 106.129 15.3081C105.807 15.3081 105.482 15.368 105.152 15.4878C104.823 15.6076 104.471 15.7985 104.097 16.0605V25H100.166V12.3882H104.097V13.7808C104.741 13.2342 105.366 12.8075 105.972 12.5005C106.586 12.1935 107.264 12.04 108.005 12.04C109.293 12.04 110.277 12.4481 110.958 13.2642C111.64 14.0728 111.98 15.2482 111.98 16.7905V25ZM126.367 25H122.436V23.686C122.181 23.8957 121.889 24.1203 121.56 24.3599C121.238 24.5994 120.954 24.7791 120.707 24.8989C120.392 25.0487 120.081 25.161 119.774 25.2358C119.467 25.3107 119.101 25.3481 118.674 25.3481C117.236 25.3481 116.098 24.7529 115.26 23.5625C114.421 22.3721 114.002 20.7811 114.002 18.7896C114.002 17.689 114.144 16.7344 114.429 15.9258C114.713 15.1172 115.106 14.4134 115.608 13.8145C116.065 13.2679 116.619 12.8374 117.27 12.5229C117.921 12.201 118.61 12.04 119.336 12.04C119.995 12.04 120.534 12.1112 120.954 12.2534C121.38 12.3882 121.875 12.6016 122.436 12.8936V7.52539H126.367V25ZM122.436 21.5186V15.3306C122.241 15.2332 121.987 15.1546 121.672 15.0947C121.358 15.0273 121.088 14.9937 120.864 14.9937C119.92 14.9937 119.209 15.3231 118.73 15.9819C118.258 16.6408 118.022 17.5617 118.022 18.7446C118.022 19.9875 118.21 20.8859 118.584 21.4399C118.966 21.994 119.58 22.271 120.426 22.271C120.77 22.271 121.118 22.2036 121.47 22.0688C121.822 21.9341 122.144 21.7507 122.436 21.5186ZM141.494 18.6997C141.494 20.7736 140.925 22.4095 139.787 23.6074C138.657 24.7979 137.054 25.3931 134.98 25.3931C132.922 25.3931 131.319 24.7979 130.174 23.6074C129.036 22.4095 128.467 20.7736 128.467 18.6997C128.467 16.6034 129.036 14.9637 130.174 13.7808C131.319 12.5903 132.922 11.9951 134.98 11.9951C137.047 11.9951 138.649 12.5941 139.787 13.792C140.925 14.9824 141.494 16.6183 141.494 18.6997ZM137.462 18.7222C137.462 17.9735 137.399 17.3521 137.271 16.8579C137.152 16.3563 136.983 15.9557 136.766 15.6562C136.534 15.3418 136.272 15.1247 135.98 15.0049C135.688 14.8776 135.355 14.814 134.98 14.814C134.629 14.814 134.31 14.8701 134.026 14.9824C133.741 15.0872 133.479 15.2931 133.24 15.6001C133.015 15.8921 132.835 16.2926 132.701 16.8018C132.566 17.3109 132.499 17.951 132.499 18.7222C132.499 19.4933 132.562 20.1185 132.689 20.5977C132.817 21.0693 132.981 21.4474 133.184 21.7319C133.393 22.0239 133.655 22.2373 133.97 22.3721C134.284 22.5068 134.632 22.5742 135.014 22.5742C135.329 22.5742 135.647 22.5068 135.969 22.3721C136.298 22.2373 136.56 22.0352 136.755 21.7656C136.987 21.4437 137.163 21.0581 137.283 20.6089C137.403 20.1522 137.462 19.5233 137.462 18.7222ZM152.051 16.1055H151.725C151.575 16.0531 151.358 16.0156 151.074 15.9932C150.789 15.9632 150.475 15.9482 150.13 15.9482C149.719 15.9482 149.284 16.0081 148.828 16.1279C148.378 16.2477 147.94 16.39 147.514 16.5547V25H143.583V12.3882H147.514V14.1963C147.693 14.0316 147.94 13.8257 148.255 13.5786C148.577 13.3241 148.869 13.1219 149.131 12.9722C149.415 12.8 149.745 12.654 150.119 12.5342C150.501 12.4069 150.86 12.3433 151.197 12.3433C151.325 12.3433 151.467 12.347 151.624 12.3545C151.781 12.362 151.924 12.3732 152.051 12.3882V16.1055ZM167.021 25.3032C165.928 25.3032 164.921 25.1198 164 24.7529C163.087 24.3861 162.297 23.8395 161.63 23.1133C160.964 22.387 160.447 21.4811 160.081 20.3955C159.714 19.3099 159.53 18.0633 159.53 16.6558C159.53 15.2557 159.706 14.0353 160.058 12.9946C160.417 11.9539 160.938 11.048 161.619 10.2769C162.285 9.52816 163.075 8.95915 163.989 8.56982C164.902 8.17301 165.924 7.97461 167.055 7.97461C167.616 7.97461 168.14 8.01579 168.627 8.09814C169.121 8.1805 169.578 8.28532 169.997 8.4126C170.356 8.5249 170.723 8.66715 171.098 8.83936C171.479 9.00407 171.854 9.1875 172.221 9.38965V12.0737H172.041C171.846 11.894 171.596 11.6769 171.289 11.4224C170.982 11.1678 170.607 10.917 170.166 10.6699C169.739 10.4378 169.275 10.2469 168.773 10.0972C168.271 9.94743 167.691 9.87256 167.032 9.87256C166.321 9.87256 165.647 10.0186 165.011 10.3105C164.374 10.6025 163.817 11.033 163.337 11.6021C162.866 12.1711 162.499 12.8861 162.237 13.7471C161.975 14.6081 161.844 15.5776 161.844 16.6558C161.844 17.8013 161.982 18.7896 162.259 19.6206C162.536 20.4442 162.914 21.1405 163.394 21.7095C163.858 22.2635 164.404 22.6828 165.033 22.9673C165.662 23.2443 166.328 23.3828 167.032 23.3828C167.676 23.3828 168.271 23.3042 168.818 23.147C169.364 22.9897 169.851 22.7913 170.278 22.5518C170.69 22.3197 171.045 22.0838 171.345 21.8442C171.644 21.5972 171.88 21.3875 172.052 21.2153H172.221V23.8657C171.854 24.0379 171.506 24.2026 171.176 24.3599C170.854 24.5171 170.461 24.6706 169.997 24.8203C169.51 24.9775 169.057 25.0973 168.638 25.1797C168.226 25.262 167.687 25.3032 167.021 25.3032ZM184.451 18.7334C184.451 20.8447 183.942 22.4769 182.923 23.6299C181.905 24.7754 180.55 25.3481 178.858 25.3481C177.113 25.3481 175.74 24.7567 174.736 23.5737C173.741 22.3833 173.243 20.7699 173.243 18.7334C173.243 16.637 173.756 15.0086 174.781 13.8481C175.814 12.6877 177.173 12.1074 178.858 12.1074C180.55 12.1074 181.905 12.6877 182.923 13.8481C183.942 15.0011 184.451 16.6296 184.451 18.7334ZM182.272 18.7334C182.272 17.1087 181.976 15.9033 181.385 15.1172C180.793 14.3236 179.951 13.9268 178.858 13.9268C177.757 13.9268 176.908 14.3236 176.309 15.1172C175.717 15.9033 175.421 17.1087 175.421 18.7334C175.421 20.3057 175.717 21.4998 176.309 22.3159C176.908 23.1245 177.757 23.5288 178.858 23.5288C179.944 23.5288 180.782 23.132 181.374 22.3384C181.972 21.5373 182.272 20.3356 182.272 18.7334ZM193.267 14.7241H193.154C192.997 14.6792 192.829 14.653 192.649 14.6455C192.477 14.6305 192.267 14.623 192.02 14.623C191.451 14.623 190.886 14.7466 190.324 14.9937C189.763 15.2407 189.231 15.6076 188.729 16.0942V25H186.618V12.4556H188.729V14.3198C189.501 13.6385 190.171 13.1593 190.74 12.8823C191.316 12.5978 191.874 12.4556 192.413 12.4556C192.63 12.4556 192.791 12.4631 192.896 12.478C193.008 12.4855 193.132 12.5005 193.267 12.5229V14.7241ZM200.241 25.292C198.242 25.292 196.688 24.7305 195.58 23.6074C194.479 22.4769 193.929 20.8747 193.929 18.8008C193.929 16.7568 194.465 15.1322 195.535 13.9268C196.606 12.7139 198.006 12.1074 199.735 12.1074C200.514 12.1074 201.203 12.2197 201.802 12.4443C202.401 12.6689 202.925 13.0208 203.374 13.5C203.823 13.9792 204.168 14.5669 204.407 15.2632C204.647 15.952 204.767 16.798 204.767 17.8013V18.9468H196.074C196.074 20.4067 196.441 21.5223 197.175 22.2935C197.909 23.0646 198.923 23.4502 200.218 23.4502C200.682 23.4502 201.135 23.3978 201.577 23.293C202.026 23.1882 202.431 23.0534 202.79 22.8887C203.172 22.7165 203.494 22.5518 203.756 22.3945C204.018 22.2298 204.235 22.0763 204.407 21.9341H204.531V24.2363C204.284 24.3337 203.977 24.4572 203.61 24.6069C203.243 24.7492 202.914 24.8615 202.622 24.9438C202.21 25.0562 201.835 25.1423 201.499 25.2021C201.169 25.262 200.75 25.292 200.241 25.292ZM202.711 17.3296C202.696 16.7606 202.629 16.2702 202.509 15.8584C202.389 15.4466 202.217 15.0985 201.993 14.814C201.746 14.4995 201.427 14.2599 201.038 14.0952C200.656 13.9305 200.181 13.8481 199.612 13.8481C199.05 13.8481 198.571 13.9342 198.174 14.1064C197.785 14.2712 197.429 14.5145 197.107 14.8364C196.793 15.1659 196.553 15.5327 196.389 15.937C196.224 16.3338 196.119 16.798 196.074 17.3296H202.711Z" fill="white"/>
<path d="M5.23527e-08 0V7.68003C-0.000111615 8.42114 0.178417 9.15154 0.520678 9.80995C0.862938 10.4683 1.35899 11.0355 1.96722 11.4641L31 32V26.0673C31 24.9678 30.7393 23.8837 30.2384 22.903C29.7376 21.9225 29.0112 21.0731 28.1181 20.4241L5.23527e-08 0Z" fill="white"/>
</svg>
