<svg width="45" height="44" viewBox="0 0 45 44" fill="none" xmlns="http://www.w3.org/2000/svg">
<path d="M22.5 0C34.9181 0 45 9.85783 45 22C45 34.1422 34.9181 44 22.5 44C10.0819 44 0 34.1422 0 22C0 9.85783 10.0819 0 22.5 0ZM28.6481 32.4133C27.2119 33.2218 26.7188 35.0203 27.5494 36.4265C28.3762 37.829 30.2156 38.3112 31.6519 37.4972C33.0881 36.6887 33.5812 34.8902 32.7487 33.484C31.9219 32.0815 30.0844 31.5993 28.6481 32.4133ZM22.5 30.58C21.1781 30.58 19.9256 30.2922 18.8044 29.7825L16.7175 33.44C18.4613 34.2815 20.4263 34.7618 22.5 34.7618C23.7113 34.7618 24.8775 34.595 25.9875 34.2925C26.1825 33.1137 26.8969 32.0302 28.0406 31.383C29.1825 30.7395 30.5025 30.6753 31.6406 31.097C33.8644 28.9648 35.31 26.0572 35.5219 22.8195L31.2375 22.759C30.8438 27.1425 27.0844 30.58 22.5 30.58ZM13.725 22C13.725 19.0978 15.2006 16.5348 17.4563 14.9783L15.2625 11.3832C12.63 13.0882 10.6781 15.7263 9.86062 18.7807C10.8094 19.5213 11.4169 20.6763 11.4169 21.9707C11.4169 23.2613 10.8094 24.3888 9.86062 25.1588C10.6781 28.2113 12.63 30.8495 15.2625 32.5545L17.4563 28.952C15.2006 27.445 13.725 24.8857 13.725 22ZM7.2 19.063C5.54062 19.063 4.19625 20.3775 4.19625 22C4.19625 23.6225 5.54062 24.937 7.2 24.937C8.85938 24.937 10.2019 23.6225 10.2019 22C10.2019 20.3775 8.85938 19.063 7.2 19.063ZM22.5 13.42C27.0844 13.42 30.8438 16.8575 31.2375 21.2392L35.5219 21.1768C35.31 17.941 33.8625 15.0352 31.6406 12.8975C30.4988 13.3228 29.1787 13.2532 28.0406 12.6152C26.8988 11.9698 26.1844 10.8827 25.9875 9.69833C24.8737 9.405 23.7113 9.24 22.5 9.24C20.4188 9.24 18.4594 9.71667 16.7175 10.56L18.8044 14.2175C19.9294 13.706 21.1819 13.42 22.5 13.42ZM28.6481 11.5848C30.0825 12.3952 31.9219 11.9167 32.7525 10.5123C33.5794 9.10983 33.0919 7.31133 31.65 6.49733C30.2156 5.69067 28.3762 6.16917 27.5456 7.57717C26.7188 8.97783 27.2081 10.7745 28.6481 11.5848Z" fill="white"/>
</svg>
