<svg width="79" height="74" viewBox="0 0 79 74" fill="none" xmlns="http://www.w3.org/2000/svg">
<path d="M76.7589 0L43.0409 24.949L49.3111 10.2458L76.7589 0Z" fill="#E17726"/>
<path d="M1.90028 0.0294189L29.2748 10.2476L35.2285 25.1435L1.90028 0.0294189ZM63.1896 53.0595L78.0925 53.3431L72.8841 71.0366L54.6992 66.0299L63.1896 53.0595ZM15.3903 53.0595L23.8491 66.0299L5.69486 71.0369L0.518066 53.3431L15.3903 53.0595Z" fill="#E27625"/>
<path d="M34.4192 21.3492L35.0282 41.0198L16.804 40.1907L21.9878 32.3701L22.0535 32.2949L34.4192 21.3492ZM43.9725 21.1298L56.527 32.2955L56.592 32.3704L61.7759 40.191L43.5557 41.0198L43.9725 21.1298ZM24.383 53.1166L34.3338 60.8699L22.7745 66.4507L24.383 53.1166ZM54.1993 53.1153L55.7743 66.451L44.2472 60.8693L54.1993 53.1153Z" fill="#E27625"/>
<path d="M44.5017 60.1392L56.1988 65.8031L45.3182 70.974L45.4311 67.5564L44.5017 60.1392ZM34.0753 60.1416L33.1824 67.5005L33.2558 70.9701L22.3497 65.8031L34.0753 60.1416Z" fill="#D5BFB2"/>
<path d="M30.6976 43.5873L33.7542 50.0112L23.3475 46.9626L30.6976 43.5873ZM47.8824 43.5879L55.2671 46.9626L44.8264 50.0103L47.8824 43.5879Z" fill="#233447"/>
<path d="M25.1782 53.0509L23.4961 66.8762L14.4799 53.3533L25.1782 53.0509ZM53.4027 53.0512L64.1013 53.3533L55.0513 66.8768L53.4027 53.0512ZM62.0392 39.4089L54.2533 47.344L48.2501 44.6008L45.3761 50.6429L43.492 40.2528L62.0392 39.4089ZM16.5371 39.4089L35.0879 40.2528L33.2035 50.6429L30.3289 44.6017L24.3577 47.3443L16.5371 39.4089Z" fill="#CC6228"/>
<path d="M16.0126 37.7806L24.8216 46.7194L25.1267 55.5441L16.0126 37.7806ZM62.5767 37.7646L53.446 55.5597L53.7898 46.7194L62.5767 37.7646ZM34.6573 38.3251L35.0118 40.5567L35.8879 46.116L35.3246 63.1903L32.6618 49.474L32.6609 49.3322L34.6573 38.3251ZM43.9184 38.2941L45.9201 49.3322L45.9192 49.474L43.2496 63.2247L43.144 59.7853L42.7274 46.0147L43.9184 38.2941Z" fill="#E27525"/>
<path d="M54.5729 46.3643L54.2748 54.0314L44.9821 61.2715L43.1035 59.9442L45.2092 49.098L54.5729 46.3643ZM24.0398 46.3643L33.3709 49.098L35.4766 59.9442L33.5981 61.2715L24.305 54.0308L24.0398 46.3643Z" fill="#F5841F"/>
<path d="M20.5714 64.1099L32.4604 69.7431L32.41 67.3375L33.4049 66.4642H45.1717L46.2024 67.3344L46.1263 69.7382L57.9401 64.124L52.1914 68.8744L45.2404 73.6485H33.3094L26.363 68.8548L20.5714 64.1099Z" fill="#C0AC9D"/>
<path d="M43.6501 59.3893L45.331 60.5769L46.3161 68.4362L44.8906 67.2326H33.6941L32.2956 68.4604L33.2484 60.5775L34.9299 59.3893H43.6501Z" fill="#161616"/>
<path d="M74.5328 0.690674L78.5803 12.8329L76.0525 25.1101L77.8525 26.4985L75.4168 28.3568L77.2475 29.7706L74.8235 31.9779L76.3116 33.0557L72.3623 37.668L56.1643 32.9516L56.0241 32.8764L44.3515 23.0299L74.5328 0.690674ZM4.04744 0.690674L34.2291 23.0299L22.5562 32.8764L22.4159 32.9516L6.21792 37.668L2.26864 33.0557L3.75553 31.9789L1.33304 29.7706L3.16004 28.3583L0.687824 26.4948L2.55564 25.1055L-6.10352e-05 12.8335L4.04744 0.690674Z" fill="#763E1A"/>
<path d="M55.3721 31.9201L72.5349 36.9171L78.1107 54.1022H63.4002L53.2646 54.2299L60.6358 39.862L55.3721 31.9201ZM23.2082 31.9201L17.9436 39.862L25.3157 54.2299L15.1847 54.1022H0.50061L6.04513 36.9174L23.2082 31.9201ZM50.1514 10.1638L45.351 23.1293L44.3322 40.6441L43.9424 46.134L43.9114 60.1581H34.6686L34.6386 46.1604L34.2475 40.6395L33.2284 23.1293L28.4286 10.1638H50.1514Z" fill="#F5841F"/>
</svg>
