<?xml version="1.0" standalone="no"?>
<!DOCTYPE svg PUBLIC "-//W3C//DTD SVG 20010904//EN"
        "http://www.w3.org/TR/2001/REC-SVG-20010904/DTD/svg10.dtd">
<svg version="1.0" xmlns="http://www.w3.org/2000/svg"
     width="90.000000pt" height="90.000000pt" viewBox="0 0 90.000000 90.000000"
     preserveAspectRatio="xMidYMid meet">

    <g transform="translate(0.000000,90.000000) scale(0.100000,-0.100000)"
       fill="#000000" stroke="none">
        <path d="M338 885 c-82 -22 -141 -57 -204 -119 -180 -180 -180 -452 0 -632
180 -179 452 -179 632 0 179 180 179 452 0 632 -115 115 -278 161 -428 119z
m217 -30 c312 -81 418 -473 191 -701 -241 -240 -651 -107 -709 230 -50 295
226 546 518 471z"/>
        <path d="M343 806 c-104 -34 -185 -106 -232 -205 -22 -48 -26 -69 -26 -151 0
-87 3 -101 32 -161 39 -79 102 -140 181 -177 49 -23 70 -27 152 -27 87 0 101
3 161 32 67 33 149 109 149 138 0 25 -14 17 -52 -28 -19 -24 -64 -58 -99 -77
-60 -33 -70 -35 -159 -35 -84 0 -101 3 -147 28 -75 39 -115 78 -154 149 -32
59 -34 69 -34 158 0 89 2 99 34 158 39 71 79 110 154 149 46 25 63 28 147 28
79 0 103 -4 141 -23 71 -35 122 -84 160 -154 33 -61 34 -66 33 -176 0 -102 1
-111 15 -97 12 12 16 38 16 113 0 90 -3 103 -32 163 -63 128 -176 200 -318
206 -49 2 -96 -3 -122 -11z"/>
        <path d="M334 716 c-10 -8 -16 -17 -13 -21 11 -10 59 6 59 21 0 18 -21 18 -46
0z"/>
        <path d="M520 716 c0 -15 48 -31 59 -21 7 8 -28 35 -46 35 -7 0 -13 -6 -13
-14z"/>
        <path d="M242 657 c-22 -23 -29 -47 -14 -47 14 0 63 56 55 63 -11 11 -18 8
-41 -16z"/>
        <path d="M617 673 c-8 -7 41 -63 55 -63 16 0 8 27 -15 48 -25 24 -30 26 -40
15z"/>
        <path d="M320 552 c0 -20 4 -42 8 -48 4 -6 64 -52 135 -102 l127 -92 0 34 c0
44 -13 58 -152 160 l-118 86 0 -38z"/>
        <path d="M181 562 c-6 -11 -11 -28 -11 -36 0 -25 20 -18 31 11 12 33 -4 54
-20 25z"/>
        <path d="M512 538 c3 -36 9 -46 38 -66 l35 -24 3 22 c6 40 -7 68 -44 89 l-35
21 3 -42z"/>
        <path d="M696 572 c-8 -13 10 -62 24 -62 14 0 12 33 -3 55 -9 11 -16 14 -21 7z"/>
        <path d="M322 398 c3 -36 9 -46 38 -66 l35 -24 3 22 c6 40 -7 68 -44 89 l-35
21 3 -42z"/>
        <path d="M170 372 c0 -25 25 -58 34 -44 8 13 -10 62 -24 62 -5 0 -10 -8 -10
-18z"/>
        <path d="M700 364 c-13 -34 -2 -53 17 -29 15 22 17 55 3 55 -6 0 -15 -12 -20
-26z"/>
        <path d="M220 277 c0 -20 47 -60 60 -52 8 5 3 16 -16 36 -30 32 -44 36 -44 16z"/>
        <path d="M636 261 c-19 -20 -24 -31 -16 -36 13 -8 60 32 60 52 0 20 -14 16
-44 -16z"/>
        <path d="M320 200 c0 -10 32 -30 49 -30 21 0 11 28 -11 34 -32 8 -38 7 -38 -4z"/>
        <path d="M538 203 c-19 -5 -25 -33 -7 -33 17 0 49 20 49 30 0 10 -12 11 -42 3z"/>
    </g>
</svg>
