<svg width="80" height="80" viewBox="0 0 198 68" fill="none" xmlns="http://www.w3.org/2000/svg">
    <path d="M79.0205 22.2031V29.0094V29.0097C79.0204 29.7292 79.1921 30.438 79.5207 31.0765L79.0205 22.2031ZM79.0205 22.2031L114.821 48.4666C114.821 48.4667 114.821 48.4668 114.821 48.4669C115.805 49.1891 116.606 50.135 117.159 51.2278C117.712 52.3208 118 53.5296 118 54.7563V59.1768L80.9105 32.6807L80.9076 32.6786C80.325 32.264 79.8492 31.7148 79.5207 31.0765L79.0205 22.2031Z" fill="#073B4C" stroke="#073B4C" stroke-width="4"/>
    <path d="M110.357 31.6418L110.357 31.6413C110.042 31.038 109.878 30.3703 109.878 29.6933V22.9673L114.972 26.1679C115.906 26.8539 116.665 27.7433 117.189 28.7651L117.19 28.7655C117.724 29.8046 118.001 30.9525 118 32.1158V32.1169V36.6956L111.62 33.111C111.09 32.7213 110.658 32.2183 110.357 31.6418Z" fill="#073B4C" stroke="#073B4C" stroke-width="4"/>
    <path d="M87.1429 59.557L80.8014 55.8066C80.2698 55.3966 79.8287 54.8606 79.5177 54.2347L87.1429 59.557ZM87.1429 59.557V54.6463V54.6461C87.143 53.3876 86.8576 52.1498 86.3131 51.0337L87.1429 59.557ZM79.0205 44.9267V52.1022V52.1025C79.0204 52.8478 79.1921 53.579 79.5176 54.2345L79.0205 44.9267ZM79.0205 44.9267L84.0747 48.2696C85.0096 48.9924 85.7779 49.9371 86.313 51.0335L79.0205 44.9267Z" fill="#073B4C" stroke="#073B4C" stroke-width="4"/>
    <circle cx="99" cy="40" r="38.5" stroke="#073B4C" stroke-width="3"/>
</svg>
