<svg width="65" height="65" viewBox="0 0 65 65" fill="none" xmlns="http://www.w3.org/2000/svg">
    <path d="M46.204 35.2084C41.1665 35.2084 36.9415 38.8105 35.8582 43.6042C33.2853 42.4938 30.929 42.7917 29.1415 43.5772C28.0311 38.7563 23.8061 35.2084 18.7957 35.2084C12.9186 35.2084 8.12484 40.0563 8.12484 46.0417C8.12484 52.0272 12.9186 56.8751 18.7957 56.8751C24.3748 56.8751 28.9248 52.4876 29.3582 46.9084C30.279 46.2584 32.6894 45.0397 35.6415 46.9626C36.129 52.5147 40.6248 56.8751 46.204 56.8751C52.0811 56.8751 56.8748 52.0272 56.8748 46.0417C56.8748 40.0563 52.0811 35.2084 46.204 35.2084ZM18.7957 53.7876C14.5707 53.7876 11.1853 50.3209 11.1853 46.0417C11.1853 41.7626 14.5978 38.2959 18.7957 38.2959C23.0207 38.2959 26.4061 41.7626 26.4061 46.0417C26.4061 50.3209 23.0207 53.7876 18.7957 53.7876ZM46.204 53.7876C41.979 53.7876 38.5936 50.3209 38.5936 46.0417C38.5936 41.7626 41.979 38.2959 46.204 38.2959C50.429 38.2959 53.8415 41.7626 53.8415 46.0417C53.8415 50.3209 50.4019 53.7876 46.204 53.7876ZM59.5832 28.4376H5.4165V32.5001H59.5832V28.4376ZM42.0603 7.12299C41.4644 5.7959 39.9478 5.09174 38.5123 5.55215L32.4998 7.55632L26.4603 5.55215L26.3248 5.52507C24.8894 5.11882 23.3728 5.87715 22.8311 7.2584L16.2498 24.3751H48.7498L42.1415 7.2584L42.0603 7.12299Z" fill="black"/>
</svg>
