
<svg width="61" height="64" viewBox="0 0 61 64" fill="none" xmlns="http://www.w3.org/2000/svg">
    <path d="M59.0406 60.4868L4.7164 21.4979L4.71427 21.4963C3.72195 20.7867 2.91153 19.847 2.35187 18.7546L1.05372 19.4196L2.35187 18.7546C1.79212 17.662 1.49978 16.4493 1.5 15.2182V15.218V2.96843L54.0224 41.6787C55.5761 42.8241 56.841 44.3241 57.7134 46.0576C58.5858 47.7911 59.0408 49.7083 59.0406 51.6535V51.6536V60.4868Z" stroke="black" stroke-width="3"/>
    <path d="M59.0405 28.3615L48.0276 22.1448C47.0879 21.4681 46.3217 20.5826 45.7902 19.5598L45.7901 19.5597C45.2474 18.5157 44.9647 17.3587 44.9648 16.1849V16.1847V4.26615L54.1945 10.0924C55.6924 11.1877 56.9104 12.6154 57.7517 14.2608C58.5999 15.92 59.0413 17.754 59.0405 19.6137V19.6143V28.3615Z" stroke="black" stroke-width="3"/>
    <path d="M15.5755 60.7733L4.59144 54.2467C3.65151 53.5358 2.87817 52.5996 2.33896 51.5092L15.5755 60.7733ZM15.5755 60.7733V51.4975V51.4974C15.5757 49.5145 15.1281 47.562 14.272 45.7993C13.4231 44.0518 12.198 42.5425 10.6997 41.3883L1.5 35.2752V47.8975V47.8978C1.49979 49.1573 1.78852 50.3958 2.33893 51.5091L15.5755 60.7733Z" stroke="black" stroke-width="3"/>
</svg>
