<svg width="81" height="64" viewBox="0 0 81 64" fill="none" xmlns="http://www.w3.org/2000/svg">
<path d="M15.5 15.218V0.989152L69.6159 40.8738C71.2965 42.1128 72.6639 43.7348 73.6066 45.608C74.5494 47.4813 75.0408 49.5525 75.0406 51.6536V62.4354L19.1333 22.3103L19.1326 22.3098C18.01 21.507 17.094 20.4445 16.4619 19.2105L16.0169 19.4385L16.4619 19.2105C15.8297 17.9765 15.4998 16.6075 15.5 15.2181V15.218Z" fill="#263238" stroke="black"/>
<path d="M75.0405 30.0743L62.4895 22.9894C61.4022 22.2175 60.5155 21.1999 59.9028 20.021L59.9028 20.0209C59.2862 18.8347 58.9647 17.5194 58.9648 16.1848V16.1847V2.45232L69.7566 9.26461C71.3931 10.4545 72.7242 12.0103 73.642 13.8056C74.5623 15.6056 75.0414 17.5958 75.0405 19.6141V19.6143V30.0743Z" fill="#263238" stroke="black"/>
<path d="M31.5755 62.5307L19.0342 55.0788C17.947 54.2681 17.0579 53.1969 16.4425 51.9524C15.8233 50.6999 15.4998 49.3095 15.5 47.8976V47.8975V33.4101L26.2817 40.5744C27.918 41.8278 29.2511 43.4676 30.1715 45.3624C31.0944 47.2625 31.5757 49.3646 31.5755 51.4975V51.4975V62.5307Z" fill="#263238" stroke="black"/>
</svg>
