<svg width="61" height="61" viewBox="0 0 61 61" fill="none" xmlns="http://www.w3.org/2000/svg">
<path d="M44.3543 60.1868C40.0001 60.1868 35.8439 58.4056 32.8751 55.2389C32.6772 54.8431 32.4793 54.4473 32.6772 54.0514C33.073 53.2598 34.4584 51.2806 36.0418 50.6869L40.3959 49.1035V48.7077C39.2084 47.5202 38.4168 45.9368 38.4168 44.3535V43.3639C38.4168 43.166 38.4168 42.7702 38.4168 42.5723C38.4168 40.791 38.2189 38.6139 39.8022 37.0306C40.7918 36.041 42.3751 35.4473 44.3543 35.4473C46.5314 35.4473 47.9168 36.041 48.9064 37.0306C50.2918 38.6139 50.2918 40.791 50.2918 42.5723C50.2918 42.9681 50.2918 43.166 50.2918 43.3639V44.3535C50.2918 46.1348 49.5001 47.7181 48.3126 48.7077V49.1035L52.6668 50.6869C54.2501 51.0827 55.6355 53.2598 56.0314 54.0514C56.2293 54.4473 56.2293 54.8431 55.8334 55.2389C52.8647 58.4056 48.7084 60.1868 44.3543 60.1868ZM34.8543 54.4473C37.4272 56.8223 40.7918 58.2077 44.3543 58.2077C47.9168 58.2077 51.2814 56.8223 53.8543 54.4473C53.2605 53.6556 52.4689 52.8639 52.073 52.666L46.9272 50.8848C46.5314 50.6868 46.3334 50.291 46.3334 49.8952V48.3118C46.3334 47.916 46.5314 47.7181 46.7293 47.5202C47.7189 46.7285 48.3126 45.541 48.3126 44.3535V43.3639C48.3126 42.9681 48.3126 42.7702 48.3126 42.3743C48.3126 40.9889 48.3126 39.2077 47.5209 38.2181C46.9272 37.6243 45.9376 37.2285 44.3543 37.2285C42.7709 37.2285 41.7814 37.6243 41.1876 38.2181C40.198 39.2077 40.3959 40.9889 40.3959 42.3743C40.3959 42.7702 40.3959 42.9681 40.3959 43.3639V44.3535C40.3959 45.541 40.9897 46.7285 41.9793 47.5202C42.1772 47.7181 42.3751 47.916 42.3751 48.3118V49.8952C42.3751 50.291 42.1772 50.6868 41.7814 50.8848L36.8334 52.666C36.0418 52.8639 35.2501 53.6556 34.8543 54.4473Z" fill="#263238"/>
<path d="M31.0939 51.8747C30.6981 51.8747 30.3022 51.6768 30.1043 51.2809C29.1147 49.1038 28.521 46.7288 28.521 44.3538C28.521 35.6455 35.646 28.5205 44.3543 28.5205C53.0627 28.5205 60.1877 35.6455 60.1877 44.3538C60.1877 46.7288 59.5939 49.1038 58.6043 51.2809C58.4064 51.6768 57.8127 52.0726 57.2189 51.6768C56.8231 51.4788 56.4272 50.8851 56.8231 50.2913C57.8127 48.5101 58.2085 46.333 58.2085 44.3538C58.2085 36.6351 52.0731 30.4997 44.3543 30.4997C36.6356 30.4997 30.5002 36.6351 30.5002 44.3538C30.5002 46.333 30.896 48.5101 31.8856 50.2913C32.0835 50.6872 31.8856 51.2809 31.4897 51.6768C31.2918 51.6768 31.0939 51.8747 31.0939 51.8747Z" fill="#263238"/>
<path d="M16.6458 32.4788C12.2916 32.4788 8.13536 30.6976 5.16661 27.5309C4.9687 27.1351 4.77078 26.7393 4.9687 26.3434C5.36453 25.5518 6.74995 23.5726 8.33328 22.9788L12.6874 21.3955V20.9997C11.4999 19.8122 10.7083 18.2288 10.7083 16.6455V15.6559C10.7083 15.458 10.7083 15.0622 10.7083 14.8643C10.7083 13.083 10.5104 10.9059 12.0937 9.32259C13.0833 8.33301 14.6666 7.73926 16.6458 7.73926C18.8229 7.73926 20.2083 8.33301 21.1979 9.32259C22.5833 10.9059 22.5833 13.083 22.5833 14.8643C22.5833 15.2601 22.5833 15.458 22.5833 15.6559V16.6455C22.5833 18.4268 21.7916 20.0101 20.6041 20.9997V21.3955L24.9583 22.9788C26.5416 23.3747 27.927 25.5518 28.3229 26.3434C28.5208 26.7393 28.5208 27.1351 28.1249 27.5309C25.1562 30.6976 20.9999 32.4788 16.6458 32.4788ZM7.14578 26.7393C9.7187 29.1143 13.0833 30.4997 16.6458 30.4997C20.2083 30.4997 23.5729 29.1143 26.1458 26.7393C25.552 25.9476 24.7604 25.1559 24.3645 24.958L19.2187 23.1768C18.8229 22.9788 18.6249 22.583 18.6249 22.1872V20.6038C18.6249 20.208 18.8229 20.0101 19.0208 19.8122C20.0104 19.0205 20.6041 17.833 20.6041 16.6455V15.6559C20.6041 15.2601 20.6041 15.0622 20.6041 14.6663C20.6041 13.2809 20.6041 11.4997 19.8124 10.5101C19.2187 9.91634 18.2291 9.52051 16.6458 9.52051C15.0624 9.52051 14.0729 9.91634 13.4791 10.5101C12.4895 11.4997 12.6874 13.2809 12.6874 14.6663C12.6874 15.0622 12.6874 15.2601 12.6874 15.6559V16.6455C12.6874 17.833 13.2812 19.0205 14.2708 19.8122C14.4687 20.0101 14.6666 20.208 14.6666 20.6038V22.1872C14.6666 22.583 14.4687 22.9788 14.0729 23.1768L9.12495 24.958C8.33328 25.1559 7.54161 25.9476 7.14578 26.7393Z" fill="#263238"/>
<path d="M3.38542 24.1667C2.98958 24.1667 2.59375 23.9688 2.39583 23.5729C1.40625 21.3958 0.8125 19.0208 0.8125 16.6458C0.8125 7.9375 7.9375 0.8125 16.6458 0.8125C25.3542 0.8125 32.4792 7.9375 32.4792 16.6458C32.4792 19.0208 31.8854 21.3958 30.8958 23.5729C30.6979 23.9688 30.1042 24.3646 29.5104 23.9688C29.1146 23.7708 28.7187 23.1771 29.1146 22.5833C30.1042 20.6042 30.5 18.625 30.5 16.6458C30.5 8.92708 24.3646 2.79167 16.6458 2.79167C8.92708 2.79167 2.79167 8.92708 2.79167 16.6458C2.79167 18.625 3.1875 20.8021 4.17708 22.5833C4.375 22.9792 4.17708 23.5729 3.78125 23.9688C3.58333 23.9688 3.38542 24.1667 3.38542 24.1667Z" fill="#263238"/>
<path d="M9.71859 48.3125C9.12484 48.3125 8.729 47.9167 8.729 47.3229V43.3646C8.729 42.7708 9.12484 42.375 9.71859 42.375C10.3123 42.375 10.7082 42.7708 10.7082 43.3646V47.3229C10.7082 47.9167 10.3123 48.3125 9.71859 48.3125Z" fill="#263238"/>
<path d="M51.2811 18.625C50.6873 18.625 50.2915 18.2292 50.2915 17.6354V13.6771C50.2915 13.0833 50.6873 12.6875 51.2811 12.6875C51.8748 12.6875 52.2707 13.0833 52.2707 13.6771V17.6354C52.2707 18.2292 51.8748 18.625 51.2811 18.625Z" fill="#263238"/>
<path d="M9.71859 52.2712C10.2651 52.2712 10.7082 51.8281 10.7082 51.2816C10.7082 50.735 10.2651 50.292 9.71859 50.292C9.17206 50.292 8.729 50.735 8.729 51.2816C8.729 51.8281 9.17206 52.2712 9.71859 52.2712Z" fill="#263238"/>
<path d="M51.2811 10.7087C51.8276 10.7087 52.2707 10.2656 52.2707 9.71908C52.2707 9.17254 51.8276 8.72949 51.2811 8.72949C50.7346 8.72949 50.2915 9.17254 50.2915 9.71908C50.2915 10.2656 50.7346 10.7087 51.2811 10.7087Z" fill="#263238"/>
<path d="M59.1979 16.6458H56.2292V11.6979C56.2292 8.33333 55.4375 5.76042 53.6563 3.97917C50.4896 0.812501 44.9479 0.8125 39.8021 0.8125C39.6042 0.8125 33.8646 0.8125 31.4896 0.8125C30.8958 0.8125 30.5 1.20833 30.5 1.80208C30.5 2.39583 30.8958 2.79167 31.4896 2.79167C33.8646 2.79167 39.4063 2.79167 39.8021 2.79167C44.5521 2.79167 49.6979 2.79167 52.2708 5.36458C53.6562 6.75 54.25 8.72917 54.25 11.6979V17.6354C54.25 18.2292 54.6458 18.625 55.2396 18.625H57.4167L53.2604 25.5521L49.1042 18.625H51.2812C51.875 18.625 52.2708 18.2292 52.2708 17.6354C52.2708 17.0417 51.875 16.6458 51.2812 16.6458H47.3229C46.9271 16.6458 46.7292 16.8438 46.5312 17.0417C46.3333 17.4375 46.3333 17.6354 46.5312 18.0313L52.4687 27.9271C52.6667 28.3229 53.0625 28.3229 53.2604 28.3229C53.6562 28.3229 53.8542 28.125 54.0521 27.9271L59.9896 18.0313C60.1875 17.6354 60.1875 17.4375 59.9896 17.0417C59.7917 16.8438 59.5938 16.6458 59.1979 16.6458Z" fill="#263238"/>
<path d="M29.5104 58.2083C26.9375 58.2083 20.8021 58.2083 20.6042 58.2083C16.0521 58.2083 11.5 58.0104 8.92708 55.6354C7.54167 54.25 6.75 52.0729 6.75 49.1042V43.1667C6.75 42.5729 6.35417 42.375 5.76042 42.375H3.58333L7.73958 35.4479L11.8958 42.375H9.71875C9.125 42.375 8.72917 42.7708 8.72917 43.3646C8.72917 43.9583 9.125 44.3542 9.71875 44.3542H13.6771C14.0729 44.3542 14.2708 44.1562 14.4687 43.7604C14.6667 43.3646 14.6667 42.9688 14.4687 42.7708L8.53125 32.875C8.13542 32.2812 7.14583 32.2812 6.75 32.875L0.8125 42.7708C0.614583 43.1667 0.614583 43.5625 0.8125 43.7604C1.20833 44.1562 1.40625 44.3542 1.80208 44.3542H4.77083V49.1042C4.77083 52.4688 5.76042 55.2396 7.54167 57.0208C10.3125 59.7917 14.8646 60.1875 19.2187 60.1875C19.6146 60.1875 26.7396 60.1875 29.5104 60.1875C30.1042 60.1875 30.5 59.7917 30.5 59.1979C30.5 58.6042 30.1042 58.2083 29.5104 58.2083Z" fill="#263238"/>
</svg>
