<svg width="61" height="59" viewBox="0 0 61 59" fill="none" xmlns="http://www.w3.org/2000/svg">
    <path d="M5.76058 10.6982C5.16683 10.6982 4.771 10.3024 4.771 9.70866V7.72949C4.771 6.14616 6.15641 4.76074 7.73975 4.76074H45.3439C45.9377 4.76074 46.3335 5.15658 46.3335 5.75033C46.3335 6.34408 45.9377 6.73991 45.3439 6.73991H7.73975C7.146 6.73991 6.75016 7.13574 6.75016 7.72949V9.70866C6.75016 10.3024 6.35433 10.6982 5.76058 10.6982Z" fill="#263238"/>
    <path d="M17.6356 10.6979C18.1821 10.6979 18.6252 10.2549 18.6252 9.70833C18.6252 9.1618 18.1821 8.71875 17.6356 8.71875C17.089 8.71875 16.646 9.1618 16.646 9.70833C16.646 10.2549 17.089 10.6979 17.6356 10.6979Z" fill="#263238"/>
    <path d="M13.6776 10.6979C14.2241 10.6979 14.6672 10.2549 14.6672 9.70833C14.6672 9.1618 14.2241 8.71875 13.6776 8.71875C13.131 8.71875 12.688 9.1618 12.688 9.70833C12.688 10.2549 13.131 10.6979 13.6776 10.6979Z" fill="#263238"/>
    <path d="M9.71908 10.6979C10.2656 10.6979 10.7087 10.2549 10.7087 9.70833C10.7087 9.1618 10.2656 8.71875 9.71908 8.71875C9.17254 8.71875 8.72949 9.1618 8.72949 9.70833C8.72949 10.2549 9.17254 10.6979 9.71908 10.6979Z" fill="#263238"/>
    <path d="M13.6771 18.6149C14.2236 18.6149 14.6667 18.1719 14.6667 17.6253C14.6667 17.0788 14.2236 16.6357 13.6771 16.6357C13.1306 16.6357 12.6875 17.0788 12.6875 17.6253C12.6875 18.1719 13.1306 18.6149 13.6771 18.6149Z" fill="#263238"/>
    <path d="M9.71859 18.6149C10.2651 18.6149 10.7082 18.1719 10.7082 17.6253C10.7082 17.0788 10.2651 16.6357 9.71859 16.6357C9.17206 16.6357 8.729 17.0788 8.729 17.6253C8.729 18.1719 9.17206 18.6149 9.71859 18.6149Z" fill="#263238"/>
    <path d="M5.76058 18.6149C6.30711 18.6149 6.75016 18.1719 6.75016 17.6253C6.75016 17.0788 6.30711 16.6357 5.76058 16.6357C5.21405 16.6357 4.771 17.0788 4.771 17.6253C4.771 18.1719 5.21405 18.6149 5.76058 18.6149Z" fill="#263238"/>
    <path d="M53.2606 58.1989H47.3231C46.7293 58.1989 46.3335 57.8031 46.3335 57.2093C46.3335 56.6156 46.7293 56.2197 47.3231 56.2197H53.2606C53.8543 56.2197 54.2502 55.8239 54.2502 55.2301V39.3968C54.2502 38.8031 54.646 38.4072 55.2397 38.4072C55.8335 38.4072 56.2293 38.8031 56.2293 39.3968V55.2301C56.2293 56.8135 54.8439 58.1989 53.2606 58.1989Z" fill="#263238"/>
    <path d="M21.5938 58.1986H3.78125C2.19792 58.1986 0.8125 56.8131 0.8125 55.2298V15.6465C0.8125 14.0632 2.19792 12.6777 3.78125 12.6777H41.3854C41.9792 12.6777 42.375 13.0736 42.375 13.6673C42.375 14.2611 41.9792 14.6569 41.3854 14.6569H3.78125C3.1875 14.6569 2.79167 15.0527 2.79167 15.6465V55.2298C2.79167 55.8236 3.1875 56.2194 3.78125 56.2194H21.5938C22.1875 56.2194 22.5833 56.6152 22.5833 57.209C22.5833 57.8027 22.1875 58.1986 21.5938 58.1986Z" fill="#263238"/>
    <path d="M27.5312 58.1982H25.5521C24.9583 58.1982 24.5625 57.8024 24.5625 57.2087C24.5625 56.6149 24.9583 56.2191 25.5521 56.2191H27.5312C33.8646 56.2191 48.3125 53.4482 48.3125 27.5212V14.6566H45.3438C44.9479 14.6566 44.75 14.4587 44.5521 14.0628C44.3542 13.667 44.3542 13.4691 44.5521 13.0732L51.4792 1.19824C51.875 0.604492 52.8646 0.604492 53.2604 1.19824L60.1875 13.0732C60.3854 13.4691 60.3854 13.667 60.1875 14.0628C59.9896 14.4587 59.5937 14.6566 59.3958 14.6566H56.2292V27.5212C56.2292 28.1149 55.8333 28.5107 55.2396 28.5107C54.6458 28.5107 54.25 28.1149 54.25 27.5212V13.667C54.25 13.0732 54.6458 12.6774 55.2396 12.6774H57.4167L52.2708 3.77116L47.125 12.6774H49.3021C49.8958 12.6774 50.2917 13.0732 50.2917 13.667V27.5212C50.2917 55.2295 34.4583 58.1982 27.5312 58.1982Z" fill="#263238"/>
    <path d="M55.2396 32.4694C55.7861 32.4694 56.2292 32.0263 56.2292 31.4798C56.2292 30.9333 55.7861 30.4902 55.2396 30.4902C54.6931 30.4902 54.25 30.9333 54.25 31.4798C54.25 32.0263 54.6931 32.4694 55.2396 32.4694Z" fill="#263238"/>
    <path d="M1.80208 22.5729H43.3646C43.9583 22.5729 44.3542 22.1771 44.3542 21.5833C44.3542 20.9896 43.9583 20.5938 43.3646 20.5938H2.79167L0.8125 21.5833C0.8125 22.1771 1.20833 22.5729 1.80208 22.5729Z" fill="#263238"/>
    <path d="M28.5208 44.5417C29.0674 44.5417 29.5104 44.0986 29.5104 43.5521C29.5104 43.0056 29.0674 42.5625 28.5208 42.5625C27.9743 42.5625 27.5312 43.0056 27.5312 43.5521C27.5312 44.0986 27.9743 44.5417 28.5208 44.5417Z" fill="#263238"/>
    <path d="M22.2675 44.2974V30H10V32.8458H19.1208V44.2974H10V47.3074H24.4413V44.2974H22.2675Z" fill="black"/>
    <path d="M22.2675 44.2974V30H10V32.8458H19.1208V44.2974H10V47.3074H24.4413V44.2974H22.2675Z" stroke="white"/>
</svg>
