<svg width="61" height="61" viewBox="0 0 61 61" fill="none" xmlns="http://www.w3.org/2000/svg">
    <path d="M44.1563 26.541C42.7709 26.541 41.3855 25.7493 40.7917 24.5618C39.6042 22.5827 40.3959 20.2077 42.1771 19.2181L45.5417 17.2389L44.5521 15.4577C44.3542 15.0618 44.3542 14.666 44.5521 14.4681C44.75 14.0723 45.1459 14.0723 45.5417 14.0723L55.4375 15.2598C55.8334 15.2598 56.0313 15.4577 56.2292 15.6556C56.4271 15.8535 56.4271 16.2493 56.2292 16.4473L52.2709 25.5514C52.0729 25.9473 51.875 26.1452 51.4792 26.1452C51.0834 26.1452 50.6875 25.9473 50.4896 25.7493L49.5 23.9681L46.1354 25.9473C45.5417 26.3431 44.9479 26.541 44.1563 26.541ZM47.3229 16.2493L47.7188 17.041C47.9167 17.4369 47.9167 18.0306 47.3229 18.4264L42.9688 20.9994C42.5729 21.1973 42.1771 21.5931 41.9792 22.1868C41.7813 22.7806 41.9792 23.1764 42.1771 23.7702C42.7709 24.7598 43.9584 24.9577 44.9479 24.5618L49.3021 22.1868C49.5 21.9889 49.698 21.9889 50.0938 21.9889C50.2917 21.9889 50.4896 22.1868 50.6875 22.3848L51.0834 23.1764L53.6563 17.041L47.3229 16.2493Z" fill="#263238"/>
    <path d="M15.4585 46.9269L5.56266 45.7394C5.16683 45.7394 4.96891 45.5415 4.771 45.3436C4.57308 45.1457 4.57308 44.7498 4.771 44.5519L8.72933 35.4477C8.92725 35.0519 9.12516 34.854 9.521 34.854C9.91683 34.854 10.3127 35.0519 10.5106 35.2498L11.5002 37.0311L14.8647 35.0519C16.646 34.0623 19.2189 34.6561 20.2085 36.4373C20.8022 37.4269 20.8022 38.4165 20.6043 39.4061C20.4064 40.3957 19.6147 41.1873 18.8231 41.7811L15.4585 43.7602L16.4481 45.5415C16.646 45.9373 16.646 46.3332 16.4481 46.5311C16.0522 46.9269 15.8543 46.9269 15.4585 46.9269ZM7.146 43.9582L13.6772 44.7498L13.2814 43.9582C13.0835 43.5623 13.0835 42.9686 13.6772 42.5727L18.0314 39.9998C18.4272 39.8019 18.8231 39.4061 19.021 38.8123C19.2189 38.2186 19.021 37.8227 18.8231 37.229C18.2293 36.2394 17.0418 36.0415 16.0522 36.4373L11.6981 38.8123C11.5002 39.0102 11.1043 39.0102 10.9064 39.0102C10.7085 39.0102 10.5106 38.8123 10.3127 38.6144L9.91683 37.8227L7.146 43.9582Z" fill="#263238"/>
    <path d="M45.5417 46.926C45.1459 46.926 44.948 46.7281 44.7501 46.5301C44.5522 46.1343 44.5522 45.7385 44.7501 45.5406L45.7397 43.7593L42.3751 41.7801C40.3959 40.5926 39.8022 38.2176 40.9897 36.4364C41.9792 34.6551 44.5522 33.8635 46.3334 35.051L49.698 37.0301L50.6876 35.2489C50.8855 34.8531 51.2813 34.6551 51.6772 34.8531C52.073 34.8531 52.4688 35.051 52.4688 35.4468L56.4272 44.551C56.6251 44.7489 56.6251 45.1447 56.4272 45.3426C56.2292 45.5406 56.0313 45.7385 55.6355 45.7385L45.5417 46.926ZM44.1563 36.4364C43.3647 36.4364 42.7709 36.8322 42.3751 37.426C41.7813 38.4156 42.1772 39.6031 43.1667 40.1968L47.5209 42.5718C47.7188 42.7697 47.9167 42.9676 47.9167 43.1656C47.9167 43.3635 47.9167 43.7593 47.7188 43.9572L47.323 44.7489L53.8542 43.9572L51.2813 37.8218L50.8855 38.6135C50.6876 39.0093 50.0938 39.2072 49.5001 39.0093L45.1459 36.6343C44.948 36.4364 44.5522 36.4364 44.1563 36.4364Z" fill="#263238"/>
    <path d="M16.8439 26.541C16.2502 26.541 15.4585 26.3431 14.8647 25.9473L11.5002 23.9681L10.5106 25.7493C10.3127 26.1452 10.1147 26.3431 9.521 26.1452C9.12516 26.1452 8.72933 25.9473 8.72933 25.5514L4.771 16.4473C4.57308 16.2493 4.57308 15.8535 4.771 15.6556C4.96891 15.4577 5.16683 15.2598 5.56266 15.2598L15.4585 14.0723C15.8543 14.0723 16.2502 14.2702 16.4481 14.4681C16.646 14.8639 16.646 15.2598 16.4481 15.4577L15.4585 17.2389L18.8231 19.2181C19.8127 19.8118 20.4064 20.6035 20.6043 21.5931C20.8022 22.5827 20.8022 23.7702 20.2085 24.5618C19.4168 25.7493 18.2293 26.541 16.8439 26.541ZM11.1043 21.5931C11.3022 21.5931 11.5002 21.5931 11.5002 21.791L15.8543 24.166C16.8439 24.7598 18.0314 24.3639 18.6252 23.3743C18.8231 22.9785 19.021 22.3848 18.8231 21.791C18.6252 21.1973 18.4272 20.8014 17.8335 20.6035L13.4793 18.2285C13.2814 18.0306 13.0835 17.8327 13.0835 17.6348C13.0835 17.4368 13.0835 17.041 13.2814 16.8431L13.6772 16.0514L7.146 16.8431L9.71891 22.9785L10.1147 22.1868C10.3127 21.791 10.7085 21.5931 11.1043 21.5931Z" fill="#263238"/>
    <path d="M30.5002 60.1875C30.1043 60.1875 29.9064 59.9896 29.7085 59.7917L23.771 51.875C23.5731 51.4792 23.5731 51.0833 23.771 50.8854C23.9689 50.4896 24.3647 50.2917 24.5627 50.2917H26.5418V46.3333C26.5418 44.1562 28.3231 42.375 30.5002 42.375C32.6772 42.375 34.4585 44.1562 34.4585 46.3333V50.2917H36.4377C36.8335 50.2917 37.2293 50.4896 37.2293 50.8854C37.4272 51.2812 37.4272 51.6771 37.2293 51.875L31.2918 59.7917C31.0939 59.9896 30.896 60.1875 30.5002 60.1875ZM26.5418 52.2708L30.5002 57.6146L34.4585 52.2708H33.4689C32.8752 52.2708 32.4793 51.875 32.4793 51.2812V46.3333C32.4793 45.1458 31.6877 44.3542 30.5002 44.3542C29.3127 44.3542 28.521 45.1458 28.521 46.3333V51.2812C28.521 51.875 28.1252 52.2708 27.5314 52.2708H26.5418Z" fill="#263238"/>
    <path d="M30.5002 18.6247C28.3231 18.6247 26.5418 16.8434 26.5418 14.6663V10.708H24.5627C24.1668 10.708 23.771 10.5101 23.771 10.1143C23.5731 9.71842 23.5731 9.32259 23.771 9.12467L29.7085 1.20801C30.1043 0.614258 30.896 0.614258 31.2918 1.20801L37.2293 9.12467C37.4272 9.52051 37.4272 9.91634 37.2293 10.1143C37.2293 10.5101 36.8335 10.708 36.4377 10.708H34.4585V14.6663C34.4585 16.8434 32.6772 18.6247 30.5002 18.6247ZM26.5418 8.72884H27.5314C28.1252 8.72884 28.521 9.12467 28.521 9.71842V14.6663C28.521 15.8538 29.3127 16.6455 30.5002 16.6455C31.6877 16.6455 32.4793 15.8538 32.4793 14.6663V9.71842C32.4793 9.12467 32.8752 8.72884 33.4689 8.72884H34.4585L30.5002 3.38509L26.5418 8.72884Z" fill="#263238"/>
    <path d="M30.5003 40.3952C24.9587 40.3952 20.6045 36.041 20.6045 30.4993C20.6045 24.9577 24.9587 20.6035 30.5003 20.6035C36.042 20.6035 40.3962 24.9577 40.3962 30.4993C40.3962 36.041 36.042 40.3952 30.5003 40.3952ZM30.5003 22.5827C26.1462 22.5827 22.5837 26.1452 22.5837 30.4993C22.5837 34.8535 26.1462 38.416 30.5003 38.416C34.8545 38.416 38.417 34.8535 38.417 30.4993C38.417 26.1452 34.8545 22.5827 30.5003 22.5827Z" fill="#263238"/>
    <path d="M34.4585 1.9994C34.4585 1.40565 35.0522 1.00982 35.646 1.20773C36.2397 1.20773 36.6356 1.80148 36.4377 2.39523C36.4377 2.98898 35.8439 3.38482 35.2502 3.1869C34.8543 3.1869 34.4585 2.59315 34.4585 1.9994Z" fill="#263238"/>
    <path d="M24.5627 58.6032C24.5627 58.0094 25.1565 57.8115 25.7502 57.8115C26.344 57.8115 26.7398 58.4053 26.5419 58.999C26.5419 59.5928 25.9481 59.9886 25.3544 59.7907C24.7606 59.5928 24.3648 59.1969 24.5627 58.6032Z" fill="#263238"/>
    <path d="M39.4063 3.18652C39.6042 2.59277 40.1979 2.39486 40.5938 2.59277C41.1875 2.79069 41.3854 3.38444 41.1875 3.78027C40.9896 4.37402 40.3958 4.57194 40 4.37402C39.4062 4.17611 39.2083 3.78027 39.4063 3.18652Z" fill="#263238"/>
    <path d="M19.8125 57.0195C20.0104 56.4258 20.6042 56.2279 21 56.4258C21.5938 56.6237 21.7917 57.2175 21.5937 57.6133C21.3958 58.207 20.8021 58.4049 20.4062 58.207C19.8125 58.207 19.6146 57.6133 19.8125 57.0195Z" fill="#263238"/>
    <path d="M43.958 5.16586C44.1559 4.77003 44.7497 4.57211 45.3434 4.77003C45.7393 4.96794 45.9372 5.56169 45.7393 6.15544C45.5414 6.55128 44.9476 6.74919 44.3538 6.55128C43.958 6.15544 43.7601 5.56169 43.958 5.16586Z" fill="#263238"/>
    <path d="M15.2603 54.8426C15.4582 54.4468 16.0519 54.2489 16.6457 54.4468C17.0415 54.6447 17.2394 55.2385 17.0415 55.8322C16.6457 56.228 16.0519 56.426 15.6561 56.228C15.2603 55.8322 15.0623 55.2385 15.2603 54.8426Z" fill="#263238"/>
    <path d="M48.1149 7.93729C48.5107 7.54146 49.1044 7.54146 49.5003 7.73938C49.8961 8.13521 49.8961 8.72896 49.6982 9.12479C49.3024 9.52063 48.7086 9.52063 48.3128 9.32271C47.9169 8.92688 47.917 8.33313 48.1149 7.93729Z" fill="#263238"/>
    <path d="M11.3022 51.8748C11.6981 51.479 12.2918 51.479 12.6877 51.6769C13.0835 52.0727 13.0835 52.6665 12.8856 53.0623C12.4897 53.4581 11.896 53.4581 11.5002 53.2602C10.9064 52.8644 10.9064 52.2706 11.3022 51.8748Z" fill="#263238"/>
    <path d="M51.8751 11.3017C52.2709 10.9059 52.8647 11.1038 53.2605 11.4996C53.6564 11.8954 53.6564 12.4892 53.0626 12.885C52.6668 13.2809 52.073 13.083 51.6772 12.6871C51.2814 12.2913 51.4793 11.6975 51.8751 11.3017Z" fill="#263238"/>
    <path d="M7.93761 48.1142C8.33344 47.7184 8.92719 47.9163 9.32302 48.3121C9.71886 48.7079 9.71885 49.3017 9.1251 49.6975C8.72927 50.0934 8.13552 49.8954 7.73969 49.4996C7.34386 49.1038 7.54177 48.51 7.93761 48.1142Z" fill="#263238"/>
    <path d="M57.2187 19.8115C57.8125 19.6136 58.2083 19.8115 58.4062 20.4053C58.6042 20.999 58.4062 21.3949 57.8125 21.5928C57.2187 21.7907 56.8229 21.5928 56.625 20.999C56.4271 20.4053 56.625 20.0094 57.2187 19.8115Z" fill="#263238"/>
    <path d="M3.1875 39.4053C3.78125 39.2074 4.17708 39.4053 4.375 39.999C4.57292 40.5928 4.375 40.9886 3.78125 41.1865C3.1875 41.3844 2.79167 41.1865 2.59375 40.5928C2.39583 40.1969 2.59375 39.6032 3.1875 39.4053Z" fill="#263238"/>
    <path d="M58.6044 24.5615C59.1981 24.5615 59.594 24.7594 59.7919 25.3532C59.7919 25.9469 59.594 26.3428 59.0002 26.5407C58.4065 26.5407 58.0106 26.3428 57.8127 25.749C57.6148 25.1553 58.0106 24.5615 58.6044 24.5615Z" fill="#263238"/>
    <path d="M2.00016 34.457C2.59391 34.457 2.98975 34.6549 3.18766 35.2487C3.18766 35.8424 2.98975 36.2383 2.396 36.4362C1.80225 36.4362 1.40641 36.2383 1.2085 35.6445C1.2085 35.0508 1.60433 34.6549 2.00016 34.457Z" fill="#263238"/>
    <path d="M59.1981 29.5098C59.7918 29.5098 60.1877 29.9056 60.1877 30.4993C60.1877 31.0931 59.7918 31.4889 59.1981 31.4889C58.6043 31.4889 58.2085 31.0931 58.2085 30.4993C58.2085 29.9056 58.6043 29.5098 59.1981 29.5098Z" fill="#263238"/>
    <path d="M1.80208 29.5098C2.39583 29.5098 2.79167 29.9056 2.79167 30.4993C2.79167 31.0931 2.39583 31.4889 1.80208 31.4889C1.20833 31.4889 0.8125 31.0931 0.8125 30.4993C0.8125 29.9056 1.20833 29.5098 1.80208 29.5098Z" fill="#263238"/>
    <path d="M58.9997 34.458C59.5935 34.458 59.9893 35.0518 59.7914 35.6455C59.7914 36.2393 59.1976 36.6351 58.6039 36.4372C58.0101 36.4372 57.6143 35.8434 57.8122 35.2497C57.8122 34.8538 58.406 34.458 58.9997 34.458Z" fill="#263238"/>
    <path d="M2.39572 24.5622C2.98947 24.5622 3.38531 25.156 3.18739 25.7497C3.18739 26.3435 2.59364 26.7393 1.99989 26.5414C1.40614 26.5414 1.01031 25.9476 1.20822 25.3539C1.40614 24.7601 1.80197 24.3643 2.39572 24.5622Z" fill="#263238"/>
    <path d="M57.8125 39.4053C58.4062 39.6032 58.6042 40.1969 58.4062 40.5928C58.2083 41.1865 57.6146 41.3844 57.2187 41.1865C56.625 40.9886 56.4271 40.3949 56.625 39.999C56.625 39.4053 57.2187 39.2074 57.8125 39.4053Z" fill="#263238"/>
    <path d="M3.78125 19.8115C4.375 20.0094 4.57292 20.6032 4.375 20.999C4.17708 21.5928 3.58333 21.7907 3.1875 21.5928C2.59375 21.3949 2.39583 20.8011 2.59375 20.4053C2.79167 19.8115 3.38542 19.6136 3.78125 19.8115Z" fill="#263238"/>
    <path d="M53.0623 48.1134C53.4581 48.5092 53.4581 49.103 53.2602 49.4988C52.8644 49.8946 52.2706 49.8947 51.8748 49.6967C51.479 49.3009 51.479 48.7071 51.6769 48.3113C52.0727 47.9155 52.6665 47.9155 53.0623 48.1134Z" fill="#263238"/>
    <path d="M9.12479 11.3013C9.52063 11.6971 9.52063 12.2908 9.32271 12.6867C8.92688 13.0825 8.33313 13.0825 7.93729 12.8846C7.54146 12.4888 7.54146 11.895 7.73938 11.4992C8.13521 10.9054 8.72896 10.9054 9.12479 11.3013Z" fill="#263238"/>
    <path d="M49.698 51.8746C50.0939 52.2704 49.8959 52.8642 49.5001 53.26C49.1043 53.6559 48.5105 53.6559 48.1147 53.0621C47.7189 52.6663 47.9168 52.0725 48.3126 51.6767C48.7084 51.2809 49.3022 51.4788 49.698 51.8746Z" fill="#263238"/>
    <path d="M12.8855 7.93712C13.2814 8.33295 13.0834 8.9267 12.6876 9.32253C12.2918 9.71837 11.698 9.52045 11.3022 9.12462C10.9064 8.72878 11.1043 8.13503 11.5001 7.7392C11.8959 7.34337 12.4897 7.54128 12.8855 7.93712Z" fill="#263238"/>
    <path d="M45.7395 54.8436C45.9374 55.2394 45.9374 55.8332 45.3436 56.229C44.9478 56.4269 44.354 56.4269 43.9582 55.8332C43.7603 55.4373 43.7603 54.8436 44.354 54.4478C44.7499 54.2498 45.3436 54.4478 45.7395 54.8436Z" fill="#263238"/>
    <path d="M17.0417 5.16655C17.2396 5.56238 17.2396 6.15613 16.6459 6.55196C16.25 6.74988 15.6563 6.74988 15.2605 6.15613C15.0625 5.7603 15.0625 5.16655 15.6563 4.77071C16.0521 4.5728 16.6459 4.5728 17.0417 5.16655Z" fill="#263238"/>
    <path d="M41.1875 57.0195C41.3854 57.6133 41.1875 58.0091 40.5938 58.207C40 58.405 39.6042 58.207 39.4063 57.6133C39.2083 57.0195 39.4062 56.6237 40 56.4258C40.3958 56.4258 40.9896 56.6237 41.1875 57.0195Z" fill="#263238"/>
    <path d="M21.5937 3.18652C21.7917 3.78027 21.5938 4.17611 21 4.37402C20.4063 4.57194 20.0104 4.37402 19.8125 3.78027C19.6146 3.18652 19.8125 2.79069 20.4062 2.59277C20.8021 2.39486 21.3958 2.59277 21.5937 3.18652Z" fill="#263238"/>
    <path d="M36.4377 58.6039C36.4377 59.1976 36.2397 59.5935 35.646 59.7914C35.0522 59.7914 34.6564 59.5935 34.4585 58.9997C34.4585 58.406 34.6564 58.0101 35.2502 57.8122C35.8439 57.6143 36.4377 58.0101 36.4377 58.6039Z" fill="#263238"/>
    <path d="M26.5417 1.99968C26.5417 2.59343 26.3438 2.98926 25.75 3.18717C25.1563 3.18717 24.7604 2.98926 24.5625 2.39551C24.5625 1.80176 24.7604 1.40592 25.3542 1.20801C25.9479 1.20801 26.3438 1.60384 26.5417 1.99968Z" fill="#263238"/>
</svg>
