<svg width="61" height="59" viewBox="0 0 61 59" fill="none" xmlns="http://www.w3.org/2000/svg">
    <path d="M5.76058 10.6982C5.16683 10.6982 4.771 10.3024 4.771 9.70866V7.72949C4.771 6.14616 6.15641 4.76074 7.73975 4.76074H45.3439C45.9377 4.76074 46.3335 5.15658 46.3335 5.75033C46.3335 6.34408 45.9377 6.73991 45.3439 6.73991H7.73975C7.146 6.73991 6.75016 7.13574 6.75016 7.72949V9.70866C6.75016 10.3024 6.35433 10.6982 5.76058 10.6982Z" fill="#263238"/>
    <path d="M17.6356 10.6979C18.1821 10.6979 18.6252 10.2549 18.6252 9.70833C18.6252 9.1618 18.1821 8.71875 17.6356 8.71875C17.089 8.71875 16.646 9.1618 16.646 9.70833C16.646 10.2549 17.089 10.6979 17.6356 10.6979Z" fill="#263238"/>
    <path d="M13.6776 10.6979C14.2241 10.6979 14.6672 10.2549 14.6672 9.70833C14.6672 9.1618 14.2241 8.71875 13.6776 8.71875C13.131 8.71875 12.688 9.1618 12.688 9.70833C12.688 10.2549 13.131 10.6979 13.6776 10.6979Z" fill="#263238"/>
    <path d="M9.71908 10.6979C10.2656 10.6979 10.7087 10.2549 10.7087 9.70833C10.7087 9.1618 10.2656 8.71875 9.71908 8.71875C9.17254 8.71875 8.72949 9.1618 8.72949 9.70833C8.72949 10.2549 9.17254 10.6979 9.71908 10.6979Z" fill="#263238"/>
    <path d="M13.6771 18.6149C14.2236 18.6149 14.6667 18.1719 14.6667 17.6253C14.6667 17.0788 14.2236 16.6357 13.6771 16.6357C13.1306 16.6357 12.6875 17.0788 12.6875 17.6253C12.6875 18.1719 13.1306 18.6149 13.6771 18.6149Z" fill="#263238"/>
    <path d="M9.71859 18.6149C10.2651 18.6149 10.7082 18.1719 10.7082 17.6253C10.7082 17.0788 10.2651 16.6357 9.71859 16.6357C9.17206 16.6357 8.729 17.0788 8.729 17.6253C8.729 18.1719 9.17206 18.6149 9.71859 18.6149Z" fill="#263238"/>
    <path d="M5.76058 18.6149C6.30711 18.6149 6.75016 18.1719 6.75016 17.6253C6.75016 17.0788 6.30711 16.6357 5.76058 16.6357C5.21405 16.6357 4.771 17.0788 4.771 17.6253C4.771 18.1719 5.21405 18.6149 5.76058 18.6149Z" fill="#263238"/>
    <path d="M53.2606 58.1989H47.3231C46.7293 58.1989 46.3335 57.8031 46.3335 57.2093C46.3335 56.6156 46.7293 56.2197 47.3231 56.2197H53.2606C53.8543 56.2197 54.2502 55.8239 54.2502 55.2301V39.3968C54.2502 38.8031 54.646 38.4072 55.2397 38.4072C55.8335 38.4072 56.2293 38.8031 56.2293 39.3968V55.2301C56.2293 56.8135 54.8439 58.1989 53.2606 58.1989Z" fill="#263238"/>
    <path d="M21.5938 58.1986H3.78125C2.19792 58.1986 0.8125 56.8131 0.8125 55.2298V15.6465C0.8125 14.0632 2.19792 12.6777 3.78125 12.6777H41.3854C41.9792 12.6777 42.375 13.0736 42.375 13.6673C42.375 14.2611 41.9792 14.6569 41.3854 14.6569H3.78125C3.1875 14.6569 2.79167 15.0527 2.79167 15.6465V55.2298C2.79167 55.8236 3.1875 56.2194 3.78125 56.2194H21.5938C22.1875 56.2194 22.5833 56.6152 22.5833 57.209C22.5833 57.8027 22.1875 58.1986 21.5938 58.1986Z" fill="#263238"/>
    <path d="M27.5312 58.1982H25.5521C24.9583 58.1982 24.5625 57.8024 24.5625 57.2087C24.5625 56.6149 24.9583 56.2191 25.5521 56.2191H27.5312C33.8646 56.2191 48.3125 53.4482 48.3125 27.5212V14.6566H45.3438C44.9479 14.6566 44.75 14.4587 44.5521 14.0628C44.3542 13.667 44.3542 13.4691 44.5521 13.0732L51.4792 1.19824C51.875 0.604492 52.8646 0.604492 53.2604 1.19824L60.1875 13.0732C60.3854 13.4691 60.3854 13.667 60.1875 14.0628C59.9896 14.4587 59.5937 14.6566 59.3958 14.6566H56.2292V27.5212C56.2292 28.1149 55.8333 28.5107 55.2396 28.5107C54.6458 28.5107 54.25 28.1149 54.25 27.5212V13.667C54.25 13.0732 54.6458 12.6774 55.2396 12.6774H57.4167L52.2708 3.77116L47.125 12.6774H49.3021C49.8958 12.6774 50.2917 13.0732 50.2917 13.667V27.5212C50.2917 55.2295 34.4583 58.1982 27.5312 58.1982Z" fill="#263238"/>
    <path d="M55.2396 32.4694C55.7861 32.4694 56.2292 32.0263 56.2292 31.4798C56.2292 30.9333 55.7861 30.4902 55.2396 30.4902C54.6931 30.4902 54.25 30.9333 54.25 31.4798C54.25 32.0263 54.6931 32.4694 55.2396 32.4694Z" fill="#263238"/>
    <path d="M1.80208 22.5729H43.3646C43.9583 22.5729 44.3542 22.1771 44.3542 21.5833C44.3542 20.9896 43.9583 20.5938 43.3646 20.5938H2.79167L0.8125 21.5833C0.8125 22.1771 1.20833 22.5729 1.80208 22.5729Z" fill="#263238"/>
    <path d="M25.3542 54.2402H21.7917C21.3958 54.2402 21 53.8444 20.8021 53.4486L20.2083 50.6777C19.4167 50.4798 18.625 50.084 17.8333 49.6882L15.6563 51.2715C15.2604 51.4694 14.6667 51.4694 14.4688 51.0736L11.8958 48.5006C11.5 48.1048 11.5 47.709 11.6979 47.3131L13.0833 44.9381C12.6875 44.1465 12.2917 43.3548 12.0938 42.5632L9.32292 41.9694C8.92708 41.7715 8.53125 41.3756 8.53125 40.9798V37.4173C8.53125 37.0215 8.92708 36.6256 9.32292 36.4277L11.8958 35.834C12.0938 35.0423 12.4896 34.2506 12.8854 33.459L11.5 31.084C11.3021 30.6881 11.3021 30.0944 11.6979 29.8965L14.2708 27.3236C14.6667 26.9277 15.0625 26.9277 15.4583 27.1256L17.8333 28.5111C18.625 28.1152 19.4167 27.7194 20.2083 27.5215L20.8021 24.7507C20.8021 24.3548 21.3958 23.959 21.7917 23.959H25.3542C25.75 23.959 26.1458 24.3548 26.3438 24.7507L26.9375 27.5215C27.7292 27.7194 28.5208 28.1152 29.3125 28.5111L31.6875 27.1256C32.0833 26.9277 32.6771 26.9277 32.875 27.3236L35.4479 29.8965C35.8438 30.2923 35.8438 30.6881 35.6458 31.084L34.2604 33.459C34.6562 34.2506 35.0521 35.0423 35.25 35.834L38.0208 36.4277C38.4167 36.6256 38.8125 37.0215 38.8125 37.4173V40.9798C38.8125 41.3756 38.4167 41.7715 38.0208 41.9694L35.25 42.5632C35.0521 43.3548 34.6562 44.1465 34.2604 44.9381L35.6458 47.3131C35.8438 47.709 35.8438 48.3027 35.4479 48.5006L32.875 51.0736C32.4792 51.4694 32.0833 51.4694 31.6875 51.2715L29.3125 49.8861C28.5208 50.2819 27.7292 50.6777 26.9375 50.8756L26.3438 53.6465C26.1458 53.8444 25.75 54.2402 25.3542 54.2402ZM22.5833 52.2611H24.5625L25.1562 49.6882C25.1562 49.2923 25.5521 49.0944 25.9479 48.8965C26.9375 48.6986 27.9271 48.3027 28.9167 47.709C29.3125 47.5111 29.7083 47.5111 29.9063 47.709L32.0833 49.0944L33.4688 47.709L32.0833 45.5319C31.8854 45.1361 31.8854 44.7402 32.0833 44.5423C32.6771 43.5527 33.0729 42.5632 33.2708 41.5736C33.2708 41.1777 33.6667 40.9798 34.0625 40.7819L36.6354 40.1881V38.209L34.0625 37.6152C33.6667 37.6152 33.4688 37.2194 33.2708 36.8236C33.0729 35.834 32.6771 34.8444 32.0833 33.8548C31.8854 33.459 31.8854 33.0632 32.0833 32.8652L33.4688 30.6881L31.8854 29.5006L29.7083 30.8861C29.3125 31.084 28.9167 31.084 28.7188 30.8861C27.7292 30.2923 26.7396 29.8965 25.75 29.6986C25.3542 29.6986 25.1563 29.3027 24.9583 28.9069L24.5625 26.5319H22.5833L21.9896 29.1048C21.9896 29.5006 21.5937 29.6986 21.1979 29.8965C20.2083 30.0944 19.2187 30.4902 18.2292 31.084C17.8333 31.2819 17.4375 31.2819 17.2396 31.084L15.2604 29.5006L13.875 30.8861L15.2604 33.0631C15.4583 33.459 15.4583 33.8548 15.2604 34.0527C14.6667 35.0423 14.2708 36.0319 14.0729 37.0215C14.0729 37.4173 13.6771 37.6152 13.2813 37.8132L10.7083 38.4069V40.3861L13.2813 40.9798C13.6771 40.9798 13.875 41.3757 14.0729 41.7715C14.2708 42.7611 14.6667 43.7507 15.2604 44.7402C15.4583 45.1361 15.4583 45.5319 15.2604 45.7298L13.875 47.9069L15.2604 49.2923L17.4375 47.9069C17.8333 47.709 18.2292 47.709 18.4271 47.9069C19.4167 48.5006 20.4062 48.8965 21.3958 49.0944C21.7917 49.0944 21.9896 49.4902 22.1875 49.8861L22.5833 52.2611ZM23.5729 46.3236C19.8125 46.3236 16.6458 43.1569 16.6458 39.3965C16.6458 35.6361 19.8125 32.4694 23.5729 32.4694C27.3333 32.4694 30.5 35.6361 30.5 39.3965C30.5 39.9902 30.1042 40.3861 29.5104 40.3861C28.9167 40.3861 28.5208 39.9902 28.5208 39.3965C28.5208 36.6256 26.3438 34.4486 23.5729 34.4486C20.8021 34.4486 18.625 36.6256 18.625 39.3965C18.625 42.1673 20.8021 44.3444 23.5729 44.3444C23.9688 44.3444 24.1667 44.3444 24.5625 44.3444C25.1562 44.1465 25.5521 44.5423 25.75 45.1361C25.9479 45.7298 25.5521 46.1256 24.9583 46.3236C24.5625 46.3236 23.9688 46.3236 23.5729 46.3236Z" fill="#263238"/>
    <path d="M28.5208 44.5426C29.0674 44.5426 29.5104 44.0996 29.5104 43.5531C29.5104 43.0065 29.0674 42.5635 28.5208 42.5635C27.9743 42.5635 27.5312 43.0065 27.5312 43.5531C27.5312 44.0996 27.9743 44.5426 28.5208 44.5426Z" fill="#263238"/>
</svg>
