<svg width="79" height="79" viewBox="0 0 79 79" fill="none" xmlns="http://www.w3.org/2000/svg">
    <path d="M43.4502 15.8001C47.1437 15.801 50.7859 16.6653 54.0862 18.3238C57.3864 19.9823 60.2533 22.3892 62.4582 25.3524C64.663 28.3157 66.1447 31.7532 66.7852 35.3908C67.4256 39.0284 67.2069 42.7654 66.1466 46.3034C65.0864 49.8415 63.2138 53.0828 60.6785 55.7687C58.1431 58.4546 55.015 60.5107 51.5439 61.773C48.0727 63.0354 44.3546 63.4689 40.6862 63.0391C37.0177 62.6093 33.5005 61.328 30.4152 59.2975V59.2501H30.3441C26.101 56.4355 22.8771 52.3292 21.1499 47.5394C19.4227 42.7495 19.2841 37.5307 20.7545 32.6559C22.2249 27.7811 25.2262 23.5094 29.314 20.4735C33.4017 17.4376 38.3584 15.7989 43.4502 15.8001ZM20.7574 55.3001C21.7449 56.7221 22.8667 58.0414 24.0991 59.2501H5.9252C5.40139 59.2501 4.89904 59.4582 4.52866 59.8286C4.15827 60.1989 3.9502 60.7013 3.9502 61.2251C3.9502 61.7489 4.15827 62.2513 4.52866 62.6216C4.89904 62.992 5.40139 63.2001 5.9252 63.2001H29.1986C33.394 65.7212 38.1834 67.0835 43.0776 67.1477C47.9718 67.212 52.7953 65.9759 57.0555 63.5658C61.3156 61.1556 64.8596 57.6578 67.3254 53.4297C69.7912 49.2016 71.0905 44.3947 71.0905 39.5001C71.0905 34.6055 69.7912 29.7986 67.3254 25.5705C64.8596 21.3423 61.3156 17.8446 57.0555 15.4344C52.7953 13.0243 47.9718 11.7882 43.0776 11.8525C38.1834 11.9167 33.394 13.279 29.1986 15.8001H9.8752C9.35139 15.8001 8.84904 16.0082 8.47866 16.3786C8.10828 16.7489 7.9002 17.2513 7.9002 17.7751C7.9002 18.2989 8.10828 18.8012 8.47866 19.1716C8.84904 19.542 9.35139 19.7501 9.8752 19.7501H24.0991C21.4679 22.3217 19.378 25.394 17.9527 28.786C16.5274 32.1779 15.7955 35.8209 15.8002 39.5001C15.8002 43.7424 16.7561 47.7556 18.4625 51.3501H13.8252C13.3014 51.3501 12.799 51.5582 12.4287 51.9286C12.0583 52.2989 11.8502 52.8013 11.8502 53.3251C11.8502 53.8489 12.0583 54.3512 12.4287 54.7216C12.799 55.092 13.3014 55.3001 13.8252 55.3001H20.7574ZM32.3783 31.2209C30.5869 33.609 29.6206 36.5148 29.6252 39.5001C29.6252 42.6048 30.6522 45.4725 32.3783 47.7793L36.6443 43.5133C35.9261 42.298 35.5481 40.9118 35.5502 39.5001C35.5502 38.0386 35.9491 36.664 36.6443 35.4869L32.3783 31.2209ZM35.171 28.4282L39.437 32.6943C40.6522 31.9758 42.0385 31.5978 43.4502 31.6001C44.9117 31.6001 46.2863 31.9991 47.4634 32.6943L51.7294 28.4282C49.3413 26.6368 46.4355 25.6705 43.4502 25.6751C40.3455 25.6751 37.4778 26.7021 35.171 28.4282ZM54.526 31.2209L50.26 35.4869C50.9765 36.7031 51.354 38.0891 51.3533 39.5006C51.3526 40.9122 50.9737 42.2978 50.256 43.5133L54.522 47.7793C56.2521 45.4725 57.2752 42.6048 57.2752 39.5001C57.2752 36.3954 56.2521 33.5277 54.526 31.2209ZM51.7294 50.5759L47.4634 46.3099C46.2477 47.0268 44.8615 47.4034 43.4502 47.4001C41.9887 47.4001 40.6141 47.0011 39.437 46.3059L35.171 50.5719C37.4778 52.3021 40.3455 53.3251 43.4502 53.3251C46.5549 53.3251 49.4226 52.302 51.7294 50.5759ZM25.6752 39.5001C25.6752 37.1659 26.135 34.8545 27.0282 32.6979C27.9215 30.5413 29.2308 28.5818 30.8814 26.9313C32.5319 25.2807 34.4914 23.9714 36.648 23.0781C38.8046 22.1849 41.1159 21.7251 43.4502 21.7251C45.7844 21.7251 48.0958 22.1849 50.2524 23.0781C52.409 23.9714 54.3685 25.2807 56.019 26.9313C57.6696 28.5818 58.9789 30.5413 59.8722 32.6979C60.7654 34.8545 61.2252 37.1659 61.2252 39.5001C61.2252 44.2143 59.3525 48.7355 56.019 52.0689C52.6856 55.4024 48.1644 57.2751 43.4502 57.2751C38.736 57.2751 34.2148 55.4024 30.8814 52.0689C27.5479 48.7355 25.6752 44.2143 25.6752 39.5001ZM39.5002 39.5001C39.5002 40.5477 39.9164 41.5524 40.6571 42.2932C41.3979 43.0339 42.4026 43.4501 43.4502 43.4501C44.4978 43.4501 45.5025 43.0339 46.2433 42.2932C46.984 41.5524 47.4002 40.5477 47.4002 39.5001C47.4002 38.4525 46.984 37.4478 46.2433 36.707C45.5025 35.9663 44.4978 35.5501 43.4502 35.5501C42.4026 35.5501 41.3979 35.9663 40.6571 36.707C39.9164 37.4478 39.5002 38.4525 39.5002 39.5001Z" fill="black"/>
</svg>
