<svg width="67" height="70" viewBox="0 0 67 70" fill="none" xmlns="http://www.w3.org/2000/svg">
    <path d="M1.13149e-07 0V16.8001C-0.000241233 18.4213 0.385611 20.019 1.12534 21.4593C1.86506 22.8995 2.93718 24.1402 4.25173 25.0778L67 70V57.0223C67 54.617 66.4365 52.2456 65.354 50.1003C64.2716 47.9556 62.7016 46.0975 60.7715 44.6777L1.13149e-07 0Z" fill="black"/>
    <path d="M47.9728 1.6185V17.7447C47.9728 19.3035 48.3525 20.8395 49.0809 22.2247C49.8087 23.6097 50.8646 24.8037 52.1585 25.7065L67 33.9884V21.5228C67.0012 19.2121 66.4466 16.9336 65.3804 14.8732C64.3148 12.8127 62.7687 11.0285 60.8678 9.66557L47.9728 1.6185Z" fill="black"/>
    <path d="M1.16494e-07 36.0116V52.9552C-0.000242886 54.5905 0.379691 56.2017 1.10803 57.6546C1.83631 59.1069 2.89179 60.3581 4.18603 61.3043L19.0272 70V56.9113C19.0274 54.4852 18.4722 52.0934 17.4067 49.9297C16.3412 47.7666 14.7954 45.8924 12.895 44.4611L1.16494e-07 36.0116Z" fill="black"/>
</svg>
