<svg width="202" height="210" viewBox="0 0 202 210" fill="none" xmlns="http://www.w3.org/2000/svg">
    <path d="M2.5376 4.20843L181.815 135.728C187.357 139.795 191.864 145.119 194.973 151.265C198.081 157.412 199.699 164.207 199.699 171.1V206.095L14.4656 73.7669L14.4627 73.7648C10.7766 71.1413 7.76958 67.6691 5.6946 63.6378L2.5376 4.20843ZM2.5376 4.20843V50.594V50.5943C2.53692 55.1332 3.61954 59.6061 5.69459 63.6377L2.5376 4.20843Z" fill="#073B4C" stroke="#073B4C" stroke-width="4"/>
    <path d="M199.7 99.1463L201.7 100.27V65.1369C201.703 58.1992 200.049 51.3584 196.87 45.1721C193.693 38.9857 189.082 33.6287 183.414 29.5366M199.7 99.1463V65.1369V65.1358C199.703 58.517 198.125 51.99 195.091 46.0863L195.091 46.0859C192.068 40.2003 187.685 35.0992 182.295 31.1955M199.7 99.1463L158.512 76.0048C154.95 73.4834 152.045 70.163 150.039 66.3189L150.039 66.3184C148.016 62.4449 146.962 58.1506 146.962 53.7937V8.99468L182.295 31.1955M199.7 99.1463V101.44L157.443 77.6983C153.585 74.9875 150.436 71.4028 148.266 67.2442L183.414 29.5366M182.295 31.1955L182.35 31.2301L183.414 29.5366M182.295 31.1955C182.278 31.183 182.26 31.1706 182.243 31.1582L183.414 29.5366" fill="#073B4C" stroke="#073B4C" stroke-width="4"/>
    <path d="M55.2756 206.476L14.1273 182.14C10.5645 179.492 7.65072 175.996 5.63294 171.934L55.2756 206.476ZM55.2756 206.476V170.587V170.587C55.2762 163.586 53.6889 156.687 50.646 150.45C47.6127 144.235 43.2207 138.855 37.831 134.745L2.5376 111.401V158.679V158.68C2.53692 163.295 3.59949 167.84 5.63282 171.934L55.2756 206.476Z" fill="#073B4C" stroke="#073B4C" stroke-width="4"/>
</svg>
