<svg width="66" height="66" viewBox="0 0 66 66" fill="none" xmlns="http://www.w3.org/2000/svg">
    <mask id="path-1-outside-1_262_281" maskUnits="userSpaceOnUse" x="0" y="0" width="66" height="66" fill="black">
        <rect fill="white" width="66" height="66"/>
        <path fill-rule="evenodd" clip-rule="evenodd" d="M64 33C64 50.1208 50.1208 64 33 64C15.8792 64 2 50.1208 2 33C2 15.8792 15.8792 2 33 2C50.1208 2 64 15.8792 64 33ZM10.1182 34.9325C13.4528 32.9757 16.7972 31.0131 19.3101 27.9418C19.4571 28.0275 19.4877 28.1618 19.5171 28.2907C19.5248 28.3246 19.5325 28.3582 19.5421 28.3904C21.5222 34.8719 24.4149 40.9358 27.7871 46.7831C28.7307 48.3919 29.7672 49.9543 31.2986 51.0835C33.0776 52.3984 34.5317 52.2592 36.0167 50.6349C36.4275 50.1943 36.8049 49.7238 37.1459 49.2272C38.1823 47.7577 38.9868 46.1644 39.7293 44.5401C40.2843 43.319 40.82 42.0882 41.3558 40.8573C42.6118 37.9715 43.8682 35.0847 45.3755 32.3196C47.0152 29.3031 48.7477 26.333 51.6868 24.3375C51.8725 24.2138 51.9653 24.09 51.857 23.8734L51.8179 23.7929C51.0888 22.2884 50.3633 20.7916 49.0107 19.7277C48.0516 18.9852 46.9843 19.0007 45.9942 19.6968C45.4387 20.0898 44.9613 20.5829 44.5865 21.1509C43.9403 22.1368 43.3614 23.1652 42.854 24.2292C41.3754 27.2043 40.063 30.2468 38.7513 33.2876C37.7986 35.4961 36.8463 37.7037 35.831 39.8839C35.7684 40.0179 35.7059 40.1518 35.6434 40.2857C34.9198 41.8371 34.2006 43.3791 33.2323 44.8031C32.7837 45.4683 32.5361 45.4683 31.9793 44.9114C31.4434 44.3562 30.9995 43.7191 30.6644 43.0242C27.1684 36.0631 23.9972 29.0246 24.5077 20.9343C24.6315 18.8924 22.9763 17.4229 21.0891 17.4229C19.2018 17.4229 18.2118 18.6294 18.2737 20.9034C18.2884 21.628 18.0912 22.3243 17.8981 23.0058C17.8892 23.0372 17.8803 23.0686 17.8714 23.1C16.7422 26.9982 14.4064 30.0611 11.3126 32.6135C11.1479 32.7498 10.9834 32.8865 10.8189 33.0233C9.63888 34.0046 8.45472 34.9893 7.15141 35.831C7.13343 35.8418 7.11398 35.8526 7.09393 35.8637C6.94143 35.9484 6.75351 36.0526 6.90389 36.326C7.07405 36.6354 7.30609 36.5117 7.44531 36.3879C7.73506 36.1368 8.07911 35.9942 8.42471 35.851C8.63262 35.7649 8.84111 35.6785 9.03867 35.5681C9.39769 35.3554 9.7579 35.144 10.1182 34.9325Z"/>
    </mask>
    <path d="M19.3101 27.9418L20.0659 26.6461L18.96 26.001L18.1492 26.992L19.3101 27.9418ZM10.1182 34.9325L9.35904 33.6388L9.35904 33.6388L10.1182 34.9325ZM19.5171 28.2907L18.0546 28.6242L18.0546 28.6242L19.5171 28.2907ZM19.5421 28.3904L18.1054 28.8215L18.1076 28.8287L19.5421 28.3904ZM27.7871 46.7831L26.4877 47.5325L26.4933 47.542L27.7871 46.7831ZM31.2986 51.0835L32.1902 49.8773L32.1888 49.8763L31.2986 51.0835ZM36.0167 50.6349L34.9195 49.6121L34.9146 49.6174L34.9097 49.6228L36.0167 50.6349ZM37.1459 49.2272L35.9201 48.3627L35.9147 48.3704L35.9094 48.3781L37.1459 49.2272ZM39.7293 44.5401L41.0935 45.1638L41.0948 45.1608L39.7293 44.5401ZM41.3558 40.8573L42.7311 41.4559L41.3558 40.8573ZM45.3755 32.3196L46.6925 33.0375L46.6934 33.0359L45.3755 32.3196ZM51.6868 24.3375L50.8548 23.0894L50.8443 23.0965L51.6868 24.3375ZM51.857 23.8734L50.5072 24.5277L50.5112 24.536L50.5154 24.5443L51.857 23.8734ZM51.8179 23.7929L50.4681 24.4471L50.4682 24.4472L51.8179 23.7929ZM49.0107 19.7277L49.9381 18.5487L49.929 18.5416L49.0107 19.7277ZM45.9942 19.6968L45.1315 18.4697L45.1279 18.4723L45.9942 19.6968ZM44.5865 21.1509L43.3346 20.3247L43.332 20.3286L44.5865 21.1509ZM42.854 24.2292L44.1972 24.8968L44.2026 24.8859L44.2079 24.8749L42.854 24.2292ZM38.7513 33.2876L40.1286 33.8817L38.7513 33.2876ZM35.831 39.8839L37.1897 40.5196L37.1908 40.5171L35.831 39.8839ZM35.6434 40.2857L34.284 39.6517L34.284 39.6517L35.6434 40.2857ZM33.2323 44.8031L31.9919 43.9596L31.9887 43.9644L33.2323 44.8031ZM31.9793 44.9114L30.9 45.9531L30.9092 45.9627L30.9186 45.972L31.9793 44.9114ZM30.6644 43.0242L32.0155 42.3726L32.0102 42.3617L32.0048 42.3509L30.6644 43.0242ZM24.5077 20.9343L26.0048 21.0288L26.005 21.0251L24.5077 20.9343ZM18.2737 20.9034L19.7734 20.8728L19.7731 20.8626L18.2737 20.9034ZM17.8981 23.0058L16.4549 22.597L16.4549 22.597L17.8981 23.0058ZM17.8714 23.1L19.3122 23.5174L19.3149 23.5079L17.8714 23.1ZM11.3126 32.6135L10.358 31.4564L10.3562 31.4579L11.3126 32.6135ZM10.8189 33.0233L11.778 34.1767L11.778 34.1766L10.8189 33.0233ZM7.15141 35.831L7.9231 37.1173L7.94437 37.1045L7.9652 37.0911L7.15141 35.831ZM7.09393 35.8637L6.36625 34.5521L6.36615 34.5521L7.09393 35.8637ZM6.90389 36.326L5.58957 37.0489L5.58957 37.0489L6.90389 36.326ZM7.44531 36.3879L6.46292 35.2544L6.4558 35.2605L6.44876 35.2668L7.44531 36.3879ZM8.42471 35.851L8.99895 37.2367L8.99896 37.2367L8.42471 35.851ZM9.03867 35.5681L9.7704 36.8775L9.78693 36.8682L9.80322 36.8586L9.03867 35.5681ZM33 65.5C50.9493 65.5 65.5 50.9493 65.5 33H62.5C62.5 49.2924 49.2924 62.5 33 62.5V65.5ZM0.5 33C0.5 50.9493 15.0507 65.5 33 65.5V62.5C16.7076 62.5 3.5 49.2924 3.5 33H0.5ZM33 0.5C15.0507 0.5 0.5 15.0507 0.5 33H3.5C3.5 16.7076 16.7076 3.5 33 3.5V0.5ZM65.5 33C65.5 15.0507 50.9493 0.5 33 0.5V3.5C49.2924 3.5 62.5 16.7076 62.5 33H65.5ZM18.1492 26.992C15.8338 29.8218 12.7314 31.6598 9.35904 33.6388L10.8774 36.2262C14.1741 34.2916 17.7606 32.2045 20.471 28.8917L18.1492 26.992ZM20.9796 27.9573C20.9603 27.8727 20.8345 27.0945 20.0659 26.6461L18.5543 29.2375C18.4601 29.1825 18.3678 29.1093 18.2855 29.018C18.2043 28.9277 18.1487 28.8374 18.1117 28.762C18.0511 28.6388 18.0333 28.5306 18.0546 28.6242L20.9796 27.9573ZM20.9789 27.9594C20.9814 27.9677 20.9831 27.9741 20.9842 27.978C20.9852 27.9819 20.9857 27.984 20.9857 27.9837C20.9855 27.9832 20.9851 27.9812 20.984 27.9766C20.9828 27.9717 20.9816 27.9662 20.9796 27.9572L18.0546 28.6242C18.0603 28.649 18.0787 28.7325 18.1054 28.8215L20.9789 27.9594ZM29.0865 46.0337C25.7519 40.2518 22.9141 34.2941 20.9767 27.9522L18.1076 28.8287C20.1303 35.4498 23.0778 41.6199 26.4877 47.5325L29.0865 46.0337ZM32.1888 49.8763C30.9197 48.9404 30.0108 47.6095 29.081 46.0242L26.4933 47.542C27.4507 49.1744 28.6147 50.9682 30.4084 52.2908L32.1888 49.8763ZM34.9097 49.6228C34.3039 50.2854 33.8875 50.4432 33.6257 50.4682C33.3623 50.4932 32.919 50.4159 32.1902 49.8773L30.407 52.2898C31.4572 53.066 32.6304 53.5765 33.9101 53.4546C35.1913 53.3326 36.2445 52.6087 37.1237 51.6471L34.9097 49.6228ZM35.9094 48.3781C35.6105 48.8134 35.2796 49.2258 34.9195 49.6121L37.1139 51.6578C37.5753 51.1628 37.9993 50.6342 38.3824 50.0764L35.9094 48.3781ZM38.3651 43.9165C37.6355 45.5124 36.8765 47.0067 35.9201 48.3627L38.3717 50.0918C39.4882 48.5087 40.338 46.8163 41.0935 45.1638L38.3651 43.9165ZM39.9804 40.2587C39.4438 41.4915 38.9129 42.7112 38.3637 43.9194L41.0948 45.1608C41.6557 43.9269 42.1962 42.685 42.7311 41.4559L39.9804 40.2587ZM44.0584 31.6016C42.514 34.4349 41.232 37.383 39.9804 40.2587L42.7311 41.4559C43.9916 38.5599 45.2224 35.7345 46.6925 33.0375L44.0584 31.6016ZM50.8443 23.0965C47.5695 25.3199 45.6896 28.6009 44.0576 31.6032L46.6934 33.0359C48.3408 30.0053 49.9259 27.3462 52.5294 25.5785L50.8443 23.0965ZM50.5154 24.5443C50.4805 24.4746 50.4232 24.3362 50.4073 24.1431C50.3902 23.9354 50.426 23.722 50.5129 23.5277C50.5939 23.3468 50.6976 23.2301 50.7581 23.1709C50.7893 23.1404 50.8149 23.1194 50.8301 23.1076C50.8454 23.0957 50.8547 23.0895 50.8548 23.0894L52.5189 25.5856C52.6563 25.494 53.0357 25.2348 53.2513 24.7529C53.5191 24.1544 53.3899 23.5851 53.1986 23.2026L50.5154 24.5443ZM50.4682 24.4472L50.5072 24.5277L53.2068 23.2191L53.1677 23.1386L50.4682 24.4472ZM48.0834 20.9068C49.1208 21.7227 49.7139 22.8908 50.4681 24.4471L53.1678 23.1387C52.4637 21.686 51.6058 19.8605 49.938 18.5487L48.0834 20.9068ZM46.857 20.9238C47.1475 20.7196 47.3644 20.6722 47.5084 20.6728C47.6452 20.6733 47.8379 20.7167 48.0924 20.9138L49.929 18.5416C49.2245 17.9962 48.4039 17.6761 47.5198 17.6728C46.6428 17.6695 45.831 17.9779 45.1315 18.4698L46.857 20.9238ZM45.8385 21.9771C46.1106 21.5647 46.4573 21.2067 46.8606 20.9213L45.1279 18.4723C44.4202 18.973 43.8121 19.6012 43.3346 20.3247L45.8385 21.9771ZM44.2079 24.8749C44.6862 23.872 45.2318 22.9026 45.841 21.9732L43.332 20.3286C42.6487 21.371 42.0366 22.4585 41.5001 23.5835L44.2079 24.8749ZM40.1286 33.8817C41.4429 30.8348 42.7397 27.8296 44.1972 24.8968L41.5107 23.5617C40.0112 26.579 38.683 29.6588 37.3739 32.6935L40.1286 33.8817ZM37.1908 40.5171C38.2166 38.3143 39.1773 36.0869 40.1286 33.8817L37.3739 32.6935C36.4199 34.9052 35.476 37.0931 34.4712 39.2507L37.1908 40.5171ZM37.0028 40.9198C37.0653 40.7858 37.1274 40.6526 37.1897 40.5196L34.4724 39.2482C34.4093 39.3831 34.3464 39.5179 34.284 39.6517L37.0028 40.9198ZM34.4727 45.6466C35.5201 44.1062 36.2875 42.4534 37.0028 40.9198L34.284 39.6517C33.5521 41.2208 32.8811 42.6519 31.9919 43.9596L34.4727 45.6466ZM30.9186 45.972C31.0821 46.1355 31.2972 46.3355 31.5511 46.4944C31.8139 46.6589 32.2298 46.8495 32.7543 46.8116C33.287 46.7732 33.678 46.518 33.9247 46.2977C34.1585 46.0889 34.3402 45.843 34.4759 45.6418L31.9887 43.9644C31.9 44.0958 31.8825 44.0993 31.9264 44.0602C31.9831 44.0095 32.1933 43.8443 32.5384 43.8194C32.8753 43.7951 33.0969 43.9228 33.1426 43.9514C33.1795 43.9745 33.1548 43.9656 33.0399 43.8507L30.9186 45.972ZM29.3133 43.6757C29.7177 44.5144 30.2534 45.2832 30.9 45.9531L33.0585 43.8696C32.6334 43.4293 32.2813 42.9239 32.0155 42.3726L29.3133 43.6757ZM23.0107 20.8399C22.4722 29.3746 25.8298 36.7401 29.3239 43.6974L32.0048 42.3509C28.5069 35.3861 25.5223 28.6746 26.0048 21.0288L23.0107 20.8399ZM21.0891 18.9229C22.2295 18.9229 23.0751 19.7771 23.0105 20.8436L26.005 21.0251C26.1879 18.0077 23.723 15.9229 21.0891 15.9229V18.9229ZM19.7731 20.8626C19.7474 19.9188 19.9511 19.4577 20.115 19.2559C20.2395 19.1024 20.4805 18.9229 21.0891 18.9229V15.9229C19.8104 15.9229 18.6127 16.3466 17.7859 17.3649C16.9985 18.3348 16.738 19.6141 16.7742 20.9442L19.7731 20.8626ZM19.3413 23.4147C19.524 22.7699 19.7935 21.8583 19.7733 20.8728L16.774 20.934C16.7834 21.3976 16.6584 21.8786 16.4549 22.597L19.3413 23.4147ZM19.3149 23.5079C19.3236 23.4771 19.3324 23.4462 19.3413 23.4147L16.4549 22.597C16.446 22.6283 16.437 22.6602 16.428 22.6921L19.3149 23.5079ZM12.2671 33.7705C15.5357 31.074 18.0802 27.7702 19.3122 23.5174L16.4307 22.6826C15.4042 26.2262 13.2771 29.0481 10.358 31.4564L12.2671 33.7705ZM11.778 34.1766C11.9427 34.0396 12.1058 33.904 12.2689 33.7691L10.3562 31.4579C10.1899 31.5955 10.0241 31.7334 9.85984 31.87L11.778 34.1766ZM7.9652 37.0911C9.35686 36.1923 10.6092 35.1486 11.778 34.1767L9.85984 31.87C8.66856 32.8606 7.55259 33.7863 6.33762 34.571L7.9652 37.0911ZM7.82161 37.1754C7.83684 37.167 7.87935 37.1436 7.9231 37.1173L6.37972 34.5448C6.38558 34.5413 6.38823 34.5398 6.38524 34.5415C6.38391 34.5422 6.38185 34.5434 6.37857 34.5452C6.37516 34.5471 6.37148 34.5492 6.36625 34.5521L7.82161 37.1754ZM8.21821 35.6032C8.25984 35.6788 8.34233 35.8578 8.3483 36.1156C8.35484 36.3982 8.26665 36.6564 8.13316 36.8565C8.01582 37.0324 7.88798 37.1274 7.84448 37.1582C7.80334 37.1873 7.77119 37.2034 7.8217 37.1754L6.36615 34.5521C6.34042 34.5664 6.22759 34.6273 6.11303 34.7083C5.9961 34.7909 5.80209 34.945 5.63751 35.1917C5.45676 35.4626 5.34027 35.8034 5.3491 36.1851C5.35736 36.542 5.47276 36.8365 5.58957 37.0489L8.21821 35.6032ZM6.44876 35.2668C6.47073 35.2473 6.52183 35.2043 6.60359 35.1593C6.68188 35.1163 6.84151 35.0422 7.06659 35.0242C7.31684 35.0042 7.59269 35.0594 7.83685 35.2124C8.0622 35.3535 8.17435 35.5234 8.21821 35.6032L5.58957 37.0489C5.71852 37.2834 5.92347 37.5538 6.24454 37.7549C6.58442 37.9678 6.95888 38.0424 7.30581 38.0146C7.90508 37.9667 8.30762 37.6283 8.44185 37.509L6.44876 35.2668ZM7.85047 34.4653C7.54033 34.5938 6.96578 34.8186 6.46292 35.2544L8.4277 37.5215C8.50434 37.455 8.61788 37.3947 8.99895 37.2367L7.85047 34.4653ZM8.30694 34.2586C8.19858 34.3192 8.07179 34.3736 7.85045 34.4653L8.99896 37.2367C9.19346 37.1561 9.48363 37.0377 9.7704 36.8775L8.30694 34.2586ZM9.35904 33.6388C8.99917 33.85 8.63627 34.063 8.27411 34.2775L9.80322 36.8586C10.1591 36.6477 10.5166 36.4379 10.8774 36.2262L9.35904 33.6388Z" fill="black" mask="url(#path-1-outside-1_262_281)"/>
</svg>
