<svg width="61" height="61" viewBox="0 0 61 61" fill="none" xmlns="http://www.w3.org/2000/svg">
    <path d="M48.2082 16.3327V5.70768C48.2082 4.76837 47.835 3.86754 47.1708 3.20335C46.5067 2.53916 45.6058 2.16602 44.6665 2.16602H9.24984C7.37122 2.16602 5.56955 2.91229 4.24116 4.24068C2.91278 5.56906 2.1665 7.37073 2.1665 9.24935M2.1665 9.24935C2.1665 11.128 2.91278 12.9296 4.24116 14.258C5.56955 15.5864 7.37122 16.3327 9.24984 16.3327H51.7498C52.6891 16.3327 53.59 16.7058 54.2542 17.37C54.9184 18.0342 55.2915 18.935 55.2915 19.8743V30.4993M2.1665 9.24935V51.7494C2.1665 53.628 2.91278 55.4296 4.24116 56.758C5.56955 58.0864 7.37122 58.8327 9.24984 58.8327H51.7498C52.6891 58.8327 53.59 58.4595 54.2542 57.7954C54.9184 57.1312 55.2915 56.2303 55.2915 55.291V44.666" stroke="#263238" stroke-width="3" stroke-linecap="round" stroke-linejoin="round"/>
    <path d="M58.833 30.499V44.6657H44.6663C42.7877 44.6657 40.9861 43.9194 39.6577 42.591C38.3293 41.2626 37.583 39.461 37.583 37.5824C37.583 35.7037 38.3293 33.9021 39.6577 32.5737C40.9861 31.2453 42.7877 30.499 44.6663 30.499H58.833Z" stroke="#263238" stroke-width="3" stroke-linecap="round" stroke-linejoin="round"/>
</svg>
