<svg width="12" height="12" viewBox="0 0 12 12" fill="none" xmlns="http://www.w3.org/2000/svg">
    <path d="M11.2975 11.91L11.3172 9.08319C11.3191 8.81041 11.2559 8.54112 11.1328 8.29791C11.0098 8.05472 10.8305 7.84469 10.6099 7.6854L0.0817312 0.0533772L0.0665827 2.23701C0.063775 2.64172 0.156031 3.0414 0.336047 3.40364C0.516064 3.76577 0.77862 4.08026 1.10243 4.3214L11.2975 11.91Z" fill="white"/>
    <path d="M3.18848 11.5665L3.20734 8.84726C3.20916 8.58443 3.14737 8.32498 3.02701 8.09057C2.90674 7.85618 2.73132 7.65363 2.51567 7.49988L0.0398705 6.08615L0.0252886 8.18811C0.022382 8.57774 0.112605 8.96257 0.288747 9.31124C0.464787 9.65991 0.721627 9.96256 1.03837 10.1946L3.18848 11.5665Z" fill="white"/>
    <path d="M11.3394 5.87714L11.3592 3.01298C11.3612 2.73655 11.2994 2.46375 11.1792 2.21731C11.0589 1.97097 10.8836 1.75822 10.668 1.59679L8.19273 0.109616L8.17738 2.32214C8.1745 2.73225 8.26467 3.1372 8.44058 3.50419C8.61649 3.87108 8.87316 4.18969 9.18974 4.43384L11.3394 5.87714Z" fill="white"/>
</svg>
