<svg width="54" height="54" viewBox="0 0 54 54" fill="none" xmlns="http://www.w3.org/2000/svg">
    <rect width="54" height="54" rx="27" fill="#C4C4C4" fill-opacity="0.06"/>
    <path d="M14.1901 13.645V20.0554C14.19 20.674 14.3375 21.2836 14.6204 21.8332C14.9032 22.3827 15.3132 22.8562 15.8159 23.2139L39.81 40.3549V35.403C39.81 34.4852 39.5945 33.5804 39.1806 32.7618C38.7666 31.9434 38.1663 31.2344 37.4283 30.6927L14.1901 13.645Z" fill="white"/>
    <path d="M32.5839 14.2964V20.4629C32.5839 21.0589 32.7281 21.6463 33.0047 22.176C33.2811 22.7056 33.6821 23.1621 34.1735 23.5074L39.81 26.6743V21.9076C39.8104 21.024 39.5998 20.1527 39.1949 19.3649C38.7902 18.577 38.203 17.8947 37.4811 17.3735L32.5839 14.2964Z" fill="white"/>
    <path d="M14.1901 27.3259V33.821C14.19 34.4479 14.3343 35.0655 14.6109 35.6225C14.8875 36.1792 15.2883 36.6589 15.7798 37.0216L21.4162 40.355V35.3376C21.4163 34.4075 21.2054 33.4907 20.8008 32.6612C20.3961 31.832 19.809 31.1136 19.0873 30.5649L14.1901 27.3259Z" fill="white"/>
    <rect x="0.5" y="0.5" width="53" height="53" rx="26.5" stroke="white" stroke-opacity="0.2"/>
</svg>
