<svg width="215" height="215" viewBox="0 0 215 215" fill="none" xmlns="http://www.w3.org/2000/svg">
<rect width="215" height="215" rx="107.5" fill="#102645"/>
<path d="M51.978 49.6172V77.4018C51.9776 80.083 52.6171 82.7254 53.8431 85.1074C55.0691 87.4893 56.846 89.5413 59.0247 91.0919L163.022 165.386V143.923C163.022 139.945 162.088 136.023 160.294 132.475C158.5 128.928 155.898 125.855 152.699 123.507L51.978 49.6172Z" fill="white"/>
<path d="M131.702 52.4409V79.1681C131.702 81.7515 132.327 84.2973 133.526 86.593C134.724 88.8886 136.462 90.8674 138.592 92.3638L163.022 106.09V85.4297C163.024 81.6 162.111 77.8238 160.356 74.4089C158.602 70.9939 156.057 68.0368 152.928 65.7779L131.702 52.4409Z" fill="white"/>
<path d="M51.978 108.914V137.066C51.9776 139.783 52.603 142.46 53.8019 144.874C55.0007 147.287 56.7381 149.366 58.8685 150.938L83.2981 165.386V143.639C83.2985 139.608 82.3846 135.634 80.6307 132.039C78.8767 128.445 76.3323 125.331 73.2041 122.953L51.978 108.914Z" fill="white"/>
<rect x="2" y="2" width="211" height="211" rx="105.5" stroke="white" stroke-opacity="0.06" stroke-width="4"/>
</svg>
