<svg width="349" height="215" viewBox="0 0 349 215" fill="none" xmlns="http://www.w3.org/2000/svg">
<rect x="184" y="25" width="165" height="165" rx="82.5" fill="#0C1F3B"/>
<path d="M309.009 115.447H264.204L258.747 125.594L297.258 125.767C294.532 130.689 290.522 134.795 285.648 137.654C280.773 140.514 275.213 142.021 269.549 142.019C252.091 142.019 237.938 127.991 237.938 110.673C237.938 109.731 237.983 108.798 238.064 107.877L279.669 108.005L283.762 97.8577L240.755 97.722C243.265 92.2368 247.316 87.5848 252.422 84.3227C257.529 81.0605 263.475 79.3263 269.549 79.3275C277.731 79.3169 285.596 82.4633 291.48 88.1009H308.669C300.827 74.7609 286.241 65.7969 269.546 65.7969C249.109 65.7969 231.84 79.2299 226.219 97.6763L212.122 97.6321L206.665 107.779L224.382 107.834C224.323 108.773 224.29 109.719 224.29 110.673C224.29 135.458 244.551 155.55 269.546 155.55C292.919 155.55 312.14 137.988 314.549 115.449L309.009 115.447Z" fill="white"/>
<rect x="186" y="27" width="161" height="161" rx="80.5" stroke="white" stroke-opacity="0.06" stroke-width="4"/>
<rect width="215" height="215" rx="107.5" fill="#102645"/>
<path d="M51.978 49.6172V77.4018C51.9776 80.083 52.6171 82.7254 53.8431 85.1074C55.0691 87.4893 56.846 89.5413 59.0247 91.0919L163.022 165.386V143.923C163.022 139.945 162.088 136.023 160.294 132.475C158.5 128.928 155.898 125.855 152.699 123.507L51.978 49.6172Z" fill="white"/>
<path d="M131.702 52.4409V79.1681C131.702 81.7515 132.327 84.2973 133.526 86.593C134.724 88.8886 136.462 90.8674 138.592 92.3638L163.022 106.09V85.4297C163.024 81.6 162.111 77.8238 160.356 74.4089C158.602 70.9939 156.057 68.0368 152.928 65.7779L131.702 52.4409Z" fill="white"/>
<path d="M51.978 108.914V137.066C51.9776 139.783 52.603 142.46 53.8019 144.874C55.0007 147.287 56.7381 149.366 58.8685 150.938L83.2981 165.386V143.639C83.2985 139.608 82.3846 135.634 80.6307 132.039C78.8767 128.445 76.3323 125.331 73.2041 122.953L51.978 108.914Z" fill="white"/>
<rect x="2" y="2" width="211" height="211" rx="105.5" stroke="white" stroke-opacity="0.06" stroke-width="4"/>
</svg>
