<svg width="35" height="63" viewBox="0 0 35 63" fill="none" xmlns="http://www.w3.org/2000/svg">
<path d="M1 0C0.447715 0 0 0.447715 0 1V62C0 62.5523 0.447715 63 1 63H34C34.5523 63 35 62.5523 35 62V1C35 0.447715 34.5523 0 34 0H1ZM14.5012 2.79379H20.493C20.7986 2.79379 21.0917 2.91153 21.3078 3.1211C21.5239 3.33068 21.6453 3.61492 21.6453 3.91131C21.6453 4.20769 21.5239 4.49194 21.3078 4.70151C21.0917 4.91109 20.7986 5.02882 20.493 5.02882H14.5012C14.1956 5.02882 13.9026 4.91109 13.6865 4.70151C13.4704 4.49194 13.349 4.20769 13.349 3.91131C13.349 3.61492 13.4704 3.33068 13.6865 3.1211C13.9026 2.91153 14.1956 2.79379 14.5012 2.79379ZM17.428 61.5347C16.8793 61.5347 16.343 61.3769 15.8868 61.0812C15.4306 60.7856 15.075 60.3654 14.8651 59.8738C14.6551 59.3822 14.6002 58.8412 14.7072 58.3194C14.8142 57.7975 15.0785 57.3181 15.4664 56.9418C15.8544 56.5656 16.3487 56.3093 16.8868 56.2055C17.4249 56.1017 17.9827 56.155 18.4896 56.3586C18.9965 56.5622 19.4297 56.9071 19.7345 57.3495C20.0394 57.792 20.2021 58.3121 20.2021 58.8442C20.2021 59.5578 19.9098 60.2421 19.3895 60.7467C18.8693 61.2512 18.1637 61.5347 17.428 61.5347ZM32.5514 54.3171C32.5514 54.8694 32.1037 55.3171 31.5514 55.3171H3.16049C2.60821 55.3171 2.16049 54.8694 2.16049 54.3171V8.40355C2.16049 7.85126 2.60821 7.40355 3.16049 7.40355H31.5514C32.1037 7.40355 32.5514 7.85126 32.5514 8.40355V54.3171Z" fill="white"/>
</svg>
