<svg width="80" height="80" viewBox="0 0 80 80" fill="none" xmlns="http://www.w3.org/2000/svg">
<path d="M0.5 39.7625C0.5 61.4063 18.0203 79.0249 39.5547 79.0249C61.0891 79.0249 78.6094 61.4063 78.6094 39.7625C78.6094 18.1186 61.0891 0.5 39.5547 0.5C18.0203 0.5 0.5 18.1186 0.5 39.7625ZM3.15629 39.7625C3.15629 19.5726 19.4977 3.16521 39.5547 3.16521C59.6298 3.16521 75.9532 19.5908 75.9532 39.7625C75.9532 59.934 59.6116 76.3597 39.5547 76.3597C19.4977 76.3597 3.15629 59.9523 3.15629 39.7625Z" fill="url(#paint0_linear_74_2)"/>
<path d="M0.5 39.7625C0.5 61.4063 18.0203 79.0249 39.5547 79.0249C61.0891 79.0249 78.6094 61.4063 78.6094 39.7625C78.6094 18.1186 61.0891 0.5 39.5547 0.5C18.0203 0.5 0.5 18.1186 0.5 39.7625ZM3.15629 39.7625C3.15629 19.5726 19.4977 3.16521 39.5547 3.16521C59.6298 3.16521 75.9532 19.5908 75.9532 39.7625C75.9532 59.934 59.6116 76.3597 39.5547 76.3597C19.4977 76.3597 3.15629 59.9523 3.15629 39.7625Z" fill="white" fill-opacity="0.2"/>
<path d="M0.5 39.7625C0.5 61.4063 18.0203 79.0249 39.5547 79.0249C61.0891 79.0249 78.6094 61.4063 78.6094 39.7625C78.6094 18.1186 61.0891 0.5 39.5547 0.5C18.0203 0.5 0.5 18.1186 0.5 39.7625ZM3.15629 39.7625C3.15629 19.5726 19.4977 3.16521 39.5547 3.16521C59.6298 3.16521 75.9532 19.5908 75.9532 39.7625C75.9532 59.934 59.6116 76.3597 39.5547 76.3597C19.4977 76.3597 3.15629 59.9523 3.15629 39.7625Z" stroke="url(#paint1_linear_74_2)"/>
<path d="M24.869 31.3391C23.242 31.3391 21.6515 31.8242 20.2987 32.733C18.9459 33.6417 17.8916 34.9334 17.269 36.4447C16.6463 37.9559 16.4834 39.6188 16.8008 41.2232C17.1182 42.8275 17.9017 44.3012 19.0522 45.4578C20.2026 46.6145 21.6684 47.4022 23.2641 47.7213C24.8599 48.0404 26.5139 47.8766 28.017 47.2507C29.5202 46.6247 30.805 45.5646 31.7089 44.2045C32.6128 42.8444 33.0952 41.2454 33.0952 39.6097C33.0952 37.4162 32.2285 35.3125 30.6858 33.7615C29.1431 32.2105 27.0507 31.3391 24.869 31.3391Z" fill="url(#paint2_linear_74_2)"/>
<path d="M24.869 31.3391C23.242 31.3391 21.6515 31.8242 20.2987 32.733C18.9459 33.6417 17.8916 34.9334 17.269 36.4447C16.6463 37.9559 16.4834 39.6188 16.8008 41.2232C17.1182 42.8275 17.9017 44.3012 19.0522 45.4578C20.2026 46.6145 21.6684 47.4022 23.2641 47.7213C24.8599 48.0404 26.5139 47.8766 28.017 47.2507C29.5202 46.6247 30.805 45.5646 31.7089 44.2045C32.6128 42.8444 33.0952 41.2454 33.0952 39.6097C33.0952 37.4162 32.2285 35.3125 30.6858 33.7615C29.1431 32.2105 27.0507 31.3391 24.869 31.3391Z" fill="white" fill-opacity="0.2"/>
<path d="M61.068 44.5517L60.5895 44.2557C59.5077 46.2099 57.7338 47.6829 55.6207 48.3817C54.7374 48.6502 53.8198 48.7874 52.897 48.7888C51.3493 48.7879 49.8288 48.3791 48.4872 47.603C47.1457 46.827 46.03 45.7108 45.2514 44.366C44.4728 43.0211 44.0586 41.4945 44.05 39.9384C44.0415 38.3823 44.4389 36.8512 45.2026 35.4978C45.9663 34.1443 47.0696 33.0158 48.4025 32.2249C49.7354 31.4339 51.2513 31.0082 52.799 30.9901C54.3466 30.972 55.8719 31.3622 57.2228 32.1218C58.5736 32.8814 59.7027 33.9838 60.4975 35.3191L64.7119 33.0433C64.1216 32.0082 63.3976 31.0563 62.5587 30.2124L62.6139 30.1754L62.4115 30.0459C60.0342 27.6739 56.868 26.2701 53.5227 26.1049L52.621 26.0679H28.1815C28.7506 26.1951 29.3101 26.3621 29.8562 26.5674L30.2058 26.7155L30.4451 26.808L30.5187 26.845L31.034 27.0855L31.1628 27.141L31.6413 27.4L31.7701 27.474L32.2302 27.7331L32.3406 27.8071L32.8007 28.1031L32.8927 28.1771L33.3528 28.5102L33.4264 28.5657L33.8865 28.9357L33.9417 28.9913L34.4018 29.3983L34.4386 29.4353L34.8803 29.8609L34.9355 29.9164L35.3219 30.3419L35.3956 30.4344C35.5244 30.5639 35.6348 30.712 35.7452 30.8415L35.8372 30.9525L36.1501 31.3595L36.2053 31.4336C36.8807 32.3552 37.443 33.3554 37.88 34.4124C38.7449 36.1887 38.9658 38.0389 38.9658 39.7966C38.9643 42.8458 39.9631 45.8104 41.8074 48.231C43.6518 50.6516 46.2387 52.3931 49.1673 53.1855C52.096 53.978 55.2028 53.7773 58.0065 52.6144C60.8101 51.4516 63.1541 49.3916 64.6751 46.7535L61.068 44.5517Z" fill="url(#paint3_linear_74_2)"/>
<path d="M61.068 44.5517L60.5895 44.2557C59.5077 46.2099 57.7338 47.6829 55.6207 48.3817C54.7374 48.6502 53.8198 48.7874 52.897 48.7888C51.3493 48.7879 49.8288 48.3791 48.4872 47.603C47.1457 46.827 46.03 45.7108 45.2514 44.366C44.4728 43.0211 44.0586 41.4945 44.05 39.9384C44.0415 38.3823 44.4389 36.8512 45.2026 35.4978C45.9663 34.1443 47.0696 33.0158 48.4025 32.2249C49.7354 31.4339 51.2513 31.0082 52.799 30.9901C54.3466 30.972 55.8719 31.3622 57.2228 32.1218C58.5736 32.8814 59.7027 33.9838 60.4975 35.3191L64.7119 33.0433C64.1216 32.0082 63.3976 31.0563 62.5587 30.2124L62.6139 30.1754L62.4115 30.0459C60.0342 27.6739 56.868 26.2701 53.5227 26.1049L52.621 26.0679H28.1815C28.7506 26.1951 29.3101 26.3621 29.8562 26.5674L30.2058 26.7155L30.4451 26.808L30.5187 26.845L31.034 27.0855L31.1628 27.141L31.6413 27.4L31.7701 27.474L32.2302 27.7331L32.3406 27.8071L32.8007 28.1031L32.8927 28.1771L33.3528 28.5102L33.4264 28.5657L33.8865 28.9357L33.9417 28.9913L34.4018 29.3983L34.4386 29.4353L34.8803 29.8609L34.9355 29.9164L35.3219 30.3419L35.3956 30.4344C35.5244 30.5639 35.6348 30.712 35.7452 30.8415L35.8372 30.9525L36.1501 31.3595L36.2053 31.4336C36.8807 32.3552 37.443 33.3554 37.88 34.4124C38.7449 36.1887 38.9658 38.0389 38.9658 39.7966C38.9643 42.8458 39.9631 45.8104 41.8074 48.231C43.6518 50.6516 46.2387 52.3931 49.1673 53.1855C52.096 53.978 55.2028 53.7773 58.0065 52.6144C60.8101 51.4516 63.1541 49.3916 64.6751 46.7535L61.068 44.5517Z" fill="white" fill-opacity="0.2"/>
<defs>
<linearGradient id="paint0_linear_74_2" x1="-9" y1="-5" x2="84" y2="47" gradientUnits="userSpaceOnUse">
<stop stop-color="#0038FF"/>
<stop offset="1" stop-color="#8F00FF"/>
</linearGradient>
<linearGradient id="paint1_linear_74_2" x1="39.5547" y1="1" x2="39.5547" y2="78.5249" gradientUnits="userSpaceOnUse">
<stop stop-color="#242BFF"/>
<stop offset="1" stop-color="#8903FF"/>
</linearGradient>
<linearGradient id="paint2_linear_74_2" x1="14.5091" y1="30.0589" x2="34.3521" y2="41.1539" gradientUnits="userSpaceOnUse">
<stop stop-color="#0038FF"/>
<stop offset="1" stop-color="#8F00FF"/>
</linearGradient>
<linearGradient id="paint3_linear_74_2" x1="23.444" y1="23.9323" x2="60.6631" y2="51.6311" gradientUnits="userSpaceOnUse">
<stop stop-color="#0038FF"/>
<stop offset="1" stop-color="#8F00FF"/>
</linearGradient>
</defs>
</svg>
