<svg width="77" height="77" viewBox="0 0 77 77" fill="none" xmlns="http://www.w3.org/2000/svg">
<path d="M1.57144 5.5C1.57144 2.73858 3.81002 0.5 6.57144 0.5H34.0714C36.8329 0.5 39.0714 2.73858 39.0714 5.5V38H6.57144C3.81002 38 1.57144 35.7614 1.57144 33V5.5Z" fill="#449AFF"/>
<path d="M2.07144 5.5C2.07144 3.01472 4.08616 1 6.57144 1H34.0714C36.5567 1 38.5714 3.01472 38.5714 5.5V37.5H6.57144C4.08616 37.5 2.07144 35.4853 2.07144 33V5.5Z" stroke="white" stroke-opacity="0.29"/>
<path d="M39.0714 5.5C39.0714 2.73858 41.31 0.5 44.0714 0.5H71.5714C74.3328 0.5 76.5714 2.73858 76.5714 5.5V33C76.5714 35.7614 74.3328 38 71.5714 38H39.0714V5.5Z" fill="#008958"/>
<path d="M39.5714 5.5C39.5714 3.01472 41.5861 1 44.0714 1H71.5714C74.0567 1 76.0714 3.01472 76.0714 5.5V33C76.0714 35.4853 74.0567 37.5 71.5714 37.5H39.5714V5.5Z" stroke="white" stroke-opacity="0.29"/>
<path d="M39.0714 38H71.5714C74.3328 38 76.5714 40.2386 76.5714 43V72C76.5714 74.7614 74.3328 77 71.5714 77H44.0714C41.31 77 39.0714 74.7614 39.0714 72V38Z" fill="#00B2FF"/>
<path d="M39.5714 38.5H71.5714C74.0567 38.5 76.0714 40.5147 76.0714 43V72C76.0714 74.4853 74.0567 76.5 71.5714 76.5H44.0714C41.5861 76.5 39.5714 74.4853 39.5714 72V38.5Z" stroke="white" stroke-opacity="0.29"/>
<path d="M0.0714417 43C0.0714417 40.2386 2.31002 38 5.07144 38H39.0714V72C39.0714 74.7614 36.8329 77 34.0714 77H5.07144C2.31002 77 0.0714417 74.7614 0.0714417 72V43Z" fill="#46E7DB"/>
<path d="M0.571442 43C0.571442 40.5147 2.58616 38.5 5.07144 38.5H38.5714V72C38.5714 74.4853 36.5567 76.5 34.0714 76.5H5.07144C2.58616 76.5 0.571442 74.4853 0.571442 72V43Z" stroke="white" stroke-opacity="0.29"/>
</svg>
