<svg width="68" height="61" viewBox="0 0 68 61" fill="none" xmlns="http://www.w3.org/2000/svg">
<path d="M17.8819 60.5871C19.2484 59.2494 20.6148 57.9117 21.9669 56.5597L52.9346 25.6063C53.3517 25.1748 53.7113 24.7433 53.5963 24.096C53.5621 23.8225 53.4486 23.565 53.2696 23.3554C53.0907 23.1458 52.8542 22.9932 52.5894 22.9166C51.9853 22.7296 51.4675 22.9022 51.0216 23.3481L46.649 27.7207C40.0182 34.3515 33.4305 41.0255 26.7422 47.5843C22.2833 51.9569 16.8751 53.2371 10.9634 51.3672C5.05181 49.4974 1.38401 45.2542 0.276478 39.0981C-0.672835 33.8337 0.837436 29.1878 4.57716 25.4049C12.8333 17.0481 21.1758 8.77755 29.4894 0.478248C29.734 0.248112 30.1223 0.0179821 30.4531 0.0179821C36.7819 -0.010785 43.1107 0.00359325 49.4394 0.00359325L50.0867 0.0467421L48.8065 1.28373L14.9477 35.157C14.4443 35.6604 14.0703 36.1638 14.3436 36.9261C14.4154 37.1482 14.5402 37.3495 14.7072 37.5125C14.8742 37.6756 15.0783 37.7956 15.302 37.8621C15.5257 37.9286 15.7622 37.9398 15.9912 37.8945C16.2202 37.8492 16.4347 37.7489 16.6162 37.6022C16.8744 37.3871 17.1194 37.1565 17.3497 36.9118C25.1744 29.0775 33.0086 21.2481 40.8524 13.4234C44.0168 10.2734 47.9004 8.72002 52.3737 8.72002C56.0401 8.7117 59.5891 10.0126 62.3816 12.3885C65.1742 14.7644 67.0267 18.0591 67.6058 21.6796C68.4688 26.9727 67.0017 31.6186 63.2332 35.4159C55.0202 43.7152 46.7353 51.9426 38.4935 60.1987C38.3188 60.3889 38.1048 60.5388 37.8664 60.6381C37.628 60.7375 37.3708 60.7839 37.1127 60.7741H17.997L17.8819 60.5871Z" fill="url(#paint0_linear_65_12629)"/>
<defs>
<linearGradient id="paint0_linear_65_12629" x1="33.9229" y1="0" x2="33.9229" y2="60.7753" gradientUnits="userSpaceOnUse">
<stop stop-color="#52CFFF"/>
<stop offset="1" stop-color="#007FEC"/>
</linearGradient>
</defs>
</svg>
