<svg width="107" height="51" viewBox="0 0 107 51" fill="none" xmlns="http://www.w3.org/2000/svg">
    <path fill-rule="evenodd" clip-rule="evenodd" d="M91.5664 38.1228C91.5664 41.4038 90.0216 44.3239 87.6197 46.1955C90.6256 45.3237 93.4331 43.7958 95.833 41.6908C99.7677 38.2397 102.344 33.4684 103.09 28.2503C103.836 23.0321 102.702 17.7163 99.8959 13.2759C97.0895 8.83558 92.7985 5.56774 87.8084 4.07069C85.1666 4.37853 82.5756 5.03345 80.1007 6.01893C75.2853 7.95132 70.6488 11.9152 66.7402 17.2689L64.6765 20.0566C62.8095 22.5502 60.9415 25.2371 59.1352 27.8352L59.135 27.8354L59.135 27.8355C56.2373 32.0034 53.4984 35.9429 51.1774 38.4895C46.9561 43.1304 44.1889 45.9814 43.1258 47.0427L76.3296 47.0427C73.2145 45.2897 71.1103 41.952 71.1103 38.1228C71.1103 32.474 75.6895 27.8948 81.3384 27.8948C86.9872 27.8948 91.5664 32.474 91.5664 38.1228ZM17.2542 45.3954C12.6143 43.4631 8.78064 39.9587 6.40802 35.4806C4.03541 31.0026 3.27112 25.8289 4.24572 20.8433C5.22033 15.8578 7.87335 11.3698 11.7516 8.14594C14.6881 5.70489 18.1891 4.10335 21.894 3.47184C19.059 5.29014 17.1803 8.46947 17.1803 12.0876C17.1803 17.7364 21.7596 22.3156 27.4084 22.3156C33.0572 22.3156 37.6365 17.7364 37.6365 12.0876C37.6365 8.25851 35.5324 4.92089 32.4173 3.16786L62.9343 3.16786C61.5285 4.65743 60.2291 5.98533 58.9922 7.24935C58.7297 7.51758 58.47 7.78295 58.2128 8.04636C53.8977 12.4338 50.2706 16.1244 45.6741 22.4284C43.2665 25.7388 39.9364 29.4611 36.7157 32.8982C35.8254 33.8566 34.935 34.7909 34.0785 35.6897C33.7318 36.0535 33.3907 36.4115 33.0573 36.763C31.2594 38.6478 29.6647 40.3268 28.5078 41.6256C25.9125 44.5559 22.6918 45.4271 20.0965 45.5696C19.0512 45.6112 18.2888 45.5528 17.2542 45.3954ZM81.6641 2.46705e-06C88.2362 2.75433e-06 94.5392 2.64502 99.1864 7.35317C103.834 12.0613 106.444 18.4469 106.444 25.1053C106.444 31.7636 103.834 38.1492 99.1864 42.8574C94.5392 47.5655 88.2362 50.2105 81.6641 50.2105H25.2246C18.6524 50.2105 12.3495 47.5655 7.7023 42.8574C3.05511 38.1492 0.44434 31.7636 0.44434 25.1053C0.44434 18.4469 3.05511 12.0613 7.7023 7.35316C12.3495 2.64501 18.6524 0 25.2246 0L81.6641 2.46705e-06Z" fill="url(#paint0_linear_11_93)"/>
    <defs>
        <linearGradient id="paint0_linear_11_93" x1="52.9999" y1="-6.5" x2="61.4999" y2="84" gradientUnits="userSpaceOnUse">
            <stop offset="0.40625" stop-color="#898EFF"/>
            <stop offset="1" stop-color="#0683EA"/>
        </linearGradient>
    </defs>
</svg>
