<svg width="82" height="86" viewBox="0 0 82 86" fill="none" xmlns="http://www.w3.org/2000/svg">
<path d="M81.1784 45.973C80.9841 46.751 80.6453 47.4796 80.1819 48.1159C79.7186 48.7523 79.1399 49.2837 78.48 49.6788C77.8201 50.0739 77.0923 50.3247 76.3393 50.4166C75.5864 50.5085 74.8234 50.4396 74.0953 50.2139C73.3424 50.0372 72.632 49.6964 72.009 49.2132C71.386 48.73 70.864 48.1149 70.4761 47.4067C70.0882 46.6986 69.8428 45.9129 69.7554 45.0994C69.668 44.2859 69.7406 43.4622 69.9685 42.6807C70.1494 41.8909 70.4787 41.1483 70.9365 40.4975C71.3943 39.8466 71.9712 39.3008 72.6328 38.8928C73.2943 38.4849 74.0268 38.223 74.7864 38.1231C75.546 38.0232 76.3171 38.0872 77.0535 38.3112C78.5473 38.7627 79.816 39.8179 80.5873 41.2505C81.3585 42.683 81.5707 44.3785 81.1784 45.973Z" fill="#5FBEF3"/>
<path d="M40.3274 12.5623C39.5701 12.3701 38.8578 12.0148 38.2344 11.5187C37.611 11.0226 37.0899 10.396 36.7032 9.67786C36.3166 8.95968 36.0726 8.16511 35.9865 7.34336C35.9003 6.52162 35.9738 5.69017 36.2024 4.90043C36.3949 4.12467 36.734 3.39895 37.1993 2.76742C37.6645 2.1359 38.2461 1.61182 38.9086 1.22709C39.5711 0.842353 40.3006 0.604979 41.0528 0.529511C41.805 0.454043 42.564 0.542042 43.2837 0.788098C44.0165 0.995878 44.7031 1.35702 45.3031 1.85037C45.9031 2.34372 46.4044 2.95935 46.7776 3.66097C47.1507 4.36259 47.3883 5.13609 47.4762 5.93604C47.5641 6.736 47.5006 7.54623 47.2895 8.31918C47.1252 9.10211 46.8093 9.83984 46.3619 10.4856C45.9144 11.1313 45.3452 11.6708 44.6905 12.0699C44.0357 12.469 43.3097 12.7188 42.5585 12.8036C41.8074 12.8883 41.0476 12.8062 40.3274 12.5623Z" fill="#5FBEF3"/>
<path d="M12.2718 43.7444C11.8749 45.3269 10.9129 46.6818 9.58977 47.5216C8.26667 48.3613 6.68664 48.6198 5.18491 48.2423C3.69988 47.8198 2.43185 46.7899 1.65841 45.378C0.884966 43.9662 0.66911 42.2873 1.05808 40.709C1.42765 39.136 2.36572 37.7819 3.66935 36.9397C4.97298 36.0975 6.53732 35.8349 8.02393 36.2088C9.51458 36.6333 10.7919 37.6576 11.585 39.0644C12.3781 40.4713 12.6244 42.15 12.2718 43.7444Z" fill="#5FBEF3"/>
<path d="M41.9109 73.8655C42.6594 74.0263 43.368 74.3523 43.9907 74.8225C44.6134 75.2926 45.1364 75.8963 45.5257 76.5945C45.915 77.2927 46.1619 78.0698 46.2504 78.8753C46.339 79.6808 46.2671 80.4968 46.0396 81.2703C45.873 82.0553 45.5571 82.7957 45.1114 83.4459C44.6657 84.0962 44.0995 84.6427 43.4475 85.052C42.7955 85.4613 42.0715 85.7247 41.3197 85.8262C40.568 85.9276 39.8044 85.8649 39.0757 85.6419C38.3494 85.4622 37.6641 85.1295 37.0607 84.6635C36.4572 84.1975 35.9477 83.6078 35.5625 82.9292C35.1773 82.2506 34.9241 81.497 34.8181 80.7131C34.712 79.9292 34.7552 79.1309 34.9451 78.3656C35.0977 77.5688 35.4035 76.8143 35.8433 76.1493C36.2832 75.4842 36.8476 74.9229 37.5014 74.5006C38.1552 74.0782 38.8843 73.8039 39.643 73.6946C40.4017 73.5853 41.1738 73.6435 41.9109 73.8655Z" fill="#5FBEF3"/>
<path d="M71.6478 28.0397C71.7837 27.4078 72.0398 26.8125 72.4004 26.2901C72.7611 25.7677 73.2186 25.3293 73.7448 25.0018C74.2711 24.6744 74.8551 24.4648 75.4608 24.386C76.0666 24.3071 76.6813 24.3606 77.2673 24.5433C77.887 24.6717 78.4744 24.9378 78.9909 25.3241C79.5074 25.7103 79.9415 26.208 80.2645 26.7846C80.5876 27.3611 80.7924 28.0035 80.8655 28.6696C80.9386 29.3356 80.8783 30.0102 80.6887 30.6493C80.5398 31.3001 80.2665 31.9112 79.8856 32.4445C79.5047 32.9779 79.0245 33.4222 78.4747 33.7497C77.925 34.0772 77.3174 34.281 76.6899 34.3483C76.0624 34.4157 75.4283 34.3452 74.8271 34.1412C74.2386 33.9665 73.6886 33.6692 73.2091 33.2665C72.7296 32.8639 72.3303 32.364 72.0343 31.7961C71.7384 31.2281 71.5518 30.6034 71.4854 29.9584C71.419 29.3135 71.4742 28.6612 71.6478 28.0397Z" fill="#5FBEF3"/>
<path d="M23.1419 4.92963C23.306 4.28841 23.5885 3.68848 23.9732 3.16477C24.3578 2.64106 24.8368 2.204 25.3822 1.87905C25.9277 1.5541 26.5287 1.34771 27.1504 1.27193C27.7721 1.19616 28.402 1.25255 29.0035 1.4377C30.2008 1.81955 31.2076 2.68977 31.8032 3.8576C32.3988 5.02543 32.5346 6.39558 32.1809 7.66773C31.8236 8.93877 31.0061 10.0066 29.9077 10.637C28.8093 11.2675 27.5196 11.4092 26.3212 11.0312C24.2713 10.4791 22.259 7.35622 23.1419 4.92963Z" fill="#5FBEF3"/>
<path d="M28.9417 67.9761C30.1705 68.3596 31.2071 69.2442 31.8249 70.4362C32.4427 71.6283 32.5913 73.0308 32.2382 74.337C31.8809 75.608 31.0635 76.6758 29.9651 77.3063C28.8666 77.9368 27.5769 78.0785 26.3785 77.7005C25.7722 77.5121 25.2074 77.1965 24.7175 76.7725C24.2277 76.3484 23.8227 75.8244 23.5266 75.2315C23.2305 74.6387 23.0493 73.9889 22.9937 73.3207C22.9381 72.6526 23.0092 71.9797 23.2029 71.3418C23.3663 70.7171 23.6452 70.1334 24.0234 69.6249C24.4017 69.1163 24.8716 68.6931 25.4058 68.3798C25.94 68.0665 26.5277 67.8694 27.1348 67.8001C27.7419 67.7308 28.3561 67.7906 28.9417 67.9761Z" fill="#5FBEF3"/>
<path d="M59.0958 81.7538C58.7366 83.03 57.9247 84.1073 56.8313 84.7587C55.7378 85.4101 54.4482 85.5847 53.2341 85.2458C52.0488 84.8351 51.0515 83.9661 50.4404 82.8114C49.8293 81.6568 49.6491 80.301 49.9357 79.0134C50.2945 77.709 51.1254 76.6095 52.2465 75.9555C53.3677 75.3015 54.6879 75.1462 55.9184 75.5236C57.0809 75.9593 58.0501 76.8384 58.6374 77.9899C59.2247 79.1415 59.3881 80.4831 59.0958 81.7538Z" fill="#5FBEF3"/>
<path d="M10.5966 58.3881C10.4717 59.0209 10.2297 59.6209 9.88468 60.1532C9.53963 60.6854 9.0984 61.1394 8.58654 61.4888C8.07468 61.8382 7.50237 62.076 6.90289 62.1884C6.3034 62.3009 5.68864 62.2857 5.09427 62.1439C4.46535 61.9951 3.87047 61.7146 3.34445 61.3188C2.81843 60.9231 2.37187 60.4199 2.03089 59.8389C1.68991 59.2579 1.46138 58.6107 1.35868 57.9352C1.25598 57.2597 1.28118 56.5694 1.43279 55.9048C1.58163 55.254 1.85498 54.6429 2.23585 54.1095C2.61673 53.5761 3.09698 53.1319 3.64674 52.8044C4.19651 52.4768 4.80403 52.273 5.43155 52.2057C6.05907 52.1383 6.69315 52.2089 7.29439 52.4128C7.88949 52.5584 8.45051 52.8315 8.94302 53.2155C9.43552 53.5995 9.84911 54.0862 10.1584 54.6458C10.4676 55.2054 10.666 55.826 10.7414 56.4696C10.8167 57.1131 10.7675 57.766 10.5966 58.3881Z" fill="#5FBEF3"/>
<path d="M64.5512 56.6168C64.7153 55.9755 64.9978 55.3756 65.3825 54.8519C65.7671 54.3282 66.2461 53.8912 66.7915 53.5662C67.337 53.2413 67.9381 53.0349 68.5597 52.9591C69.1814 52.8833 69.8114 52.9397 70.4128 53.1248C71.615 53.5087 72.6307 54.373 73.246 55.5356C73.8613 56.6982 74.0281 58.0683 73.7112 59.3571C73.3525 60.6058 72.5595 61.6619 71.4934 62.3109C70.4272 62.9598 69.1677 63.153 67.9706 62.8513C66.7457 62.4943 65.7009 61.6409 65.0613 60.4748C64.4217 59.3086 64.2385 57.9231 64.5512 56.6168Z" fill="#5FBEF3"/>
<path d="M53.4174 18.5815C52.8022 18.42 52.2238 18.1288 51.7164 17.7252C51.209 17.3216 50.7831 16.8138 50.464 16.232C50.145 15.6503 49.9393 15.0065 49.8592 14.3391C49.7791 13.6716 49.8262 12.9941 49.9979 12.3469C50.1619 11.7056 50.4446 11.1058 50.8292 10.5821C51.2138 10.0584 51.6928 9.6213 52.2382 9.29634C52.7837 8.97139 53.3848 8.765 54.0065 8.68922C54.6282 8.61344 55.258 8.66976 55.8595 8.85491C56.4614 9.0285 57.0241 9.33025 57.5133 9.74172C58.0024 10.1532 58.408 10.6658 58.7051 11.2485C59.0023 11.8312 59.185 12.4718 59.242 13.1313C59.299 13.7908 59.2293 14.4555 59.0369 15.085C58.7044 16.3242 57.9351 17.379 56.8886 18.0301C55.8421 18.6812 54.599 18.8787 53.4174 18.5815Z" fill="#5FBEF3"/>
<path d="M17.5652 29.8087C17.4434 30.4523 17.1973 31.0618 16.8425 31.599C16.4878 32.1362 16.032 32.5893 15.5039 32.9298C14.9758 33.2704 14.3869 33.491 13.7741 33.5777C13.1614 33.6644 12.5382 33.6154 11.9437 33.4337C11.3286 33.2722 10.7501 32.981 10.2427 32.5774C9.73536 32.1738 9.30945 31.6659 8.99038 31.0842C8.67132 30.5025 8.46563 29.8588 8.38554 29.1913C8.30545 28.5238 8.35262 27.8463 8.52422 27.1991C8.67441 26.5626 8.94388 25.9649 9.31658 25.442C9.68927 24.919 10.1575 24.4813 10.6934 24.1552C11.2292 23.829 11.8216 23.6211 12.4353 23.5437C13.0489 23.4663 13.6712 23.5211 14.2649 23.7049C14.8644 23.8656 15.4276 24.1529 15.9206 24.5497C16.4137 24.9465 16.8266 25.4447 17.1347 26.0144C17.4427 26.5842 17.6396 27.2138 17.7136 27.8657C17.7876 28.5176 17.7371 29.1784 17.5652 29.8087Z" fill="#5FBEF3"/>
<path d="M13.7923 70.4116C13.6866 70.8596 13.4978 71.2805 13.2368 71.6496C12.9758 72.0188 12.648 72.3287 12.2725 72.5613C11.897 72.7939 11.4815 72.9444 11.0502 73.0041C10.619 73.0638 10.1807 73.0314 9.76104 72.9088C8.94185 72.625 8.2489 72.0315 7.81403 71.2411C7.37916 70.4508 7.23273 69.5188 7.4026 68.6224C7.50829 68.1744 7.69719 67.7535 7.95817 67.3843C8.21915 67.0152 8.54696 66.7052 8.92243 66.4727C9.2979 66.2401 9.71347 66.0896 10.1447 66.0299C10.576 65.9703 11.0143 66.0027 11.4339 66.1253C11.8648 66.2214 12.2721 66.4124 12.6295 66.686C12.9868 66.9597 13.2863 67.3098 13.5086 67.7137C13.7309 68.1177 13.871 68.5666 13.9198 69.0313C13.9687 69.496 13.9253 69.9662 13.7923 70.4116Z" fill="#5FBEF3"/>
<path d="M72.4756 13.6477C73.314 13.9323 74.0161 14.5518 74.4333 15.3753C74.8504 16.1987 74.9501 17.1616 74.7111 18.0604C74.4714 18.9412 73.9131 19.6847 73.1581 20.1286C72.403 20.5724 71.5127 20.6804 70.6818 20.429C69.8467 20.1711 69.1362 19.5825 68.6973 18.7847C68.2583 17.9869 68.1244 17.041 68.3233 16.1426C68.5906 15.2466 69.1671 14.4916 69.9371 14.0289C70.7071 13.5663 71.6139 13.4301 72.4756 13.6477Z" fill="#5FBEF3"/>
<path d="M58.6775 69.5112C57.8196 69.2804 57.08 68.7027 56.6168 67.9014C56.1535 67.1001 56.0032 66.1387 56.1981 65.2226C56.4378 64.3418 56.9961 63.5983 57.7511 63.1545C58.5062 62.7107 59.3964 62.6027 60.2274 62.8541C60.6448 62.952 61.0393 63.1392 61.3867 63.4043C61.7341 63.6693 62.0272 64.0067 62.2481 64.3958C62.4689 64.7848 62.6129 65.2174 62.6713 65.6671C62.7297 66.1169 62.7012 66.5745 62.5877 67.0119C62.4962 67.4551 62.3207 67.8737 62.0718 68.2423C61.8229 68.6108 61.5058 68.9214 61.1399 69.1552C60.7741 69.3891 60.367 69.5412 59.9437 69.6024C59.5203 69.6636 59.0895 69.6326 58.6775 69.5112Z" fill="#5FBEF3"/>
<path d="M59.0249 23.0585C59.1164 22.6152 59.292 22.1966 59.5409 21.8281C59.7898 21.4596 60.1068 21.1489 60.4727 20.915C60.8386 20.6811 61.2456 20.529 61.669 20.4678C62.0924 20.4066 62.5232 20.4377 62.9352 20.5591C63.7931 20.7899 64.5327 21.3676 64.996 22.1689C65.4593 22.9703 65.6095 23.9316 65.4147 24.8477C65.325 25.3052 65.1458 25.7375 64.8889 26.1166C64.6319 26.4957 64.3029 26.8132 63.9229 27.0485C63.543 27.2839 63.1207 27.4318 62.6833 27.4829C62.2459 27.5339 61.803 27.4869 61.3834 27.3449C60.9614 27.2318 60.5648 27.0304 60.2168 26.7525C59.8688 26.4746 59.5763 26.1259 59.3567 25.7267C59.137 25.3275 58.9945 24.8857 58.9375 24.4276C58.8806 23.9694 58.9103 23.5039 59.0249 23.0585Z" fill="#5FBEF3"/>
<path d="M23.5619 17.0433C23.9928 17.1395 24.4001 17.3306 24.7575 17.6042C25.1148 17.8778 25.4143 18.2279 25.6366 18.6318C25.8588 19.0358 25.9989 19.4846 26.0478 19.9493C26.0967 20.414 26.0533 20.8843 25.9203 21.3297C25.8166 21.7754 25.6274 22.1935 25.3647 22.5578C25.1019 22.9221 24.7711 23.2248 24.393 23.4471C24.0149 23.6693 23.5976 23.8064 23.1671 23.8496C22.7366 23.8928 22.3022 23.8412 21.891 23.6982C21.4691 23.5851 21.0724 23.3838 20.7244 23.1059C20.3764 22.828 20.084 22.4792 19.8643 22.08C19.6447 21.6808 19.5022 21.2392 19.4452 20.781C19.3883 20.3228 19.418 19.8574 19.5326 19.4119C19.7723 18.5312 20.3306 17.7876 21.0857 17.3438C21.8407 16.9 22.731 16.792 23.5619 17.0433Z" fill="#5FBEF3"/>
<path d="M13.0215 10.2904C13.0958 9.83755 13.2608 9.40703 13.5053 9.02799C13.7498 8.64896 14.0681 8.33023 14.4388 8.09332C14.8094 7.8564 15.2238 7.70683 15.6539 7.65469C16.0839 7.60254 16.5197 7.64907 16.9317 7.79109C17.3626 7.88724 17.7699 8.07832 18.1273 8.35194C18.4847 8.62556 18.7841 8.97564 19.0064 9.3796C19.2287 9.78356 19.3688 10.2324 19.4176 10.6971C19.4665 11.1618 19.4231 11.632 19.2902 12.0774C19.2012 12.5186 19.0256 12.9347 18.775 13.2987C18.5244 13.6627 18.2044 13.9665 17.8357 14.1901C17.467 14.4138 17.0579 14.5524 16.6351 14.5969C16.2123 14.6413 15.7853 14.5907 15.3818 14.4483C14.9453 14.39 14.5268 14.2273 14.1578 13.9724C13.7888 13.7174 13.479 13.3769 13.2517 12.9765C13.0244 12.5761 12.8856 12.1263 12.8457 11.661C12.8058 11.1957 12.866 10.7271 13.0215 10.2904Z" fill="#5FBEF3"/>
<path d="M23.0901 63.4934C23.0134 63.9319 22.8516 64.3484 22.615 64.7165C22.3784 65.0847 22.0722 65.3963 21.7157 65.6316C21.3593 65.8669 20.9605 66.0207 20.5447 66.0833C20.129 66.1458 19.7054 66.1158 19.3008 65.995C18.8449 65.9177 18.4104 65.7348 18.0281 65.4594C17.6458 65.1839 17.325 64.8226 17.0886 64.4011C16.8522 63.9796 16.7058 63.5082 16.66 63.0203C16.6141 62.5324 16.6698 62.0399 16.8232 61.5778C16.9282 61.1464 17.1135 60.7418 17.3681 60.3879C17.6227 60.0339 17.9414 59.7377 18.3056 59.5168C18.6698 59.2959 19.072 59.1547 19.4887 59.1014C19.9053 59.0482 20.3279 59.0842 20.7316 59.207C21.1625 59.3031 21.5698 59.4942 21.9272 59.7678C22.2845 60.0414 22.5841 60.3915 22.8063 60.7954C23.0286 61.1994 23.1687 61.6483 23.2176 62.113C23.2664 62.5777 23.223 63.048 23.0901 63.4934Z" fill="#5FBEF3"/>
<path d="M69.2168 76.2668C69.1628 76.7303 69.0103 77.1745 68.771 77.566C68.5316 77.9575 68.2116 78.2859 67.8351 78.5266C67.4586 78.7673 67.0353 78.9139 66.5973 78.9554C66.1593 78.9969 65.7179 78.9322 65.3065 78.7662C64.87 78.708 64.4515 78.5452 64.0825 78.2903C63.7135 78.0353 63.4037 77.6948 63.1764 77.2944C62.9491 76.894 62.8103 76.4442 62.7704 75.9789C62.7305 75.5136 62.7906 75.045 62.9462 74.6083C63.0002 74.1448 63.1527 73.7006 63.392 73.3091C63.6314 72.9177 63.9514 72.5892 64.3279 72.3485C64.7045 72.1078 65.1277 71.9612 65.5657 71.9197C66.0037 71.8782 66.4451 71.9429 66.8565 72.1089C67.283 72.1887 67.6886 72.3647 68.0459 72.6251C68.4032 72.8855 68.7039 73.2242 68.9277 73.6184C69.1514 74.0125 69.293 74.4529 69.3429 74.9098C69.3928 75.3667 69.3498 75.8294 69.2168 76.2668Z" fill="#5FBEF3"/>
<path d="M9.06482 16.1467C9.31803 16.1951 9.55875 16.3001 9.77108 16.4547C9.98341 16.6093 10.1625 16.81 10.2964 17.0435C10.4304 17.2769 10.5162 17.5378 10.5481 17.809C10.58 18.0801 10.5574 18.3553 10.4817 18.6162C10.3078 19.1258 9.96154 19.5482 9.51031 19.8013C9.05908 20.0545 8.53509 20.1202 8.04012 19.9857C7.56892 19.827 7.17229 19.4831 6.93141 19.0245C6.69053 18.5658 6.62361 18.0271 6.74432 17.5185C6.80372 17.2614 6.91236 17.0201 7.06346 16.8098C7.21457 16.5994 7.40489 16.4244 7.6226 16.2958C7.8403 16.1671 8.08071 16.0874 8.32884 16.0618C8.57696 16.0361 8.82749 16.065 9.06482 16.1467Z" fill="#5FBEF3"/>
<path d="M73.0532 70.4082C72.8111 70.3446 72.5837 70.2287 72.3854 70.0679C72.187 69.907 72.0219 69.7045 71.9003 69.473C71.7787 69.2416 71.7033 68.986 71.6787 68.7224C71.6541 68.4588 71.6809 68.1928 71.7574 67.9408C71.9058 67.4331 72.2236 67.0005 72.6511 66.7243C73.0787 66.4481 73.5866 66.3472 74.0799 66.4404C74.5601 66.626 74.9584 66.9946 75.1976 67.4743C75.4367 67.9541 75.4996 68.5108 75.3739 69.0363C75.3145 69.2934 75.2058 69.5347 75.0547 69.7451C74.9036 69.9555 74.7132 70.1304 74.4955 70.2591C74.2778 70.3878 74.0374 70.4675 73.7893 70.4931C73.5411 70.5188 73.2906 70.4899 73.0532 70.4082Z" fill="#5FBEF3"/>
<path d="M63.4614 33.4345C63.4902 33.1703 63.5738 32.9163 63.7062 32.6908C63.8385 32.4652 64.0163 32.2737 64.2268 32.13C64.4374 31.9863 64.6753 31.894 64.9236 31.8598C65.1719 31.8255 65.4244 31.8501 65.6628 31.9318C65.9029 31.9821 66.131 32.0833 66.3335 32.2295C66.536 32.3756 66.7086 32.5636 66.8411 32.7823C66.9736 33.0009 67.0632 33.2457 67.1045 33.5018C67.1459 33.7579 67.1381 34.0202 67.0816 34.2729C66.9349 34.7904 66.6221 35.2367 66.1975 35.5342C65.7729 35.8318 65.2633 35.9618 64.7572 35.9019C64.286 35.7431 63.8894 35.3993 63.6485 34.9406C63.4076 34.4819 63.3407 33.9431 63.4614 33.4345Z" fill="#5FBEF3"/>
<path d="M18.7749 53.2524C18.6264 53.7526 18.3033 54.1732 17.872 54.4283C17.4406 54.6833 16.9335 54.7534 16.4544 54.6242C15.9761 54.4656 15.5683 54.1273 15.3075 53.6727C15.0467 53.2181 14.9507 52.6784 15.0375 52.1547C15.2593 51.6761 15.6098 51.2784 16.0447 51.0118C16.4796 50.7451 16.9794 50.6215 17.481 50.6565C17.9611 50.8422 18.3595 51.2107 18.5987 51.6905C18.8378 52.1702 18.9006 52.7269 18.7749 53.2524Z" fill="#5FBEF3"/>
<path d="M49.5745 71.2865C49.318 71.2254 49.077 71.106 48.8681 70.9365C48.6591 70.7669 48.4872 70.5514 48.3642 70.3046C48.2411 70.0578 48.17 69.7857 48.1555 69.507C48.1411 69.2284 48.1837 68.9499 48.2805 68.6907C48.3531 68.4454 48.4711 68.218 48.6277 68.0221C48.7843 67.8261 48.9762 67.6655 49.1923 67.5497C49.4084 67.4338 49.6441 67.3651 49.8857 67.3475C50.1274 67.33 50.3699 67.364 50.5992 67.4474C51.0615 67.5779 51.457 67.8966 51.7 68.3344C51.9429 68.7723 52.0137 69.2939 51.8969 69.7861C51.7737 70.3106 51.4609 70.762 51.0262 71.0428C50.5916 71.3236 50.0701 71.4112 49.5745 71.2865Z" fill="#5FBEF3"/>
<path d="M32.5398 15.2678C32.7886 15.2989 33.0279 15.3882 33.2405 15.5292C33.4531 15.6702 33.6337 15.8594 33.7694 16.0833C33.905 16.3071 33.9924 16.56 34.0251 16.8238C34.0578 17.0876 34.0351 17.3557 33.9586 17.6089C33.9135 17.8777 33.8151 18.1332 33.6699 18.3585C33.5248 18.5837 33.3361 18.7735 33.1166 18.9154C32.897 19.0572 32.6515 19.1479 32.3962 19.1813C32.141 19.2147 31.8819 19.1901 31.6361 19.1092C31.1649 18.9505 30.7683 18.6066 30.5274 18.1479C30.2865 17.6893 30.2196 17.1506 30.3403 16.6419C30.3847 16.3894 30.4795 16.15 30.6183 15.9398C30.7571 15.7297 30.9368 15.5535 31.1452 15.4233C31.3535 15.2932 31.5858 15.2119 31.8264 15.1851C32.0669 15.1583 32.3102 15.1865 32.5398 15.2678Z" fill="#5FBEF3"/>
<path d="M17.6979 75.7558C17.9463 75.7805 18.1858 75.8674 18.3965 76.0096C18.6072 76.1517 18.7832 76.345 18.9099 76.5734C19.0367 76.8018 19.1105 77.0588 19.1254 77.3233C19.1403 77.5878 19.0959 77.8521 18.9957 78.0945C18.7348 79.3757 17.8818 79.7458 16.6732 79.5949C16.1979 79.4103 15.809 79.0356 15.5898 78.5509C15.3706 78.0662 15.3385 77.5101 15.5003 77.0013C15.5589 76.7605 15.6639 76.5354 15.8087 76.3401C15.9534 76.1448 16.1347 75.9835 16.3412 75.8664C16.5477 75.7494 16.7749 75.6792 17.0084 75.6601C17.2419 75.6411 17.4767 75.6737 17.6979 75.7558Z" fill="#5FBEF3"/>
<path d="M64.5443 10.8001C64.2955 10.769 64.0562 10.6797 63.8436 10.5387C63.631 10.3977 63.4504 10.2085 63.3147 9.98464C63.179 9.76079 63.0917 9.50784 63.059 9.24406C63.0263 8.98028 63.049 8.71224 63.1255 8.45911C63.1706 8.19024 63.269 7.93466 63.4142 7.70941C63.5594 7.48417 63.748 7.29436 63.9675 7.15251C64.1871 7.01066 64.4326 6.92001 64.6878 6.88659C64.9431 6.85318 65.2022 6.87777 65.448 6.95869C65.9034 7.14142 66.2835 7.48949 66.5207 7.94118C66.7579 8.39287 66.837 8.91891 66.7438 9.42597C66.6994 9.67849 66.6046 9.91788 66.4658 10.1281C66.327 10.3382 66.1473 10.5144 65.939 10.6446C65.7306 10.7747 65.4983 10.856 65.2578 10.8828C65.0172 10.9096 64.7739 10.8814 64.5443 10.8001Z" fill="#5FBEF3"/>
<path d="M37.602 16.5099C37.6137 16.3302 37.6647 16.1559 37.7509 16.0009C37.8372 15.846 37.9563 15.7147 38.0988 15.6173C38.2413 15.52 38.4033 15.4594 38.5718 15.4403C38.7404 15.4212 38.9109 15.4443 39.0697 15.5075C39.402 15.6051 39.6861 15.8357 39.8621 16.1509C40.0382 16.4661 40.0925 16.8414 40.0137 17.1978C39.8996 17.5347 39.6787 17.8188 39.3888 18.0013C39.0989 18.1837 38.7582 18.2532 38.425 18.1979C38.1154 18.0747 37.8598 17.8338 37.7077 17.5219C37.5556 17.2099 37.518 16.8492 37.602 16.5099Z" fill="#5FBEF3"/>
<path d="M15.5107 45.2125C15.6004 44.8854 15.7983 44.6039 16.0679 44.4197C16.3376 44.2355 16.6609 44.1611 16.9784 44.2101C17.2832 44.3504 17.5386 44.5895 17.7082 44.8931C17.8777 45.1967 17.9527 45.5492 17.9224 45.9004C17.8113 46.2485 17.5952 46.5477 17.3076 46.7518C17.0201 46.9558 16.6771 47.0533 16.3318 47.0293C16.1651 46.968 16.0114 46.8723 15.8797 46.7475C15.7479 46.6228 15.6408 46.4715 15.5644 46.3025C15.488 46.1335 15.444 45.9501 15.4348 45.763C15.4255 45.5759 15.4514 45.3888 15.5107 45.2125Z" fill="#5FBEF3"/>
<path d="M75.9599 62.0955C76.0914 61.7718 76.3158 61.5008 76.6012 61.3211C76.8865 61.1415 77.2182 61.0624 77.5487 61.0952C77.8673 61.2439 78.1254 61.509 78.2761 61.8424C78.4267 62.1757 78.46 62.5552 78.3698 62.912C78.2556 63.2489 78.0347 63.533 77.7448 63.7155C77.455 63.898 77.1142 63.9675 76.781 63.9121C76.4772 63.7448 76.2328 63.4771 76.0846 63.1493C75.9365 62.8215 75.8927 62.4516 75.9599 62.0955Z" fill="#5FBEF3"/>
<path d="M6.156 24.3306C6.14431 24.5103 6.09331 24.6846 6.00707 24.8395C5.92083 24.9945 5.80171 25.1258 5.65921 25.2231C5.5167 25.3205 5.35473 25.3811 5.18618 25.4002C5.01762 25.4192 4.84715 25.3962 4.6883 25.3329C4.52826 25.2994 4.37618 25.2319 4.24119 25.1344C4.10621 25.0369 3.99111 24.9115 3.90277 24.7657C3.81444 24.6199 3.75468 24.4566 3.72713 24.2857C3.69958 24.1149 3.7048 23.9399 3.74244 23.7713C3.85362 23.4233 4.06968 23.1241 4.35721 22.92C4.64474 22.716 4.98771 22.6185 5.33304 22.6426C5.64259 22.7657 5.89824 23.0067 6.05032 23.3186C6.2024 23.6305 6.24006 23.9912 6.156 24.3306Z" fill="#5FBEF3"/>
<path d="M66.7327 41.2154C66.7035 41.3997 66.637 41.5749 66.5376 41.7289C66.4382 41.883 66.3084 42.012 66.1572 42.1072C66.006 42.2024 65.837 42.2615 65.662 42.2802C65.487 42.2988 65.3103 42.2767 65.144 42.2155C64.8434 42.1194 64.5894 41.9032 64.4355 41.6124C64.2817 41.3215 64.24 40.9787 64.3192 40.6562C64.4104 40.3032 64.6269 40.0017 64.9232 39.8152C65.2194 39.6287 65.5724 39.5716 65.9079 39.656C66.2085 39.7521 66.4625 39.9683 66.6164 40.2592C66.7702 40.5501 66.8119 40.8929 66.7327 41.2154Z" fill="#5FBEF3"/>
<path d="M60.5096 5.71479C60.4198 6.03411 60.2167 6.30369 59.9433 6.46669C59.6699 6.62968 59.3474 6.67338 59.0438 6.58857C58.7342 6.4654 58.4786 6.2244 58.3265 5.91244C58.1744 5.60049 58.1367 5.23987 58.2208 4.90051C58.4761 4.00442 58.9659 3.62742 59.8096 3.90034C60.6532 4.17327 60.7649 4.8187 60.5096 5.71479Z" fill="#5FBEF3"/>
<path d="M44.6373 70.0469C44.6256 70.2266 44.5746 70.4009 44.4884 70.5559C44.4021 70.7108 44.283 70.8422 44.1405 70.9395C43.998 71.0368 43.836 71.0975 43.6675 71.1165C43.4989 71.1356 43.3284 71.1126 43.1695 71.0493C42.86 70.9261 42.6043 70.6852 42.4522 70.3733C42.3002 70.0613 42.2625 69.7006 42.3466 69.3612C42.4378 69.0082 42.6543 68.7068 42.9506 68.5203C43.2469 68.3337 43.5999 68.2767 43.9354 68.3611C44.0868 68.4212 44.2254 68.5129 44.3431 68.6308C44.4607 68.7486 44.555 68.8903 44.6204 69.0474C44.6858 69.2045 44.721 69.3739 44.7239 69.5455C44.7268 69.7172 44.6974 69.8877 44.6373 70.0469Z" fill="#5FBEF3"/>
<path d="M22.4307 82.6584C22.1211 82.5352 21.8655 82.2943 21.7134 81.9824C21.5613 81.6705 21.5237 81.3098 21.6078 80.9705C21.7231 80.6417 21.9493 80.3705 22.2426 80.2094C22.5358 80.0484 22.8751 80.009 23.1946 80.099C23.4671 80.2362 23.6929 80.46 23.8406 80.7393C23.9884 81.0187 24.0509 81.3399 24.0194 81.6583C23.9281 82.0113 23.7116 82.3127 23.4154 82.4992C23.1191 82.6857 22.7661 82.7428 22.4307 82.6584Z" fill="#5FBEF3"/>
</svg>
