<svg width="87" height="87" viewBox="0 0 87 87" fill="none" xmlns="http://www.w3.org/2000/svg">
<g clip-path="url(#clip0_84_984)">
<path fill-rule="evenodd" clip-rule="evenodd" d="M87 43.5C87 67.5244 67.5244 87 43.5 87C19.4756 87 0 67.5244 0 43.5C0 19.4756 19.4756 0 43.5 0C67.5244 0 87 19.4756 87 43.5ZM11.3913 46.2115C16.0705 43.4657 20.7635 40.7117 24.2896 36.402C24.4959 36.5223 24.5388 36.7106 24.5801 36.8916C24.5909 36.9392 24.6017 36.9862 24.6152 37.0314C27.3937 46.1265 31.4528 54.6355 36.1848 62.8406C37.5089 65.0981 38.9633 67.2904 41.1122 68.875C43.6085 70.7201 45.6489 70.5247 47.7328 68.2455C48.3091 67.6272 48.8388 66.967 49.3173 66.2702C50.7716 64.2081 51.9004 61.9723 52.9423 59.6931C53.7212 57.9796 54.4729 56.2526 55.2247 54.5253C56.9871 50.4758 58.7502 46.425 60.8652 42.5449C63.1661 38.3121 65.5972 34.1445 69.7215 31.3443C69.982 31.1707 70.1122 30.997 69.9603 30.6931L69.9054 30.58C68.8823 28.469 67.8643 26.3686 65.9663 24.8758C64.6205 23.8338 63.1227 23.8555 61.7335 24.8323C60.954 25.3838 60.2841 26.0758 59.7582 26.8728C58.8513 28.2562 58.0391 29.6993 57.327 31.1924C55.2523 35.367 53.4106 39.6363 51.57 43.9032C50.2332 47.0023 48.8969 50.1001 47.4722 53.1594C47.3843 53.3474 47.2966 53.5353 47.209 53.7231C46.1936 55.9001 45.1844 58.0639 43.8256 60.0621C43.1961 60.9955 42.8487 60.9955 42.0673 60.2141C41.3154 59.4351 40.6925 58.5411 40.2223 57.5659C35.3166 47.7979 30.8668 37.9214 31.5831 26.5689C31.7567 23.7036 29.4341 21.6415 26.7859 21.6415C24.1377 21.6415 22.7484 23.3346 22.8353 26.5255C22.856 27.5422 22.5792 28.5193 22.3083 29.4756C22.2958 29.5197 22.2833 29.5638 22.2709 29.6078C20.6863 35.0778 17.4086 39.3758 13.0673 42.9573C12.8362 43.1486 12.6054 43.3405 12.3745 43.5325C10.7187 44.9095 9.05707 46.2912 7.22824 47.4723C7.20301 47.4875 7.17572 47.5026 7.14758 47.5182C6.93359 47.6369 6.6699 47.7833 6.88091 48.1669C7.11969 48.6011 7.44529 48.4274 7.64065 48.2537C8.04724 47.9014 8.53001 47.7013 9.01497 47.5003C9.30672 47.3794 9.59927 47.2582 9.87649 47.1033C10.3803 46.8048 10.8857 46.5082 11.3913 46.2115Z" fill="#4DC18D"/>
</g>
<defs>
<clipPath id="clip0_84_984">
<rect width="87" height="87" fill="white"/>
</clipPath>
</defs>
</svg>
