<svg width="196" height="60" viewBox="0 0 196 60" fill="none" xmlns="http://www.w3.org/2000/svg">
<g clip-path="url(#clip0_63_11581)">
<mask id="mask0_63_11581" style="mask-type:luminance" maskUnits="userSpaceOnUse" x="0" y="0" width="196" height="60">
<path d="M185.939 0H10.9395C5.41661 0 0.939453 4.47715 0.939453 10V50C0.939453 55.5228 5.41661 60 10.9395 60H185.939C191.462 60 195.939 55.5228 195.939 50V10C195.939 4.47715 191.462 0 185.939 0Z" fill="white"/>
</mask>
<g mask="url(#mask0_63_11581)">
<path d="M188.402 0H8.47722C4.31423 0 0.939453 3.41452 0.939453 7.62655V52.3734C0.939453 56.5855 4.31423 60 8.47722 60H188.402C192.565 60 195.939 56.5855 195.939 52.3734V7.62655C195.939 3.41452 192.565 0 188.402 0Z" fill="black"/>
<path d="M22.4058 23.0546C21.0772 23.054 20.0003 24.1338 20 25.462L20.0016 35.5411C20.0014 35.8574 20.0635 36.1705 20.1844 36.4628C20.3053 36.755 20.4825 37.0205 20.7061 37.2442C20.9296 37.4678 21.195 37.6452 21.4871 37.7661C21.7792 37.8871 22.0923 37.9492 22.4084 37.9491C22.7245 37.9494 23.0376 37.8874 23.3297 37.7665C23.6218 37.6456 23.8871 37.4682 24.1106 37.2446C24.334 37.0209 24.5112 36.7554 24.6319 36.4631C24.7526 36.1708 24.8144 35.8576 24.8139 35.5414V25.4606C24.8132 24.8222 24.5592 24.2102 24.1076 23.7591C23.6561 23.3079 23.044 23.0546 22.4058 23.0546ZM41.8099 14.0032L43.4892 10.9355C43.532 10.8576 43.5422 10.766 43.5176 10.6807C43.4929 10.5954 43.4355 10.5233 43.3578 10.4803C43.28 10.4382 43.1886 10.4286 43.1038 10.4536C43.0189 10.4786 42.9473 10.5362 42.9048 10.6138L41.2083 13.7137C39.7811 13.0781 38.1836 12.722 36.4934 12.7236C34.8078 12.722 33.2111 13.0771 31.7897 13.7091L30.0913 10.617C30.0706 10.5784 30.0424 10.5443 30.0084 10.5167C29.9744 10.4891 29.9353 10.4685 29.8932 10.4561C29.8512 10.4437 29.8072 10.4398 29.7636 10.4446C29.7201 10.4494 29.6779 10.4627 29.6396 10.4839C29.6009 10.5046 29.5667 10.5328 29.539 10.5669C29.5113 10.601 29.4907 10.6402 29.4784 10.6824C29.4661 10.7245 29.4622 10.7687 29.4672 10.8123C29.4721 10.8559 29.4857 10.8981 29.5072 10.9364L31.1872 14.0022C27.8861 15.7051 25.6557 18.9483 25.6577 22.672L47.3318 22.6693C47.3325 18.947 45.106 15.7104 41.8099 14.0032ZM31.5638 18.744C31.3228 18.7439 31.0917 18.648 30.9213 18.4774C30.751 18.3068 30.6553 18.0755 30.6555 17.8344C30.6556 17.5932 30.7515 17.362 30.922 17.1916C31.0926 17.0212 31.3238 16.9256 31.5648 16.9257C31.8059 16.9261 32.037 17.0221 32.2075 17.1926C32.378 17.3631 32.474 17.5942 32.4745 17.8354C32.4741 18.0766 32.3779 18.3078 32.2071 18.4782C32.0364 18.6486 31.805 18.7442 31.5638 18.744ZM41.4329 18.7424C41.3136 18.7425 41.1954 18.719 41.0851 18.6734C40.9749 18.6278 40.8747 18.5609 40.7903 18.4765C40.7059 18.3921 40.6389 18.2919 40.5933 18.1816C40.5476 18.0713 40.5242 17.9531 40.5242 17.8337C40.5255 17.5928 40.6216 17.3621 40.7918 17.1916C40.9619 17.021 41.1924 16.9245 41.4332 16.9227C41.6738 16.9247 41.904 17.0215 42.0738 17.1921C42.2436 17.3627 42.3393 17.5933 42.3403 17.834C42.3404 17.9533 42.317 18.0714 42.2715 18.1817C42.2259 18.2919 42.1591 18.392 42.0748 18.4764C41.9906 18.5608 41.8905 18.6277 41.7803 18.6733C41.6702 18.719 41.5521 18.7424 41.4329 18.7424ZM25.7462 23.5095L25.7498 39.1303C25.7494 39.4676 25.8155 39.8018 25.9444 40.1135C26.0733 40.4253 26.2624 40.7085 26.5009 40.9471C26.7394 41.1856 27.0226 41.3748 27.3343 41.5037C27.6459 41.6326 27.9799 41.6987 28.3172 41.6983L30.0654 41.6989L30.0674 47.0323C30.0671 48.3604 31.1462 49.4399 32.4719 49.4399C33.8015 49.4399 34.8787 48.3594 34.879 47.0307L34.8777 41.6986L38.1259 41.6976L38.1272 47.0307C38.1272 48.3578 39.2067 49.4396 40.5327 49.437C41.8623 49.438 42.9402 48.3575 42.9398 47.0287L42.9382 41.6969L44.6926 41.6956C45.0299 41.6957 45.3639 41.6293 45.6755 41.5002C45.9872 41.3711 46.2703 41.1819 46.5089 40.9433C46.7474 40.7048 46.9366 40.4216 47.0657 40.1099C47.1948 39.7982 47.2613 39.4641 47.2614 39.1267L47.2584 23.5059L25.7462 23.5095ZM52.9984 25.4583C52.9984 25.1422 52.9362 24.8292 52.8153 24.5372C52.6943 24.2451 52.5171 23.9797 52.2936 23.7563C52.0701 23.5328 51.8048 23.3555 51.5128 23.2346C51.2208 23.1137 50.9079 23.0516 50.5919 23.0517C49.2633 23.0504 48.1868 24.1296 48.1868 25.4593L48.1887 35.5391C48.1885 35.8552 48.2506 36.1683 48.3714 36.4604C48.4922 36.7525 48.6694 37.0179 48.8929 37.2414C49.1163 37.4649 49.3816 37.6422 49.6736 37.763C49.9656 37.8839 50.2785 37.946 50.5945 37.9458C50.9106 37.9458 51.2235 37.8836 51.5155 37.7625C51.8075 37.6415 52.0727 37.4641 52.2961 37.2405C52.5195 37.0169 52.6967 36.7514 52.8175 36.4592C52.9382 36.1671 53.0003 35.854 53 35.5378L52.9984 25.4583Z" fill="white"/>
</g>
<path d="M185.939 0.5H10.9395C5.69275 0.5 1.43945 4.75329 1.43945 10V50C1.43945 55.2467 5.69275 59.5 10.9395 59.5H185.939C191.186 59.5 195.439 55.2467 195.439 50V10C195.439 4.75329 191.186 0.5 185.939 0.5Z" stroke="url(#paint0_linear_63_11581)" stroke-opacity="0.2"/>
<path d="M77.592 16.2559C78.8293 16.2559 79.8907 16.4799 80.776 16.9279C81.6613 17.3759 82.3387 18.0213 82.808 18.8639C83.2773 19.7066 83.512 20.7093 83.512 21.8719C83.512 23.0239 83.2773 24.0213 82.808 24.8639C82.3387 25.6959 81.6613 26.3359 80.776 26.7839C79.8907 27.2213 78.8293 27.4399 77.592 27.4399H74.28V16.2559H77.592ZM77.592 26.5119C79.1493 26.5119 80.3333 26.1066 81.144 25.2959C81.9653 24.4746 82.376 23.3333 82.376 21.8719C82.376 20.3999 81.9653 19.2533 81.144 18.4319C80.3333 17.5999 79.1493 17.1839 77.592 17.1839H75.4V26.5119H77.592ZM86.3769 17.0559C86.1529 17.0559 85.9609 16.9759 85.8009 16.8159C85.6409 16.6559 85.5609 16.4586 85.5609 16.2239C85.5609 15.9893 85.6409 15.7973 85.8009 15.6479C85.9609 15.4879 86.1529 15.4079 86.3769 15.4079C86.6009 15.4079 86.7929 15.4879 86.9529 15.6479C87.1129 15.7973 87.1929 15.9893 87.1929 16.2239C87.1929 16.4586 87.1129 16.6559 86.9529 16.8159C86.7929 16.9759 86.6009 17.0559 86.3769 17.0559ZM86.9369 18.7039V27.4399H85.8169V18.7039H86.9369ZM90.8331 20.2559C91.0785 19.7119 91.4518 19.2906 91.9531 18.9919C92.4651 18.6933 93.0891 18.5439 93.8251 18.5439V19.7119H93.5211C92.7105 19.7119 92.0598 19.9306 91.5691 20.3679C91.0785 20.8053 90.8331 21.5359 90.8331 22.5599V27.4399H89.7131V18.7039H90.8331V20.2559ZM103.654 22.6239C103.654 23.0079 103.643 23.3013 103.622 23.5039H96.374C96.406 24.1653 96.566 24.7306 96.854 25.1999C97.142 25.6693 97.5207 26.0266 97.99 26.2719C98.4593 26.5066 98.9713 26.6239 99.526 26.6239C100.251 26.6239 100.859 26.4479 101.35 26.0959C101.851 25.7439 102.182 25.2693 102.342 24.6719H103.526C103.313 25.5253 102.854 26.2239 102.15 26.7679C101.457 27.3013 100.582 27.5679 99.526 27.5679C98.7047 27.5679 97.9687 27.3866 97.318 27.0239C96.6673 26.6506 96.1553 26.1279 95.782 25.4559C95.4193 24.7733 95.238 23.9786 95.238 23.0719C95.238 22.1653 95.4193 21.3706 95.782 20.6879C96.1447 20.0053 96.6513 19.4826 97.302 19.1199C97.9527 18.7573 98.694 18.5759 99.526 18.5759C100.358 18.5759 101.083 18.7573 101.702 19.1199C102.331 19.4826 102.811 19.9733 103.142 20.5919C103.483 21.1999 103.654 21.8773 103.654 22.6239ZM102.518 22.5919C102.529 21.9413 102.395 21.3866 102.118 20.9279C101.851 20.4693 101.483 20.1226 101.014 19.8879C100.545 19.6533 100.033 19.5359 99.478 19.5359C98.646 19.5359 97.9367 19.8026 97.35 20.3359C96.7633 20.8693 96.438 21.6213 96.374 22.5919H102.518ZM105.431 23.0719C105.431 22.1653 105.612 21.3759 105.975 20.7039C106.338 20.0213 106.839 19.4986 107.479 19.1359C108.119 18.7626 108.85 18.5759 109.671 18.5759C110.748 18.5759 111.634 18.8426 112.327 19.3759C113.031 19.9093 113.484 20.6346 113.687 21.5519H112.487C112.338 20.9226 112.012 20.4319 111.511 20.0799C111.02 19.7173 110.407 19.5359 109.671 19.5359C109.084 19.5359 108.556 19.6693 108.087 19.9359C107.618 20.2026 107.244 20.6026 106.967 21.1359C106.7 21.6586 106.567 22.3039 106.567 23.0719C106.567 23.8399 106.7 24.4906 106.967 25.0239C107.244 25.5573 107.618 25.9573 108.087 26.2239C108.556 26.4906 109.084 26.6239 109.671 26.6239C110.407 26.6239 111.02 26.4479 111.511 26.0959C112.012 25.7333 112.338 25.2319 112.487 24.5919H113.687C113.484 25.4879 113.031 26.2079 112.327 26.7519C111.623 27.2959 110.738 27.5679 109.671 27.5679C108.85 27.5679 108.119 27.3866 107.479 27.0239C106.839 26.6506 106.338 26.1279 105.975 25.4559C105.612 24.7733 105.431 23.9786 105.431 23.0719ZM117.452 19.6479V25.0719C117.452 25.6053 117.553 25.9733 117.756 26.1759C117.958 26.3786 118.316 26.4799 118.828 26.4799H119.852V27.4399H118.652C117.862 27.4399 117.276 27.2586 116.892 26.8959C116.508 26.5226 116.316 25.9146 116.316 25.0719V19.6479H115.1V18.7039H116.316V16.5119H117.452V18.7039H119.852V19.6479H117.452ZM126.761 27.5199C126.527 27.5199 126.329 27.4399 126.169 27.2799C126.02 27.1199 125.945 26.9226 125.945 26.6879C125.945 26.4533 126.02 26.2613 126.169 26.1119C126.329 25.9519 126.527 25.8719 126.761 25.8719C126.985 25.8719 127.172 25.9519 127.321 26.1119C127.481 26.2613 127.561 26.4533 127.561 26.6879C127.561 26.9226 127.481 27.1199 127.321 27.2799C127.172 27.4399 126.985 27.5199 126.761 27.5199ZM136.196 24.7839H131.108L130.132 27.4399H128.948L133.028 16.3999H134.292L138.356 27.4399H137.172L136.196 24.7839ZM135.86 23.8559L133.652 17.8079L131.444 23.8559H135.86ZM147.545 19.4719C147.545 20.4319 147.23 21.2053 146.601 21.7919C145.972 22.3786 145.028 22.6719 143.769 22.6719H141.513V27.4399H140.393V16.2559H143.769C145.017 16.2559 145.956 16.5493 146.585 17.1359C147.225 17.7226 147.545 18.5013 147.545 19.4719ZM143.769 21.7119C145.518 21.7119 146.393 20.9653 146.393 19.4719C146.393 18.7253 146.185 18.1599 145.769 17.7759C145.353 17.3919 144.686 17.1999 143.769 17.1999H141.513V21.7119H143.769ZM155.632 27.4399L150.784 22.2719V27.4399H149.664V16.2559H150.784V21.4879L155.632 16.2559H157.056L151.824 21.8399L157.104 27.4399H155.632ZM77.832 32.3199C79.016 32.3199 80.0507 32.5493 80.936 33.0079C81.832 33.4559 82.52 34.1066 83 34.9599C83.4907 35.8026 83.736 36.7893 83.736 37.9199C83.736 39.0506 83.4907 40.0319 83 40.8639C82.52 41.6959 81.832 42.3359 80.936 42.7839C80.0507 43.2213 79.016 43.4399 77.832 43.4399H74.2V32.3199H77.832ZM77.832 41.9519C79.1333 41.9519 80.1307 41.5999 80.824 40.8959C81.5173 40.1919 81.864 39.1999 81.864 37.9199C81.864 36.6293 81.5173 35.6213 80.824 34.8959C80.1307 34.1706 79.1333 33.8079 77.832 33.8079H76.024V41.9519H77.832ZM90.6158 43.5519C89.5811 43.5519 88.6264 43.3119 87.7518 42.8319C86.8878 42.3413 86.1998 41.6639 85.6878 40.7999C85.1864 39.9253 84.9358 38.9439 84.9358 37.8559C84.9358 36.7679 85.1864 35.7919 85.6878 34.9279C86.1998 34.0639 86.8878 33.3919 87.7518 32.9119C88.6264 32.4213 89.5811 32.1759 90.6158 32.1759C91.6611 32.1759 92.6158 32.4213 93.4798 32.9119C94.3544 33.3919 95.0424 34.0639 95.5438 34.9279C96.0451 35.7919 96.2958 36.7679 96.2958 37.8559C96.2958 38.9439 96.0451 39.9253 95.5438 40.7999C95.0424 41.6639 94.3544 42.3413 93.4798 42.8319C92.6158 43.3119 91.6611 43.5519 90.6158 43.5519ZM90.6158 41.9679C91.3518 41.9679 92.0078 41.8026 92.5838 41.4719C93.1598 41.1306 93.6078 40.6506 93.9278 40.0319C94.2584 39.4026 94.4238 38.6773 94.4238 37.8559C94.4238 37.0346 94.2584 36.3146 93.9278 35.6959C93.6078 35.0773 93.1598 34.6026 92.5838 34.2719C92.0078 33.9413 91.3518 33.7759 90.6158 33.7759C89.8798 33.7759 89.2238 33.9413 88.6478 34.2719C88.0718 34.6026 87.6184 35.0773 87.2878 35.6959C86.9678 36.3146 86.8078 37.0346 86.8078 37.8559C86.8078 38.6773 86.9678 39.4026 87.2878 40.0319C87.6184 40.6506 88.0718 41.1306 88.6478 41.4719C89.2238 41.8026 89.8798 41.9679 90.6158 41.9679ZM112.571 32.3199L109.275 43.4399H107.211L104.875 35.0239L102.395 43.4399L100.347 43.4559L97.1946 32.3199H99.1306L101.435 41.3759L103.931 32.3199H105.979L108.299 41.3279L110.619 32.3199H112.571ZM123.211 43.4399H121.387L115.899 35.1359V43.4399H114.075V32.3039H115.899L121.387 40.5919V32.3039H123.211V43.4399ZM127.43 41.9679H131.19V43.4399H125.606V32.3199H127.43V41.9679ZM137.788 43.5519C136.753 43.5519 135.798 43.3119 134.924 42.8319C134.06 42.3413 133.372 41.6639 132.86 40.7999C132.358 39.9253 132.108 38.9439 132.108 37.8559C132.108 36.7679 132.358 35.7919 132.86 34.9279C133.372 34.0639 134.06 33.3919 134.924 32.9119C135.798 32.4213 136.753 32.1759 137.788 32.1759C138.833 32.1759 139.788 32.4213 140.652 32.9119C141.526 33.3919 142.214 34.0639 142.716 34.9279C143.217 35.7919 143.468 36.7679 143.468 37.8559C143.468 38.9439 143.217 39.9253 142.716 40.7999C142.214 41.6639 141.526 42.3413 140.652 42.8319C139.788 43.3119 138.833 43.5519 137.788 43.5519ZM137.788 41.9679C138.524 41.9679 139.18 41.8026 139.756 41.4719C140.332 41.1306 140.78 40.6506 141.1 40.0319C141.43 39.4026 141.596 38.6773 141.596 37.8559C141.596 37.0346 141.43 36.3146 141.1 35.6959C140.78 35.0773 140.332 34.6026 139.756 34.2719C139.18 33.9413 138.524 33.7759 137.788 33.7759C137.052 33.7759 136.396 33.9413 135.82 34.2719C135.244 34.6026 134.79 35.0773 134.46 35.6959C134.14 36.3146 133.98 37.0346 133.98 37.8559C133.98 38.6773 134.14 39.4026 134.46 40.0319C134.79 40.6506 135.244 41.1306 135.82 41.4719C136.396 41.8026 137.052 41.9679 137.788 41.9679ZM151.967 41.1679H147.311L146.511 43.4399H144.607L148.591 32.3039H150.703L154.687 43.4399H152.767L151.967 41.1679ZM151.455 39.6799L149.647 34.5119L147.823 39.6799H151.455ZM160.051 32.3199C161.235 32.3199 162.269 32.5493 163.155 33.0079C164.051 33.4559 164.739 34.1066 165.219 34.9599C165.709 35.8026 165.955 36.7893 165.955 37.9199C165.955 39.0506 165.709 40.0319 165.219 40.8639C164.739 41.6959 164.051 42.3359 163.155 42.7839C162.269 43.2213 161.235 43.4399 160.051 43.4399H156.419V32.3199H160.051ZM160.051 41.9519C161.352 41.9519 162.349 41.5999 163.043 40.8959C163.736 40.1919 164.083 39.1999 164.083 37.9199C164.083 36.6293 163.736 35.6213 163.043 34.8959C162.349 34.1706 161.352 33.8079 160.051 33.8079H158.243V41.9519H160.051Z" fill="white"/>
</g>
<defs>
<linearGradient id="paint0_linear_63_11581" x1="98.4395" y1="-1.7995e-08" x2="98.4395" y2="60" gradientUnits="userSpaceOnUse">
<stop stop-color="white"/>
<stop offset="1" stop-color="white" stop-opacity="0"/>
</linearGradient>
<clipPath id="clip0_63_11581">
<rect width="196" height="60" fill="white"/>
</clipPath>
</defs>
</svg>
