<svg width="196" height="60" viewBox="0 0 196 60" fill="none" xmlns="http://www.w3.org/2000/svg">
<g clip-path="url(#clip0_1_36)">
<path d="M188.402 0H8.47722C4.31423 0 0.939453 3.41452 0.939453 7.62655V52.3734C0.939453 56.5855 4.31423 60 8.47722 60H188.402C192.565 60 195.939 56.5855 195.939 52.3734V7.62655C195.939 3.41452 192.565 0 188.402 0Z" fill="black"/>
<path d="M74.9978 22.2841H69.274L68.0173 25.0943H67.2426L71.7821 15.109H72.5017L77.0412 25.0943H76.2665L74.9978 22.2841ZM74.7301 21.6745L72.1359 15.9111L69.5537 21.6745H74.7301Z" fill="white"/>
<path d="M84.1456 17.6484L80.818 25.0943H80.0993L76.7864 17.6484H77.5335L80.466 24.3097L83.4269 17.6484H84.1456Z" fill="white"/>
<path d="M90.039 18.2971C90.5273 18.7674 90.7715 19.4591 90.7715 20.3724V25.0942H90.0949V23.767C89.8602 24.2046 89.5001 24.5601 89.0621 24.7868C88.611 25.0295 88.0708 25.1508 87.4413 25.1508C86.6236 25.1508 85.9775 24.9557 85.503 24.5656C85.2733 24.3834 85.0893 24.1491 84.9656 23.8816C84.842 23.6142 84.7822 23.321 84.7911 23.0259C84.7911 22.4076 85.0095 21.906 85.4462 21.5211C85.8828 21.1361 86.5809 20.9434 87.5403 20.9428H90.0631V20.3436C90.0631 19.647 89.8775 19.1192 89.5062 18.7604C89.1349 18.4016 88.5924 18.2211 87.8786 18.2187C87.3993 18.2168 86.9238 18.3039 86.4756 18.4756C86.0577 18.629 85.6725 18.8613 85.3403 19.1601L84.9882 18.6463C85.3752 18.3014 85.8257 18.0371 86.3138 17.8687C86.8344 17.683 87.3825 17.5891 87.9345 17.5908C88.8486 17.5908 89.5501 17.8263 90.039 18.2971ZM89.1008 24.138C89.5423 23.8359 89.8798 23.4021 90.0665 22.897V21.5036H87.5575C86.8334 21.5036 86.3095 21.6369 85.9858 21.9034C85.6622 22.1698 85.4998 22.5345 85.4987 22.9972C85.4901 23.218 85.5342 23.4376 85.6274 23.6374C85.7206 23.8372 85.8601 24.0113 86.034 24.145C86.3915 24.426 86.8945 24.5662 87.5429 24.5656C88.154 24.5656 88.6733 24.4231 89.1008 24.138Z" fill="white"/>
<path d="M93.6196 15.6726C93.5642 15.621 93.5202 15.5581 93.4905 15.488C93.4608 15.4179 93.4462 15.3422 93.4475 15.266C93.4475 15.1891 93.4624 15.1131 93.4915 15.0421C93.5206 14.9712 93.5632 14.9067 93.6169 14.8524C93.6707 14.7982 93.7344 14.7552 93.8046 14.7258C93.8748 14.6965 93.95 14.6815 94.0259 14.6816C94.1013 14.6803 94.1763 14.6941 94.2465 14.7222C94.3166 14.7503 94.3806 14.7921 94.4347 14.8453C94.4901 14.897 94.5341 14.96 94.5638 15.03C94.5934 15.1001 94.6081 15.1758 94.6069 15.252C94.6071 15.3288 94.5923 15.4049 94.5634 15.4759C94.5344 15.5469 94.4919 15.6114 94.4382 15.6657C94.3845 15.72 94.3208 15.7631 94.2506 15.7924C94.1804 15.8216 94.1052 15.8366 94.0293 15.8364C93.9537 15.8381 93.8785 15.8245 93.8081 15.7964C93.7378 15.7683 93.6737 15.7262 93.6196 15.6726ZM93.6756 17.6486H94.3805V25.0945H93.6756V17.6486Z" fill="white"/>
<path d="M97.3552 14.5098H98.0601V25.0943H97.3552V14.5098Z" fill="white"/>
<path d="M105.616 18.2974C106.105 18.7677 106.35 19.4595 106.35 20.3727V25.0945H105.673V23.7673C105.438 24.2047 105.078 24.5601 104.64 24.7871C104.189 25.0298 103.649 25.1511 103.019 25.1511C102.201 25.1511 101.555 24.9561 101.08 24.5659C100.862 24.3803 100.685 24.1493 100.562 23.8886C100.439 23.628 100.372 23.3436 100.367 23.0548C100.362 22.7659 100.417 22.4793 100.531 22.2142C100.644 21.9491 100.813 21.7116 101.024 21.5179C101.461 21.1318 102.159 20.939 103.118 20.9396H105.641V20.3405C105.641 19.6438 105.456 19.116 105.085 18.7572C104.713 18.3984 104.17 18.2179 103.456 18.2156C102.977 18.2137 102.501 18.3008 102.053 18.4725C101.635 18.6258 101.25 18.8581 100.919 19.157L100.566 18.6432C100.953 18.2982 101.403 18.034 101.891 17.8655C102.412 17.6798 102.961 17.5858 103.513 17.5877C104.427 17.59 105.128 17.8266 105.616 18.2974ZM104.679 24.1383C105.121 23.8362 105.458 23.4024 105.645 22.8973V21.504H103.135C102.411 21.504 101.887 21.6372 101.563 21.9037C101.24 22.1702 101.078 22.5348 101.078 22.9975C101.069 23.2183 101.113 23.4379 101.207 23.6377C101.3 23.8375 101.439 24.0117 101.613 24.1453C101.97 24.4263 102.473 24.5665 103.122 24.5659C103.733 24.5659 104.252 24.4234 104.679 24.1383Z" fill="white"/>
<path d="M114.808 18.069C115.358 18.3834 115.81 18.8478 116.112 19.4093C116.434 20.0113 116.596 20.6871 116.585 21.3713C116.597 22.0531 116.434 22.7265 116.112 23.3255C115.808 23.8851 115.356 24.3489 114.808 24.6658C114.242 24.9926 113.599 25.1601 112.947 25.1509C112.321 25.1593 111.704 24.9939 111.164 24.6728C110.635 24.3571 110.207 23.8943 109.93 23.3395V25.0943H109.255V14.5098H109.96V19.3457C110.239 18.8069 110.664 18.3597 111.185 18.0559C111.721 17.7448 112.33 17.5848 112.947 17.5926C113.598 17.5831 114.24 17.7474 114.808 18.069ZM114.428 24.1093C114.877 23.845 115.246 23.4602 115.492 22.9972C115.747 22.4938 115.88 21.9364 115.88 21.3709C115.88 20.8054 115.747 20.248 115.492 19.7445C115.245 19.2818 114.877 18.897 114.428 18.6324C113.965 18.3628 113.439 18.2247 112.905 18.2327C112.373 18.2241 111.849 18.3623 111.389 18.6324C110.943 18.8987 110.578 19.2833 110.332 19.7445C110.077 20.2478 109.944 20.8053 109.944 21.3709C109.944 21.9365 110.077 22.4939 110.332 22.9972C110.577 23.4588 110.943 23.8434 111.389 24.1093C111.849 24.3794 112.373 24.5176 112.905 24.509C113.439 24.517 113.965 24.3789 114.428 24.1093Z" fill="white"/>
<path d="M118.77 14.5098H119.475V25.0943H118.77V14.5098Z" fill="white"/>
<path d="M128.667 21.5394H122.338C122.347 22.0851 122.498 22.6189 122.775 23.0869C123.042 23.5317 123.425 23.8933 123.882 24.1319C124.368 24.3843 124.908 24.5117 125.454 24.5029C125.911 24.5082 126.364 24.4193 126.786 24.2417C127.186 24.0727 127.537 23.8053 127.809 23.464L128.217 23.9351C127.893 24.3284 127.48 24.6367 127.012 24.8339C126.447 25.066 125.838 25.1707 125.229 25.1406C124.619 25.1106 124.024 24.9464 123.483 24.6597C122.921 24.3472 122.455 23.8834 122.137 23.3194C121.806 22.7233 121.639 22.0488 121.651 21.3652C121.64 20.6876 121.798 20.018 122.109 19.418C122.398 18.8594 122.835 18.3929 123.371 18.0699C123.919 17.7531 124.539 17.5859 125.171 17.5847C125.802 17.5835 126.423 17.7483 126.973 18.0629C127.504 18.3819 127.939 18.8433 128.228 19.3962C128.539 19.9937 128.697 20.661 128.686 21.3365L128.667 21.5394ZM123.774 18.5654C123.362 18.7974 123.018 19.1373 122.78 19.5494C122.527 19.9861 122.379 20.4774 122.35 20.9829H127.988C127.969 20.4789 127.824 19.9881 127.566 19.5564C127.318 19.1398 126.966 18.7966 126.545 18.5613C126.125 18.3261 125.65 18.207 125.17 18.2162C124.682 18.2097 124.202 18.3309 123.774 18.568V18.5654Z" fill="white"/>
<path d="M135.483 24.6657C134.929 24.3482 134.472 23.8816 134.164 23.3176C133.849 22.7181 133.685 22.0497 133.685 21.3708C133.685 20.692 133.849 20.0235 134.164 19.424C134.472 18.86 134.929 18.3934 135.483 18.0759C136.06 17.7576 136.707 17.5908 137.365 17.5908C138.022 17.5908 138.669 17.7576 139.247 18.0759C139.8 18.3937 140.257 18.8603 140.565 19.424C140.879 20.0235 141.044 20.692 141.044 21.3708C141.044 22.0497 140.879 22.7181 140.565 23.3176C140.257 23.8814 139.8 24.3479 139.247 24.6657C138.669 24.984 138.022 25.1508 137.365 25.1508C136.707 25.1508 136.06 24.984 135.483 24.6657ZM138.88 24.1092C139.327 23.8436 139.692 23.4589 139.937 22.9972C140.192 22.4939 140.325 21.9364 140.325 21.3708C140.325 20.8052 140.192 20.2477 139.937 19.7445C139.692 19.2829 139.326 18.8982 138.88 18.6324C138.417 18.3703 137.895 18.2327 137.364 18.2327C136.834 18.2327 136.312 18.3703 135.849 18.6324C135.403 18.8987 135.037 19.2832 134.792 19.7445C134.537 20.2479 134.404 20.8053 134.404 21.3708C134.404 21.9363 134.537 22.4937 134.792 22.9972C135.037 23.4591 135.404 23.8438 135.851 24.1092C136.314 24.3713 136.836 24.5089 137.367 24.5089C137.898 24.5089 138.419 24.3713 138.883 24.1092H138.88Z" fill="white"/>
<path d="M149.009 18.4045C149.546 18.9462 149.814 19.7259 149.813 20.7437V25.098H149.106V20.8003C149.106 19.9642 148.897 19.3273 148.479 18.8896C148.061 18.4518 147.476 18.2321 146.726 18.2303C145.86 18.2303 145.179 18.4916 144.681 19.0141C144.184 19.5366 143.935 20.2403 143.934 21.1251V25.091H143.229V17.6451H143.906V19.2562C144.153 18.7406 144.549 18.313 145.041 18.03C145.544 17.7351 146.138 17.5876 146.825 17.5876C147.746 17.59 148.474 17.8623 149.009 18.4045Z" fill="white"/>
<path d="M159.991 24.6234C159.8 24.8029 159.571 24.9368 159.321 25.0153C159.051 25.1062 158.768 25.1521 158.483 25.1511C157.844 25.1511 157.35 24.9729 157.003 24.6164C156.655 24.2599 156.481 23.763 156.481 23.1255V18.2617H155.131V17.6521H156.485V16.0219H157.189V17.6486H159.53V18.2582H157.189V23.048C157.189 23.5333 157.304 23.902 157.534 24.154C157.763 24.406 158.104 24.5319 158.556 24.5319C158.975 24.5473 159.384 24.3992 159.698 24.1183L159.991 24.6234Z" fill="white"/>
<path d="M167.732 18.4043C168.267 18.946 168.535 19.7257 168.535 20.7434V25.0977H167.83V20.8C167.83 19.964 167.621 19.3271 167.202 18.8893C166.784 18.4516 166.199 18.2318 165.447 18.2301C164.583 18.2301 163.901 18.4914 163.403 19.0139C162.905 19.5364 162.656 20.2401 162.656 21.1249V25.0908H161.951V14.5098H162.656V19.2029C162.902 18.6978 163.295 18.2818 163.784 18.0115C164.282 17.7311 164.869 17.5909 165.546 17.5909C166.464 17.5909 167.193 17.862 167.732 18.4043Z" fill="white"/>
<path d="M177.67 21.5394H171.34C171.349 22.0851 171.5 22.6189 171.777 23.0869C172.044 23.5317 172.427 23.8933 172.884 24.1319C173.37 24.3843 173.91 24.5117 174.456 24.5029C174.913 24.5082 175.366 24.4193 175.788 24.2417C176.188 24.0727 176.539 23.8053 176.811 23.464L177.219 23.9351C176.895 24.3284 176.482 24.6367 176.014 24.8339C175.449 25.066 174.84 25.1707 174.231 25.1406C173.621 25.1106 173.026 24.9464 172.485 24.6597C171.923 24.3472 171.457 23.8834 171.139 23.3194C170.808 22.7233 170.641 22.0488 170.653 21.3652C170.642 20.6876 170.8 20.018 171.111 19.418C171.401 18.8594 171.837 18.3929 172.373 18.0699C172.921 17.7531 173.541 17.5859 174.173 17.5847C174.804 17.5835 175.425 17.7483 175.975 18.0629C176.507 18.3819 176.941 18.8433 177.23 19.3962C177.541 19.9937 177.699 20.661 177.688 21.3365L177.67 21.5394ZM172.776 18.568C172.364 18.8 172.021 19.1399 171.782 19.5521C171.529 19.9888 171.381 20.48 171.352 20.9855H176.994C176.975 20.4815 176.829 19.9907 176.571 19.559C176.323 19.1424 175.971 18.7992 175.551 18.564C175.13 18.3287 174.656 18.2096 174.175 18.2188C173.687 18.2109 173.205 18.3312 172.776 18.568Z" fill="white"/>
<path d="M76.4164 38.4209H78.781V43.849C78.0578 44.4235 77.2366 44.8588 76.358 45.1331C75.4377 45.4308 74.4772 45.5818 73.511 45.5806C72.1385 45.5806 70.9013 45.279 69.7992 44.6757C68.7233 44.0989 67.825 43.2338 67.2026 42.1751C66.574 41.1113 66.2597 39.9111 66.2597 38.5746C66.2597 37.2381 66.574 36.0382 67.2026 34.9749C67.8271 33.9146 68.7288 33.0493 69.8084 32.4742C70.917 31.871 72.1641 31.5693 73.5497 31.5693C74.6775 31.5693 75.7034 31.7574 76.6273 32.1335C77.522 32.4898 78.3199 33.0568 78.9547 33.7875L77.3747 35.3462C76.3491 34.3085 75.1118 33.7894 73.6629 33.7889C72.7137 33.7889 71.8699 33.99 71.1317 34.3922C70.4086 34.7805 69.8085 35.3674 69.4005 36.0854C68.9838 36.8124 68.7755 37.6424 68.7755 38.5753C68.7627 39.4347 68.9786 40.2816 69.4005 41.0276C69.8109 41.7486 70.4099 42.3411 71.1317 42.7399C71.8685 43.1554 72.7053 43.3631 73.6418 43.3631C74.6932 43.3631 75.6165 43.1295 76.4115 42.6624L76.4164 38.4209Z" fill="white"/>
<path d="M83.6481 44.845C82.8343 44.4102 82.1578 43.7527 81.6955 42.9477C81.2267 42.1367 80.9923 41.2187 80.9923 40.1938C80.9923 39.1689 81.2267 38.2543 81.6955 37.4499C82.16 36.6489 82.8362 35.995 83.6481 35.5618C84.481 35.1079 85.4171 34.881 86.4564 34.881C87.5073 34.881 88.4497 35.1079 89.2837 35.5618C90.0947 35.9943 90.7706 36.6469 91.2355 37.4463C91.7043 38.2526 91.9387 39.1672 91.9387 40.1902C91.9387 41.2133 91.7043 42.1312 91.2355 42.9441C90.7738 43.7503 90.0975 44.409 89.2837 44.845C88.4497 45.2989 87.5073 45.5258 86.4564 45.5258C85.4176 45.5244 84.4815 45.2975 83.6481 44.845ZM88.6487 42.5486C89.2262 41.9515 89.5148 41.1665 89.5143 40.1938C89.5138 39.2211 89.2253 38.4361 88.6487 37.839C88.0717 37.2419 87.3409 36.9436 86.4564 36.9441C85.5718 36.9445 84.8441 37.2429 84.2731 37.839C83.7022 38.4361 83.417 39.2211 83.4174 40.1938C83.4179 41.1665 83.7031 41.9515 84.2731 42.5486C84.8436 43.1457 85.5714 43.444 86.4564 43.4435C87.3414 43.4431 88.0722 43.144 88.6487 42.5464V42.5486Z" fill="white"/>
<path d="M96.0534 44.845C95.2399 44.4102 94.5635 43.7527 94.1015 42.9477C93.6328 42.1367 93.3984 41.2187 93.3984 40.1938C93.3984 39.1689 93.6328 38.2543 94.1015 37.4499C94.5657 36.649 95.2417 35.995 96.0534 35.5618C96.8873 35.1079 97.8234 34.881 98.8617 34.881C99.9126 34.881 100.855 35.1079 101.689 35.5618C102.5 35.9941 103.177 36.6467 103.642 37.4463C104.11 38.2526 104.345 39.1672 104.345 40.1902C104.345 41.2133 104.11 42.1312 103.642 42.9441C103.18 43.7505 102.503 44.4092 101.689 44.845C100.856 45.2989 99.9136 45.5258 98.8617 45.5258C97.8234 45.5244 96.8873 45.2975 96.0534 44.845ZM101.055 42.5486C101.631 41.9515 101.92 41.1665 101.92 40.1938C101.921 39.2211 101.632 38.4361 101.055 37.839C100.477 37.2419 99.7462 36.9436 98.8617 36.9441C97.9772 36.9445 97.2506 37.2429 96.682 37.839C96.112 38.4361 95.8268 39.2211 95.8263 40.1938C95.8258 41.1665 96.111 41.9515 96.682 42.5486C97.2529 43.1457 97.9795 43.444 98.8617 43.4435C99.7439 43.4431 100.475 43.144 101.055 42.5464V42.5486Z" fill="white"/>
<path d="M116.846 34.9955V43.8113C116.846 47.4698 114.999 49.2991 111.306 49.2991C110.357 49.3044 109.412 49.1765 108.498 48.9192C107.613 48.6669 106.882 48.3005 106.305 47.8201L107.382 45.9911C107.831 46.3667 108.398 46.6683 109.085 46.896C109.758 47.1204 110.462 47.2352 111.171 47.236C112.3 47.236 113.127 46.9766 113.653 46.4577C114.178 45.9389 114.441 45.1476 114.441 44.0838V43.5388C114.026 43.9952 113.513 44.3483 112.941 44.5704C112.321 44.8092 111.662 44.9279 110.998 44.9204C110.024 44.9204 109.142 44.7096 108.353 44.2879C107.58 43.8817 106.934 43.2659 106.488 42.5094C106.033 41.7439 105.805 40.8682 105.805 39.8822C105.805 38.8961 106.033 38.0237 106.488 37.2649C106.935 36.5133 107.581 35.9032 108.353 35.5034C109.142 35.0889 110.024 34.8814 110.998 34.8809C111.692 34.872 112.381 34.9976 113.028 35.2509C113.624 35.4883 114.151 35.8768 114.556 36.3792V34.9955H116.846ZM113.604 42.0306C114.188 41.4795 114.48 40.7627 114.48 39.88C114.48 39.0112 114.188 38.3043 113.604 37.7593C113.021 37.2144 112.274 36.9419 111.363 36.9419C110.441 36.9419 109.688 37.2144 109.104 37.7593C108.519 38.3043 108.228 39.0112 108.229 39.88C108.229 40.7631 108.52 41.48 109.104 42.0306C109.687 42.5813 110.44 42.8568 111.363 42.8573C112.274 42.8573 113.021 42.5817 113.604 42.0306Z" fill="white"/>
<path d="M119.999 30.9476H122.404V45.3893H119.999V30.9476Z" fill="white"/>
<path d="M135.172 40.9701H127.116C127.235 41.6997 127.632 42.3529 128.222 42.7899C128.818 43.2371 129.558 43.4607 130.443 43.4607C131.571 43.4607 132.501 43.0846 133.232 42.3324L134.521 43.8307C134.052 44.3941 133.45 44.8291 132.771 45.0956C132.068 45.3801 131.273 45.5224 130.386 45.5224C129.257 45.5224 128.263 45.2955 127.405 44.8416C126.575 44.4155 125.883 43.7568 125.413 42.9443C124.945 42.1333 124.71 41.2153 124.71 40.1904C124.71 39.1778 124.938 38.2663 125.393 37.4557C125.838 36.6562 126.496 35.9989 127.291 35.5584C128.099 35.1045 129.009 34.8776 130.022 34.8776C131.022 34.8776 131.917 35.1014 132.705 35.5491C133.485 35.9882 134.126 36.6429 134.552 37.4365C134.994 38.2475 135.215 39.1849 135.216 40.2487C135.214 40.4187 135.2 40.6585 135.172 40.9701ZM128.07 37.5176C127.538 37.9781 127.214 38.5911 127.099 39.3566H132.922C132.819 38.6039 132.505 37.994 131.979 37.5269C131.454 37.0597 130.8 36.8261 130.017 36.8261C129.25 36.8252 128.601 37.0557 128.07 37.5176Z" fill="white"/>
<path d="M151.648 32.3492C152.514 32.7386 153.178 33.2963 153.639 34.0224C154.1 34.7486 154.331 35.6115 154.332 36.6113C154.332 37.5973 154.101 38.4567 153.639 39.1894C153.177 39.9222 152.514 40.4832 151.648 40.8726C150.783 41.262 149.766 41.4567 148.6 41.4567H145.561V45.388H143.06V31.7651H148.602C149.767 31.7651 150.783 31.9598 151.648 32.3492ZM150.966 38.6153C151.528 38.1486 151.81 37.4806 151.81 36.6113C151.81 35.7419 151.528 35.0737 150.966 34.6065C150.403 34.1389 149.576 33.9053 148.484 33.9058H145.561V39.3125H148.484C149.574 39.3149 150.401 39.0825 150.966 38.6153Z" fill="white"/>
<path d="M156.793 30.9476H159.198V45.3893H156.793V30.9476Z" fill="white"/>
<path d="M169.747 35.9786C170.549 36.7114 170.949 37.8174 170.949 39.2967V45.3878H168.68V44.1229C168.371 44.5885 167.932 44.9508 167.42 45.1637C166.875 45.4037 166.219 45.5237 165.451 45.5237C164.683 45.5237 164.01 45.3906 163.431 45.1246C162.891 44.8896 162.428 44.5052 162.095 44.0155C161.78 43.5411 161.616 42.981 161.624 42.4098C161.624 41.476 161.967 40.7268 162.652 40.1625C163.338 39.5981 164.419 39.3159 165.894 39.3159H168.548V39.1601C168.548 38.4335 168.333 37.8757 167.903 37.4868C167.474 37.0979 166.836 36.9032 165.99 36.9028C165.412 36.903 164.838 36.9949 164.288 37.1752C163.773 37.3336 163.292 37.5913 162.874 37.9343L161.932 36.1629C162.515 35.7256 163.174 35.4024 163.875 35.2096C164.656 34.9855 165.466 34.8741 166.279 34.8788C167.79 34.8788 168.946 35.2454 169.747 35.9786ZM167.555 43.3346C168.014 43.0662 168.365 42.6421 168.545 42.1373V40.9322H166.064C164.679 40.9322 163.987 41.393 163.987 42.3145C163.981 42.5194 164.025 42.7226 164.116 42.9059C164.206 43.0893 164.34 43.2471 164.506 43.3652C164.852 43.6251 165.333 43.7549 165.949 43.7544C166.512 43.7644 167.067 43.6193 167.555 43.3346Z" fill="white"/>
<path d="M183.452 34.9956L178.643 46.2246C178.194 47.3529 177.65 48.1475 177.008 48.6085C176.367 49.0695 175.591 49.2998 174.681 49.2993C174.164 49.2986 173.651 49.2131 173.161 49.046C172.707 48.9035 172.287 48.6649 171.93 48.346L172.892 46.5525C173.13 46.7778 173.407 46.9559 173.71 47.0775C174.012 47.2051 174.335 47.2714 174.662 47.2725C175.084 47.2725 175.433 47.1622 175.71 46.9417C175.986 46.7211 176.24 46.3514 176.47 45.8326L176.643 45.4235L172.161 34.9928H174.662L177.893 42.6796L181.143 34.9928L183.452 34.9956Z" fill="white"/>
<path d="M58.0712 29.786L50.6418 25.4518L44.5314 31.4215L50.1156 36.8834L58.0712 32.2393C58.2839 32.1148 58.4604 31.936 58.5831 31.7207C58.7058 31.5054 58.7704 31.2612 58.7704 31.0126C58.7704 30.7641 58.7058 30.5199 58.5831 30.3046C58.4604 30.0893 58.2839 29.9105 58.0712 29.786Z" fill="white"/>
<path d="M49.3809 24.71L41.2046 19.935L23.2873 10.6451L43.5243 30.4377L49.3809 24.71Z" fill="white"/>
<path d="M23.5847 51.9092L41.2353 42.0722L48.8547 37.6219L43.5243 32.4086L23.5847 51.9092Z" fill="white"/>
<path d="M22.0918 11.4458L22.0724 51.4185L42.5172 31.4224L22.0918 11.4458Z" fill="white"/>
</g>
<rect x="1.43945" y="0.5" width="194" height="59" rx="9.5" stroke="url(#paint0_linear_1_36)" stroke-opacity="0.2"/>
<defs>
<linearGradient id="paint0_linear_1_36" x1="98.4395" y1="0" x2="98.4395" y2="60" gradientUnits="userSpaceOnUse">
<stop stop-color="white"/>
<stop offset="1" stop-color="white" stop-opacity="0"/>
</linearGradient>
<clipPath id="clip0_1_36">
<rect x="0.939453" width="195" height="60" rx="10" fill="white"/>
</clipPath>
</defs>
</svg>
