<svg width="699" height="806" viewBox="0 0 699 806" fill="none" xmlns="http://www.w3.org/2000/svg">
<g clip-path="url(#clip0_4_90)">
<path d="M359.935 261.442L259 203.332L359.935 145L460.869 203.332L359.935 261.442Z" fill="url(#paint0_radial_4_90)"/>
<path d="M359.935 260.865L260.001 203.331L359.935 145.577L459.869 203.331L359.935 260.865Z" stroke="url(#paint1_linear_4_90)" stroke-opacity="0.2"/>
<g style="mix-blend-mode:lighten">
<path d="M359.935 750.942V261.442L460.869 203.332V750.942H359.935Z" fill="url(#paint2_linear_4_90)" style="mix-blend-mode:lighten"/>
<path d="M360.435 750.442V261.731L460.369 204.197V750.442H360.435Z" stroke="url(#paint3_linear_4_90)" stroke-opacity="0.2"/>
</g>
<g style="mix-blend-mode:lighten">
<path d="M359.935 750.942V261.442L259 203.332V750.942H359.935Z" fill="url(#paint4_linear_4_90)" style="mix-blend-mode:lighten"/>
<path d="M259.5 204.197L359.435 261.731V750.442H259.5V204.197Z" stroke="url(#paint5_linear_4_90)" stroke-opacity="0.2"/>
</g>
<path d="M359.269 750.942L361.266 262.329L460.869 203.332L359.935 259.889L259 203.332L358.604 262.329L359.269 750.942Z" fill="url(#paint6_linear_4_90)"/>
<path d="M123.908 312.837L34.9999 262.016L123.908 211L212.816 262.016L123.908 312.837Z" fill="url(#paint7_radial_4_90)"/>
<path d="M123.908 312.261L36.006 262.015L123.908 211.576L211.81 262.015L123.908 312.261Z" stroke="url(#paint8_linear_4_90)" stroke-opacity="0.2"/>
<g style="mix-blend-mode:lighten">
<path d="M123.908 740.94V312.836L212.816 262.014V740.94H123.908Z" fill="url(#paint9_linear_4_90)" style="mix-blend-mode:lighten"/>
<path d="M124.408 740.44V313.126L212.316 262.876V740.44H124.408Z" stroke="url(#paint10_linear_4_90)" stroke-opacity="0.2"/>
</g>
<g style="mix-blend-mode:lighten">
<path d="M123.908 740.94V312.836L35.0001 262.014V740.94H123.908Z" fill="url(#paint11_linear_4_90)" style="mix-blend-mode:lighten"/>
<path d="M35.5001 262.876L123.408 313.126V740.44H35.5001V262.876Z" stroke="url(#paint12_linear_4_90)" stroke-opacity="0.2"/>
</g>
<path d="M123.322 740.94L125.081 313.611L212.816 262.014L123.908 311.478L34.9999 262.014L122.736 313.611L123.322 740.94Z" fill="url(#paint13_linear_4_90)"/>
<path d="M123.572 558.696L123.236 313.611L123.235 313.325L122.989 313.18L71.2857 282.774L123.665 311.915L123.908 312.05L124.151 311.915L176.531 282.773L124.827 313.18L124.582 313.325L124.581 313.609L123.572 558.696Z" stroke="url(#paint14_linear_4_90)" stroke-opacity="0.2"/>
<path d="M240.608 375.585L172 336.367L240.608 297L309.216 336.367L240.608 375.585Z" fill="url(#paint15_radial_4_90)"/>
<path d="M240.608 375.009L173.006 336.367L240.608 297.576L308.21 336.367L240.608 375.009Z" stroke="url(#paint16_linear_4_90)" stroke-opacity="0.2"/>
<g style="mix-blend-mode:lighten">
<path d="M240.608 705.94V375.584L309.216 336.366V705.94H240.608Z" fill="url(#paint17_linear_4_90)" style="mix-blend-mode:lighten"/>
<path d="M241.108 705.44V375.874L308.716 337.228V705.44H241.108Z" stroke="url(#paint18_linear_4_90)" stroke-opacity="0.2"/>
</g>
<g style="mix-blend-mode:lighten">
<path d="M240.608 705.94V375.584L172 336.366V705.94H240.608Z" fill="url(#paint19_linear_4_90)" style="mix-blend-mode:lighten"/>
<path d="M172.5 337.228L240.108 375.874V705.44H172.5V337.228Z" stroke="url(#paint20_linear_4_90)" stroke-opacity="0.2"/>
</g>
<path d="M240.156 705.94L241.513 376.182L309.216 336.366L240.608 374.536L172 336.366L239.703 376.182L240.156 705.94Z" fill="url(#paint21_linear_4_90)"/>
<path d="M241.259 375.751L241.014 375.896L241.013 376.18L240.406 523.696L240.203 376.182L240.203 375.896L239.957 375.751L208.286 357.126L240.365 374.973L240.608 375.108L240.851 374.973L272.93 357.126L241.259 375.751Z" stroke="url(#paint22_linear_4_90)" stroke-opacity="0.2"/>
<path d="M589.5 160.571L534 128.846L589.5 97L645 128.846L589.5 160.571Z" fill="url(#paint23_radial_4_90)"/>
<path d="M589.5 159.995L535.006 128.845L589.5 97.5765L643.994 128.845L589.5 159.995Z" stroke="url(#paint24_linear_4_90)" stroke-opacity="0.2"/>
<g style="mix-blend-mode:lighten">
<path d="M589.5 427.81V160.571L645 128.846V427.81H589.5Z" fill="url(#paint25_linear_4_90)" style="mix-blend-mode:lighten"/>
<path d="M590 427.31V160.861L644.5 129.707V427.31H590Z" stroke="url(#paint26_linear_4_90)" stroke-opacity="0.2"/>
</g>
<g style="mix-blend-mode:lighten">
<path d="M589.5 427.81V160.571L534 128.846V427.81H589.5Z" fill="url(#paint27_linear_4_90)" style="mix-blend-mode:lighten"/>
<path d="M534.5 129.707L589 160.861V427.31H534.5V129.707Z" stroke="url(#paint28_linear_4_90)" stroke-opacity="0.2"/>
</g>
<path d="M589.134 427.811L590.232 161.056L645 128.847L589.5 159.724L534 128.847L588.768 161.056L589.134 427.811Z" fill="url(#paint29_linear_4_90)"/>
<path d="M589.978 160.625L589.733 160.769L589.732 161.054L589.384 245.567L589.268 161.055L589.268 160.77L589.022 160.625L570.286 149.606L589.257 160.161L589.5 160.296L589.743 160.161L608.714 149.606L589.978 160.625Z" stroke="url(#paint30_linear_4_90)" stroke-opacity="0.2"/>
<path d="M510.935 344.442L410 286.332L510.935 228L611.869 286.332L510.935 344.442Z" fill="url(#paint31_radial_4_90)"/>
<path d="M510.935 343.865L411.001 286.331L510.935 228.577L610.869 286.331L510.935 343.865Z" stroke="url(#paint32_linear_4_90)" stroke-opacity="0.2"/>
<g style="mix-blend-mode:lighten">
<path d="M510.935 833.942V344.442L611.869 286.332V833.942H510.935Z" fill="url(#paint33_linear_4_90)" style="mix-blend-mode:lighten"/>
<path d="M511.435 833.442V344.731L611.369 287.197V833.442H511.435Z" stroke="url(#paint34_linear_4_90)" stroke-opacity="0.2"/>
</g>
<g style="mix-blend-mode:lighten">
<path d="M510.935 833.942V344.442L410 286.332V833.942H510.935Z" fill="url(#paint35_linear_4_90)" style="mix-blend-mode:lighten"/>
<path d="M410.5 287.197L510.435 344.731V833.442H410.5V287.197Z" stroke="url(#paint36_linear_4_90)" stroke-opacity="0.2"/>
</g>
<path d="M510.269 833.942L512.266 345.329L611.869 286.332L510.935 342.889L410 286.332L509.604 345.329L510.269 833.942Z" fill="url(#paint37_linear_4_90)"/>
<g style="mix-blend-mode:multiply">
<mask id="mask0_4_90" style="mask-type:luminance" maskUnits="userSpaceOnUse" x="308" y="169" width="102" height="59">
<path d="M358.8 227.554C386.856 227.554 409.6 214.446 409.6 198.277C409.6 182.108 386.856 169 358.8 169C330.744 169 308 182.108 308 198.277C308 214.446 330.744 227.554 358.8 227.554Z" fill="white"/>
</mask>
<g mask="url(#mask0_4_90)">
<path d="M414.48 166.117H303.12V230.459H414.48V166.117Z" fill="white"/>
<path d="M407.033 198.394C407.057 185.042 385.524 174.18 358.938 174.134C332.352 174.088 310.781 184.874 310.758 198.226C310.734 211.577 332.267 222.439 358.853 222.485C385.439 222.532 407.01 211.745 407.033 198.394Z" fill="white"/>
<path d="M406.812 198.393C406.835 185.042 385.401 174.18 358.938 174.134C332.474 174.088 311.003 184.874 310.979 198.226C310.956 211.578 332.39 222.439 358.853 222.485C385.317 222.531 406.788 211.745 406.812 198.393Z" fill="white"/>
<path d="M406.494 198.277C406.494 211.584 385.198 222.452 358.8 222.231C332.402 222.009 311.106 211.584 311.106 198.277C311.106 184.969 332.624 174.323 358.8 174.323C384.977 174.323 406.716 185.191 406.494 198.277Z" fill="white"/>
<path d="M406.368 198.393C406.391 185.163 385.156 174.402 358.937 174.356C332.719 174.31 311.446 184.998 311.423 198.227C311.4 211.456 332.635 222.218 358.854 222.264C385.072 222.309 406.345 211.622 406.368 198.393Z" fill="white"/>
<path d="M406.051 198.277C406.051 211.585 384.976 222.231 358.8 222.009C332.624 221.787 311.549 211.363 311.549 198.277C311.549 185.191 332.845 174.545 358.8 174.545C384.755 174.545 406.273 185.191 406.051 198.277Z" fill="white"/>
<path d="M405.924 198.392C405.947 185.285 384.91 174.623 358.937 174.578C332.964 174.532 311.89 185.121 311.867 198.228C311.844 211.334 332.881 221.996 358.854 222.042C384.827 222.087 405.901 211.498 405.924 198.392Z" fill="white"/>
<path d="M405.702 198.391C405.725 185.407 384.787 174.845 358.937 174.799C333.086 174.754 312.111 185.244 312.089 198.228C312.066 211.212 333.004 221.775 358.854 221.82C384.705 221.865 405.68 211.376 405.702 198.391Z" fill="white"/>
<path d="M405.481 198.391C405.503 185.407 384.665 174.844 358.937 174.8C333.208 174.755 312.333 185.244 312.31 198.228C312.288 211.213 333.126 221.775 358.854 221.82C384.583 221.865 405.458 211.375 405.481 198.391Z" fill="#FEFEFF"/>
<path d="M405.259 198.391C405.281 185.529 384.542 175.066 358.936 175.021C333.33 174.977 312.555 185.367 312.532 198.229C312.51 211.091 333.249 221.553 358.855 221.598C384.461 221.643 405.236 211.252 405.259 198.391Z" fill="#FEFEFE"/>
<path d="M405.163 198.277C405.163 211.141 384.311 221.565 358.8 221.565C333.289 221.565 312.659 211.141 312.659 198.277C312.659 185.413 333.289 174.989 358.8 174.989C384.311 174.989 405.163 185.413 405.163 198.277Z" fill="#FEFEFE"/>
<path d="M404.942 198.277C404.942 211.141 384.311 221.565 358.8 221.343C333.289 221.122 312.88 210.919 312.88 198.277C312.88 185.635 333.511 174.988 358.8 175.21C384.089 175.432 404.942 185.635 404.942 198.277Z" fill="#FEFEFE"/>
<path d="M404.593 198.389C404.616 185.65 384.174 175.287 358.936 175.243C333.698 175.199 313.22 185.49 313.198 198.23C313.175 210.969 333.617 221.332 358.855 221.376C384.093 221.42 404.571 211.129 404.593 198.389Z" fill="#FEFEFE"/>
<path d="M404.371 198.389C404.393 185.772 384.051 175.509 358.935 175.465C333.82 175.421 313.442 185.613 313.42 198.23C313.397 210.847 333.74 221.11 358.856 221.154C383.971 221.198 404.349 211.006 404.371 198.389Z" fill="#FDFDFE"/>
<path d="M404.276 198.277C404.276 210.919 383.867 221.122 358.8 221.122C333.733 221.122 313.546 210.919 313.546 198.277C313.546 185.635 333.955 175.432 358.8 175.432C383.645 175.432 404.276 185.856 404.276 198.277Z" fill="#FDFDFE"/>
<path d="M403.928 198.388C403.95 185.894 383.806 175.73 358.935 175.687C334.064 175.643 313.885 185.737 313.863 198.231C313.841 210.725 333.985 220.889 358.856 220.933C383.727 220.976 403.906 210.882 403.928 198.388Z" fill="#FDFDFE"/>
<path d="M403.706 198.388C403.728 185.894 383.683 175.73 358.935 175.687C334.187 175.644 314.107 185.737 314.085 198.231C314.063 210.726 334.108 220.89 358.856 220.933C383.604 220.976 403.684 210.882 403.706 198.388Z" fill="#FDFDFD"/>
<path d="M403.484 198.387C403.506 186.016 383.56 175.951 358.935 175.909C334.309 175.866 314.329 185.86 314.307 198.232C314.285 210.604 334.231 220.668 358.856 220.711C383.482 220.754 403.463 210.759 403.484 198.387Z" fill="#FDFCFD"/>
<path d="M403.262 198.387C403.284 186.015 383.438 175.951 358.935 175.908C334.432 175.866 314.55 185.86 314.529 198.232C314.507 210.604 334.353 220.668 358.856 220.711C383.36 220.753 403.241 210.759 403.262 198.387Z" fill="#FCFCFD"/>
<path d="M403.04 198.387C403.062 186.137 383.315 176.173 358.934 176.13C334.554 176.088 314.772 185.983 314.751 198.233C314.729 210.482 334.476 220.447 358.857 220.489C383.237 220.532 403.019 210.636 403.04 198.387Z" fill="#FCFCFD"/>
<path d="M403.04 198.387C403.062 186.137 383.315 176.173 358.934 176.13C334.554 176.088 314.772 185.983 314.751 198.233C314.729 210.482 334.476 220.447 358.857 220.489C383.237 220.532 403.019 210.636 403.04 198.387Z" fill="#FCFCFD"/>
<path d="M402.819 198.386C402.84 186.26 383.192 176.394 358.934 176.352C334.676 176.31 314.994 186.106 314.972 198.233C314.951 210.36 334.599 220.225 358.857 220.267C383.115 220.31 402.798 210.513 402.819 198.386Z" fill="#FBFBFC"/>
<path d="M402.597 198.386C402.618 186.259 383.069 176.394 358.934 176.352C334.798 176.31 315.215 186.106 315.194 198.233C315.173 210.36 334.722 220.225 358.857 220.267C382.993 220.309 402.576 210.513 402.597 198.386Z" fill="#FBFBFC"/>
<path d="M402.375 198.385C402.396 186.381 382.946 176.616 358.933 176.574C334.92 176.532 315.437 186.229 315.416 198.234C315.395 210.238 334.844 220.003 358.858 220.045C382.871 220.087 402.354 210.39 402.375 198.385Z" fill="#FBFBFC"/>
<path d="M402.153 198.385C402.174 186.381 382.824 176.616 358.933 176.574C335.043 176.532 315.659 186.23 315.638 198.234C315.617 210.239 334.967 220.004 358.857 220.045C382.748 220.087 402.132 210.389 402.153 198.385Z" fill="#FAFAFC"/>
<path d="M401.215 198.077C401.215 186.073 381.947 176.341 358.179 176.341C334.411 176.341 315.143 186.073 315.143 198.077C315.143 210.082 334.411 219.813 358.179 219.813C381.947 219.813 401.215 210.082 401.215 198.077Z" fill="#FAFAFB"/>
<path d="M401.709 198.384C401.73 186.503 382.579 176.837 358.933 176.796C335.288 176.754 316.102 186.353 316.082 198.235C316.061 210.117 335.212 219.782 358.858 219.824C382.503 219.865 401.689 210.266 401.709 198.384Z" fill="#FAFAFB"/>
<path d="M401.488 198.384C401.508 186.502 382.456 176.837 358.933 176.796C335.41 176.755 316.324 186.353 316.303 198.235C316.283 210.117 335.335 219.783 358.858 219.824C382.381 219.865 401.467 210.266 401.488 198.384Z" fill="#F9F9FB"/>
<path d="M401.266 198.383C401.286 186.624 382.333 177.058 358.933 177.017C335.532 176.977 316.546 186.476 316.525 198.236C316.505 209.995 335.458 219.561 358.858 219.602C382.259 219.643 401.245 210.143 401.266 198.383Z" fill="#F9F9FA"/>
<path d="M401.044 198.383C401.064 186.624 382.211 177.058 358.933 177.017C335.655 176.977 316.768 186.477 316.747 198.236C316.726 209.995 335.58 219.561 358.858 219.602C382.136 219.642 401.023 210.143 401.044 198.383Z" fill="#F9F8FA"/>
<path d="M400.822 198.383C400.842 186.746 382.088 177.28 358.932 177.239C335.777 177.199 316.989 186.6 316.969 198.236C316.949 209.873 335.703 219.34 358.859 219.38C382.014 219.42 400.802 210.02 400.822 198.383Z" fill="#F8F8FA"/>
<path d="M400.505 198.277C400.505 210.032 381.871 219.347 358.8 219.347C335.729 219.347 317.095 209.81 317.317 198.277C317.539 186.743 335.951 177.206 358.8 177.428C381.649 177.65 400.505 186.743 400.505 198.277Z" fill="#F8F8FA"/>
<path d="M400.378 198.382C400.399 186.868 381.842 177.501 358.932 177.461C336.021 177.421 317.433 186.723 317.412 198.237C317.392 209.752 335.949 219.118 358.859 219.158C381.769 219.198 400.358 209.896 400.378 198.382Z" fill="#F7F7F9"/>
<path d="M400.157 198.382C400.177 186.867 381.72 177.501 358.932 177.461C336.144 177.421 317.655 186.723 317.634 198.238C317.614 209.752 336.071 219.118 358.859 219.158C381.647 219.198 400.137 209.896 400.157 198.382Z" fill="#F7F7F9"/>
<path d="M399.839 198.277C399.839 209.81 381.427 218.904 358.8 218.904C336.173 218.904 317.761 209.588 317.761 198.277C317.761 186.965 336.173 177.65 358.8 177.65C381.427 177.65 399.839 186.965 399.839 198.277Z" fill="#F6F6F9"/>
<path d="M399.618 198.277C399.618 209.588 381.427 218.904 358.8 218.904C336.173 218.904 317.983 209.588 317.983 198.277C317.983 186.965 336.395 177.65 358.8 177.65C381.205 177.65 399.618 186.965 399.618 198.277Z" fill="#F6F6F8"/>
<path d="M399.396 198.277C399.396 209.588 381.205 218.682 358.8 218.682C336.395 218.682 318.204 209.588 318.204 198.277C318.204 186.965 336.395 177.872 358.8 177.872C381.205 177.872 399.396 186.965 399.396 198.277Z" fill="#F5F5F8"/>
<path d="M398.553 198.077C398.553 186.808 380.477 177.672 358.179 177.672C335.881 177.672 317.805 186.808 317.805 198.077C317.805 209.347 335.881 218.482 358.179 218.482C380.477 218.482 398.553 209.347 398.553 198.077Z" fill="#F5F5F8"/>
<path d="M399.048 198.38C399.067 187.233 381.106 178.165 358.931 178.126C336.755 178.088 318.763 187.093 318.744 198.24C318.724 209.386 336.685 218.454 358.86 218.493C381.036 218.532 399.028 209.527 399.048 198.38Z" fill="#F5F5F7"/>
<path d="M398.826 198.379C398.845 187.233 380.984 178.165 358.931 178.127C336.878 178.088 318.985 187.093 318.965 198.24C318.946 209.387 336.807 218.455 358.86 218.493C380.913 218.532 398.806 209.526 398.826 198.379Z" fill="#F4F4F7"/>
<path d="M398.604 198.379C398.623 187.355 380.861 178.387 358.93 178.348C337 178.31 319.206 187.216 319.187 198.24C319.168 209.265 336.93 218.233 358.861 218.271C380.791 218.309 398.585 209.403 398.604 198.379Z" fill="#F4F4F7"/>
<path d="M398.382 198.379C398.401 187.354 380.738 178.386 358.93 178.348C337.123 178.31 319.428 187.216 319.409 198.241C319.39 209.265 337.053 218.233 358.861 218.271C380.668 218.309 398.363 209.403 398.382 198.379Z" fill="#F3F3F6"/>
<path d="M398.065 198.277C398.065 209.366 380.54 218.016 358.8 218.016C337.06 218.016 319.535 209.145 319.535 198.277C319.535 187.409 337.282 178.537 358.8 178.537C380.318 178.537 398.065 187.409 398.065 198.277Z" fill="#F3F2F6"/>
<path d="M397.938 198.378C397.957 187.476 380.493 178.608 358.93 178.57C337.367 178.532 319.872 187.34 319.853 198.242C319.834 209.143 337.298 218.012 358.861 218.049C380.424 218.087 397.919 209.28 397.938 198.378Z" fill="#F2F2F5"/>
<path d="M397.716 198.377C397.735 187.598 380.37 178.829 358.93 178.792C337.489 178.754 320.093 187.462 320.075 198.242C320.056 209.021 337.421 217.79 358.861 217.828C380.302 217.865 397.698 209.157 397.716 198.377Z" fill="#F1F1F5"/>
<path d="M397.495 198.377C397.513 187.598 380.247 178.829 358.93 178.792C337.612 178.755 320.315 187.463 320.296 198.242C320.278 209.022 337.544 217.79 358.861 217.828C380.179 217.865 397.476 209.157 397.495 198.377Z" fill="#F1F1F5"/>
<path d="M397.273 198.377C397.291 187.72 380.124 179.051 358.929 179.014C337.734 178.977 320.537 187.586 320.518 198.243C320.5 208.9 337.667 217.569 358.862 217.606C380.057 217.643 397.254 209.034 397.273 198.377Z" fill="#F0F0F4"/>
<path d="M396.956 198.277C396.956 208.923 379.874 217.573 358.8 217.573C337.726 217.573 320.645 208.923 320.645 198.277C320.645 187.631 337.726 178.981 358.8 178.981C379.874 178.981 396.956 187.631 396.956 198.277Z" fill="#F0F0F4"/>
<path d="M396.734 198.277C396.734 208.923 379.874 217.351 358.8 217.351C337.726 217.351 320.866 208.701 320.866 198.277C320.866 187.853 337.948 179.203 358.8 179.203C379.652 179.203 396.956 187.853 396.734 198.277Z" fill="#EFEFF3"/>
<path d="M396.512 198.277C396.512 208.923 379.653 217.351 358.8 217.351C337.948 217.351 321.088 208.701 321.088 198.277C321.088 187.853 337.948 179.203 358.8 179.203C379.653 179.203 396.734 187.853 396.512 198.277Z" fill="#EFEFF3"/>
<path d="M396.385 198.375C396.404 187.963 379.634 179.493 358.928 179.457C338.223 179.421 321.424 187.832 321.406 198.244C321.387 208.656 338.157 217.126 358.863 217.162C379.568 217.198 396.367 208.787 396.385 198.375Z" fill="#EEEEF2"/>
<path d="M396.29 198.277C396.068 208.701 379.431 217.129 358.8 217.129C338.169 217.129 321.532 208.701 321.532 198.277C321.532 187.852 338.391 179.424 358.8 179.424C379.209 179.424 396.29 188.074 396.29 198.277Z" fill="#EEEDF2"/>
<path d="M396.068 198.277C395.846 208.701 379.431 216.908 358.8 216.908C338.169 216.908 321.754 208.479 321.754 198.277C321.754 188.074 338.391 179.646 358.8 179.646C379.209 179.646 396.068 188.074 396.068 198.277Z" fill="#EDEDF2"/>
<path d="M395.846 198.277C395.625 208.701 379.209 216.908 358.8 216.908C338.391 216.908 321.976 208.479 321.976 198.277C321.976 188.074 338.613 179.646 358.8 179.646C378.987 179.646 395.846 188.074 395.846 198.277Z" fill="#ECECF1"/>
<path d="M395.625 198.277C395.403 208.479 378.987 216.686 358.8 216.686C338.613 216.686 322.197 208.479 322.197 198.277C322.197 188.074 338.613 179.868 358.8 179.868C378.987 179.868 395.625 188.074 395.625 198.277Z" fill="#ECECF1"/>
<path d="M395.276 198.373C395.294 188.206 379.02 179.936 358.928 179.901C338.835 179.866 322.532 188.079 322.515 198.246C322.497 208.413 338.771 216.683 358.863 216.719C378.956 216.754 395.258 208.54 395.276 198.373Z" fill="#EBEBF0"/>
<path d="M395.054 198.373C395.072 188.328 378.897 180.157 358.927 180.122C338.957 180.088 322.754 188.202 322.737 198.246C322.719 208.291 338.894 216.462 358.864 216.497C378.834 216.532 395.037 208.417 395.054 198.373Z" fill="#EAEAF0"/>
<path d="M394.833 198.372C394.85 188.328 378.775 180.157 358.927 180.123C339.08 180.088 322.976 188.203 322.958 198.247C322.941 208.291 339.016 216.462 358.864 216.497C378.711 216.531 394.815 208.417 394.833 198.372Z" fill="#EAEAEF"/>
<path d="M394.737 198.277C394.737 208.258 378.543 216.242 358.8 216.242C339.057 216.242 323.085 208.258 323.085 198.277C323.085 188.296 339.057 180.312 358.8 180.312C378.543 180.312 394.737 188.296 394.737 198.277Z" fill="#E9E9EF"/>
<path d="M394.389 198.372C394.406 188.45 378.529 180.379 358.927 180.344C339.324 180.31 323.419 188.326 323.402 198.248C323.385 208.17 339.262 216.241 358.864 216.275C378.467 216.309 394.372 208.294 394.389 198.372Z" fill="#E8E8EE"/>
<path d="M394.293 198.277C394.293 208.257 378.321 216.02 358.8 216.02C339.279 216.02 323.528 208.036 323.528 198.277C323.528 188.518 339.279 180.533 358.8 180.533C378.321 180.533 394.293 188.518 394.293 198.277Z" fill="#E8E8EE"/>
<path d="M393.945 198.371C393.962 188.571 378.284 180.6 358.926 180.566C339.569 180.532 323.863 188.449 323.846 198.248C323.829 208.048 339.507 216.019 358.864 216.053C378.222 216.087 393.928 208.17 393.945 198.371Z" fill="#E7E7ED"/>
<path d="M393.85 198.277C393.85 208.036 378.1 215.799 358.8 215.799C339.5 215.799 323.972 208.036 323.972 198.277C323.972 188.518 339.5 180.755 358.8 180.755C378.1 180.755 393.85 188.74 393.85 198.277Z" fill="#E6E6ED"/>
<path d="M393.628 198.277C393.628 208.036 378.1 215.799 358.8 215.799C339.5 215.799 324.194 207.814 324.194 198.277C324.194 188.74 339.722 180.755 358.8 180.755C377.878 180.755 393.628 188.74 393.628 198.277Z" fill="#E6E6EC"/>
<path d="M393.28 198.37C393.296 188.815 377.916 181.043 358.926 181.01C339.936 180.977 324.528 188.695 324.511 198.25C324.495 207.804 339.875 215.576 358.865 215.61C377.855 215.643 393.263 207.924 393.28 198.37Z" fill="#E5E5EC"/>
<path d="M393.184 198.277C393.184 207.814 377.878 215.577 358.8 215.577C339.722 215.577 324.638 207.814 324.638 198.277C324.638 188.74 339.944 180.977 358.8 180.977C377.656 180.977 393.184 188.74 393.184 198.277Z" fill="#E4E4EB"/>
<path d="M392.963 198.277C392.963 207.814 377.656 215.577 358.8 215.355C339.944 215.133 324.859 207.814 324.859 198.277C324.859 188.74 340.166 181.199 358.8 181.199C377.434 181.199 392.963 188.962 392.963 198.277Z" fill="#E4E4EB"/>
<path d="M392.836 198.369C392.853 188.937 377.67 181.264 358.925 181.232C340.18 181.199 324.971 188.818 324.955 198.25C324.938 207.682 340.121 215.355 358.866 215.388C377.611 215.421 392.82 207.801 392.836 198.369Z" fill="#E3E3EA"/>
<path d="M392.614 198.369C392.631 189.059 377.547 181.486 358.925 181.453C340.303 181.421 325.193 188.941 325.177 198.251C325.161 207.56 340.244 215.134 358.866 215.166C377.488 215.199 392.598 207.678 392.614 198.369Z" fill="#E2E2EA"/>
<path d="M392.297 198.277C392.297 207.592 377.212 215.133 358.8 215.133C340.388 215.133 325.525 207.592 325.525 198.277C325.525 188.961 340.388 181.42 358.8 181.42C377.212 181.42 392.297 188.961 392.297 198.277Z" fill="#E1E1E9"/>
<path d="M392.171 198.368C392.187 189.181 377.302 181.707 358.924 181.675C340.547 181.643 325.636 189.065 325.62 198.252C325.604 207.439 340.489 214.912 358.866 214.944C377.244 214.976 392.155 207.555 392.171 198.368Z" fill="#E1E1E9"/>
<path d="M391.853 198.277C391.853 207.592 376.991 214.911 358.8 214.911C340.61 214.911 325.969 207.37 325.969 198.277C325.969 189.183 340.61 181.642 358.8 181.642C376.991 181.642 391.853 189.183 391.853 198.277Z" fill="#E0E0E8"/>
<path d="M391.632 198.277C391.632 207.37 376.991 214.911 358.8 214.69C340.61 214.468 326.19 207.37 326.19 198.277C326.19 189.183 340.832 181.864 358.8 181.864C376.769 181.864 391.632 189.183 391.632 198.277Z" fill="#DFDFE7"/>
<path d="M391.505 198.367C391.521 189.302 376.934 181.928 358.924 181.897C340.914 181.866 326.302 189.188 326.286 198.253C326.27 207.317 340.857 214.691 358.867 214.722C376.877 214.754 391.489 207.431 391.505 198.367Z" fill="#DEDEE7"/>
<path d="M391.188 198.277C391.188 207.37 376.769 214.69 358.8 214.468C340.831 214.246 326.634 207.149 326.634 198.277C326.634 189.405 341.053 182.086 358.8 182.086C376.547 182.086 391.188 189.405 391.188 198.277Z" fill="#DEDEE6"/>
<path d="M390.966 198.277C390.966 207.37 376.547 214.468 358.8 214.468C341.053 214.468 326.856 207.149 326.856 198.277C326.856 189.405 341.053 182.086 358.8 182.086C376.547 182.086 390.966 189.405 390.966 198.277Z" fill="#DDDDE6"/>
<path d="M390.744 198.277C390.744 207.149 376.547 214.468 358.8 214.246C341.053 214.024 326.856 207.149 327.078 198.277C327.3 189.405 341.275 182.308 358.8 182.308C376.325 182.308 390.744 189.405 390.744 198.277Z" fill="#DCDCE5"/>
<path d="M390.522 198.277C390.522 207.149 376.325 214.246 358.8 214.246C341.275 214.246 327.078 207.149 327.3 198.277C327.521 189.405 341.497 182.308 358.8 182.308C376.103 182.308 390.522 189.627 390.522 198.277Z" fill="#DBDBE4"/>
<path d="M390.301 198.277C390.301 207.149 376.325 214.246 358.8 214.024C341.275 213.803 327.3 206.927 327.521 198.277C327.743 189.627 341.497 182.53 358.8 182.53C376.103 182.53 390.301 189.627 390.301 198.277Z" fill="#DADAE4"/>
<path d="M390.079 198.277C390.079 206.927 376.103 214.024 358.8 214.024C341.497 214.024 327.521 206.927 327.521 198.277C327.521 189.627 341.719 182.53 358.8 182.53C375.881 182.53 390.079 189.627 390.079 198.277Z" fill="#DAD9E3"/>
<path d="M389.857 198.277C389.857 206.927 375.881 214.024 358.8 213.802C341.719 213.581 327.743 206.927 327.743 198.277C327.743 189.627 341.719 182.751 358.8 182.751C375.881 182.751 389.857 189.627 389.857 198.277Z" fill="#D9D9E3"/>
<path d="M389.635 198.277C389.635 206.927 375.881 213.802 358.8 213.802C341.719 213.802 327.965 206.705 327.965 198.277C327.965 189.849 341.941 182.751 358.8 182.751C375.659 182.751 389.635 189.849 389.635 198.277Z" fill="#D8D8E2"/>
<path d="M389.413 198.277C389.413 206.927 375.659 213.803 358.8 213.581C341.941 213.359 328.187 206.705 328.187 198.277C328.187 189.849 341.941 182.973 358.8 182.973C375.659 182.973 389.413 189.849 389.413 198.277Z" fill="#D7D7E1"/>
<path d="M389.191 198.277C389.191 206.705 375.659 213.581 358.8 213.581C341.941 213.581 328.409 206.705 328.409 198.277C328.409 189.849 342.162 182.973 358.8 182.973C375.438 182.973 389.191 189.849 389.191 198.277Z" fill="#D6D6E1"/>
<path d="M388.97 198.277C388.97 206.705 375.438 213.581 358.8 213.581C342.163 213.581 328.631 206.705 328.631 198.277C328.631 189.849 342.163 182.973 358.8 183.195C375.438 183.417 388.97 189.849 388.97 198.277Z" fill="#D5D5E0"/>
<path d="M388.748 198.277C388.748 206.705 375.438 213.359 358.8 213.359C342.162 213.359 328.852 206.483 328.852 198.277C328.852 190.07 342.384 183.195 358.8 183.195C375.216 183.195 388.748 190.07 388.748 198.277Z" fill="#D5D4E0"/>
<path d="M388.526 198.277C388.526 206.705 375.216 213.359 358.8 213.359C342.384 213.359 329.074 206.483 329.074 198.277C329.074 190.07 342.384 183.195 358.8 183.417C375.216 183.638 388.526 190.07 388.526 198.277Z" fill="#D4D4DF"/>
<path d="M388.304 198.277C388.304 206.483 375.216 213.137 358.8 213.137C342.384 213.137 329.296 206.483 329.296 198.277C329.296 190.071 342.606 183.417 358.8 183.417C374.994 183.417 388.304 190.071 388.304 198.277Z" fill="#D3D3DE"/>
<path d="M388.082 198.277C388.082 206.483 374.994 213.137 358.8 213.137C342.606 213.137 329.518 206.483 329.518 198.277C329.518 190.07 342.828 183.417 358.8 183.638C374.772 183.86 388.082 190.292 388.082 198.277Z" fill="#D2D2DE"/>
<path d="M387.86 198.277C387.86 206.483 374.994 212.915 358.8 212.915C342.606 212.915 329.74 206.261 329.74 198.277C329.74 190.292 342.828 183.638 358.8 183.638C374.772 183.638 387.86 190.292 387.86 198.277Z" fill="#D1D1DD"/>
<path d="M387.638 198.277C387.638 206.261 374.772 212.915 358.8 212.915C342.828 212.915 329.962 206.261 329.962 198.277C329.962 190.292 343.05 183.638 358.8 183.86C374.55 184.082 387.638 190.292 387.638 198.277Z" fill="#D0D0DC"/>
<path d="M387.417 198.277C387.417 206.262 374.55 212.694 358.8 212.694C343.05 212.694 330.183 206.262 330.183 198.277C330.183 190.292 343.05 183.86 358.8 183.86C374.55 183.86 387.417 190.292 387.417 198.277Z" fill="#CFCFDC"/>
<path d="M387.195 198.277C387.195 206.261 374.55 212.693 358.8 212.693C343.05 212.693 330.405 206.04 330.405 198.277C330.405 190.514 343.272 183.86 358.8 184.082C374.328 184.304 387.195 190.514 387.195 198.277Z" fill="#CECEDB"/>
<path d="M386.973 198.277C386.973 206.261 374.328 212.472 358.8 212.472C343.272 212.472 330.627 206.04 330.627 198.277C330.627 190.514 343.272 184.082 358.8 184.082C374.328 184.082 386.973 190.514 386.973 198.277Z" fill="#CECDDA"/>
<path d="M386.751 198.277C386.751 206.04 374.328 212.472 358.8 212.472C343.272 212.472 330.849 206.04 330.849 198.277C330.849 190.514 343.493 184.082 358.8 184.304C374.107 184.526 386.973 190.514 386.751 198.277Z" fill="#CDCCDA"/>
<path d="M386.529 198.277C386.529 206.04 374.107 212.25 358.8 212.25C343.494 212.25 331.071 206.04 331.071 198.277C331.071 190.514 343.494 184.304 358.8 184.304C374.107 184.304 386.751 190.514 386.529 198.277Z" fill="#CCCBD9"/>
<path d="M386.403 198.358C386.416 190.641 374.112 184.363 358.92 184.337C343.728 184.31 331.402 190.545 331.388 198.262C331.375 205.979 343.679 212.256 358.871 212.283C374.063 212.309 386.389 206.075 386.403 198.358Z" fill="#CBCAD8"/>
<path d="M386.307 198.277C386.086 206.04 373.885 212.028 358.8 212.028C343.715 212.028 331.514 205.818 331.514 198.277C331.514 190.736 343.715 184.526 358.8 184.526C373.885 184.526 386.307 190.736 386.307 198.277Z" fill="#CACAD8"/>
<path d="M386.086 198.277C385.864 205.818 373.885 212.028 358.8 212.028C343.715 212.028 331.736 205.818 331.736 198.277C331.736 190.736 343.937 184.526 358.8 184.747C373.663 184.969 386.086 190.736 386.086 198.277Z" fill="#C9C9D7"/>
<path d="M385.737 198.356C385.75 190.884 373.743 184.806 358.919 184.78C344.095 184.754 332.067 190.791 332.054 198.263C332.04 205.735 344.047 211.813 358.872 211.839C373.696 211.865 385.724 205.829 385.737 198.356Z" fill="#C8C8D6"/>
<path d="M385.516 198.356C385.529 190.884 373.621 184.806 358.919 184.78C344.217 184.755 332.288 190.791 332.275 198.263C332.262 205.735 344.17 211.814 358.872 211.839C373.574 211.865 385.503 205.828 385.516 198.356Z" fill="#C7C7D5"/>
<path d="M385.42 198.277C385.42 205.596 373.441 211.585 358.8 211.585C344.159 211.585 332.402 205.596 332.402 198.277C332.402 190.958 344.381 184.969 358.8 184.969C373.219 184.969 385.42 190.958 385.42 198.277Z" fill="#C6C6D5"/>
<path d="M385.198 198.277C385.198 205.596 373.441 211.585 358.8 211.585C344.159 211.585 332.624 205.596 332.624 198.277C332.624 190.958 344.381 184.969 358.8 184.969C373.219 184.969 385.198 190.958 385.198 198.277Z" fill="#C5C5D4"/>
<path d="M384.977 198.277C384.977 205.596 373.219 211.363 358.8 211.363C344.381 211.363 332.845 205.596 332.845 198.277C332.845 190.958 344.603 185.191 358.8 185.191C372.997 185.191 384.977 191.179 384.977 198.277Z" fill="#C4C4D3"/>
<path d="M384.755 198.277C384.755 205.596 372.997 211.363 358.8 211.363C344.603 211.363 333.067 205.374 333.067 198.277C333.067 191.179 344.603 185.191 358.8 185.191C372.997 185.191 384.755 191.179 384.755 198.277Z" fill="#C3C3D2"/>
<path d="M384.406 198.354C384.419 191.25 373.007 185.47 358.918 185.446C344.829 185.421 333.397 191.16 333.385 198.265C333.372 205.37 344.784 211.149 358.873 211.174C372.962 211.198 384.394 205.459 384.406 198.354Z" fill="#C2C2D2"/>
<path d="M384.311 198.277C384.311 205.374 372.776 211.141 358.8 211.141C344.825 211.141 333.511 205.374 333.511 198.277C333.511 191.179 344.825 185.413 358.8 185.413C372.776 185.413 384.311 191.179 384.311 198.277Z" fill="#C1C1D1"/>
<path d="M384.089 198.277C384.089 205.374 372.776 210.919 358.8 210.919C344.825 210.919 333.733 205.152 333.733 198.277C333.733 191.401 345.046 185.635 358.8 185.635C372.554 185.635 384.089 191.401 384.089 198.277Z" fill="#C0C0D0"/>
<path d="M383.867 198.277C383.867 205.374 372.554 210.919 358.8 210.919C345.046 210.919 333.955 205.152 333.955 198.277C333.955 191.401 345.046 185.635 358.8 185.635C372.554 185.635 383.867 191.401 383.867 198.277Z" fill="#BFBFCF"/>
<path d="M383.645 198.277C383.645 205.153 372.554 210.697 358.8 210.697C345.046 210.697 334.176 205.153 334.176 198.277C334.176 191.401 345.268 185.856 358.8 185.856C372.332 185.856 383.645 191.401 383.645 198.277Z" fill="#BEBECF"/>
<path d="M383.424 198.277C383.424 205.153 372.332 210.697 358.8 210.697C345.268 210.697 334.398 205.153 334.398 198.277C334.398 191.401 345.268 185.856 358.8 185.856C372.332 185.856 383.424 191.401 383.424 198.277Z" fill="#BDBDCE"/>
<path d="M383.202 198.277C383.202 205.152 372.332 210.475 358.8 210.475C345.268 210.475 334.62 204.931 334.62 198.277C334.62 191.623 345.49 186.078 358.8 186.078C372.11 186.078 383.202 191.623 383.202 198.277Z" fill="#BCBCCD"/>
<path d="M382.98 198.277C382.98 204.931 372.11 210.475 358.8 210.475C345.49 210.475 334.842 204.931 334.842 198.277C334.842 191.623 345.49 186.078 358.8 186.078C372.11 186.078 382.98 191.623 382.98 198.277Z" fill="#BBBACC"/>
<path d="M382.758 198.277C382.758 204.931 372.11 210.254 358.8 210.254C345.49 210.254 335.064 204.931 335.064 198.277C335.064 191.623 345.712 186.3 358.8 186.3C371.888 186.3 382.758 191.623 382.758 198.277Z" fill="#BAB9CC"/>
<path d="M382.536 198.277C382.536 204.931 371.888 210.254 358.8 210.254C345.712 210.254 335.286 204.931 335.286 198.277C335.286 191.623 345.934 186.3 358.8 186.3C371.666 186.3 382.536 191.845 382.536 198.277Z" fill="#B9B8CB"/>
<path d="M382.314 198.277C382.314 204.931 371.888 210.032 358.8 210.032C345.712 210.032 335.507 204.709 335.507 198.277C335.507 191.845 345.934 186.522 358.8 186.522C371.666 186.522 382.314 191.845 382.314 198.277Z" fill="#B8B7CA"/>
<path d="M382.093 198.277C382.093 204.709 371.666 210.032 358.8 210.032C345.934 210.032 335.729 204.709 335.729 198.277C335.729 191.845 346.155 186.522 358.8 186.522C371.445 186.522 382.093 191.845 382.093 198.277Z" fill="#B7B6C9"/>
<path d="M381.871 198.277C381.871 204.709 371.445 209.81 358.8 209.81C346.156 209.81 335.951 204.709 335.951 198.277C335.951 191.845 346.156 186.744 358.8 186.744C371.445 186.744 381.871 191.845 381.871 198.277Z" fill="#B5B5C8"/>
<path d="M381.649 198.277C381.649 204.709 371.445 209.81 358.8 209.81C346.156 209.81 336.173 204.487 336.173 198.277C336.173 192.067 346.377 186.744 358.8 186.744C371.223 186.744 381.649 192.067 381.649 198.277Z" fill="#B4B4C8"/>
<path d="M381.427 198.277C381.427 204.709 371.223 209.588 358.8 209.588C346.377 209.588 336.395 204.487 336.395 198.277C336.395 192.067 346.377 186.965 358.8 186.965C371.223 186.965 381.427 192.067 381.427 198.277Z" fill="#B3B3C7"/>
<path d="M381.205 198.277C381.205 204.487 371.223 209.588 358.8 209.588C346.377 209.588 336.617 204.487 336.617 198.277C336.617 192.067 346.599 186.965 358.8 186.965C371.001 186.965 381.205 192.067 381.205 198.277Z" fill="#B2B2C6"/>
<path d="M380.983 198.277C380.983 204.487 371.001 209.367 358.8 209.367C346.599 209.367 336.838 204.487 336.838 198.277C336.838 192.067 346.599 187.187 358.8 187.187C371.001 187.187 380.983 192.067 380.983 198.277Z" fill="#B1B1C5"/>
<path d="M380.762 198.277C380.762 204.487 371.001 209.367 358.8 209.367C346.599 209.367 337.06 204.265 337.06 198.277C337.06 192.289 346.821 187.187 358.8 187.187C370.779 187.187 380.762 192.289 380.762 198.277Z" fill="#B0B0C4"/>
<path d="M380.54 198.277C380.54 204.265 370.779 209.145 358.8 209.145C346.821 209.145 337.06 204.265 337.282 198.277C337.504 192.288 346.821 187.409 358.8 187.409C370.779 187.409 380.54 192.288 380.54 198.277Z" fill="#AFAFC4"/>
<path d="M380.318 198.277C380.318 204.265 370.779 209.145 358.8 209.145C346.821 209.145 337.282 204.265 337.282 198.277C337.282 192.288 347.043 187.409 358.8 187.409C370.557 187.409 380.318 192.288 380.318 198.277Z" fill="#AEADC3"/>
<path d="M380.096 198.277C380.096 204.265 370.557 208.923 358.8 208.923C347.043 208.923 337.504 204.265 337.504 198.277C337.504 192.288 347.043 187.631 358.8 187.631C370.557 187.631 380.096 192.51 380.096 198.277Z" fill="#ADACC2"/>
<path d="M379.874 198.277C379.874 204.265 370.557 208.923 358.8 208.923C347.043 208.923 337.726 204.043 337.726 198.277C337.726 192.51 347.265 187.631 358.8 187.631C370.335 187.631 379.874 192.51 379.874 198.277Z" fill="#ABABC1"/>
<path d="M379.652 198.277C379.652 204.044 370.335 208.701 358.8 208.701C347.265 208.701 337.948 204.044 337.948 198.277C337.948 192.51 347.487 187.853 358.8 187.853C370.114 187.853 379.652 192.51 379.652 198.277Z" fill="#AAAAC0"/>
<path d="M379.431 198.277C379.431 204.044 370.335 208.701 358.8 208.701C347.265 208.701 338.169 204.044 338.169 198.277C338.169 192.51 347.486 187.853 358.8 187.853C370.114 187.853 379.431 192.51 379.431 198.277Z" fill="#A9A9BF"/>
<path d="M379.209 198.277C379.209 204.043 370.114 208.479 358.8 208.479C347.486 208.479 338.391 203.822 338.391 198.277C338.391 192.732 347.708 188.074 358.8 188.074C369.892 188.074 379.209 192.732 379.209 198.277Z" fill="#A8A8BE"/>
<path d="M378.987 198.277C378.987 203.822 369.892 208.479 358.8 208.479C347.708 208.479 338.613 203.822 338.613 198.277C338.613 192.732 347.708 188.074 358.8 188.074C369.892 188.074 378.987 192.732 378.987 198.277Z" fill="#A7A6BE"/>
<path d="M378.765 198.277C378.765 203.822 369.892 208.258 358.8 208.258C347.708 208.258 338.835 203.822 338.835 198.277C338.835 192.732 347.93 188.296 358.8 188.296C369.67 188.296 378.765 192.732 378.765 198.277Z" fill="#A6A5BD"/>
<path d="M378.543 198.277C378.543 203.822 369.67 208.258 358.8 208.258C347.93 208.258 339.057 203.822 339.057 198.277C339.057 192.732 347.93 188.296 358.8 188.296C369.67 188.296 378.543 192.732 378.543 198.277Z" fill="#A5A4BC"/>
<path d="M378.322 198.277C378.322 203.822 369.67 208.036 358.8 208.036C347.93 208.036 339.279 203.6 339.279 198.277C339.279 192.954 348.152 188.518 358.8 188.518C369.448 188.518 378.322 192.954 378.322 198.277Z" fill="#A3A3BB"/>
<path d="M378.1 198.277C378.1 203.6 369.448 208.036 358.8 208.036C348.152 208.036 339.5 203.6 339.5 198.277C339.5 192.954 348.152 188.518 358.8 188.518C369.448 188.518 378.1 192.954 378.1 198.277Z" fill="#A2A2BA"/>
<path d="M377.878 198.277C377.878 203.6 369.448 207.814 358.8 207.814C348.152 207.814 339.722 203.6 339.722 198.277C339.722 192.954 348.374 188.74 358.8 188.74C369.226 188.74 377.878 192.954 377.878 198.277Z" fill="#A1A1B9"/>
<path d="M377.656 198.277C377.656 203.6 369.226 207.814 358.8 207.814C348.374 207.814 339.944 203.6 339.944 198.277C339.944 192.954 348.374 188.74 358.8 188.74C369.226 188.74 377.656 193.176 377.656 198.277Z" fill="#A09FB8"/>
<path d="M377.434 198.277C377.434 203.6 369.226 207.592 358.8 207.592C348.374 207.592 340.166 203.378 340.166 198.277C340.166 193.176 348.596 188.961 358.8 188.961C369.004 188.961 377.434 193.176 377.434 198.277Z" fill="#9F9EB7"/>
<path d="M377.212 198.277C377.212 203.378 369.004 207.592 358.8 207.592C348.596 207.592 340.388 203.378 340.388 198.277C340.388 193.176 348.596 188.961 358.8 188.961C369.004 188.961 377.212 193.176 377.212 198.277Z" fill="#9D9DB7"/>
<path d="M376.99 198.277C376.99 203.378 369.004 207.37 358.8 207.37C348.596 207.37 340.61 203.378 340.61 198.277C340.61 193.176 348.818 189.183 358.8 189.183C368.783 189.183 376.99 193.176 376.99 198.277Z" fill="#9C9CB6"/>
<path d="M376.769 198.277C376.769 203.378 368.783 207.37 358.8 207.37C348.817 207.37 340.831 203.378 340.831 198.277C340.831 193.176 349.039 189.183 358.8 189.183C368.561 189.183 376.99 193.397 376.769 198.277Z" fill="#9B9AB5"/>
<path d="M376.547 198.277C376.547 203.156 368.783 207.37 358.8 207.149C348.818 206.927 341.053 203.156 341.053 198.277C341.053 193.397 349.039 189.405 358.8 189.405C368.561 189.405 376.769 193.397 376.547 198.277Z" fill="#9A99B4"/>
<path d="M376.547 198.277C376.325 203.156 368.561 207.149 358.8 207.149C349.039 207.149 341.275 203.156 341.275 198.277C341.275 193.397 349.261 189.405 358.8 189.405C368.339 189.405 376.547 193.397 376.547 198.277Z" fill="#9898B3"/>
<path d="M376.325 198.277C376.325 203.156 368.339 207.149 358.8 206.927C349.261 206.705 341.497 203.156 341.497 198.277C341.497 193.397 349.261 189.627 358.8 189.627C368.339 189.627 376.325 193.397 376.325 198.277Z" fill="#9797B2"/>
<path d="M376.103 198.277C376.103 203.156 368.339 206.927 358.8 206.927C349.261 206.927 341.719 202.935 341.719 198.277C341.719 193.619 349.483 189.627 358.8 189.627C368.117 189.627 376.103 193.619 376.103 198.277Z" fill="#9695B1"/>
<path d="M375.755 198.339C375.763 193.684 368.221 189.898 358.91 189.882C349.599 189.865 342.044 193.626 342.036 198.28C342.028 202.935 349.57 206.722 358.881 206.738C368.192 206.754 375.747 202.994 375.755 198.339Z" fill="#9594B0"/>
<path d="M375.659 198.277C375.659 202.934 368.117 206.705 358.8 206.705C349.483 206.705 342.162 202.934 342.162 198.277C342.162 193.619 349.705 189.849 358.8 189.849C367.895 189.849 375.659 193.619 375.659 198.277Z" fill="#9393AF"/>
<path d="M375.438 198.277C375.438 202.935 367.895 206.705 358.8 206.483C349.705 206.262 342.384 202.935 342.384 198.277C342.384 193.619 349.705 190.071 358.8 190.071C367.895 190.071 375.438 193.841 375.438 198.277Z" fill="#9292AE"/>
<path d="M375.216 198.277C375.216 202.935 367.895 206.483 358.8 206.483C349.705 206.483 342.606 202.713 342.606 198.277C342.606 193.841 349.927 190.071 358.8 190.071C367.673 190.071 375.216 193.841 375.216 198.277Z" fill="#9190AD"/>
<path d="M374.994 198.277C374.994 202.713 367.673 206.483 358.8 206.483C349.927 206.483 342.828 202.713 342.828 198.277C342.828 193.841 349.927 190.292 358.8 190.292C367.673 190.292 374.994 193.841 374.994 198.277Z" fill="#908FAC"/>
<path d="M374.772 198.277C374.772 202.713 367.673 206.261 358.8 206.261C349.927 206.261 343.05 202.713 343.05 198.277C343.05 193.841 350.149 190.292 358.8 190.292C367.452 190.292 374.772 193.841 374.772 198.277Z" fill="#8E8EAB"/>
<path d="M374.55 198.277C374.55 202.713 367.452 206.262 358.8 206.262C350.148 206.262 343.272 202.713 343.272 198.277C343.272 193.841 350.148 190.514 358.8 190.514C367.452 190.514 374.55 194.063 374.55 198.277Z" fill="#8D8CAA"/>
<path d="M374.328 198.277C374.328 202.491 367.452 206.04 358.8 206.04C350.148 206.04 343.493 202.491 343.493 198.277C343.493 194.063 350.37 190.514 358.8 190.514C367.23 190.514 374.328 194.063 374.328 198.277Z" fill="#8C8BA9"/>
<path d="M374.107 198.277C374.107 202.491 367.23 206.04 358.8 206.04C350.37 206.04 343.715 202.491 343.715 198.277C343.715 194.063 350.592 190.736 358.8 190.736C367.008 190.736 374.107 194.063 374.107 198.277Z" fill="#8A8AA8"/>
<path d="M373.885 198.277C373.885 202.491 367.23 205.818 358.8 205.818C350.37 205.818 343.937 202.491 343.937 198.277C343.937 194.063 350.592 190.736 358.8 190.736C367.008 190.736 373.885 194.063 373.885 198.277Z" fill="#8989A7"/>
<path d="M373.663 198.277C373.663 202.491 367.008 205.818 358.8 205.818C350.592 205.818 344.159 202.269 344.159 198.277C344.159 194.285 350.814 190.958 358.8 190.958C366.786 190.958 373.663 194.285 373.663 198.277Z" fill="#8887A6"/>
<path d="M373.441 198.277C373.441 202.269 366.786 205.596 358.8 205.596C350.814 205.596 344.381 202.269 344.381 198.277C344.381 194.285 350.814 190.958 358.8 190.958C366.786 190.958 373.441 194.285 373.441 198.277Z" fill="#8686A6"/>
<path d="M373.219 198.277C373.219 202.269 366.786 205.596 358.8 205.596C350.814 205.596 344.603 202.269 344.603 198.277C344.603 194.285 351.036 191.179 358.8 191.179C366.564 191.179 373.219 194.285 373.219 198.277Z" fill="#8585A5"/>
<path d="M372.997 198.277C372.997 202.269 366.564 205.374 358.8 205.374C351.036 205.374 344.824 202.269 344.824 198.277C344.824 194.285 351.036 191.179 358.8 191.179C366.564 191.179 372.997 194.285 372.997 198.277Z" fill="#8483A4"/>
<path d="M372.776 198.277C372.776 202.269 366.564 205.374 358.8 205.374C351.036 205.374 345.046 202.047 345.046 198.277C345.046 194.506 351.258 191.179 358.8 191.401C366.342 191.623 372.776 194.506 372.776 198.277Z" fill="#8282A3"/>
<path d="M372.554 198.277C372.554 202.047 366.342 205.152 358.8 205.152C351.258 205.152 345.268 202.047 345.268 198.277C345.268 194.506 351.258 191.401 358.8 191.401C366.342 191.401 372.554 194.506 372.554 198.277Z" fill="#8180A2"/>
<path d="M372.332 198.277C372.332 202.047 366.342 205.152 358.8 205.152C351.258 205.152 345.49 202.047 345.49 198.277C345.49 194.506 351.48 191.401 358.8 191.623C366.121 191.845 372.332 194.506 372.332 198.277Z" fill="#807FA1"/>
<path d="M372.11 198.277C372.11 202.047 366.121 204.931 358.8 204.931C351.48 204.931 345.712 202.047 345.712 198.277C345.712 194.506 351.48 191.623 358.8 191.623C366.121 191.623 372.11 194.728 372.11 198.277Z" fill="#7E7EA0"/>
<path d="M371.888 198.277C371.888 201.826 366.121 204.931 358.8 204.931C351.48 204.931 345.934 201.826 345.934 198.277C345.934 194.728 351.701 191.623 358.8 191.845C365.899 192.067 371.888 194.728 371.888 198.277Z" fill="#7D7C9E"/>
<path d="M371.666 198.277C371.666 201.825 365.899 204.709 358.8 204.709C351.701 204.709 346.156 201.825 346.156 198.277C346.156 194.728 351.701 191.845 358.8 191.845C365.899 191.845 371.666 194.728 371.666 198.277Z" fill="#7C7B9D"/>
<path d="M371.445 198.277C371.445 201.825 365.899 204.709 358.8 204.709C351.701 204.709 346.377 201.825 346.377 198.277C346.377 194.728 351.923 191.845 358.8 191.845C365.677 191.845 371.445 194.728 371.445 198.277Z" fill="#7A7A9C"/>
<path d="M371.223 198.277C371.223 201.826 365.677 204.487 358.8 204.487C351.923 204.487 346.599 201.604 346.599 198.277C346.599 194.95 352.145 192.067 358.8 192.067C365.455 192.067 371.223 194.95 371.223 198.277Z" fill="#79789B"/>
<path d="M371.096 198.331C371.102 194.901 365.645 192.111 358.906 192.099C352.168 192.088 346.701 194.858 346.695 198.288C346.689 201.718 352.146 204.508 358.885 204.52C365.623 204.532 371.09 201.761 371.096 198.331Z" fill="#77779A"/>
<path d="M370.779 198.277C370.779 201.604 365.455 204.265 358.8 204.265C352.145 204.265 347.043 201.604 347.043 198.277C347.043 194.95 352.367 192.288 358.8 192.288C365.233 192.288 370.779 194.95 370.779 198.277Z" fill="#767599"/>
<path d="M370.557 198.277C370.557 201.604 365.233 204.265 358.8 204.265C352.367 204.265 347.043 201.604 347.265 198.277C347.486 194.95 352.367 192.288 358.8 192.288C365.233 192.288 370.557 194.95 370.557 198.277Z" fill="#757498"/>
<path d="M370.431 198.33C370.436 195.145 365.276 192.554 358.906 192.543C352.535 192.532 347.366 195.105 347.36 198.289C347.355 201.474 352.515 204.065 358.885 204.076C365.256 204.087 370.425 201.515 370.431 198.33Z" fill="#737397"/>
<path d="M370.114 198.277C370.114 201.382 365.011 204.044 358.8 204.044C352.589 204.044 347.486 201.382 347.486 198.277C347.486 195.172 352.589 192.51 358.8 192.51C365.011 192.51 370.114 195.172 370.114 198.277Z" fill="#727196"/>
<path d="M369.892 198.277C369.892 201.382 365.011 203.822 358.8 203.822C352.589 203.822 347.708 201.382 347.708 198.277C347.708 195.172 352.811 192.732 358.8 192.732C364.79 192.732 369.892 195.172 369.892 198.277Z" fill="#707095"/>
<path d="M369.67 198.277C369.67 201.382 364.79 203.822 358.8 203.822C352.811 203.822 347.93 201.382 347.93 198.277C347.93 195.172 352.811 192.732 358.8 192.732C364.79 192.732 369.67 195.393 369.67 198.277Z" fill="#6F6E94"/>
<path d="M369.448 198.277C369.448 201.16 364.79 203.6 358.8 203.6C352.811 203.6 348.152 201.16 348.152 198.277C348.152 195.394 353.032 192.954 358.8 192.954C364.568 192.954 369.448 195.394 369.448 198.277Z" fill="#6E6D93"/>
<path d="M369.226 198.277C369.226 201.16 364.568 203.6 358.8 203.6C353.032 203.6 348.374 201.16 348.374 198.277C348.374 195.394 353.032 192.954 358.8 192.954C364.568 192.954 369.226 195.394 369.226 198.277Z" fill="#6C6B92"/>
<path d="M369.004 198.277C369.004 201.16 364.568 203.378 358.8 203.378C353.032 203.378 348.596 201.16 348.596 198.277C348.596 195.393 353.254 193.176 358.8 193.176C364.346 193.176 369.004 195.393 369.004 198.277Z" fill="#6B6A91"/>
<path d="M368.783 198.277C368.783 201.16 364.346 203.378 358.8 203.378C353.254 203.378 348.818 201.16 348.818 198.277C348.818 195.393 353.254 193.176 358.8 193.176C364.346 193.176 368.783 195.615 368.783 198.277Z" fill="#696990"/>
<path d="M368.561 198.277C368.561 200.938 364.346 203.156 358.8 203.156C353.254 203.156 349.039 200.938 349.039 198.277C349.039 195.615 353.476 193.397 358.8 193.397C364.124 193.397 368.561 195.615 368.561 198.277Z" fill="#68678F"/>
<path d="M368.339 198.277C368.339 200.938 364.124 203.156 358.8 203.156C353.476 203.156 349.261 200.938 349.261 198.277C349.261 195.615 353.698 193.397 358.8 193.397C363.902 193.397 368.339 195.615 368.339 198.277Z" fill="#66668E"/>
<path d="M368.117 198.277C368.117 200.938 363.902 202.934 358.8 202.934C353.698 202.934 349.483 200.938 349.483 198.277C349.483 195.615 353.698 193.619 358.8 193.619C363.902 193.619 368.117 195.615 368.117 198.277Z" fill="#65648D"/>
<path d="M367.895 198.277C367.895 200.938 363.902 202.934 358.8 202.934C353.698 202.934 349.705 200.717 349.705 198.277C349.705 195.837 353.92 193.619 358.8 193.619C363.68 193.619 367.895 195.837 367.895 198.277Z" fill="#63638B"/>
<path d="M367.673 198.277C367.673 200.717 363.68 202.713 358.8 202.713C353.92 202.713 349.927 200.717 349.927 198.277C349.927 195.837 353.92 193.841 358.8 193.841C363.68 193.841 367.673 195.837 367.673 198.277Z" fill="#62618A"/>
<path d="M367.452 198.277C367.452 200.717 363.68 202.713 358.8 202.713C353.92 202.713 350.149 200.717 350.149 198.277C350.149 195.837 354.142 193.841 358.8 193.841C363.459 193.841 367.452 195.837 367.452 198.277Z" fill="#606089"/>
<path d="M367.23 198.277C367.23 200.717 363.459 202.491 358.8 202.491C354.142 202.491 350.37 200.717 350.37 198.277C350.37 195.837 354.142 194.063 358.8 194.063C363.459 194.063 367.23 196.059 367.23 198.277Z" fill="#5F5E88"/>
<path d="M367.008 198.277C367.008 200.495 363.459 202.491 358.8 202.491C354.142 202.491 350.592 200.495 350.592 198.277C350.592 196.059 354.363 194.063 358.8 194.063C363.237 194.063 367.008 196.059 367.008 198.277Z" fill="#5D5D87"/>
<path d="M366.786 198.277C366.786 200.495 363.237 202.269 358.8 202.269C354.363 202.269 350.814 200.495 350.814 198.277C350.814 196.059 354.363 194.285 358.8 194.285C363.237 194.285 367.008 196.059 366.786 198.277Z" fill="#5C5B86"/>
<path d="M366.786 198.277C366.564 200.495 363.237 202.269 358.8 202.269C354.363 202.269 351.036 200.495 351.036 198.277C351.036 196.059 354.585 194.285 358.8 194.285C363.015 194.285 366.786 196.059 366.786 198.277Z" fill="#5A5A85"/>
<path d="M366.564 198.277C366.564 200.495 363.015 202.047 358.8 202.047C354.585 202.047 351.258 200.495 351.258 198.277C351.258 196.059 354.585 194.506 358.8 194.506C363.015 194.506 366.564 196.281 366.564 198.277Z" fill="#595884"/>
<path d="M366.342 198.277C366.342 200.273 363.015 202.047 358.8 202.047C354.585 202.047 351.479 200.273 351.479 198.277C351.479 196.281 354.807 194.506 358.8 194.506C362.793 194.506 366.342 196.281 366.342 198.277Z" fill="#575783"/>
<path d="M366.121 198.277C366.121 200.273 362.793 201.826 358.8 201.826C354.807 201.826 351.701 200.273 351.701 198.277C351.701 196.281 355.029 194.728 358.8 194.728C362.571 194.728 366.121 196.281 366.121 198.277Z" fill="#565581"/>
<path d="M365.899 198.277C365.899 200.273 362.793 201.826 358.8 201.826C354.807 201.826 351.923 200.273 351.923 198.277C351.923 196.281 355.029 194.728 358.8 194.728C362.571 194.728 365.899 196.281 365.899 198.277Z" fill="#545380"/>
<path d="M365.677 198.277C365.677 200.273 362.571 201.604 358.8 201.604C355.029 201.604 352.145 200.051 352.145 198.277C352.145 196.503 355.251 194.95 358.8 194.95C362.349 194.95 365.677 196.503 365.677 198.277Z" fill="#53527F"/>
<path d="M365.455 198.277C365.455 200.051 362.349 201.604 358.8 201.604C355.251 201.604 352.367 200.051 352.367 198.277C352.367 196.503 355.251 194.95 358.8 194.95C362.349 194.95 365.455 196.503 365.455 198.277Z" fill="#51507E"/>
<path d="M365.233 198.277C365.233 200.051 362.349 201.382 358.8 201.382C355.251 201.382 352.589 200.051 352.589 198.277C352.589 196.502 355.473 195.172 358.8 195.172C362.128 195.172 365.233 196.502 365.233 198.277Z" fill="#504F7D"/>
<path d="M365.011 198.277C365.011 200.051 362.128 201.382 358.8 201.382C355.473 201.382 352.811 200.051 352.811 198.277C352.811 196.502 355.473 195.172 358.8 195.172C362.128 195.172 365.011 196.502 365.011 198.277Z" fill="#4E4D7C"/>
<path d="M364.79 198.277C364.79 199.829 362.128 201.16 358.8 201.16C355.473 201.16 353.032 199.829 353.032 198.277C353.032 196.724 355.694 195.394 358.8 195.394C361.906 195.394 364.79 196.724 364.79 198.277Z" fill="#4D4C7B"/>
<path d="M364.568 198.277C364.568 199.829 361.906 201.16 358.8 201.16C355.694 201.16 353.254 199.829 353.254 198.277C353.254 196.724 355.694 195.394 358.8 195.394C361.906 195.394 364.568 196.724 364.568 198.277Z" fill="#4B4A79"/>
<path d="M364.346 198.277C364.346 199.829 361.906 200.938 358.8 200.938C355.694 200.938 353.476 199.829 353.476 198.277C353.476 196.724 355.916 195.615 358.8 195.615C361.684 195.615 364.346 196.724 364.346 198.277Z" fill="#494978"/>
<path d="M364.124 198.277C364.124 199.829 361.684 200.938 358.8 200.938C355.916 200.938 353.698 199.829 353.698 198.277C353.698 196.724 355.916 195.615 358.8 195.615C361.684 195.615 364.124 196.946 364.124 198.277Z" fill="#484777"/>
<path d="M363.902 198.277C363.902 199.608 361.684 200.717 358.8 200.717C355.916 200.717 353.92 199.608 353.92 198.277C353.92 196.946 356.138 195.837 358.8 195.837C361.462 195.837 363.902 196.946 363.902 198.277Z" fill="#464576"/>
<path d="M363.68 198.277C363.68 199.608 361.462 200.717 358.8 200.717C356.138 200.717 354.141 199.608 354.141 198.277C354.141 196.946 356.138 195.837 358.8 195.837C361.462 195.837 363.68 196.946 363.68 198.277Z" fill="#454475"/>
<path d="M363.459 198.277C363.459 199.608 361.462 200.495 358.8 200.495C356.138 200.495 354.363 199.608 354.363 198.277C354.363 196.946 356.36 196.059 358.8 196.059C361.24 196.059 363.459 196.946 363.459 198.277Z" fill="#434274"/>
<path d="M363.237 198.277C363.237 199.608 361.24 200.495 358.8 200.495C356.36 200.495 354.585 199.386 354.585 198.277C354.585 197.168 356.582 196.059 358.8 196.059C361.018 196.059 363.237 197.168 363.237 198.277Z" fill="#414172"/>
<path d="M363.015 198.277C363.015 199.386 361.24 200.273 358.8 200.273C356.36 200.273 354.807 199.386 354.807 198.277C354.807 197.168 356.582 196.281 358.8 196.281C361.018 196.281 363.015 197.168 363.015 198.277Z" fill="#403F71"/>
<path d="M362.793 198.277C362.793 199.386 361.018 200.273 358.8 200.273C356.582 200.273 355.029 199.386 355.029 198.277C355.029 197.168 356.804 196.281 358.8 196.281C360.797 196.281 362.793 197.168 362.793 198.277Z" fill="#3E3D70"/>
<path d="M362.571 198.277C362.571 199.386 360.797 200.051 358.8 200.051C356.804 200.051 355.251 199.386 355.251 198.277C355.251 197.168 356.804 196.502 358.8 196.502C360.797 196.502 362.571 197.168 362.571 198.277Z" fill="#3D3C6F"/>
<path d="M362.349 198.277C362.349 199.164 360.797 200.051 358.8 200.051C356.804 200.051 355.473 199.164 355.473 198.277C355.473 197.39 357.025 196.502 358.8 196.502C360.575 196.502 362.349 197.39 362.349 198.277Z" fill="#3B3A6E"/>
<path d="M362.128 198.277C362.128 199.164 360.575 199.829 358.8 199.829C357.025 199.829 355.694 199.164 355.694 198.277C355.694 197.39 357.025 196.724 358.8 196.724C360.575 196.724 362.128 197.39 362.128 198.277Z" fill="#39386C"/>
<path d="M361.906 198.277C361.906 199.164 360.575 199.829 358.8 199.829C357.025 199.829 355.916 199.164 355.916 198.277C355.916 197.39 357.247 196.724 358.8 196.724C360.353 196.724 361.906 197.39 361.906 198.277Z" fill="#38376B"/>
<path d="M361.684 198.277C361.684 199.164 360.353 199.608 358.8 199.608C357.247 199.608 356.138 199.164 356.138 198.277C356.138 197.39 357.247 196.946 358.8 196.946C360.353 196.946 361.684 197.611 361.684 198.277Z" fill="#36356A"/>
<path d="M361.462 198.277C361.462 198.942 360.353 199.608 358.8 199.608C357.247 199.608 356.36 198.942 356.36 198.277C356.36 197.611 357.469 196.946 358.8 196.946C360.131 196.946 361.462 197.611 361.462 198.277Z" fill="#343469"/>
<path d="M361.24 198.277C361.24 198.942 360.131 199.386 358.8 199.386C357.469 199.386 356.582 198.942 356.582 198.277C356.582 197.612 357.469 197.168 358.8 197.168C360.131 197.168 361.24 197.612 361.24 198.277Z" fill="#333267"/>
<path d="M361.018 198.277C361.018 198.942 360.131 199.386 358.8 199.386C357.469 199.386 356.804 198.942 356.804 198.277C356.804 197.612 357.691 197.168 358.8 197.168C359.909 197.168 361.018 197.612 361.018 198.277Z" fill="#313066"/>
<path d="M360.797 198.277C360.797 198.942 359.909 199.386 358.8 199.164C357.691 198.942 357.025 198.72 357.025 198.277C357.025 197.833 357.691 197.39 358.8 197.39C359.909 197.39 360.797 197.833 360.797 198.277Z" fill="#2F2F65"/>
<path d="M360.575 198.277C360.575 198.72 359.909 199.164 358.8 199.164C357.691 199.164 357.025 198.72 357.025 198.277C357.025 197.833 357.913 197.39 358.8 197.39C359.687 197.39 360.575 197.833 360.575 198.277Z" fill="#2E2D64"/>
<path d="M360.353 198.277C360.353 198.721 359.687 199.164 358.8 199.164C357.913 199.164 357.247 198.721 357.247 198.277C357.247 197.833 358.135 197.612 358.8 197.612C359.466 197.612 360.353 197.833 360.353 198.277Z" fill="#2C2B63"/>
<path d="M360.131 198.277C360.131 198.721 359.687 198.942 358.8 198.942C358.135 198.942 357.469 198.721 357.469 198.277C357.469 197.833 358.135 197.612 358.8 197.612C359.466 197.612 360.131 197.833 360.131 198.277Z" fill="#2A2A61"/>
<path d="M359.909 198.277C359.909 198.499 359.466 198.942 358.8 198.942C358.135 198.942 357.691 198.499 357.691 198.277L358.8 197.833C359.466 197.833 359.909 198.055 359.909 198.277Z" fill="#292860"/>
<path d="M359.687 198.277C359.687 198.499 359.244 198.72 358.8 198.72C358.356 198.72 357.913 198.499 357.913 198.277L358.8 197.833L359.687 198.277Z" fill="#27265F"/>
<path d="M359.466 198.277C359.466 198.499 359.244 198.72 358.8 198.72C358.356 198.72 358.135 198.499 358.135 198.277H359.466Z" fill="#25245E"/>
<path d="M359.244 198.277C359.244 198.499 359.022 198.499 358.8 198.499C358.578 198.499 358.356 198.499 358.356 198.277H359.244Z" fill="#24235C"/>
<path d="M359.022 198.277C359.022 198.336 358.999 198.392 358.957 198.434C358.915 198.475 358.859 198.499 358.8 198.499H359.022V198.277Z" fill="#22215B"/>
</g>
</g>
</g>
<path d="M419 132C419 164.585 392.585 191 360 191C327.415 191 301 164.585 301 132C301 99.4152 327.415 73 360 73C392.585 73 419 99.4152 419 132Z" fill="url(#paint38_radial_4_90)"/>
<path d="M360 190.5C392.309 190.5 418.5 164.309 418.5 132C418.5 99.6913 392.309 73.5 360 73.5C327.691 73.5 301.5 99.6913 301.5 132C301.5 164.309 327.691 190.5 360 190.5Z" stroke="white" stroke-opacity="0.01"/>
<defs>
<radialGradient id="paint0_radial_4_90" cx="0" cy="0" r="1" gradientUnits="userSpaceOnUse" gradientTransform="translate(362.708 56.615) scale(190.689 190.654)">
<stop stop-color="#485366"/>
<stop offset="1" stop-color="#152747"/>
</radialGradient>
<linearGradient id="paint1_linear_4_90" x1="359.935" y1="145" x2="359.935" y2="261.442" gradientUnits="userSpaceOnUse">
<stop stop-color="white"/>
<stop offset="1" stop-color="white" stop-opacity="0"/>
</linearGradient>
<linearGradient id="paint2_linear_4_90" x1="410.785" y1="661.328" x2="410.468" y2="203.243" gradientUnits="userSpaceOnUse">
<stop stop-color="#05192B" stop-opacity="0"/>
<stop offset="0.733138" stop-color="#152748"/>
<stop offset="1" stop-color="#132547"/>
</linearGradient>
<linearGradient id="paint3_linear_4_90" x1="410.402" y1="203.332" x2="410.402" y2="750.942" gradientUnits="userSpaceOnUse">
<stop stop-color="white"/>
<stop offset="1" stop-color="white" stop-opacity="0"/>
</linearGradient>
<linearGradient id="paint4_linear_4_90" x1="359.785" y1="688.828" x2="415.398" y2="293.549" gradientUnits="userSpaceOnUse">
<stop stop-color="#05162C" stop-opacity="0"/>
<stop offset="1" stop-color="#172A4C"/>
</linearGradient>
<linearGradient id="paint5_linear_4_90" x1="309.467" y1="203.332" x2="309.467" y2="750.942" gradientUnits="userSpaceOnUse">
<stop stop-color="white"/>
<stop offset="1" stop-color="white" stop-opacity="0"/>
</linearGradient>
<linearGradient id="paint6_linear_4_90" x1="359.979" y1="750.875" x2="359.979" y2="203.243" gradientUnits="userSpaceOnUse">
<stop stop-color="#161242"/>
<stop offset="0.33" stop-color="#6D6A88"/>
<stop offset="0.66" stop-color="#BBBAC8" stop-opacity="0"/>
<stop offset="0.89" stop-color="#ECECF0" stop-opacity="0.46"/>
<stop offset="1" stop-color="white" stop-opacity="0"/>
</linearGradient>
<radialGradient id="paint7_radial_4_90" cx="0" cy="0" r="1" gradientUnits="userSpaceOnUse" gradientTransform="translate(126.351 133.701) scale(167.968 166.742)">
<stop stop-color="#485366"/>
<stop offset="1" stop-color="#152747"/>
</radialGradient>
<linearGradient id="paint8_linear_4_90" x1="123.908" y1="211" x2="123.908" y2="312.837" gradientUnits="userSpaceOnUse">
<stop stop-color="white"/>
<stop offset="1" stop-color="white" stop-opacity="0"/>
</linearGradient>
<linearGradient id="paint9_linear_4_90" x1="168.7" y1="662.566" x2="168.425" y2="261.936" gradientUnits="userSpaceOnUse">
<stop stop-color="#05192B" stop-opacity="0"/>
<stop offset="1" stop-color="#182A4D"/>
</linearGradient>
<linearGradient id="paint10_linear_4_90" x1="168.362" y1="262.014" x2="168.362" y2="740.94" gradientUnits="userSpaceOnUse">
<stop stop-color="white"/>
<stop offset="1" stop-color="white" stop-opacity="0"/>
</linearGradient>
<linearGradient id="paint11_linear_4_90" x1="123.776" y1="686.617" x2="123.177" y2="313.844" gradientUnits="userSpaceOnUse">
<stop offset="0.0729167" stop-color="#05162C" stop-opacity="0"/>
<stop offset="0.369792" stop-color="#04142A"/>
<stop offset="1" stop-color="#172A4C"/>
</linearGradient>
<linearGradient id="paint12_linear_4_90" x1="79.4541" y1="262.014" x2="79.4541" y2="740.94" gradientUnits="userSpaceOnUse">
<stop stop-color="white"/>
<stop offset="1" stop-color="white" stop-opacity="0"/>
</linearGradient>
<linearGradient id="paint13_linear_4_90" x1="123.947" y1="740.882" x2="123.947" y2="261.936" gradientUnits="userSpaceOnUse">
<stop stop-color="#161242" stop-opacity="0"/>
<stop offset="0.129483" stop-color="#6D6A88" stop-opacity="0"/>
<stop offset="0.66" stop-color="#BBBAC8" stop-opacity="0"/>
<stop offset="0.89" stop-color="#ECECF0" stop-opacity="0.46"/>
<stop offset="1" stop-color="white" stop-opacity="0"/>
</linearGradient>
<linearGradient id="paint14_linear_4_90" x1="123.908" y1="262.014" x2="123.908" y2="740.94" gradientUnits="userSpaceOnUse">
<stop stop-color="white"/>
<stop offset="1" stop-color="white" stop-opacity="0"/>
</linearGradient>
<radialGradient id="paint15_radial_4_90" cx="0" cy="0" r="1" gradientUnits="userSpaceOnUse" gradientTransform="translate(242.493 237.35) scale(129.616 128.67)">
<stop stop-color="#485366"/>
<stop offset="1" stop-color="#152747"/>
</radialGradient>
<linearGradient id="paint16_linear_4_90" x1="240.608" y1="297" x2="240.608" y2="375.585" gradientUnits="userSpaceOnUse">
<stop stop-color="white"/>
<stop offset="1" stop-color="white" stop-opacity="0"/>
</linearGradient>
<linearGradient id="paint17_linear_4_90" x1="275.173" y1="645.461" x2="274.96" y2="336.306" gradientUnits="userSpaceOnUse">
<stop stop-color="#05192B" stop-opacity="0"/>
<stop offset="1" stop-color="#182A4D"/>
</linearGradient>
<linearGradient id="paint18_linear_4_90" x1="274.912" y1="336.366" x2="274.912" y2="705.94" gradientUnits="userSpaceOnUse">
<stop stop-color="white"/>
<stop offset="1" stop-color="white" stop-opacity="0"/>
</linearGradient>
<linearGradient id="paint19_linear_4_90" x1="240.506" y1="664.021" x2="240.044" y2="376.362" gradientUnits="userSpaceOnUse">
<stop offset="0.0729167" stop-color="#05162C" stop-opacity="0"/>
<stop offset="0.369792" stop-color="#04142A"/>
<stop offset="1" stop-color="#172A4C"/>
</linearGradient>
<linearGradient id="paint20_linear_4_90" x1="206.304" y1="336.366" x2="206.304" y2="705.94" gradientUnits="userSpaceOnUse">
<stop stop-color="white"/>
<stop offset="1" stop-color="white" stop-opacity="0"/>
</linearGradient>
<linearGradient id="paint21_linear_4_90" x1="240.638" y1="705.895" x2="240.638" y2="336.306" gradientUnits="userSpaceOnUse">
<stop stop-color="#161242" stop-opacity="0"/>
<stop offset="0.129483" stop-color="#6D6A88" stop-opacity="0"/>
<stop offset="0.66" stop-color="#BBBAC8" stop-opacity="0"/>
<stop offset="0.89" stop-color="#ECECF0" stop-opacity="0.46"/>
<stop offset="1" stop-color="white" stop-opacity="0"/>
</linearGradient>
<linearGradient id="paint22_linear_4_90" x1="240.608" y1="336.366" x2="240.608" y2="705.94" gradientUnits="userSpaceOnUse">
<stop stop-color="white"/>
<stop offset="1" stop-color="white" stop-opacity="0"/>
</linearGradient>
<radialGradient id="paint23_radial_4_90" cx="0" cy="0" r="1" gradientUnits="userSpaceOnUse" gradientTransform="translate(591.025 48.7467) scale(104.852 104.087)">
<stop stop-color="#485366"/>
<stop offset="1" stop-color="#152747"/>
</radialGradient>
<linearGradient id="paint24_linear_4_90" x1="589.5" y1="97" x2="589.5" y2="160.571" gradientUnits="userSpaceOnUse">
<stop stop-color="white"/>
<stop offset="1" stop-color="white" stop-opacity="0"/>
</linearGradient>
<linearGradient id="paint25_linear_4_90" x1="617.461" y1="378.886" x2="617.289" y2="128.797" gradientUnits="userSpaceOnUse">
<stop stop-color="#05192B" stop-opacity="0"/>
<stop offset="1" stop-color="#182A4D"/>
</linearGradient>
<linearGradient id="paint26_linear_4_90" x1="617.25" y1="128.846" x2="617.25" y2="427.81" gradientUnits="userSpaceOnUse">
<stop stop-color="white"/>
<stop offset="1" stop-color="white" stop-opacity="0"/>
</linearGradient>
<linearGradient id="paint27_linear_4_90" x1="589.418" y1="393.9" x2="589.043" y2="161.2" gradientUnits="userSpaceOnUse">
<stop offset="0.0729167" stop-color="#05162C" stop-opacity="0"/>
<stop offset="0.369792" stop-color="#04142A"/>
<stop offset="1" stop-color="#172A4C"/>
</linearGradient>
<linearGradient id="paint28_linear_4_90" x1="561.75" y1="128.846" x2="561.75" y2="427.81" gradientUnits="userSpaceOnUse">
<stop stop-color="white"/>
<stop offset="1" stop-color="white" stop-opacity="0"/>
</linearGradient>
<linearGradient id="paint29_linear_4_90" x1="589.524" y1="427.775" x2="589.524" y2="128.798" gradientUnits="userSpaceOnUse">
<stop stop-color="#161242" stop-opacity="0"/>
<stop offset="0.129483" stop-color="#6D6A88" stop-opacity="0"/>
<stop offset="0.66" stop-color="#BBBAC8" stop-opacity="0"/>
<stop offset="0.89" stop-color="#ECECF0" stop-opacity="0.46"/>
<stop offset="1" stop-color="white" stop-opacity="0"/>
</linearGradient>
<linearGradient id="paint30_linear_4_90" x1="589.5" y1="128.847" x2="589.5" y2="427.811" gradientUnits="userSpaceOnUse">
<stop stop-color="white"/>
<stop offset="1" stop-color="white" stop-opacity="0"/>
</linearGradient>
<radialGradient id="paint31_radial_4_90" cx="0" cy="0" r="1" gradientUnits="userSpaceOnUse" gradientTransform="translate(513.708 139.615) scale(190.689 190.654)">
<stop stop-color="#485366"/>
<stop offset="1" stop-color="#152747"/>
</radialGradient>
<linearGradient id="paint32_linear_4_90" x1="510.935" y1="228" x2="510.935" y2="344.442" gradientUnits="userSpaceOnUse">
<stop stop-color="white"/>
<stop offset="1" stop-color="white" stop-opacity="0"/>
</linearGradient>
<linearGradient id="paint33_linear_4_90" x1="561.785" y1="744.328" x2="561.468" y2="286.243" gradientUnits="userSpaceOnUse">
<stop stop-color="#05192B" stop-opacity="0"/>
<stop offset="1" stop-color="#182A4D"/>
</linearGradient>
<linearGradient id="paint34_linear_4_90" x1="561.402" y1="286.332" x2="561.402" y2="833.942" gradientUnits="userSpaceOnUse">
<stop stop-color="white"/>
<stop offset="1" stop-color="white" stop-opacity="0"/>
</linearGradient>
<linearGradient id="paint35_linear_4_90" x1="510.785" y1="771.828" x2="566.398" y2="376.549" gradientUnits="userSpaceOnUse">
<stop offset="0.0729167" stop-color="#05162C" stop-opacity="0"/>
<stop offset="1" stop-color="#172A4C"/>
</linearGradient>
<linearGradient id="paint36_linear_4_90" x1="460.467" y1="286.332" x2="460.467" y2="833.942" gradientUnits="userSpaceOnUse">
<stop stop-color="white"/>
<stop offset="1" stop-color="white" stop-opacity="0"/>
</linearGradient>
<linearGradient id="paint37_linear_4_90" x1="510.979" y1="833.875" x2="510.979" y2="286.243" gradientUnits="userSpaceOnUse">
<stop stop-color="#161242"/>
<stop offset="0.33" stop-color="#6D6A88"/>
<stop offset="0.66" stop-color="#BBBAC8" stop-opacity="0"/>
<stop offset="0.89" stop-color="#ECECF0" stop-opacity="0.46"/>
<stop offset="1" stop-color="white" stop-opacity="0.35"/>
</linearGradient>
<radialGradient id="paint38_radial_4_90" cx="0" cy="0" r="1" gradientUnits="userSpaceOnUse" gradientTransform="translate(348.5 111.5) rotate(97.9838) scale(67.9043 67.9043)">
<stop stop-color="#9AA3B0"/>
<stop offset="0.692708" stop-color="#3C4C67"/>
<stop offset="1" stop-color="#0B264D"/>
</radialGradient>
<clipPath id="clip0_4_90">
<rect width="699" height="806" fill="white"/>
</clipPath>
</defs>
</svg>
