<svg width="675" height="437" viewBox="0 0 675 437" fill="none" xmlns="http://www.w3.org/2000/svg">
<g clip-path="url(#clip0_154_65)">
<g opacity="0.197322">
<path d="M367.143 1.32056V435.059" stroke="#979797" stroke-width="0.954858" stroke-linecap="square"/>
<path d="M466.448 1.32056V435.059" stroke="#979797" stroke-width="0.954858" stroke-linecap="square"/>
<path d="M563.844 1.32056V435.059" stroke="#979797" stroke-width="0.954858" stroke-linecap="square"/>
<path d="M266.883 1.32056V435.059" stroke="#979797" stroke-width="0.954858" stroke-linecap="square"/>
<path d="M168.532 1.32056V350.915" stroke="#979797" stroke-width="0.954858" stroke-linecap="square"/>
<path d="M69.2272 37.7217V329.908" stroke="#979797" stroke-width="0.954858" stroke-linecap="square"/>
<path d="M622.09 411.071H213.411" stroke="#979797" stroke-width="0.954858" stroke-linecap="square"/>
<path d="M631.639 313.676H55.8593" stroke="#979797" stroke-width="0.954858" stroke-linecap="square"/>
<path d="M673.541 216.28H0.477417" stroke="#979797" stroke-width="0.954858" stroke-linecap="square"/>
<path d="M631.639 117.93H40.5814" stroke="#979797" stroke-width="0.954858" stroke-linecap="square"/>
<path d="M592.49 20.5343H143.706" stroke="#979797" stroke-width="0.954858" stroke-linecap="square"/>
</g>
<path fill-rule="evenodd" clip-rule="evenodd" d="M165.31 53.4769L219.99 85.0468V148.187L165.31 179.757L110.629 148.187V85.0468L165.31 53.4769Z" fill="white" stroke="#467DD4" stroke-width="1.386"/>
<path fill-rule="evenodd" clip-rule="evenodd" d="M289.279 53.4769L343.96 85.0468V148.187L289.279 179.757L234.599 148.187V85.0468L289.279 53.4769Z" fill="white" stroke="#467DD4" stroke-width="1.386"/>
<path fill-rule="evenodd" clip-rule="evenodd" d="M414.801 56.22L469.481 87.7899V150.93L414.801 182.5L360.12 150.93V87.7899L414.801 56.22Z" fill="white" stroke="#467DD4" stroke-width="1.386"/>
<path fill-rule="evenodd" clip-rule="evenodd" d="M227.679 158.967L282.36 190.537V253.676L227.679 285.246L172.999 253.676V190.537L227.679 158.967Z" fill="white" stroke="#467DD4" stroke-width="1.386"/>
<path fill-rule="evenodd" clip-rule="evenodd" d="M475.619 158.967L530.299 190.537V253.676L475.619 285.246L420.938 253.676V190.537L475.619 158.967Z" fill="white" stroke="#467DD4" stroke-width="1.386"/>
<path fill-rule="evenodd" clip-rule="evenodd" d="M351.649 158.967L406.33 190.537V253.676L351.649 285.246L296.968 253.676V190.537L351.649 158.967Z" fill="white" stroke="#467DD4" stroke-width="1.386"/>
<path fill-rule="evenodd" clip-rule="evenodd" d="M412.801 259.22L467.481 290.79V353.93L412.801 385.5L358.12 353.93V290.79L412.801 259.22Z" fill="white" stroke="#467DD4" stroke-width="1.386"/>
<g filter="url(#filter0_dd_154_65)">
<path d="M411.903 265.22L461.686 293.962V351.446L411.903 380.188L362.12 351.446V293.962L411.903 265.22Z" fill="black"/>
</g>
<path d="M411.903 265.22L461.686 293.962V351.446L411.903 380.188L362.12 351.446V293.962L411.903 265.22Z" fill="url(#paint0_linear_154_65)"/>
<path d="M432.585 307.193H390.004C389.063 307.193 388.301 307.955 388.301 308.896V341.257C388.301 342.198 389.063 342.961 390.004 342.961H432.585C433.526 342.961 434.288 342.198 434.288 341.257V308.896C434.288 307.955 433.526 307.193 432.585 307.193Z" fill="white" stroke="#000033" stroke-width="1.27743"/>
<path d="M390.43 310.702C390.957 310.702 391.385 310.275 391.385 309.747C391.385 309.22 390.957 308.793 390.43 308.793C389.902 308.793 389.475 309.22 389.475 309.747C389.475 310.275 389.902 310.702 390.43 310.702Z" stroke="#000033" stroke-width="0.851618"/>
<path d="M392.559 310.702C393.086 310.702 393.514 310.275 393.514 309.747C393.514 309.22 393.086 308.793 392.559 308.793C392.032 308.793 391.604 309.22 391.604 309.747C391.604 310.275 392.032 310.702 392.559 310.702Z" stroke="#000033" stroke-width="0.851618"/>
<path d="M394.688 310.702C395.215 310.702 395.643 310.275 395.643 309.747C395.643 309.22 395.215 308.793 394.688 308.793C394.161 308.793 393.733 309.22 393.733 309.747C393.733 310.275 394.161 310.702 394.688 310.702Z" stroke="#000033" stroke-width="0.851618"/>
<path d="M419.385 308.896H402.352C401.882 308.896 401.501 309.277 401.501 309.747C401.501 310.218 401.882 310.599 402.352 310.599H419.385C419.855 310.599 420.236 310.218 420.236 309.747C420.236 309.277 419.855 308.896 419.385 308.896Z" fill="#467DD4" stroke="#000033" stroke-width="0.851618"/>
<path d="M433.862 312.302H388.727" stroke="#000033" stroke-width="0.851618" stroke-linecap="square"/>
<g filter="url(#filter1_dd_154_65)">
<path d="M414.903 61.22L464.686 89.9621V147.446L414.903 176.188L365.12 147.446V89.9621L414.903 61.22Z" fill="black"/>
</g>
<path d="M414.903 61.22L464.686 89.9621V147.446L414.903 176.188L365.12 147.446V89.9621L414.903 61.22Z" fill="url(#paint1_linear_154_65)"/>
<path fill-rule="evenodd" clip-rule="evenodd" d="M434.065 131.376V111.956C434.065 109.942 432.96 108.091 431.188 107.136L412.553 97.0945C411.222 96.3773 409.562 96.8748 408.845 98.2057C408.63 98.6047 408.517 99.0509 408.517 99.5042V120.464C408.517 121.467 409.066 122.39 409.947 122.869L430.021 133.781C431.349 134.503 433.011 134.012 433.733 132.684C433.951 132.282 434.065 131.833 434.065 131.376Z" fill="white" stroke="#000033" stroke-width="0.912447"/>
<path d="M415.12 114.685L427.967 113.872M421.544 119.534C424.446 121.198 426.799 120.193 426.799 117.29C426.799 114.388 424.446 110.686 421.544 109.023C418.641 107.359 416.288 108.364 416.288 111.267C416.288 114.169 418.641 117.871 421.544 119.534Z" stroke="#447CD5" stroke-width="2.33587"/>
<path fill-rule="evenodd" clip-rule="evenodd" d="M427.222 135.938V116.518C427.222 114.505 426.117 112.654 424.344 111.699L405.709 101.657C404.379 100.94 402.718 101.437 402.001 102.768C401.786 103.167 401.674 103.613 401.674 104.066V125.026C401.674 126.03 402.222 126.952 403.104 127.431L423.177 138.343C424.506 139.065 426.168 138.574 426.89 137.246C427.108 136.845 427.222 136.395 427.222 135.938Z" fill="white" stroke="#000033" stroke-width="0.912447"/>
<g filter="url(#filter2_dd_154_65)">
<path d="M475.692 164.541L525.475 193.283V250.768L475.692 279.51L425.909 250.768V193.283L475.692 164.541Z" fill="black"/>
</g>
<path d="M475.692 164.541L525.475 193.283V250.768L475.692 279.51L425.909 250.768V193.283L475.692 164.541Z" fill="url(#paint2_linear_154_65)"/>
<path d="M475.704 216.149V211.088" stroke="#000033" stroke-width="1.1071" stroke-linecap="square"/>
<path fill-rule="evenodd" clip-rule="evenodd" d="M476.647 216.982L481.933 219.971C482.075 220.052 482.164 220.203 482.164 220.367V226.33C482.164 226.494 482.075 226.645 481.933 226.726L476.647 229.716C476.508 229.794 476.338 229.794 476.199 229.716L470.913 226.726C470.77 226.645 470.682 226.494 470.682 226.33V220.367C470.682 220.203 470.77 220.052 470.913 219.971L476.199 216.982C476.338 216.903 476.508 216.903 476.647 216.982Z" fill="white" stroke="#000033" stroke-width="1.18375"/>
<path d="M476.423 229.572V223.349" stroke="#000033" stroke-width="1.18375" stroke-linecap="round"/>
<path d="M470.605 220.372L476.287 223.349" stroke="#000033" stroke-width="1.18375" stroke-linecap="round"/>
<path d="M481.969 220.372L476.287 223.349" stroke="#000033" stroke-width="1.18375" stroke-linecap="round"/>
<path fill-rule="evenodd" clip-rule="evenodd" d="M456.692 216.982L461.978 219.971C462.121 220.052 462.209 220.203 462.209 220.367V226.33C462.209 226.494 462.121 226.645 461.978 226.726L456.692 229.716C456.553 229.794 456.383 229.794 456.244 229.716L450.958 226.726C450.815 226.645 450.727 226.494 450.727 226.33V220.367C450.727 220.203 450.815 220.052 450.958 219.971L456.244 216.982C456.383 216.903 456.553 216.903 456.692 216.982Z" fill="white" stroke="#000033" stroke-width="1.18375"/>
<path d="M456.468 229.572V223.349" stroke="#000033" stroke-width="1.18375" stroke-linecap="round"/>
<path d="M450.651 220.372L456.333 223.349" stroke="#000033" stroke-width="1.18375" stroke-linecap="round"/>
<path d="M462.015 220.372L456.333 223.349" stroke="#000033" stroke-width="1.18375" stroke-linecap="round"/>
<path fill-rule="evenodd" clip-rule="evenodd" d="M476.462 197.516L481.748 200.506C481.891 200.586 481.979 200.738 481.979 200.901V206.865C481.979 207.029 481.891 207.18 481.748 207.261L476.462 210.25C476.323 210.329 476.153 210.329 476.014 210.25L470.728 207.261C470.585 207.18 470.497 207.029 470.497 206.865V200.901C470.497 200.738 470.585 200.586 470.728 200.506L476.014 197.516C476.153 197.438 476.323 197.438 476.462 197.516Z" fill="#467DD4" stroke="#000033" stroke-width="1.18375"/>
<path d="M476.238 210.106V203.883" stroke="#000033" stroke-width="1.18375" stroke-linecap="round"/>
<path d="M470.421 200.907L476.103 203.883" stroke="#000033" stroke-width="1.18375" stroke-linecap="round"/>
<path d="M481.785 200.907L476.103 203.883" stroke="#000033" stroke-width="1.18375" stroke-linecap="round"/>
<path fill-rule="evenodd" clip-rule="evenodd" d="M497.278 216.982L502.564 219.971C502.707 220.052 502.795 220.203 502.795 220.367V226.33C502.795 226.494 502.707 226.645 502.564 226.726L497.278 229.716C497.139 229.794 496.969 229.794 496.83 229.716L491.544 226.726C491.401 226.645 491.313 226.494 491.313 226.33V220.367C491.313 220.203 491.401 220.052 491.544 219.971L496.83 216.982C496.969 216.903 497.139 216.903 497.278 216.982Z" fill="white" stroke="#000033" stroke-width="1.18375"/>
<path d="M497.054 229.572V223.349" stroke="#000033" stroke-width="1.18375" stroke-linecap="round"/>
<path d="M491.237 220.372L496.919 223.349" stroke="#000033" stroke-width="1.18375" stroke-linecap="round"/>
<path d="M502.601 220.372L496.919 223.349" stroke="#000033" stroke-width="1.18375" stroke-linecap="round"/>
<path d="M491.101 223.958H482.308" stroke="#000033" stroke-width="1.18375" stroke-linecap="square"/>
<path d="M469.896 223.958L462.613 223.85" stroke="#000033" stroke-width="1.18375" stroke-linecap="square"/>
<path d="M221.134 114.692H234.994" stroke="#467DD4" stroke-width="0.769998" stroke-linecap="square"/>
<path d="M282.734 220.181H296.594" stroke="#467DD4" stroke-width="0.769998" stroke-linecap="square"/>
<g filter="url(#filter3_dd_154_65)">
<path d="M289.753 58.6667L339.535 87.4088V144.893L289.753 173.635L239.97 144.893V87.4088L289.753 58.6667Z" fill="black"/>
</g>
<path d="M289.753 58.6667L339.535 87.4088V144.893L289.753 173.635L239.97 144.893V87.4088L289.753 58.6667Z" fill="url(#paint3_linear_154_65)"/>
<path fill-rule="evenodd" clip-rule="evenodd" d="M281.192 99.113H304.989C306.107 99.113 307.014 100.02 307.014 101.138V135.567C307.014 136.686 306.107 137.593 304.989 137.593H281.192C280.074 137.593 279.167 136.686 279.167 135.567V101.138C279.167 100.02 280.074 99.113 281.192 99.113Z" fill="white" stroke="#000033" stroke-width="0.972115"/>
<path d="M283.724 104.682H302.964" stroke="#000033" stroke-width="0.481249" stroke-linecap="square"/>
<path d="M283.724 106.142H302.964" stroke="#000033" stroke-width="0.481249" stroke-linecap="square"/>
<path d="M281.192 104.682H281.699" stroke="#000033" stroke-width="1.01262" stroke-linecap="square"/>
<path d="M281.192 113.29H281.699" stroke="#000033" stroke-width="1.01262" stroke-linecap="square"/>
<path d="M283.724 106.201H298.913" stroke="#000033" stroke-width="1.01262" stroke-linecap="square"/>
<path d="M283.724 107.72H302.964" stroke="#000033" stroke-width="0.481249" stroke-linecap="square"/>
<path d="M283.724 109.239H292.837" stroke="#000033" stroke-width="1.01262" stroke-linecap="square"/>
<path d="M283.724 113.29H302.964" stroke="#000033" stroke-width="0.481249" stroke-linecap="square"/>
<path d="M283.724 114.809H298.913" stroke="#000033" stroke-width="1.01262" stroke-linecap="square"/>
<path d="M283.724 116.328H302.964" stroke="#000033" stroke-width="0.481249" stroke-linecap="square"/>
<path d="M283.724 117.846H292.837" stroke="#000033" stroke-width="1.01262" stroke-linecap="square"/>
<path d="M281.192 121.391H281.699" stroke="#000033" stroke-width="1.01262" stroke-linecap="square"/>
<path d="M283.724 121.391H302.964" stroke="#000033" stroke-width="0.481249" stroke-linecap="square"/>
<path d="M283.724 122.91H298.913" stroke="#000033" stroke-width="1.01262" stroke-linecap="square"/>
<path d="M283.724 124.429H302.964" stroke="#000033" stroke-width="0.481249" stroke-linecap="square"/>
<path d="M283.724 125.948H292.837" stroke="#000033" stroke-width="1.01262" stroke-linecap="square"/>
<path d="M293.85 132.529H302.964" stroke="#000033" stroke-width="0.481249" stroke-linecap="square"/>
<path fill-rule="evenodd" clip-rule="evenodd" d="M274.441 94.5563H298.238C299.357 94.5563 300.263 95.463 300.263 96.5815V131.011C300.263 132.129 299.357 133.036 298.238 133.036H274.441C273.323 133.036 272.416 132.129 272.416 131.011V96.5815C272.416 95.463 273.323 94.5563 274.441 94.5563Z" fill="white" stroke="#000033" stroke-width="0.972115"/>
<path d="M274.442 108.733H274.948" stroke="#000033" stroke-width="0.481249" stroke-linecap="square"/>
<path d="M276.973 108.733H296.213" stroke="#000033" stroke-width="0.481249" stroke-linecap="square"/>
<path d="M276.973 110.252H292.162" stroke="#000033" stroke-width="0.481249" stroke-linecap="square"/>
<path d="M276.973 111.771H296.213" stroke="#000033" stroke-width="0.481249" stroke-linecap="square"/>
<path d="M276.973 113.29H286.087" stroke="#000033" stroke-width="0.481249" stroke-linecap="square"/>
<path d="M277.449 104.895H296.306" stroke="#000033" stroke-width="0.481249" stroke-linecap="square"/>
<path d="M277.449 103.435H296.306" stroke="#000033" stroke-width="0.481249" stroke-linecap="square"/>
<path d="M277.449 101.975H296.306" stroke="#000033" stroke-width="0.481249" stroke-linecap="square"/>
<path d="M277.449 100.515H296.306" stroke="#000033" stroke-width="0.481249" stroke-linecap="square"/>
<path d="M274.442 116.834H274.948" stroke="#000033" stroke-width="0.481249" stroke-linecap="square"/>
<path d="M276.973 116.834H296.213" stroke="#000033" stroke-width="0.481249" stroke-linecap="square"/>
<path d="M276.973 118.353H292.162" stroke="#000033" stroke-width="0.481249" stroke-linecap="square"/>
<path d="M276.973 119.872H296.213" stroke="#000033" stroke-width="0.481249" stroke-linecap="square"/>
<path d="M276.973 121.391H286.087" stroke="#000033" stroke-width="0.481249" stroke-linecap="square"/>
<path d="M287.099 127.973H296.213" stroke="#467DD4" stroke-width="0.481249" stroke-linecap="square"/>
<g filter="url(#filter4_dd_154_65)">
<path d="M352.3 164.541L402.082 193.283V250.768L352.3 279.51L302.517 250.768V193.283L352.3 164.541Z" fill="black"/>
</g>
<path d="M352.3 164.541L402.082 193.283V250.768L352.3 279.51L302.517 250.768V193.283L352.3 164.541Z" fill="url(#paint4_linear_154_65)"/>
<path fill-rule="evenodd" clip-rule="evenodd" d="M352.3 194.348L376.533 208.187V235.864L352.3 249.703L328.067 235.864V208.187L352.3 194.348Z" fill="white" stroke="#000033" stroke-width="0.912447"/>
<path d="M343.871 211.775C344.065 211.926 344.279 211.936 344.516 211.807C346.73 210.539 349.223 209.905 351.996 209.905C353.307 209.905 354.559 210.056 355.751 210.357C356.944 210.657 358.186 211.141 359.475 211.807C359.518 211.829 359.626 211.84 359.798 211.84C360.013 211.84 360.179 211.759 360.297 211.598C360.415 211.437 360.464 211.254 360.442 211.05C360.421 210.846 360.313 210.69 360.12 210.582C358.744 209.894 357.401 209.389 356.09 209.067C354.779 208.745 353.414 208.583 351.996 208.583C348.986 208.583 346.278 209.25 343.871 210.582C343.635 210.733 343.527 210.932 343.549 211.179C343.57 211.426 343.678 211.625 343.871 211.775Z" fill="#000033"/>
<path d="M340.615 218.9C340.83 218.9 340.991 218.814 341.098 218.642C342.259 217.009 343.796 215.692 345.709 214.693C347.622 213.693 349.712 213.199 351.979 213.21C354.247 213.221 356.348 213.71 358.282 214.677C360.174 215.665 361.689 216.966 362.828 218.578C362.914 218.728 363.048 218.825 363.231 218.868C363.414 218.911 363.586 218.884 363.747 218.787C363.908 218.691 364.01 218.551 364.053 218.368C364.096 218.185 364.064 218.008 363.957 217.836C362.688 216.009 361.007 214.553 358.911 213.468C356.815 212.382 354.51 211.84 351.996 211.84C349.481 211.84 347.17 212.388 345.064 213.484C343.022 214.537 341.346 216.009 340.035 217.901C339.884 218.159 339.868 218.39 339.986 218.594C340.104 218.798 340.314 218.9 340.615 218.9Z" fill="#000033"/>
<path d="M355.897 235.407C356.026 235.407 356.16 235.359 356.3 235.262C356.439 235.165 356.525 235.031 356.558 234.859C356.59 234.687 356.568 234.52 356.493 234.359C356.418 234.198 356.284 234.107 356.09 234.085C355.123 233.827 354.301 233.51 353.624 233.134C352.947 232.758 352.297 232.258 351.673 231.635C350.857 230.818 350.233 229.889 349.803 228.846C349.373 227.804 349.159 226.713 349.159 225.574C349.159 224.843 349.427 224.22 349.965 223.704C350.502 223.188 351.163 222.93 351.947 222.93C352.732 222.93 353.398 223.188 353.946 223.704C354.494 224.22 354.768 224.843 354.768 225.574C354.768 226.305 354.951 226.965 355.316 227.557C355.682 228.148 356.176 228.615 356.799 228.959C357.423 229.303 358.11 229.475 358.863 229.475C359.615 229.475 360.308 229.303 360.942 228.959C361.576 228.615 362.081 228.148 362.457 227.557C362.834 226.965 363.022 226.305 363.022 225.574C363.022 223.682 362.517 221.909 361.506 220.254C360.518 218.664 359.196 217.396 357.541 216.45C355.8 215.483 353.93 214.999 351.931 214.999C349.76 214.999 347.756 215.569 345.918 216.708C344.081 217.847 342.732 219.362 341.872 221.254C341.228 222.5 340.905 223.951 340.905 225.606C340.905 227.261 341.249 229.013 341.937 230.861C342.023 231.098 342.189 231.232 342.437 231.264C342.684 231.296 342.893 231.232 343.065 231.071C343.237 230.909 343.28 230.7 343.194 230.442C342.829 229.496 342.571 228.551 342.42 227.605C342.334 226.982 342.291 226.305 342.291 225.574C342.291 224.112 342.549 222.855 343.065 221.802C343.86 220.168 345.059 218.857 346.66 217.868C348.261 216.88 350.018 216.385 351.931 216.385C353.694 216.385 355.327 216.805 356.832 217.643C358.315 218.46 359.486 219.566 360.346 220.964C361.248 222.382 361.7 223.919 361.7 225.574C361.7 226.305 361.426 226.917 360.878 227.411C360.33 227.906 359.658 228.153 358.863 228.153C358.067 228.153 357.407 227.906 356.88 227.411C356.353 226.917 356.09 226.31 356.09 225.59C356.09 224.87 355.902 224.204 355.526 223.591C355.15 222.978 354.639 222.495 353.995 222.14C353.35 221.786 352.662 221.608 351.931 221.608C351.2 221.608 350.518 221.786 349.884 222.14C349.25 222.495 348.75 222.978 348.385 223.591C348.019 224.204 347.837 224.865 347.837 225.574C347.837 226.906 348.084 228.169 348.578 229.362C349.073 230.555 349.793 231.624 350.738 232.57C351.469 233.301 352.216 233.886 352.979 234.327C353.742 234.768 354.65 235.128 355.703 235.407H355.897Z" fill="#467DD4"/>
<path d="M348.965 235.149C349.18 235.149 349.352 235.09 349.481 234.972C349.61 234.853 349.674 234.698 349.674 234.504C349.674 234.311 349.61 234.15 349.481 234.021C348.836 233.333 348.406 232.849 348.191 232.57C347.761 232.054 347.353 231.441 346.966 230.732C346.171 229.378 345.773 227.659 345.773 225.574C345.773 224.499 346.053 223.51 346.612 222.608C347.17 221.705 347.923 220.99 348.868 220.464C349.814 219.937 350.856 219.674 351.996 219.674C353.135 219.674 354.177 219.937 355.123 220.464C356.069 220.99 356.821 221.705 357.38 222.608C357.938 223.51 358.218 224.499 358.218 225.574C358.218 225.767 358.288 225.923 358.427 226.041C358.567 226.159 358.734 226.219 358.927 226.219C359.121 226.219 359.282 226.159 359.411 226.041C359.54 225.923 359.604 225.767 359.604 225.574C359.604 224.263 359.266 223.054 358.589 221.947C357.912 220.84 356.987 219.964 355.816 219.319C354.645 218.674 353.371 218.352 351.996 218.352C350.62 218.352 349.347 218.674 348.175 219.319C347.004 219.964 346.08 220.84 345.403 221.947C344.725 223.054 344.387 224.263 344.387 225.574C344.387 227.788 344.871 229.722 345.838 231.377C346.246 232.151 346.654 232.806 347.063 233.344C347.407 233.773 347.901 234.311 348.546 234.956C348.675 235.085 348.815 235.149 348.965 235.149Z" fill="#000033"/>
<path d="M358.605 232.634C359.185 232.634 359.733 232.591 360.249 232.505C360.442 232.484 360.593 232.387 360.7 232.215C360.808 232.043 360.84 231.871 360.797 231.699C360.754 231.441 360.593 231.28 360.314 231.216C360.12 231.173 359.83 231.173 359.443 231.216L358.605 231.312C357.466 231.312 356.423 231.044 355.478 230.506C354.575 230.012 353.866 229.324 353.35 228.443C352.834 227.562 352.576 226.605 352.576 225.574C352.576 225.38 352.517 225.219 352.399 225.09C352.28 224.961 352.125 224.897 351.931 224.897C351.738 224.897 351.577 224.967 351.448 225.106C351.319 225.246 351.254 225.402 351.254 225.574C351.254 226.734 351.534 227.831 352.092 228.862C352.651 229.894 353.436 230.754 354.446 231.441C355.564 232.237 356.95 232.634 358.605 232.634Z" fill="#467DD4"/>
<g filter="url(#filter5_dd_154_65)">
<path d="M227.939 164.765L277.51 193.384V250.624L227.939 279.244L178.368 250.624V193.384L227.939 164.765Z" fill="black"/>
</g>
<path d="M227.939 164.765L277.51 193.384V250.624L227.939 279.244L178.368 250.624V193.384L227.939 164.765Z" fill="url(#paint5_linear_154_65)"/>
<path fill-rule="evenodd" clip-rule="evenodd" d="M230.201 203.344L248.083 213.39C248.564 213.66 248.862 214.169 248.862 214.72V234.739C248.862 235.291 248.564 235.8 248.083 236.07L230.201 246.115C229.737 246.376 229.17 246.376 228.706 246.115L210.823 236.07C210.342 235.8 210.045 235.291 210.045 234.739V214.72C210.045 214.169 210.342 213.66 210.823 213.39L228.706 203.344C229.17 203.083 229.737 203.083 230.201 203.344Z" fill="white" stroke="#000033" stroke-width="0.920677"/>
<path d="M229.756 245.93V225.336" stroke="#000033" stroke-width="0.920677" stroke-linecap="round"/>
<path d="M210.373 215.039L229.756 225.336" stroke="#000033" stroke-width="0.920677" stroke-linecap="round"/>
<path d="M248.533 215.039L229.685 225.051" stroke="#000033" stroke-width="0.920677" stroke-linecap="round"/>
<path fill-rule="evenodd" clip-rule="evenodd" d="M233.976 214.052L229.765 216.297C229.586 216.392 229.372 216.391 229.194 216.296L224.998 214.052C224.703 213.894 224.592 213.527 224.749 213.232C224.803 213.132 224.883 213.05 224.98 212.993L229.177 210.567C229.364 210.458 229.595 210.458 229.782 210.566L233.994 212.993C234.284 213.16 234.383 213.53 234.216 213.82C234.16 213.918 234.077 213.999 233.976 214.052Z" fill="#467DD4" stroke="#000033" stroke-width="0.605709"/>
<g filter="url(#filter6_dd_154_65)">
<path d="M164.998 58.2817L214.78 87.0238V144.508L164.998 173.25L115.215 144.508V87.0238L164.998 58.2817Z" fill="black"/>
</g>
<path d="M164.998 58.2817L214.78 87.0238V144.508L164.998 173.25L115.215 144.508V87.0238L164.998 58.2817Z" fill="url(#paint6_linear_154_65)"/>
<path fill-rule="evenodd" clip-rule="evenodd" d="M166.65 111.079L171.594 113.875C171.727 113.95 171.81 114.092 171.81 114.245V119.822C171.81 119.975 171.727 120.117 171.594 120.192L166.65 122.988C166.52 123.062 166.361 123.062 166.231 122.988L161.287 120.192C161.154 120.117 161.071 119.975 161.071 119.822V114.245C161.071 114.092 161.154 113.95 161.287 113.875L166.231 111.079C166.361 111.005 166.52 111.005 166.65 111.079Z" fill="#467DD4" stroke="#000033" stroke-width="1.1071"/>
<path d="M166.441 122.854V117.034" stroke="#000033" stroke-width="1.1071" stroke-linecap="round"/>
<path d="M161 114.25L166.314 117.034" stroke="#000033" stroke-width="1.1071" stroke-linecap="round"/>
<path d="M171.628 114.25L166.314 117.034" stroke="#000033" stroke-width="1.1071" stroke-linecap="round"/>
<path fill-rule="evenodd" clip-rule="evenodd" d="M147.987 111.079L152.931 113.875C153.065 113.95 153.147 114.092 153.147 114.245V119.822C153.147 119.975 153.065 120.117 152.931 120.192L147.987 122.988C147.857 123.062 147.699 123.062 147.569 122.988L142.625 120.192C142.491 120.117 142.409 119.975 142.409 119.822V114.245C142.409 114.092 142.491 113.95 142.625 113.875L147.569 111.079C147.699 111.005 147.857 111.005 147.987 111.079Z" fill="white" stroke="#000033" stroke-width="1.1071"/>
<path d="M147.778 122.854V117.034" stroke="#000033" stroke-width="1.1071" stroke-linecap="round"/>
<path d="M142.337 114.25L147.651 117.034" stroke="#000033" stroke-width="1.1071" stroke-linecap="round"/>
<path d="M152.966 114.25L147.651 117.034" stroke="#000033" stroke-width="1.1071" stroke-linecap="round"/>
<path fill-rule="evenodd" clip-rule="evenodd" d="M185.945 111.079L190.889 113.875C191.022 113.95 191.105 114.092 191.105 114.245V119.822C191.105 119.975 191.022 120.117 190.889 120.192L185.945 122.988C185.815 123.062 185.656 123.062 185.526 122.988L180.582 120.192C180.449 120.117 180.367 119.975 180.367 119.822V114.245C180.367 114.092 180.449 113.95 180.582 113.875L185.526 111.079C185.656 111.005 185.815 111.005 185.945 111.079Z" fill="white" stroke="#000033" stroke-width="1.1071"/>
<path d="M185.736 122.854V117.034" stroke="#000033" stroke-width="1.1071" stroke-linecap="round"/>
<path d="M180.295 114.25L185.609 117.034" stroke="#000033" stroke-width="1.1071" stroke-linecap="round"/>
<path d="M190.923 114.25L185.609 117.034" stroke="#000033" stroke-width="1.1071" stroke-linecap="round"/>
<path fill-rule="evenodd" clip-rule="evenodd" d="M166.65 93.6814L171.594 96.4776C171.727 96.553 171.81 96.6944 171.81 96.8477V102.425C171.81 102.578 171.727 102.72 171.594 102.795L166.65 105.591C166.52 105.665 166.361 105.665 166.231 105.591L161.287 102.795C161.154 102.72 161.071 102.578 161.071 102.425V96.8477C161.071 96.6944 161.154 96.553 161.287 96.4776L166.231 93.6814C166.361 93.608 166.52 93.608 166.65 93.6814Z" fill="white" stroke="#000033" stroke-width="1.1071"/>
<path d="M166.441 105.456V99.6363" stroke="#000033" stroke-width="1.1071" stroke-linecap="round"/>
<path d="M161 96.8527L166.314 99.6363" stroke="#000033" stroke-width="1.1071" stroke-linecap="round"/>
<path d="M171.628 96.8527L166.314 99.6363" stroke="#000033" stroke-width="1.1071" stroke-linecap="round"/>
<path fill-rule="evenodd" clip-rule="evenodd" d="M166.65 129.109L171.594 131.905C171.727 131.98 171.81 132.122 171.81 132.275V137.852C171.81 138.005 171.727 138.147 171.594 138.222L166.65 141.018C166.52 141.092 166.361 141.092 166.231 141.018L161.287 138.222C161.154 138.147 161.071 138.005 161.071 137.852V132.275C161.071 132.122 161.154 131.98 161.287 131.905L166.231 129.109C166.361 129.035 166.52 129.035 166.65 129.109Z" fill="white" stroke="#000033" stroke-width="1.1071"/>
<path d="M166.441 140.884V135.064" stroke="#000033" stroke-width="1.1071" stroke-linecap="round"/>
<path d="M161 132.28L166.314 135.064" stroke="#000033" stroke-width="1.1071" stroke-linecap="round"/>
<path d="M171.628 132.28L166.314 135.064" stroke="#000033" stroke-width="1.1071" stroke-linecap="round"/>
<path d="M180.169 117.603H171.944" stroke="#000033" stroke-width="1.1071" stroke-linecap="square"/>
<path d="M161.044 117.591H153.744" stroke="#000033" stroke-width="1.1071" stroke-linecap="square"/>
<path d="M166.567 128.358V123.297" stroke="#000033" stroke-width="1.1071" stroke-linecap="square"/>
<path d="M166.567 110.644V105.583" stroke="#000033" stroke-width="1.1071" stroke-linecap="square"/>
</g>
<path d="M404.479 104.72L404.479 110.778C404.479 111.264 404.594 111.743 404.815 112.176C405.036 112.608 405.356 112.98 405.748 113.261L423.761 133.22L423.761 128.814C423.761 128.093 423.593 127.381 423.27 126.738C422.947 126.094 422.478 125.537 421.902 125.111L404.479 104.72Z" fill="#447CD5"/>
<path d="M418.12 112.22V117.068C418.12 117.537 418.233 117.999 418.449 118.415C418.665 118.831 418.978 119.19 419.361 119.462L423.761 121.952V118.204C423.762 117.509 423.597 116.824 423.281 116.205C422.965 115.585 422.507 115.049 421.943 114.639L418.12 112.22Z" fill="#447CD5"/>
<path d="M404.479 116.494V121.601C404.479 122.093 404.592 122.579 404.807 123.017C405.023 123.455 405.336 123.832 405.72 124.117L410.12 126.738V122.793C410.12 122.062 409.956 121.341 409.64 120.689C409.324 120.037 408.865 119.472 408.302 119.041L404.479 116.494Z" fill="#447CD5"/>
<defs>
<filter id="filter0_dd_154_65" x="334.429" y="257.581" width="135.85" height="151.253" filterUnits="userSpaceOnUse" color-interpolation-filters="sRGB">
<feFlood flood-opacity="0" result="BackgroundImageFix"/>
<feColorMatrix in="SourceAlpha" type="matrix" values="0 0 0 0 0 0 0 0 0 0 0 0 0 0 0 0 0 0 127 0" result="hardAlpha"/>
<feOffset dx="-9.54858" dy="10.5034"/>
<feGaussianBlur stdDeviation="9.07115"/>
<feColorMatrix type="matrix" values="0 0 0 0 0.316369 0 0 0 0 0.366988 0 0 0 0 0.353496 0 0 0 0.25741 0"/>
<feBlend mode="normal" in2="BackgroundImageFix" result="effect1_dropShadow_154_65"/>
<feColorMatrix in="SourceAlpha" type="matrix" values="0 0 0 0 0 0 0 0 0 0 0 0 0 0 0 0 0 0 127 0" result="hardAlpha"/>
<feOffset dx="-3.81943" dy="3.81943"/>
<feGaussianBlur stdDeviation="3.81943"/>
<feColorMatrix type="matrix" values="0 0 0 0 0 0 0 0 0 0 0 0 0 0 0 0 0 0 0.144615 0"/>
<feBlend mode="normal" in2="effect1_dropShadow_154_65" result="effect2_dropShadow_154_65"/>
<feBlend mode="normal" in="SourceGraphic" in2="effect2_dropShadow_154_65" result="shape"/>
</filter>
<filter id="filter1_dd_154_65" x="337.429" y="53.5811" width="135.85" height="151.253" filterUnits="userSpaceOnUse" color-interpolation-filters="sRGB">
<feFlood flood-opacity="0" result="BackgroundImageFix"/>
<feColorMatrix in="SourceAlpha" type="matrix" values="0 0 0 0 0 0 0 0 0 0 0 0 0 0 0 0 0 0 127 0" result="hardAlpha"/>
<feOffset dx="-9.54858" dy="10.5034"/>
<feGaussianBlur stdDeviation="9.07115"/>
<feColorMatrix type="matrix" values="0 0 0 0 0.316369 0 0 0 0 0.366988 0 0 0 0 0.353496 0 0 0 0.25741 0"/>
<feBlend mode="normal" in2="BackgroundImageFix" result="effect1_dropShadow_154_65"/>
<feColorMatrix in="SourceAlpha" type="matrix" values="0 0 0 0 0 0 0 0 0 0 0 0 0 0 0 0 0 0 127 0" result="hardAlpha"/>
<feOffset dx="-3.81943" dy="3.81943"/>
<feGaussianBlur stdDeviation="3.81943"/>
<feColorMatrix type="matrix" values="0 0 0 0 0 0 0 0 0 0 0 0 0 0 0 0 0 0 0.144615 0"/>
<feBlend mode="normal" in2="effect1_dropShadow_154_65" result="effect2_dropShadow_154_65"/>
<feBlend mode="normal" in="SourceGraphic" in2="effect2_dropShadow_154_65" result="shape"/>
</filter>
<filter id="filter2_dd_154_65" x="398.218" y="156.903" width="135.85" height="151.253" filterUnits="userSpaceOnUse" color-interpolation-filters="sRGB">
<feFlood flood-opacity="0" result="BackgroundImageFix"/>
<feColorMatrix in="SourceAlpha" type="matrix" values="0 0 0 0 0 0 0 0 0 0 0 0 0 0 0 0 0 0 127 0" result="hardAlpha"/>
<feOffset dx="-9.54858" dy="10.5034"/>
<feGaussianBlur stdDeviation="9.07115"/>
<feColorMatrix type="matrix" values="0 0 0 0 0.316369 0 0 0 0 0.366988 0 0 0 0 0.353496 0 0 0 0.25741 0"/>
<feBlend mode="normal" in2="BackgroundImageFix" result="effect1_dropShadow_154_65"/>
<feColorMatrix in="SourceAlpha" type="matrix" values="0 0 0 0 0 0 0 0 0 0 0 0 0 0 0 0 0 0 127 0" result="hardAlpha"/>
<feOffset dx="-3.81943" dy="3.81943"/>
<feGaussianBlur stdDeviation="3.81943"/>
<feColorMatrix type="matrix" values="0 0 0 0 0 0 0 0 0 0 0 0 0 0 0 0 0 0 0.144615 0"/>
<feBlend mode="normal" in2="effect1_dropShadow_154_65" result="effect2_dropShadow_154_65"/>
<feBlend mode="normal" in="SourceGraphic" in2="effect2_dropShadow_154_65" result="shape"/>
</filter>
<filter id="filter3_dd_154_65" x="212.279" y="51.0278" width="135.85" height="151.253" filterUnits="userSpaceOnUse" color-interpolation-filters="sRGB">
<feFlood flood-opacity="0" result="BackgroundImageFix"/>
<feColorMatrix in="SourceAlpha" type="matrix" values="0 0 0 0 0 0 0 0 0 0 0 0 0 0 0 0 0 0 127 0" result="hardAlpha"/>
<feOffset dx="-9.54858" dy="10.5034"/>
<feGaussianBlur stdDeviation="9.07115"/>
<feColorMatrix type="matrix" values="0 0 0 0 0.316369 0 0 0 0 0.366988 0 0 0 0 0.353496 0 0 0 0.25741 0"/>
<feBlend mode="normal" in2="BackgroundImageFix" result="effect1_dropShadow_154_65"/>
<feColorMatrix in="SourceAlpha" type="matrix" values="0 0 0 0 0 0 0 0 0 0 0 0 0 0 0 0 0 0 127 0" result="hardAlpha"/>
<feOffset dx="-3.81943" dy="3.81943"/>
<feGaussianBlur stdDeviation="3.81943"/>
<feColorMatrix type="matrix" values="0 0 0 0 0 0 0 0 0 0 0 0 0 0 0 0 0 0 0.144615 0"/>
<feBlend mode="normal" in2="effect1_dropShadow_154_65" result="effect2_dropShadow_154_65"/>
<feBlend mode="normal" in="SourceGraphic" in2="effect2_dropShadow_154_65" result="shape"/>
</filter>
<filter id="filter4_dd_154_65" x="274.826" y="156.903" width="135.85" height="151.253" filterUnits="userSpaceOnUse" color-interpolation-filters="sRGB">
<feFlood flood-opacity="0" result="BackgroundImageFix"/>
<feColorMatrix in="SourceAlpha" type="matrix" values="0 0 0 0 0 0 0 0 0 0 0 0 0 0 0 0 0 0 127 0" result="hardAlpha"/>
<feOffset dx="-9.54858" dy="10.5034"/>
<feGaussianBlur stdDeviation="9.07115"/>
<feColorMatrix type="matrix" values="0 0 0 0 0.316369 0 0 0 0 0.366988 0 0 0 0 0.353496 0 0 0 0.25741 0"/>
<feBlend mode="normal" in2="BackgroundImageFix" result="effect1_dropShadow_154_65"/>
<feColorMatrix in="SourceAlpha" type="matrix" values="0 0 0 0 0 0 0 0 0 0 0 0 0 0 0 0 0 0 127 0" result="hardAlpha"/>
<feOffset dx="-3.81943" dy="3.81943"/>
<feGaussianBlur stdDeviation="3.81943"/>
<feColorMatrix type="matrix" values="0 0 0 0 0 0 0 0 0 0 0 0 0 0 0 0 0 0 0.144615 0"/>
<feBlend mode="normal" in2="effect1_dropShadow_154_65" result="effect2_dropShadow_154_65"/>
<feBlend mode="normal" in="SourceGraphic" in2="effect2_dropShadow_154_65" result="shape"/>
</filter>
<filter id="filter5_dd_154_65" x="150.677" y="158.081" width="135.426" height="150.764" filterUnits="userSpaceOnUse" color-interpolation-filters="sRGB">
<feFlood flood-opacity="0" result="BackgroundImageFix"/>
<feColorMatrix in="SourceAlpha" type="matrix" values="0 0 0 0 0 0 0 0 0 0 0 0 0 0 0 0 0 0 127 0" result="hardAlpha"/>
<feOffset dx="-9.54858" dy="11.4583"/>
<feGaussianBlur stdDeviation="9.07115"/>
<feColorMatrix type="matrix" values="0 0 0 0 0.316369 0 0 0 0 0.366988 0 0 0 0 0.353496 0 0 0 0.25741 0"/>
<feBlend mode="normal" in2="BackgroundImageFix" result="effect1_dropShadow_154_65"/>
<feColorMatrix in="SourceAlpha" type="matrix" values="0 0 0 0 0 0 0 0 0 0 0 0 0 0 0 0 0 0 127 0" result="hardAlpha"/>
<feOffset dx="-4.77429" dy="4.77429"/>
<feGaussianBlur stdDeviation="3.81943"/>
<feColorMatrix type="matrix" values="0 0 0 0 0 0 0 0 0 0 0 0 0 0 0 0 0 0 0.144615 0"/>
<feBlend mode="normal" in2="effect1_dropShadow_154_65" result="effect2_dropShadow_154_65"/>
<feBlend mode="normal" in="SourceGraphic" in2="effect2_dropShadow_154_65" result="shape"/>
</filter>
<filter id="filter6_dd_154_65" x="87.5241" y="50.6429" width="135.85" height="151.253" filterUnits="userSpaceOnUse" color-interpolation-filters="sRGB">
<feFlood flood-opacity="0" result="BackgroundImageFix"/>
<feColorMatrix in="SourceAlpha" type="matrix" values="0 0 0 0 0 0 0 0 0 0 0 0 0 0 0 0 0 0 127 0" result="hardAlpha"/>
<feOffset dx="-9.54858" dy="10.5034"/>
<feGaussianBlur stdDeviation="9.07115"/>
<feColorMatrix type="matrix" values="0 0 0 0 0.316369 0 0 0 0 0.366988 0 0 0 0 0.353496 0 0 0 0.25741 0"/>
<feBlend mode="normal" in2="BackgroundImageFix" result="effect1_dropShadow_154_65"/>
<feColorMatrix in="SourceAlpha" type="matrix" values="0 0 0 0 0 0 0 0 0 0 0 0 0 0 0 0 0 0 127 0" result="hardAlpha"/>
<feOffset dx="-3.81943" dy="3.81943"/>
<feGaussianBlur stdDeviation="3.81943"/>
<feColorMatrix type="matrix" values="0 0 0 0 0 0 0 0 0 0 0 0 0 0 0 0 0 0 0.144615 0"/>
<feBlend mode="normal" in2="effect1_dropShadow_154_65" result="effect2_dropShadow_154_65"/>
<feBlend mode="normal" in="SourceGraphic" in2="effect2_dropShadow_154_65" result="shape"/>
</filter>
<linearGradient id="paint0_linear_154_65" x1="411.903" y1="265.22" x2="411.903" y2="380.188" gradientUnits="userSpaceOnUse">
<stop stop-color="white"/>
<stop offset="1" stop-color="#447CD5" stop-opacity="0.95"/>
</linearGradient>
<linearGradient id="paint1_linear_154_65" x1="414.903" y1="61.22" x2="414.903" y2="176.188" gradientUnits="userSpaceOnUse">
<stop stop-color="white"/>
<stop offset="1" stop-color="#447CD5" stop-opacity="0.95"/>
</linearGradient>
<linearGradient id="paint2_linear_154_65" x1="475.692" y1="164.541" x2="475.692" y2="279.51" gradientUnits="userSpaceOnUse">
<stop stop-color="white"/>
<stop offset="1" stop-color="#447CD5" stop-opacity="0.95"/>
</linearGradient>
<linearGradient id="paint3_linear_154_65" x1="289.753" y1="58.6667" x2="289.753" y2="173.635" gradientUnits="userSpaceOnUse">
<stop stop-color="white"/>
<stop offset="1" stop-color="#447CD5" stop-opacity="0.95"/>
</linearGradient>
<linearGradient id="paint4_linear_154_65" x1="352.3" y1="164.541" x2="352.3" y2="279.51" gradientUnits="userSpaceOnUse">
<stop stop-color="white"/>
<stop offset="1" stop-color="#447CD5" stop-opacity="0.95"/>
</linearGradient>
<linearGradient id="paint5_linear_154_65" x1="227.939" y1="164.765" x2="227.939" y2="279.244" gradientUnits="userSpaceOnUse">
<stop stop-color="white"/>
<stop offset="1" stop-color="#447CD5" stop-opacity="0.95"/>
</linearGradient>
<linearGradient id="paint6_linear_154_65" x1="164.998" y1="58.2817" x2="164.998" y2="173.25" gradientUnits="userSpaceOnUse">
<stop stop-color="white"/>
<stop offset="1" stop-color="#447CD5" stop-opacity="0.95"/>
</linearGradient>
<clipPath id="clip0_154_65">
<rect width="674.13" height="436.37" fill="white" transform="translate(0 0.00488281)"/>
</clipPath>
</defs>
</svg>
