<svg width="1093" height="1490" viewBox="0 0 1093 1490" fill="none" xmlns="http://www.w3.org/2000/svg">
<g filter="url(#filter0_d_12_227)">
<mask id="mask0_12_227" style="mask-type:alpha" maskUnits="userSpaceOnUse" x="203" y="167" width="682" height="1073">
<rect x="203" y="167" width="682" height="1073" fill="#D9D9D9"/>
</mask>
<g mask="url(#mask0_12_227)">
<path d="M348.555 250H744.445C796.108 250 837.989 291.88 837.989 343.542V1352.49C837.989 1404.15 796.108 1446.03 744.445 1446.03H348.555C296.892 1446.03 255.011 1404.15 255.011 1352.49V343.542C255.011 291.88 296.892 250 348.555 250Z" fill="#1D1D1B"/>
<g style="mix-blend-mode:screen">
<path d="M349.112 252.784H743.888C768.107 252.784 791.334 262.405 808.459 279.529C825.584 296.654 835.205 319.88 835.205 344.099V1351.9C835.205 1376.12 825.584 1399.35 808.459 1416.47C791.334 1433.6 768.107 1443.22 743.888 1443.22H349.112C324.893 1443.22 301.666 1433.6 284.541 1416.47C267.416 1399.35 257.795 1376.12 257.795 1351.9V344.099C257.795 332.107 260.157 320.233 264.746 309.154C269.335 298.075 276.062 288.009 284.541 279.529C293.021 271.05 303.087 264.324 314.166 259.735C325.245 255.146 337.12 252.784 349.112 252.784ZM260.579 1351.07C260.579 1374.77 269.995 1397.5 286.755 1414.26C303.514 1431.02 326.245 1440.43 349.947 1440.43H743.053C766.755 1440.43 789.486 1431.02 806.245 1414.26C823.005 1397.5 832.421 1374.77 832.421 1351.07V344.934C832.421 321.233 823.005 298.502 806.245 281.743C789.486 264.983 766.755 255.568 743.053 255.568H349.947C326.245 255.568 303.514 264.983 286.755 281.743C269.995 298.502 260.579 321.233 260.579 344.934V1351.07Z" fill="#706F6F"/>
</g>
<path d="M350.816 259.187H741.973C789.485 259.187 828 297.702 828 345.212V1350.93C828 1398.44 789.485 1436.95 741.973 1436.95H350.816C303.305 1436.95 264.789 1398.44 264.789 1350.93V345.212C264.789 297.702 303.305 259.187 350.816 259.187Z" fill="#0E0E0E"/>
<path d="M395.884 278.118H350.225C332.479 278.192 315.484 285.293 302.962 297.868C290.439 310.442 283.408 327.466 283.408 345.212V1350.79C283.408 1368.53 290.439 1385.56 302.962 1398.13C315.484 1410.71 332.479 1417.81 350.225 1417.88H742.496C760.291 1417.88 777.357 1410.81 789.94 1398.23C802.523 1385.65 809.592 1368.58 809.592 1350.79V345.212C809.592 327.418 802.523 310.352 789.94 297.77C777.357 285.187 760.291 278.118 742.496 278.118H395.884Z" fill="white"/>
<rect x="281.5" y="277.5" width="527" height="1141" rx="67.5" stroke="white" stroke-opacity="0.2"/>
<g clip-path="url(#clip0_12_227)">
<mask id="mask1_12_227" style="mask-type:luminance" maskUnits="userSpaceOnUse" x="281" y="274" width="531" height="1164">
<path d="M812 274H281V1438H812V274Z" fill="white"/>
</mask>
<g mask="url(#mask1_12_227)">
<path d="M812 274H281V1438H812V274Z" fill="url(#paint0_linear_12_227)"/>
<g filter="url(#filter1_f_12_227)">
<path d="M279.638 7.47661C279.638 318.392 399.116 570.439 546.5 570.439C693.884 570.439 813.362 318.392 813.362 7.47661C813.362 -303.439 693.884 -555.486 546.5 -555.486C399.116 -555.486 279.638 -303.439 279.638 7.47661Z" fill="url(#paint1_linear_12_227)" fill-opacity="0.5"/>
</g>
<path d="M524.715 369.187V380.609C524.715 381.712 524.967 382.798 525.452 383.777C525.935 384.756 526.638 385.6 527.497 386.238L568.557 416.78V407.957C568.557 406.321 568.188 404.709 567.48 403.25C566.772 401.792 565.744 400.529 564.482 399.564L524.715 369.187Z" fill="white"/>
<path d="M556.191 370.348V381.335C556.191 382.397 556.438 383.444 556.912 384.388C557.384 385.331 558.07 386.145 558.912 386.76L568.557 392.403V383.909C568.558 382.335 568.197 380.783 567.504 379.379C566.811 377.975 565.807 376.759 564.572 375.831L556.191 370.348Z" fill="white"/>
<path d="M524.715 393.564V405.138C524.715 406.255 524.962 407.355 525.436 408.347C525.908 409.34 526.594 410.195 527.436 410.841L537.081 416.78V407.84C537.081 406.182 536.72 404.549 536.028 403.071C535.335 401.593 534.331 400.313 533.096 399.336L524.715 393.564Z" fill="white"/>
<path d="M510.643 524.665H501.854L499.566 529.645H496.229L506.388 507.854L516.187 529.645H512.796L510.643 524.665ZM509.379 521.757L506.335 514.785L503.143 521.757H509.379ZM527.715 507.216H530.72V529.645H527.715V528.29C526.536 529.441 525.201 530.016 523.713 530.016C521.941 530.016 520.469 529.37 519.298 528.078C518.138 526.759 517.556 525.113 517.556 523.138C517.556 521.209 518.138 519.597 519.298 518.304C520.451 517.003 521.9 516.353 523.647 516.353C525.162 516.353 526.518 516.971 527.715 518.212V507.216ZM520.614 523.138C520.614 524.377 520.947 525.386 521.612 526.165C522.295 526.954 523.155 527.348 524.191 527.348C525.3 527.348 526.195 526.967 526.878 526.206C527.56 525.417 527.901 524.418 527.901 523.205C527.901 521.992 527.56 520.991 526.878 520.204C526.195 519.433 525.309 519.048 524.218 519.048C523.19 519.048 522.33 519.437 521.638 520.216C520.956 521.005 520.614 521.978 520.614 523.138ZM544.042 507.216H547.047V529.645H544.042V528.29C542.863 529.441 541.53 530.016 540.041 530.016C538.268 530.016 536.796 529.37 535.627 528.078C534.465 526.759 533.884 525.113 533.884 523.138C533.884 521.209 534.465 519.597 535.627 518.304C536.779 517.003 538.227 516.353 539.974 516.353C541.49 516.353 542.846 516.971 544.042 518.212V507.216ZM536.942 523.138C536.942 524.377 537.276 525.386 537.94 526.165C538.622 526.954 539.483 527.348 540.519 527.348C541.627 527.348 542.523 526.967 543.205 526.206C543.887 525.417 544.229 524.418 544.229 523.205C544.229 521.992 543.887 520.991 543.205 520.204C542.523 519.433 541.637 519.048 540.546 519.048C539.518 519.048 538.658 519.437 537.966 520.216C537.284 521.005 536.942 521.978 536.942 523.138ZM550.824 516.71H553.816V517.866C554.366 517.291 554.853 516.897 555.278 516.684C555.712 516.463 556.227 516.353 556.82 516.353C557.61 516.353 558.434 516.608 559.293 517.122L557.925 519.858C557.357 519.45 556.803 519.248 556.262 519.248C554.631 519.248 553.816 520.477 553.816 522.938V529.645H550.824V516.71ZM572.617 523.882H563.335C563.416 524.944 563.762 525.79 564.373 526.418C564.984 527.038 565.768 527.348 566.726 527.348C567.47 527.348 568.087 527.17 568.575 526.816C569.053 526.463 569.599 525.807 570.21 524.851L572.737 526.259C572.346 526.922 571.934 527.494 571.499 527.972C571.065 528.441 570.601 528.83 570.104 529.14C569.607 529.441 569.07 529.663 568.494 529.804C567.918 529.945 567.293 530.016 566.619 530.016C564.687 530.016 563.137 529.397 561.966 528.157C560.796 526.909 560.211 525.254 560.211 523.191C560.211 521.146 560.778 519.491 561.913 518.225C563.056 516.977 564.572 516.353 566.46 516.353C568.366 516.353 569.874 516.959 570.98 518.171C572.081 519.376 572.629 521.044 572.629 523.178L572.617 523.882ZM569.545 521.438C569.129 519.845 568.123 519.048 566.527 519.048C566.163 519.048 565.822 519.105 565.503 519.22C565.184 519.327 564.892 519.486 564.625 519.699C564.369 519.902 564.147 520.151 563.96 520.442C563.775 520.734 563.632 521.066 563.536 521.438H569.545ZM583.426 518.915L580.954 520.229C580.563 519.433 580.08 519.034 579.504 519.034C579.229 519.034 578.994 519.128 578.8 519.313C578.604 519.491 578.507 519.721 578.507 520.004C578.507 520.5 579.083 520.991 580.235 521.478C581.822 522.159 582.89 522.789 583.44 523.364C583.99 523.939 584.264 524.714 584.264 525.688C584.264 526.936 583.803 527.98 582.882 528.822C581.986 529.618 580.905 530.016 579.637 530.016C577.465 530.016 575.927 528.958 575.023 526.842L577.576 525.661C577.931 526.281 578.201 526.675 578.387 526.842C578.751 527.179 579.185 527.348 579.69 527.348C580.7 527.348 581.206 526.887 581.206 525.967C581.206 525.435 580.816 524.94 580.036 524.479C579.735 524.328 579.433 524.182 579.132 524.041C578.83 523.9 578.525 523.753 578.214 523.603C577.346 523.178 576.734 522.753 576.379 522.328C575.927 521.788 575.701 521.093 575.701 520.243C575.701 519.119 576.086 518.19 576.858 517.454C577.647 516.72 578.604 516.353 579.73 516.353C581.388 516.353 582.62 517.207 583.426 518.915ZM594.489 518.915L592.016 520.229C591.625 519.433 591.142 519.034 590.566 519.034C590.291 519.034 590.057 519.128 589.862 519.313C589.666 519.491 589.57 519.721 589.57 520.004C589.57 520.5 590.145 520.991 591.297 521.478C592.885 522.159 593.952 522.789 594.502 523.364C595.052 523.939 595.326 524.714 595.326 525.688C595.326 526.936 594.866 527.98 593.944 528.822C593.048 529.618 591.967 530.016 590.7 530.016C588.528 530.016 586.989 528.958 586.085 526.842L588.638 525.661C588.994 526.281 589.263 526.675 589.45 526.842C589.813 527.179 590.248 527.348 590.753 527.348C591.763 527.348 592.268 526.887 592.268 525.967C592.268 525.435 591.879 524.94 591.099 524.479C590.798 524.328 590.495 524.182 590.194 524.041C589.892 523.9 589.587 523.753 589.277 523.603C588.408 523.178 587.797 522.753 587.441 522.328C586.989 521.788 586.763 521.093 586.763 520.243C586.763 519.119 587.149 518.19 587.921 517.454C588.709 516.72 589.666 516.353 590.792 516.353C592.451 516.353 593.683 517.207 594.489 518.915Z" fill="white"/>
<path d="M758.9 570.439H700.354V661.547H758.9V570.439Z" fill="url(#paint2_linear_12_227)" fill-opacity="0.06"/>
<path d="M722.932 627.099C722.34 627.099 721.832 626.877 721.41 626.432C720.988 625.989 720.777 625.455 720.777 624.832V608.967C720.777 608.352 720.938 607.607 721.844 607.607C722.753 607.607 722.932 608.302 722.932 608.967C722.932 609.633 722.932 624.832 722.932 624.832H734.79C734.79 624.832 735.697 624.832 735.697 625.955C735.697 627.078 734.79 627.099 734.79 627.099H722.932ZM727.244 622.565C726.652 622.565 726.144 622.343 725.722 621.9C725.3 621.455 725.089 620.922 725.089 620.3V606.701C725.089 606.077 725.3 605.544 725.722 605.1C726.144 604.656 726.652 604.435 727.244 604.435H736.945C737.537 604.435 738.045 604.656 738.469 605.1C738.889 605.544 739.101 606.077 739.101 606.701V620.3C739.101 620.922 738.889 621.455 738.469 621.9C738.045 622.343 737.537 622.565 736.945 622.565H727.244ZM727.244 620.3H736.945V606.701H727.244V620.3Z" fill="white"/>
<path d="M699.673 661.547V570.439" stroke="white" stroke-opacity="0.3"/>
<path d="M350.676 626.192V611.958L360.407 622.126V612.864H362.421V627.003L352.689 616.861V626.192H350.676ZM371.461 611.613H373.414V626.192H371.461V625.312C370.695 626.06 369.828 626.434 368.86 626.434C367.707 626.434 366.751 626.013 365.991 625.173C365.236 624.315 364.858 623.245 364.858 621.963C364.858 620.707 365.236 619.66 365.991 618.82C366.739 617.974 367.682 617.551 368.817 617.551C369.802 617.551 370.683 617.954 371.461 618.76V611.613ZM366.846 621.963C366.846 622.768 367.062 623.424 367.494 623.93C367.938 624.443 368.497 624.699 369.171 624.699C369.891 624.699 370.473 624.451 370.917 623.956C371.36 623.443 371.582 622.793 371.582 622.005C371.582 621.217 371.36 620.566 370.917 620.055C370.473 619.554 369.897 619.304 369.188 619.304C368.52 619.304 367.961 619.557 367.512 620.063C367.068 620.576 366.846 621.208 366.846 621.963ZM382.074 611.613H384.027V626.192H382.074V625.312C381.308 626.06 380.441 626.434 379.473 626.434C378.321 626.434 377.364 626.013 376.604 625.173C375.849 624.315 375.471 623.245 375.471 621.963C375.471 620.707 375.849 619.66 376.604 618.82C377.353 617.974 378.295 617.551 379.43 617.551C380.415 617.551 381.297 617.954 382.074 618.76V611.613ZM377.459 621.963C377.459 622.768 377.675 623.424 378.107 623.93C378.551 624.443 379.11 624.699 379.784 624.699C380.504 624.699 381.086 624.451 381.53 623.956C381.973 623.443 382.195 622.793 382.195 622.005C382.195 621.217 381.973 620.566 381.53 620.055C381.086 619.554 380.51 619.304 379.801 619.304C379.133 619.304 378.574 619.557 378.125 620.063C377.681 620.576 377.459 621.208 377.459 621.963ZM387.528 612.864L391.218 622.1L394.96 612.864H397.164L391.175 627.192L385.324 612.864H387.528ZM402.894 612.864V621.488C402.894 622.517 402.822 623.286 402.678 623.791C402.534 624.368 402.289 624.854 401.944 625.251C401.269 626.039 400.376 626.434 399.264 626.434C398.423 626.434 397.637 626.215 396.905 625.777L397.89 624.059C398.38 624.387 398.838 624.552 399.264 624.552C399.864 624.552 400.278 624.325 400.509 623.869C400.751 623.415 400.872 622.621 400.872 621.488V612.864H402.894ZM405.72 617.784H407.674V618.562C408.354 617.889 409.12 617.551 409.973 617.551C410.952 617.551 411.715 617.859 412.263 618.475C412.735 618.998 412.971 619.854 412.971 621.038V626.192H411.018V621.496C411.018 620.668 410.903 620.094 410.673 619.779C410.448 619.456 410.039 619.295 409.445 619.295C408.8 619.295 408.342 619.508 408.071 619.934C407.806 620.354 407.674 621.087 407.674 622.135V626.192H405.72V617.784ZM423.352 614.849L421.718 615.816C421.413 615.287 421.121 614.942 420.845 614.78C420.556 614.596 420.185 614.504 419.73 614.504C419.172 614.504 418.707 614.663 418.338 614.979C417.969 615.29 417.786 615.682 417.786 616.153C417.786 616.803 418.269 617.327 419.237 617.724L420.569 618.268C421.651 618.704 422.443 619.24 422.944 619.874C423.447 620.501 423.697 621.272 423.697 622.187C423.697 623.412 423.288 624.425 422.469 625.225C421.646 626.031 420.623 626.434 419.402 626.434C418.243 626.434 417.287 626.091 416.532 625.406C415.789 624.722 415.325 623.758 415.141 622.515L417.181 622.066C417.272 622.848 417.434 623.389 417.664 623.688C418.08 624.263 418.684 624.552 419.479 624.552C420.107 624.552 420.628 624.341 421.044 623.922C421.459 623.502 421.666 622.969 421.666 622.324C421.666 622.066 421.628 621.829 421.553 621.617C421.485 621.398 421.372 621.2 421.217 621.022C421.067 620.837 420.871 620.668 420.628 620.512C420.388 620.351 420.099 620.199 419.764 620.055L418.477 619.519C416.65 618.748 415.737 617.621 415.737 616.136C415.737 615.135 416.12 614.297 416.887 613.624C417.654 612.944 418.607 612.606 419.748 612.606C421.286 612.606 422.487 613.354 423.352 614.849ZM426.809 617.784L429.011 622.584L431.389 617.016L433.782 622.584L435.961 617.784H438.139L433.731 626.821L431.389 621.409L429.021 626.821L424.622 617.784H426.809ZM441.847 618.078H447.602V612.864H449.616V626.192H447.602V619.968H441.847V626.192H439.833V612.864H441.847V618.078ZM458.648 630.766V625.251C457.876 626.039 456.994 626.434 456.003 626.434C454.868 626.434 453.926 626.016 453.177 625.181C452.422 624.341 452.045 623.291 452.045 622.031C452.045 620.754 452.422 619.686 453.177 618.828C453.937 617.977 454.89 617.551 456.038 617.551C457.012 617.551 457.882 617.933 458.648 618.699V617.784H460.601V630.766H458.648ZM454.032 621.945C454.032 622.757 454.252 623.415 454.689 623.922C455.127 624.439 455.683 624.699 456.357 624.699C457.071 624.699 457.65 624.451 458.094 623.956C458.543 623.456 458.768 622.806 458.768 622.005C458.768 621.217 458.547 620.566 458.103 620.055C457.66 619.554 457.084 619.304 456.374 619.304C455.706 619.304 455.148 619.557 454.698 620.063C454.254 620.576 454.032 621.202 454.032 621.945ZM466.123 620.434L461.767 612.864H464.083L467.135 618.19L470.194 612.864H472.51L468.137 620.434V626.192H466.123V620.434ZM475.803 617.784V626.192H473.858V617.784H475.803ZM473.565 614.289C473.565 613.949 473.689 613.655 473.937 613.408C474.185 613.16 474.48 613.037 474.826 613.037C475.179 613.037 475.478 613.16 475.726 613.408C475.974 613.65 476.098 613.946 476.098 614.297C476.098 614.648 475.974 614.947 475.726 615.195C475.484 615.442 475.187 615.566 474.835 615.566C474.484 615.566 474.185 615.442 473.937 615.195C473.689 614.947 473.565 614.645 473.565 614.289ZM480.919 624.629L477.134 617.784H479.39L481.966 622.618L484.368 617.784H486.564L479.857 630.766H477.635L480.919 624.629ZM489.838 630.766H487.894V617.784H489.838V618.699C490.605 617.933 491.475 617.551 492.448 617.551C493.607 617.551 494.56 617.977 495.309 618.828C496.07 619.675 496.45 620.743 496.45 622.031C496.45 623.291 496.073 624.341 495.318 625.181C494.57 626.016 493.625 626.434 492.484 626.434C491.498 626.434 490.617 626.039 489.838 625.251V630.766ZM494.462 622.04C494.462 621.234 494.243 620.578 493.806 620.072C493.362 619.56 492.804 619.304 492.128 619.304C491.415 619.304 490.835 619.552 490.392 620.045C489.948 620.54 489.727 621.192 489.727 621.997C489.727 622.785 489.948 623.435 490.392 623.948C490.829 624.448 491.405 624.699 492.12 624.699C492.794 624.699 493.351 624.446 493.788 623.938C494.237 623.433 494.462 622.799 494.462 622.04ZM500.451 617.784V626.192H498.507V617.784H500.451ZM498.213 614.289C498.213 613.949 498.337 613.655 498.585 613.408C498.833 613.16 499.129 613.037 499.475 613.037C499.826 613.037 500.126 613.16 500.374 613.408C500.622 613.65 500.746 613.946 500.746 614.297C500.746 614.648 500.622 614.947 500.374 615.195C500.131 615.442 499.835 615.566 499.483 615.566C499.132 615.566 498.833 615.442 498.585 615.195C498.337 614.947 498.213 614.645 498.213 614.289ZM509.12 611.613H511.073V626.192H509.12V625.312C508.354 626.06 507.486 626.434 506.518 626.434C505.367 626.434 504.409 626.013 503.65 625.173C502.894 624.315 502.517 623.245 502.517 621.963C502.517 620.707 502.894 619.66 503.65 618.82C504.399 617.974 505.341 617.551 506.476 617.551C507.461 617.551 508.343 617.954 509.12 618.76V611.613ZM504.505 621.963C504.505 622.768 504.721 623.424 505.153 623.93C505.597 624.443 506.156 624.699 506.83 624.699C507.55 624.699 508.132 624.451 508.576 623.956C509.02 623.443 509.241 622.793 509.241 622.005C509.241 621.217 509.02 620.566 508.576 620.055C508.132 619.554 507.556 619.304 506.847 619.304C506.179 619.304 505.62 619.557 505.171 620.063C504.727 620.576 504.505 621.208 504.505 621.963ZM516.181 624.629L512.396 617.784H514.651L517.227 622.618L519.63 617.784H521.825L515.118 630.766H512.897L516.181 624.629ZM529.361 611.613H531.315V626.192H529.361V625.312C528.594 626.06 527.727 626.434 526.759 626.434C525.607 626.434 524.651 626.013 523.89 625.173C523.136 624.315 522.757 623.245 522.757 621.963C522.757 620.707 523.136 619.66 523.89 618.82C524.639 617.974 525.581 617.551 526.717 617.551C527.701 617.551 528.584 617.954 529.361 618.76V611.613ZM524.745 621.963C524.745 622.768 524.962 623.424 525.395 623.93C525.837 624.443 526.397 624.699 527.071 624.699C527.791 624.699 528.372 624.451 528.816 623.956C529.26 623.443 529.482 622.793 529.482 622.005C529.482 621.217 529.26 620.566 528.816 620.055C528.372 619.554 527.797 619.304 527.089 619.304C526.42 619.304 525.86 619.557 525.411 620.063C524.967 620.576 524.745 621.208 524.745 621.963ZM533.768 611.613H535.714V618.484C536.404 617.863 537.168 617.551 538.004 617.551C538.954 617.551 539.715 617.859 540.286 618.475C540.769 619.01 541.012 619.864 541.012 621.038V626.192H539.067V621.22C539.067 620.547 538.946 620.06 538.704 619.761C538.467 619.456 538.084 619.304 537.555 619.304C536.874 619.304 536.396 619.514 536.12 619.934C535.849 620.359 535.714 621.091 535.714 622.126V626.192H533.768V611.613ZM550.518 614.754H545.868V617.957H550.355V619.847H545.868V626.192H543.855V612.864H550.518V614.754ZM554.434 611.613V618.76C555.211 617.954 556.092 617.551 557.078 617.551C558.213 617.551 559.158 617.974 559.913 618.82C560.667 619.66 561.045 620.707 561.045 621.963C561.045 623.257 560.664 624.327 559.904 625.173C559.149 626.013 558.196 626.434 557.044 626.434C556.069 626.434 555.199 626.06 554.434 625.312V626.192H552.488V611.613H554.434ZM559.057 622.048C559.057 621.243 558.838 620.586 558.4 620.081C557.956 619.562 557.4 619.304 556.732 619.304C556.017 619.304 555.436 619.554 554.986 620.055C554.543 620.55 554.321 621.194 554.321 621.988C554.321 622.806 554.54 623.458 554.978 623.948C555.415 624.448 555.991 624.699 556.706 624.699C557.38 624.699 557.94 624.448 558.383 623.948C558.833 623.441 559.057 622.808 559.057 622.048ZM564.952 619.261C563.971 618.57 563.482 617.629 563.482 616.438C563.482 615.357 563.854 614.452 564.598 613.728C565.346 613.003 566.276 612.64 567.389 612.64C568.494 612.64 569.416 613.003 570.154 613.728C570.892 614.447 571.261 615.353 571.261 616.446C571.261 617.592 570.774 618.526 569.8 619.251C570.335 619.539 570.756 619.96 571.062 620.512C571.373 621.064 571.528 621.687 571.528 622.376C571.528 623.556 571.142 624.523 570.37 625.276C569.598 626.031 568.61 626.408 567.405 626.408C566.173 626.408 565.156 626.027 564.355 625.268C563.548 624.508 563.145 623.554 563.145 622.402C563.145 620.906 563.747 619.859 564.952 619.261ZM565.375 616.429C565.375 616.999 565.568 617.477 565.954 617.863C566.346 618.253 566.818 618.449 567.371 618.449C567.918 618.449 568.388 618.253 568.78 617.863C569.172 617.471 569.367 617.002 569.367 616.455C569.367 615.909 569.172 615.44 568.78 615.048C568.388 614.656 567.918 614.462 567.371 614.462C566.824 614.462 566.354 614.656 565.962 615.048C565.571 615.44 565.375 615.899 565.375 616.429ZM565.124 622.334C565.124 622.948 565.337 623.479 565.763 623.922C566.196 624.359 566.72 624.577 567.337 624.577C567.947 624.577 568.468 624.361 568.901 623.93C569.333 623.492 569.549 622.969 569.549 622.36C569.549 621.744 569.333 621.22 568.901 620.788C568.468 620.357 567.947 620.14 567.337 620.14C566.731 620.14 566.21 620.357 565.773 620.788C565.34 621.22 565.124 621.734 565.124 622.334ZM581.942 614.849L580.31 615.816C580.003 615.287 579.713 614.942 579.436 614.78C579.148 614.596 578.777 614.504 578.322 614.504C577.762 614.504 577.298 614.663 576.93 614.979C576.561 615.29 576.376 615.682 576.376 616.153C576.376 616.803 576.861 617.327 577.829 617.724L579.159 618.268C580.243 618.704 581.035 619.24 581.536 619.874C582.038 620.501 582.288 621.272 582.288 622.187C582.288 623.412 581.88 624.425 581.061 625.225C580.238 626.031 579.215 626.434 577.992 626.434C576.835 626.434 575.878 626.091 575.124 625.406C574.38 624.722 573.916 623.758 573.732 622.515L575.772 622.066C575.864 622.848 576.025 623.389 576.255 623.688C576.67 624.263 577.276 624.552 578.071 624.552C578.699 624.552 579.22 624.341 579.634 623.922C580.05 623.502 580.257 622.969 580.257 622.324C580.257 622.066 580.22 621.829 580.145 621.617C580.076 621.398 579.964 621.2 579.807 621.022C579.658 620.837 579.461 620.668 579.22 620.512C578.978 620.351 578.689 620.199 578.356 620.055L577.068 619.519C575.242 618.748 574.328 617.621 574.328 616.136C574.328 615.135 574.711 614.297 575.478 613.624C576.244 612.944 577.197 612.606 578.338 612.606C579.877 612.606 581.078 613.354 581.942 614.849ZM587.136 624.361H592.14V626.192H583.282L588.736 619.596H584.441V617.784H592.581L587.136 624.361ZM600.248 614.746H593.662V612.864H603.61L595.191 626.648L593.593 625.639L600.248 614.746ZM604.898 617.784H606.85V618.562C607.531 617.889 608.296 617.551 609.15 617.551C610.129 617.551 610.893 617.859 611.44 618.475C611.912 618.998 612.148 619.854 612.148 621.038V626.192H610.195V621.496C610.195 620.668 610.08 620.094 609.85 619.779C609.625 619.456 609.215 619.295 608.622 619.295C607.978 619.295 607.519 619.508 607.248 619.934C606.984 620.354 606.85 621.087 606.85 622.135V626.192H604.898V617.784ZM616.97 624.629L613.185 617.784H615.441L618.016 622.618L620.419 617.784H622.614L615.908 630.766H613.686L616.97 624.629ZM631.681 614.754H626.331V617.957H631.525V619.847H626.331V624.301H631.681V626.192H624.317V612.864H631.681V614.754ZM635.899 617.784V626.192H633.953V617.784H635.899ZM633.66 614.289C633.66 613.949 633.784 613.655 634.032 613.408C634.28 613.16 634.575 613.037 634.921 613.037C635.274 613.037 635.573 613.16 635.821 613.408C636.069 613.65 636.191 613.946 636.191 614.297C636.191 614.648 636.069 614.947 635.821 615.195C635.579 615.442 635.282 615.566 634.931 615.566C634.579 615.566 634.28 615.442 634.032 615.195C633.784 614.947 633.66 614.645 633.66 614.289ZM644.566 617.784H646.52V626.192H644.566V625.312C643.766 626.06 642.905 626.434 641.982 626.434C640.819 626.434 639.857 626.013 639.095 625.173C638.341 624.315 637.964 623.245 637.964 621.963C637.964 620.702 638.341 619.652 639.095 618.812C639.851 617.972 640.796 617.551 641.93 617.551C642.911 617.551 643.789 617.954 644.566 618.76V617.784ZM639.952 621.963C639.952 622.768 640.167 623.424 640.6 623.93C641.044 624.443 641.602 624.699 642.276 624.699C642.996 624.699 643.579 624.451 644.022 623.956C644.465 623.443 644.687 622.793 644.687 622.005C644.687 621.217 644.465 620.566 644.022 620.055C643.579 619.554 643.002 619.304 642.294 619.304C641.625 619.304 641.067 619.557 640.616 620.063C640.174 620.576 639.952 621.208 639.952 621.963ZM650.021 612.864L653.71 622.1L657.453 612.864H659.656L653.667 627.192L647.816 612.864H650.021ZM663.338 620.78V626.192H661.324V612.864H663.606C664.724 612.864 665.568 612.942 666.138 613.098C666.714 613.253 667.222 613.547 667.659 613.978C668.426 614.726 668.81 615.669 668.81 616.809C668.81 618.029 668.4 618.995 667.582 619.709C666.763 620.423 665.66 620.78 664.272 620.78H663.338ZM663.338 618.915H664.091C665.94 618.915 666.864 618.204 666.864 616.783C666.864 615.408 665.911 614.72 664.003 614.72H663.338V618.915ZM672.456 630.766H670.512V617.784H672.456V618.699C673.222 617.933 674.092 617.551 675.066 617.551C676.225 617.551 677.178 617.977 677.927 618.828C678.688 619.675 679.068 620.743 679.068 622.031C679.068 623.291 678.69 624.341 677.936 625.181C677.187 626.016 676.242 626.434 675.101 626.434C674.116 626.434 673.235 626.039 672.456 625.251V630.766ZM677.08 622.04C677.08 621.234 676.861 620.578 676.423 620.072C675.98 619.56 675.421 619.304 674.746 619.304C674.033 619.304 673.453 619.552 673.01 620.045C672.566 620.54 672.344 621.192 672.344 621.997C672.344 622.785 672.566 623.435 673.01 623.948C673.447 624.448 674.023 624.699 674.738 624.699C675.412 624.699 675.969 624.446 676.406 623.938C676.855 623.433 677.08 622.799 677.08 622.04ZM686.017 619.217L684.409 620.072C684.156 619.554 683.841 619.295 683.467 619.295C683.288 619.295 683.136 619.356 683.009 619.477C682.883 619.591 682.819 619.741 682.819 619.926C682.819 620.248 683.193 620.566 683.942 620.883C684.974 621.326 685.668 621.734 686.025 622.109C686.382 622.483 686.561 622.987 686.561 623.619C686.561 624.431 686.262 625.109 685.661 625.656C685.08 626.174 684.378 626.434 683.554 626.434C682.142 626.434 681.143 625.746 680.554 624.371L682.214 623.603C682.444 624.005 682.62 624.261 682.741 624.371C682.977 624.588 683.26 624.699 683.588 624.699C684.244 624.699 684.574 624.399 684.574 623.801C684.574 623.456 684.319 623.133 683.813 622.834C683.616 622.736 683.42 622.641 683.224 622.549C683.03 622.458 682.831 622.362 682.628 622.264C682.064 621.988 681.667 621.712 681.435 621.435C681.143 621.084 680.995 620.633 680.995 620.081C680.995 619.349 681.246 618.745 681.747 618.268C682.26 617.791 682.883 617.551 683.614 617.551C684.691 617.551 685.493 618.106 686.017 619.217Z" fill="white"/>
<path d="M752.092 570.439H340.908C337.148 570.439 334.1 573.483 334.1 577.238V654.748C334.1 658.503 337.148 661.547 340.908 661.547H752.092C755.852 661.547 758.9 658.503 758.9 654.748V577.238C758.9 573.483 755.852 570.439 752.092 570.439Z" stroke="#FAFAFA" stroke-opacity="0.3"/>
<path opacity="0.7" d="M594.826 1195.71L598.957 1201.39H596.494L592.683 1195.94H592.32V1201.39H590.306V1188.06H592.666C594.429 1188.06 595.702 1188.4 596.486 1189.06C597.351 1189.79 597.782 1190.77 597.782 1191.98C597.782 1192.92 597.511 1193.73 596.97 1194.41C596.429 1195.09 595.714 1195.52 594.826 1195.71ZM592.32 1194.19H592.96C594.867 1194.19 595.82 1193.46 595.82 1192C595.82 1190.64 594.893 1189.96 593.037 1189.96H592.32V1194.19ZM607.972 1197.65H601.939C601.991 1198.34 602.216 1198.89 602.613 1199.3C603.011 1199.7 603.521 1199.9 604.143 1199.9C604.627 1199.9 605.027 1199.78 605.344 1199.55C605.656 1199.32 606.01 1198.9 606.408 1198.28L608.05 1199.19C607.796 1199.62 607.528 1199.99 607.246 1200.3C606.963 1200.61 606.661 1200.86 606.338 1201.06C606.016 1201.26 605.667 1201.4 605.293 1201.5C604.918 1201.59 604.512 1201.63 604.074 1201.63C602.819 1201.63 601.81 1201.23 601.049 1200.43C600.289 1199.61 599.909 1198.54 599.909 1197.2C599.909 1195.87 600.277 1194.79 601.015 1193.97C601.758 1193.16 602.744 1192.75 603.971 1192.75C605.21 1192.75 606.188 1193.15 606.909 1193.94C607.624 1194.72 607.98 1195.8 607.98 1197.19L607.972 1197.65ZM605.976 1196.06C605.705 1195.02 605.05 1194.51 604.014 1194.51C603.777 1194.51 603.555 1194.54 603.348 1194.62C603.141 1194.69 602.951 1194.79 602.778 1194.93C602.61 1195.06 602.466 1195.22 602.346 1195.41C602.225 1195.6 602.132 1195.82 602.068 1196.06H605.976ZM616.657 1193.35V1195.93C616.214 1195.39 615.816 1195.02 615.465 1194.82C615.119 1194.61 614.713 1194.51 614.246 1194.51C613.515 1194.51 612.906 1194.76 612.423 1195.27C611.938 1195.78 611.697 1196.43 611.697 1197.2C611.697 1197.99 611.93 1198.63 612.397 1199.14C612.87 1199.65 613.471 1199.9 614.204 1199.9C614.67 1199.9 615.082 1199.8 615.439 1199.6C615.785 1199.4 616.192 1199.02 616.657 1198.46V1201.02C615.869 1201.43 615.079 1201.63 614.29 1201.63C612.988 1201.63 611.899 1201.21 611.023 1200.37C610.146 1199.53 609.709 1198.48 609.709 1197.22C609.709 1195.97 610.153 1194.91 611.04 1194.05C611.927 1193.18 613.017 1192.75 614.307 1192.75C615.137 1192.75 615.921 1192.95 616.657 1193.35ZM626.207 1197.65H620.176C620.227 1198.34 620.452 1198.89 620.85 1199.3C621.247 1199.7 621.756 1199.9 622.379 1199.9C622.863 1199.9 623.264 1199.78 623.581 1199.55C623.891 1199.32 624.247 1198.9 624.644 1198.28L626.286 1199.19C626.032 1199.62 625.765 1199.99 625.482 1200.3C625.2 1200.61 624.897 1200.86 624.575 1201.06C624.252 1201.26 623.903 1201.4 623.529 1201.5C623.155 1201.59 622.748 1201.63 622.31 1201.63C621.054 1201.63 620.046 1201.23 619.285 1200.43C618.524 1199.61 618.144 1198.54 618.144 1197.2C618.144 1195.87 618.513 1194.79 619.251 1193.97C619.995 1193.16 620.979 1192.75 622.207 1192.75C623.445 1192.75 624.425 1193.15 625.145 1193.94C625.859 1194.72 626.217 1195.8 626.217 1197.19L626.207 1197.65ZM624.211 1196.06C623.94 1195.02 623.287 1194.51 622.249 1194.51C622.014 1194.51 621.792 1194.54 621.583 1194.62C621.376 1194.69 621.186 1194.79 621.014 1194.93C620.847 1195.06 620.703 1195.22 620.581 1195.41C620.46 1195.6 620.369 1195.82 620.305 1196.06H624.211ZM630.288 1192.98V1201.39H628.342V1192.98H630.288ZM628.049 1189.49C628.049 1189.15 628.173 1188.86 628.42 1188.61C628.668 1188.36 628.964 1188.24 629.31 1188.24C629.661 1188.24 629.961 1188.36 630.209 1188.61C630.457 1188.85 630.58 1189.15 630.58 1189.5C630.58 1189.85 630.457 1190.15 630.209 1190.4C629.968 1190.64 629.671 1190.77 629.32 1190.77C628.967 1190.77 628.668 1190.64 628.42 1190.4C628.173 1190.15 628.049 1189.85 628.049 1189.49ZM633.796 1192.98L635.974 1197.71L638.144 1192.98H640.33L635.957 1201.97L631.618 1192.98H633.796ZM649.008 1197.65H642.975C643.026 1198.34 643.251 1198.89 643.648 1199.3C644.046 1199.7 644.557 1199.9 645.179 1199.9C645.662 1199.9 646.063 1199.78 646.38 1199.55C646.69 1199.32 647.046 1198.9 647.443 1198.28L649.085 1199.19C648.832 1199.62 648.564 1199.99 648.28 1200.3C647.999 1200.61 647.696 1200.86 647.374 1201.06C647.051 1201.26 646.702 1201.4 646.328 1201.5C645.954 1201.59 645.546 1201.63 645.109 1201.63C643.853 1201.63 642.845 1201.23 642.084 1200.43C641.324 1199.61 640.943 1198.54 640.943 1197.2C640.943 1195.87 641.312 1194.79 642.05 1193.97C642.793 1193.16 643.778 1192.75 645.006 1192.75C646.244 1192.75 647.224 1193.15 647.944 1193.94C648.659 1194.72 649.016 1195.8 649.016 1197.19L649.008 1197.65ZM647.01 1196.06C646.739 1195.02 646.086 1194.51 645.048 1194.51C644.813 1194.51 644.591 1194.54 644.384 1194.62C644.175 1194.69 643.986 1194.79 643.813 1194.93C643.646 1195.06 643.501 1195.22 643.38 1195.41C643.259 1195.6 643.168 1195.82 643.104 1196.06H647.01Z" fill="white"/>
<path opacity="0.7" d="M618.662 1153.71C619.115 1153.71 619.541 1153.64 619.939 1153.5C620.335 1153.36 620.704 1153.12 621.044 1152.78L629.894 1143.94C630.518 1143.32 630.831 1142.52 630.831 1141.56C630.831 1140.6 630.518 1139.8 629.894 1139.18C629.271 1138.56 628.476 1138.25 627.512 1138.25C626.548 1138.25 625.752 1138.56 625.129 1139.18L622.065 1142.24V1131.36C622.065 1130.4 621.74 1129.59 621.089 1128.94C620.436 1128.29 619.626 1127.96 618.662 1127.96C617.698 1127.96 616.889 1128.29 616.238 1128.94C615.584 1129.59 615.258 1130.4 615.258 1131.36V1142.24L612.194 1139.18C611.571 1138.56 610.776 1138.25 609.812 1138.25C608.848 1138.25 608.052 1138.56 607.429 1139.18C606.805 1139.8 606.492 1140.6 606.492 1141.56C606.492 1142.52 606.805 1143.32 607.429 1143.94L616.279 1152.78C616.619 1153.12 616.988 1153.36 617.384 1153.5C617.782 1153.64 618.208 1153.71 618.662 1153.71ZM618.662 1175.56C613.953 1175.56 609.528 1174.66 605.387 1172.88C601.245 1171.09 597.642 1168.67 594.58 1165.61C591.517 1162.55 589.092 1158.96 587.305 1154.82C585.518 1150.68 584.623 1146.26 584.623 1141.56C584.623 1136.86 585.518 1132.44 587.305 1128.3C589.092 1124.17 591.517 1120.57 594.58 1117.51C597.642 1114.45 601.245 1112.03 605.387 1110.24C609.528 1108.46 613.953 1107.57 618.662 1107.57C623.37 1107.57 627.795 1108.46 631.937 1110.24C636.078 1112.03 639.681 1114.45 642.744 1117.51C645.808 1120.57 648.231 1124.17 650.018 1128.3C651.805 1132.44 652.7 1136.86 652.7 1141.56C652.7 1146.26 651.805 1150.68 650.018 1154.82C648.231 1158.96 645.808 1162.55 642.744 1165.61C639.681 1168.67 636.078 1171.09 631.937 1172.88C627.795 1174.66 623.37 1175.56 618.662 1175.56ZM618.662 1168.76C626.207 1168.76 632.632 1166.11 637.938 1160.81C643.241 1155.51 645.892 1149.1 645.892 1141.56C645.892 1134.02 643.241 1127.61 637.938 1122.31C632.632 1117.01 626.207 1114.36 618.662 1114.36C611.116 1114.36 604.692 1117.01 599.389 1122.31C594.083 1127.61 591.431 1134.02 591.431 1141.56C591.431 1149.1 594.083 1155.51 599.389 1160.81C604.692 1166.11 611.116 1168.76 618.662 1168.76Z" fill="white"/>
<path opacity="0.7" d="M461.698 1190.05L460.064 1191.02C459.759 1190.49 459.468 1190.14 459.191 1189.98C458.903 1189.8 458.531 1189.7 458.076 1189.7C457.518 1189.7 457.054 1189.86 456.685 1190.18C456.316 1190.49 456.132 1190.88 456.132 1191.35C456.132 1192 456.615 1192.53 457.583 1192.92L458.915 1193.47C459.997 1193.91 460.79 1194.44 461.291 1195.07C461.793 1195.7 462.044 1196.47 462.044 1197.39C462.044 1198.61 461.634 1199.63 460.816 1200.43C459.992 1201.23 458.969 1201.63 457.748 1201.63C456.589 1201.63 455.634 1201.29 454.879 1200.61C454.136 1199.92 453.672 1198.96 453.488 1197.72L455.527 1197.27C455.619 1198.05 455.781 1198.59 456.011 1198.89C456.426 1199.46 457.031 1199.75 457.826 1199.75C458.453 1199.75 458.975 1199.54 459.39 1199.12C459.805 1198.7 460.012 1198.17 460.012 1197.53C460.012 1197.27 459.976 1197.03 459.901 1196.82C459.831 1196.6 459.718 1196.4 459.563 1196.22C459.413 1196.04 459.217 1195.87 458.975 1195.71C458.734 1195.55 458.445 1195.4 458.112 1195.26L456.824 1194.72C454.996 1193.95 454.084 1192.82 454.084 1191.34C454.084 1190.34 454.467 1189.5 455.233 1188.83C456 1188.15 456.953 1187.81 458.094 1187.81C459.633 1187.81 460.833 1188.55 461.698 1190.05ZM471.767 1197.65H465.734C465.785 1198.34 466.01 1198.89 466.408 1199.3C466.805 1199.7 467.316 1199.9 467.938 1199.9C468.421 1199.9 468.822 1199.78 469.139 1199.55C469.451 1199.32 469.805 1198.9 470.202 1198.28L471.844 1199.19C471.591 1199.62 471.323 1199.99 471.041 1200.3C470.758 1200.61 470.455 1200.86 470.133 1201.06C469.81 1201.26 469.461 1201.4 469.087 1201.5C468.713 1201.59 468.307 1201.63 467.868 1201.63C466.613 1201.63 465.604 1201.23 464.843 1200.43C464.083 1199.61 463.702 1198.54 463.702 1197.2C463.702 1195.87 464.071 1194.79 464.809 1193.97C465.552 1193.16 466.538 1192.75 467.765 1192.75C469.004 1192.75 469.983 1193.15 470.703 1193.94C471.418 1194.72 471.775 1195.8 471.775 1197.19L471.767 1197.65ZM469.771 1196.06C469.5 1195.02 468.845 1194.51 467.809 1194.51C467.572 1194.51 467.35 1194.54 467.143 1194.62C466.934 1194.69 466.745 1194.79 466.572 1194.93C466.405 1195.06 466.26 1195.22 466.141 1195.41C466.019 1195.6 465.927 1195.82 465.863 1196.06H469.771ZM473.901 1192.98H475.854V1193.76C476.535 1193.09 477.3 1192.75 478.154 1192.75C479.132 1192.75 479.896 1193.06 480.444 1193.68C480.916 1194.2 481.152 1195.05 481.152 1196.24V1201.39H479.199V1196.7C479.199 1195.87 479.083 1195.3 478.853 1194.98C478.629 1194.66 478.219 1194.5 477.627 1194.5C476.981 1194.5 476.522 1194.71 476.251 1195.13C475.987 1195.55 475.854 1196.29 475.854 1197.34V1201.39H473.901V1192.98ZM489.821 1186.81H491.774V1201.39H489.821V1200.51C489.054 1201.26 488.187 1201.63 487.219 1201.63C486.067 1201.63 485.111 1201.21 484.35 1200.37C483.596 1199.52 483.217 1198.45 483.217 1197.16C483.217 1195.91 483.596 1194.86 484.35 1194.02C485.099 1193.18 486.041 1192.75 487.176 1192.75C488.161 1192.75 489.043 1193.15 489.821 1193.96V1186.81ZM485.205 1197.16C485.205 1197.97 485.421 1198.63 485.854 1199.13C486.297 1199.64 486.856 1199.9 487.53 1199.9C488.251 1199.9 488.832 1199.65 489.276 1199.16C489.72 1198.64 489.942 1197.99 489.942 1197.21C489.942 1196.42 489.72 1195.77 489.276 1195.26C488.832 1194.76 488.256 1194.51 487.548 1194.51C486.88 1194.51 486.32 1194.76 485.871 1195.26C485.427 1195.78 485.205 1196.41 485.205 1197.16Z" fill="white"/>
<path opacity="0.7" d="M472.977 1129.41C472.524 1129.41 472.097 1129.48 471.701 1129.62C471.304 1129.76 470.935 1130 470.594 1130.34L461.744 1139.18C461.121 1139.8 460.808 1140.6 460.808 1141.56C460.808 1142.52 461.121 1143.32 461.744 1143.94C462.368 1144.56 463.163 1144.88 464.127 1144.88C465.091 1144.88 465.886 1144.56 466.51 1143.94L469.573 1140.88V1151.76C469.573 1152.72 469.898 1153.53 470.549 1154.18C471.203 1154.83 472.013 1155.16 472.977 1155.16C473.941 1155.16 474.75 1154.83 475.4 1154.18C476.054 1153.53 476.381 1152.72 476.381 1151.76V1140.88L479.444 1143.94C480.068 1144.56 480.863 1144.88 481.827 1144.88C482.791 1144.88 483.586 1144.56 484.21 1143.94C484.833 1143.32 485.146 1142.52 485.146 1141.56C485.146 1140.6 484.833 1139.8 484.21 1139.18L475.36 1130.34C475.019 1130 474.65 1129.76 474.254 1129.62C473.856 1129.48 473.43 1129.41 472.977 1129.41ZM472.977 1107.57C477.685 1107.57 482.11 1108.46 486.252 1110.24C490.394 1112.03 493.996 1114.45 497.06 1117.51C500.123 1120.57 502.547 1124.17 504.333 1128.3C506.121 1132.44 507.015 1136.86 507.015 1141.56C507.015 1146.26 506.121 1150.68 504.333 1154.82C502.547 1158.96 500.122 1162.55 497.058 1165.61C493.995 1168.67 490.394 1171.09 486.252 1172.88C482.11 1174.66 477.685 1175.56 472.977 1175.56C468.269 1175.56 463.844 1174.66 459.702 1172.88C455.56 1171.09 451.958 1168.67 448.894 1165.61C445.831 1162.55 443.407 1158.96 441.621 1154.82C439.833 1150.68 438.938 1146.26 438.938 1141.56C438.938 1136.86 439.833 1132.44 441.621 1128.3C443.407 1124.17 445.831 1120.57 448.894 1117.51C451.958 1114.45 455.56 1112.03 459.702 1110.24C463.844 1108.46 468.269 1107.57 472.977 1107.57ZM472.977 1114.36C465.431 1114.36 459.006 1117.01 453.7 1122.31C448.397 1127.61 445.746 1134.02 445.746 1141.56C445.746 1149.1 448.397 1155.51 453.7 1160.81C459.006 1166.11 465.431 1168.76 472.977 1168.76C480.523 1168.76 486.946 1166.11 492.25 1160.81C497.555 1155.51 500.208 1149.1 500.208 1141.56C500.208 1134.02 497.555 1127.61 492.25 1122.31C486.946 1117.01 480.523 1114.36 472.977 1114.36Z" fill="white"/>
<path d="M377.193 763.984C378.789 763.984 380.163 763.737 381.315 763.241C382.476 762.736 383.367 762.024 383.988 761.103C384.608 760.182 384.918 759.093 384.918 757.837V757.823C384.918 756.822 384.715 755.968 384.307 755.26C383.899 754.551 383.265 753.963 382.405 753.493C381.554 753.024 380.451 752.653 379.095 752.378L377.074 751.966C375.948 751.737 375.132 751.426 374.627 751.038C374.122 750.647 373.869 750.147 373.869 749.536V749.523C373.869 749.045 374.007 748.633 374.281 748.288C374.556 747.934 374.937 747.66 375.425 747.465C375.921 747.27 376.502 747.173 377.167 747.173C377.84 747.173 378.43 747.275 378.935 747.478C379.449 747.673 379.861 747.943 380.172 748.288C380.482 748.633 380.672 749.04 380.743 749.51L380.77 749.67H384.546L384.533 749.497C384.453 748.408 384.112 747.448 383.509 746.615C382.915 745.774 382.082 745.114 381.009 744.637C379.937 744.158 378.656 743.919 377.167 743.919C375.748 743.919 374.49 744.162 373.39 744.649C372.291 745.136 371.427 745.823 370.798 746.708C370.177 747.593 369.863 748.624 369.854 749.802V749.815C369.854 751.267 370.31 752.457 371.223 753.387C372.145 754.308 373.59 754.967 375.558 755.366L377.592 755.778C378.78 756.025 379.626 756.339 380.132 756.72C380.646 757.093 380.903 757.593 380.903 758.221V758.235C380.903 758.722 380.752 759.156 380.451 759.536C380.149 759.908 379.728 760.2 379.188 760.412C378.647 760.624 378.013 760.73 377.286 760.73C376.551 760.73 375.895 760.63 375.318 760.426C374.742 760.222 374.281 759.939 373.936 759.576C373.59 759.213 373.386 758.793 373.324 758.314L373.311 758.181H369.455L369.468 758.394C369.548 759.536 369.907 760.528 370.545 761.368C371.192 762.2 372.079 762.846 373.204 763.307C374.33 763.759 375.66 763.984 377.193 763.984ZM390.41 757.491H396.26C397.607 757.491 398.786 757.221 399.797 756.681C400.807 756.141 401.592 755.379 402.15 754.396C402.718 753.415 403.001 752.263 403.001 750.944V750.918C403.001 749.607 402.718 748.461 402.15 747.478C401.592 746.496 400.807 745.734 399.797 745.194C398.786 744.645 397.607 744.37 396.26 744.37H390.41V747.544H395.276C396.429 747.544 397.324 747.837 397.962 748.421C398.609 749.005 398.933 749.842 398.933 750.93V750.957C398.933 752.047 398.609 752.887 397.962 753.48C397.324 754.065 396.429 754.357 395.276 754.357H390.41V757.491ZM388.402 763.533H392.417V744.37H388.402V763.533ZM406.379 763.533H418.89V760.226H410.394V744.37H406.379V763.533Z" fill="white"/>
<path d="M377.193 859.171C375.66 859.171 374.33 858.945 373.204 858.494C372.079 858.033 371.192 857.387 370.545 856.555C369.907 855.714 369.548 854.723 369.468 853.581L369.455 853.367H373.311L373.324 853.5C373.386 853.979 373.59 854.399 373.936 854.762C374.281 855.125 374.742 855.408 375.318 855.612C375.895 855.816 376.551 855.917 377.286 855.917C378.013 855.917 378.647 855.811 379.188 855.599C379.728 855.387 380.149 855.094 380.451 854.723C380.752 854.342 380.903 853.908 380.903 853.422V853.408C380.903 852.78 380.646 852.279 380.132 851.907C379.626 851.526 378.78 851.212 377.592 850.964L375.558 850.552C373.59 850.154 372.145 849.494 371.223 848.574C370.31 847.644 369.854 846.454 369.854 845.002V844.988C369.863 843.81 370.177 842.78 370.798 841.894C371.427 841.009 372.291 840.323 373.39 839.836C374.49 839.349 375.748 839.105 377.167 839.105C378.656 839.105 379.937 839.345 381.009 839.823C382.082 840.301 382.915 840.96 383.509 841.802C384.112 842.634 384.453 843.594 384.533 844.683L384.546 844.856H380.77L380.743 844.697C380.672 844.227 380.482 843.82 380.172 843.475C379.861 843.129 379.449 842.86 378.935 842.664C378.43 842.461 377.84 842.36 377.167 842.36C376.502 842.36 375.921 842.456 375.425 842.652C374.937 842.846 374.556 843.121 374.281 843.475C374.007 843.82 373.869 844.232 373.869 844.709V844.723C373.869 845.333 374.122 845.834 374.627 846.224C375.132 846.613 375.948 846.923 377.074 847.153L379.095 847.565C380.451 847.84 381.554 848.211 382.405 848.68C383.265 849.149 383.899 849.738 384.307 850.446C384.715 851.155 384.918 852.009 384.918 853.01V853.023C384.918 854.28 384.608 855.369 383.988 856.289C383.367 857.21 382.476 857.923 381.315 858.427C380.163 858.923 378.789 859.171 377.193 859.171ZM390.41 852.678V849.543H395.276C396.429 849.543 397.324 849.251 397.962 848.666C398.609 848.073 398.933 847.233 398.933 846.144V846.117C398.933 845.029 398.609 844.191 397.962 843.608C397.324 843.023 396.429 842.731 395.276 842.731H390.41V839.557H396.26C397.607 839.557 398.786 839.832 399.797 840.381C400.807 840.921 401.592 841.682 402.15 842.664C402.718 843.647 403.001 844.794 403.001 846.104V846.13C403.001 847.449 402.718 848.601 402.15 849.583C401.592 850.566 400.807 851.327 399.797 851.867C398.786 852.407 397.607 852.678 396.26 852.678H390.41ZM388.402 858.719V839.557H392.417V858.719H388.402ZM414.795 859.171C413.368 859.171 412.087 858.941 410.952 858.48C409.818 858.02 408.852 857.356 408.054 856.488C407.256 855.612 406.644 854.554 406.219 853.314C405.793 852.075 405.581 850.676 405.581 849.118V849.106C405.581 847.051 405.953 845.276 406.698 843.781C407.442 842.283 408.497 841.133 409.862 840.328C411.227 839.513 412.841 839.105 414.702 839.105C416.218 839.105 417.569 839.38 418.758 839.93C419.955 840.469 420.929 841.217 421.682 842.173C422.445 843.129 422.924 844.236 423.119 845.493L423.132 845.639H419.143L419.104 845.52C418.829 844.564 418.306 843.824 417.534 843.302C416.763 842.77 415.819 842.505 414.702 842.505C413.665 842.505 412.77 842.77 412.016 843.302C411.272 843.824 410.695 844.577 410.288 845.559C409.88 846.533 409.676 847.702 409.676 849.065V849.092C409.676 850.128 409.796 851.057 410.035 851.881C410.274 852.704 410.62 853.408 411.072 853.991C411.533 854.568 412.078 855.01 412.708 855.32C413.346 855.62 414.064 855.771 414.862 855.771C415.739 855.771 416.51 855.608 417.176 855.28C417.848 854.943 418.377 854.48 418.758 853.885C419.147 853.284 419.355 852.58 419.383 851.775L419.395 851.442H415.194V848.494H423.305V850.872C423.305 852.156 423.109 853.31 422.72 854.337C422.329 855.355 421.763 856.227 421.018 856.953C420.283 857.671 419.387 858.219 418.332 858.6C417.286 858.98 416.107 859.171 414.795 859.171Z" fill="white"/>
<path d="M643.42 769.424C644.864 769.424 646.136 769.141 647.235 768.574C648.335 768.007 649.194 767.215 649.815 766.197C650.436 765.178 650.745 764.001 650.745 762.664V762.638C650.745 761.416 650.479 760.336 649.948 759.398C649.416 758.45 648.685 757.706 647.754 757.166C646.824 756.626 645.755 756.357 644.55 756.357C643.937 756.357 643.361 756.441 642.821 756.609C642.29 756.777 641.819 757.017 641.412 757.327C641.004 757.635 640.667 758.008 640.401 758.442H640.201L640.68 752.997H649.589V749.81H637.542L636.652 761.137H640.109C640.215 760.925 640.343 760.73 640.494 760.553C640.653 760.375 640.822 760.212 640.999 760.061C641.327 759.796 641.695 759.596 642.103 759.464C642.52 759.323 642.968 759.252 643.446 759.252C644.128 759.252 644.731 759.398 645.254 759.69C645.786 759.982 646.203 760.389 646.504 760.911C646.806 761.425 646.956 762.022 646.956 762.705V762.731C646.956 763.412 646.806 764.018 646.504 764.55C646.203 765.072 645.786 765.484 645.254 765.785C644.731 766.087 644.124 766.236 643.432 766.236C642.83 766.236 642.284 766.126 641.797 765.904C641.319 765.674 640.924 765.369 640.614 764.988C640.313 764.599 640.113 764.165 640.016 763.686L639.989 763.594H636.333L636.345 763.793C636.426 764.856 636.762 765.812 637.356 766.662C637.959 767.512 638.778 768.185 639.816 768.68C640.853 769.176 642.054 769.424 643.42 769.424ZM661.449 769.37C662.982 769.37 664.334 769.135 665.504 768.666C666.675 768.197 667.587 767.543 668.243 766.701C668.9 765.851 669.228 764.878 669.228 763.78V763.753C669.228 762.913 669.032 762.159 668.642 761.496C668.261 760.823 667.734 760.265 667.06 759.822C666.396 759.37 665.628 759.062 664.759 758.893V758.813C665.877 758.538 666.781 758.026 667.473 757.272C668.173 756.512 668.522 755.613 668.522 754.577V754.551C668.522 753.559 668.222 752.679 667.618 751.908C667.015 751.129 666.182 750.518 665.119 750.076C664.055 749.633 662.831 749.411 661.449 749.411C660.058 749.411 658.83 749.633 657.766 750.076C656.702 750.518 655.868 751.129 655.267 751.908C654.673 752.679 654.375 753.559 654.375 754.551V754.577C654.375 755.613 654.721 756.512 655.412 757.272C656.113 758.026 657.022 758.538 658.138 758.813V758.893C657.269 759.062 656.499 759.37 655.825 759.822C655.151 760.265 654.624 760.823 654.243 761.496C653.861 762.159 653.671 762.913 653.671 763.753V763.78C653.671 764.878 653.999 765.851 654.655 766.701C655.31 767.543 656.22 768.197 657.381 768.666C658.551 769.135 659.907 769.37 661.449 769.37ZM661.449 766.462C660.748 766.462 660.129 766.338 659.588 766.091C659.046 765.834 658.621 765.484 658.311 765.041C658.01 764.589 657.859 764.081 657.859 763.514V763.488C657.859 762.913 658.01 762.403 658.311 761.961C658.612 761.509 659.034 761.155 659.574 760.898C660.115 760.642 660.74 760.513 661.449 760.513C662.159 760.513 662.778 760.642 663.31 760.898C663.851 761.155 664.272 761.509 664.574 761.961C664.884 762.403 665.038 762.913 665.038 763.488V763.514C665.038 764.081 664.884 764.589 664.574 765.041C664.264 765.484 663.837 765.834 663.297 766.091C662.766 766.338 662.149 766.462 661.449 766.462ZM661.449 757.605C660.838 757.605 660.296 757.494 659.826 757.272C659.357 757.052 658.989 756.742 658.723 756.343C658.466 755.945 658.338 755.484 658.338 754.962V754.936C658.338 754.414 658.47 753.957 658.737 753.568C659.003 753.17 659.366 752.86 659.826 752.638C660.296 752.418 660.838 752.306 661.449 752.306C662.051 752.306 662.583 752.418 663.045 752.638C663.515 752.86 663.882 753.17 664.148 753.568C664.415 753.957 664.547 754.414 664.547 754.936V754.962C664.547 755.484 664.415 755.945 664.148 756.343C663.89 756.742 663.527 757.052 663.057 757.272C662.597 757.494 662.061 757.605 661.449 757.605ZM680.064 769.37C681.597 769.37 682.949 769.135 684.119 768.666C685.29 768.197 686.202 767.543 686.858 766.701C687.515 765.851 687.843 764.878 687.843 763.78V763.753C687.843 762.913 687.647 762.159 687.257 761.496C686.876 760.823 686.349 760.265 685.675 759.822C685.009 759.37 684.243 759.062 683.374 758.893V758.813C684.492 758.538 685.396 758.026 686.086 757.272C686.787 756.512 687.137 755.613 687.137 754.577V754.551C687.137 753.559 686.837 752.679 686.233 751.908C685.63 751.129 684.797 750.518 683.734 750.076C682.67 749.633 681.446 749.411 680.064 749.411C678.673 749.411 677.445 749.633 676.381 750.076C675.317 750.518 674.483 751.129 673.881 751.908C673.286 752.679 672.99 753.559 672.99 754.551V754.577C672.99 755.613 673.336 756.512 674.027 757.272C674.727 758.026 675.636 758.538 676.753 758.813V758.893C675.884 759.062 675.114 759.37 674.44 759.822C673.766 760.265 673.239 760.823 672.858 761.496C672.476 762.159 672.286 762.913 672.286 763.753V763.78C672.286 764.878 672.614 765.851 673.269 766.701C673.925 767.543 674.835 768.197 675.995 768.666C677.166 769.135 678.522 769.37 680.064 769.37ZM680.064 766.462C679.363 766.462 678.744 766.338 678.202 766.091C677.661 765.834 677.236 765.484 676.926 765.041C676.625 764.589 676.474 764.081 676.474 763.514V763.488C676.474 762.913 676.625 762.403 676.926 761.961C677.227 761.509 677.649 761.155 678.189 760.898C678.73 760.642 679.355 760.513 680.064 760.513C680.772 760.513 681.393 760.642 681.925 760.898C682.466 761.155 682.887 761.509 683.189 761.961C683.498 762.403 683.653 762.913 683.653 763.488V763.514C683.653 764.081 683.498 764.589 683.189 765.041C682.879 765.484 682.452 765.834 681.912 766.091C681.379 766.338 680.764 766.462 680.064 766.462ZM680.064 757.605C679.452 757.605 678.911 757.494 678.441 757.272C677.972 757.052 677.604 756.742 677.338 756.343C677.081 755.945 676.952 755.484 676.952 754.962V754.936C676.952 754.414 677.085 753.957 677.351 753.568C677.618 753.17 677.981 752.86 678.441 752.638C678.911 752.418 679.452 752.306 680.064 752.306C680.666 752.306 681.198 752.418 681.66 752.638C682.13 752.86 682.497 753.17 682.763 753.568C683.028 753.957 683.162 754.414 683.162 754.936V754.962C683.162 755.484 683.028 755.945 682.763 756.343C682.505 756.742 682.142 757.052 681.672 757.272C681.212 757.494 680.676 757.605 680.064 757.605ZM692.908 769.278C693.573 769.278 694.122 769.06 694.556 768.627C694.991 768.193 695.209 767.653 695.209 767.007C695.209 766.36 694.991 765.825 694.556 765.4C694.122 764.966 693.573 764.75 692.908 764.75C692.251 764.75 691.703 764.966 691.259 765.4C690.824 765.825 690.608 766.36 690.608 767.007C690.608 767.653 690.824 768.193 691.259 768.627C691.703 769.06 692.251 769.278 692.908 769.278ZM702.535 768.972H706.55V749.81H702.547L697.589 753.25V756.848L702.335 753.568H702.535V768.972ZM718.863 769.424C720.307 769.424 721.579 769.141 722.678 768.574C723.778 768.007 724.637 767.215 725.258 766.197C725.879 765.178 726.189 764.001 726.189 762.664V762.638C726.189 761.416 725.922 760.336 725.391 759.398C724.859 758.45 724.128 757.706 723.196 757.166C722.266 756.626 721.198 756.357 719.993 756.357C719.381 756.357 718.804 756.441 718.264 756.609C717.733 756.777 717.263 757.017 716.854 757.327C716.447 757.635 716.11 758.008 715.844 758.442H715.644L716.123 752.997H725.032V749.81H712.985L712.094 761.137H715.551C715.658 760.925 715.787 760.73 715.937 760.553C716.096 760.375 716.265 760.212 716.442 760.061C716.77 759.796 717.138 759.596 717.546 759.464C717.963 759.323 718.411 759.252 718.889 759.252C719.572 759.252 720.174 759.398 720.697 759.69C721.229 759.982 721.646 760.389 721.947 760.911C722.249 761.425 722.399 762.022 722.399 762.705V762.731C722.399 763.412 722.249 764.018 721.947 764.55C721.646 765.072 721.229 765.484 720.697 765.785C720.174 766.087 719.567 766.236 718.876 766.236C718.273 766.236 717.727 766.126 717.24 765.904C716.762 765.674 716.367 765.369 716.056 764.988C715.756 764.599 715.555 764.165 715.459 763.686L715.432 763.594H711.776L711.788 763.793C711.868 764.856 712.205 765.812 712.8 766.662C713.401 767.512 714.222 768.185 715.259 768.68C716.296 769.176 717.497 769.424 718.863 769.424Z" fill="white"/>
<path d="M600.345 858.719H614.2V855.506H604.507L605.69 856.342V854.364L604.507 856.342L609.346 851.84C610.499 850.778 611.407 849.853 612.072 849.065C612.746 848.268 613.219 847.53 613.495 846.848C613.778 846.157 613.921 845.445 613.921 844.709V844.67C613.921 843.572 613.632 842.607 613.056 841.775C612.488 840.934 611.7 840.279 610.69 839.81C609.678 839.341 608.509 839.105 607.178 839.105C605.796 839.105 604.572 839.367 603.509 839.889C602.446 840.411 601.612 841.137 601.009 842.067C600.416 842.997 600.115 844.073 600.105 845.294L600.119 845.361H603.828L603.841 845.28C603.841 844.678 603.975 844.152 604.24 843.7C604.515 843.241 604.892 842.882 605.37 842.625C605.858 842.36 606.417 842.226 607.046 842.226C607.648 842.226 608.167 842.346 608.601 842.585C609.045 842.815 609.387 843.139 609.625 843.555C609.865 843.961 609.984 844.435 609.984 844.976V845.015C609.984 845.467 609.892 845.9 609.705 846.317C609.519 846.733 609.187 847.215 608.707 847.763C608.229 848.313 607.547 849.012 606.661 849.862L600.345 856.011V858.719ZM625.102 859.118C626.636 859.118 627.988 858.883 629.158 858.413C630.327 857.944 631.241 857.29 631.897 856.449C632.552 855.599 632.88 854.625 632.88 853.528V853.5C632.88 852.66 632.685 851.907 632.296 851.243C631.915 850.57 631.386 850.013 630.714 849.569C630.048 849.118 629.282 848.809 628.413 848.641V848.56C629.529 848.286 630.433 847.773 631.125 847.02C631.826 846.259 632.176 845.361 632.176 844.324V844.299C632.176 843.306 631.874 842.426 631.272 841.655C630.669 840.876 629.836 840.265 628.772 839.823C627.709 839.38 626.485 839.159 625.102 839.159C623.71 839.159 622.483 839.38 621.419 839.823C620.355 840.265 619.522 840.876 618.919 841.655C618.325 842.426 618.028 843.306 618.028 844.299V844.324C618.028 845.361 618.374 846.259 619.066 847.02C619.766 847.773 620.675 848.286 621.792 848.56V848.641C620.923 848.809 620.151 849.118 619.478 849.569C618.805 850.013 618.276 850.57 617.896 851.243C617.515 851.907 617.325 852.66 617.325 853.5V853.528C617.325 854.625 617.651 855.599 618.308 856.449C618.964 857.29 619.872 857.944 621.033 858.413C622.204 858.883 623.56 859.118 625.102 859.118ZM625.102 856.209C624.402 856.209 623.781 856.085 623.24 855.838C622.7 855.581 622.275 855.232 621.965 854.788C621.662 854.337 621.513 853.828 621.513 853.261V853.235C621.513 852.66 621.662 852.15 621.965 851.708C622.266 851.257 622.686 850.902 623.228 850.645C623.769 850.389 624.394 850.26 625.102 850.26C625.811 850.26 626.432 850.389 626.964 850.645C627.505 850.902 627.925 851.257 628.226 851.708C628.537 852.15 628.692 852.66 628.692 853.235V853.261C628.692 853.828 628.537 854.337 628.226 854.788C627.917 855.232 627.491 855.581 626.951 855.838C626.418 856.085 625.803 856.209 625.102 856.209ZM625.102 847.353C624.49 847.353 623.95 847.241 623.48 847.02C623.01 846.799 622.643 846.489 622.377 846.091C622.12 845.692 621.991 845.231 621.991 844.709V844.683C621.991 844.161 622.124 843.704 622.389 843.315C622.656 842.917 623.02 842.607 623.48 842.385C623.95 842.165 624.49 842.054 625.102 842.054C625.705 842.054 626.237 842.165 626.697 842.385C627.167 842.607 627.536 842.917 627.802 843.315C628.067 843.704 628.2 844.161 628.2 844.683V844.709C628.2 845.231 628.067 845.692 627.802 846.091C627.544 846.489 627.181 846.799 626.711 847.02C626.251 847.241 625.714 847.353 625.102 847.353ZM643.77 859.184C645.206 859.184 646.478 858.892 647.586 858.307C648.694 857.715 649.563 856.91 650.192 855.891C650.821 854.864 651.137 853.7 651.137 852.399V852.372C651.137 851.159 650.87 850.083 650.339 849.145C649.816 848.197 649.084 847.453 648.144 846.914C647.214 846.374 646.124 846.104 644.874 846.104C643.996 846.104 643.225 846.236 642.561 846.503C641.895 846.759 641.337 847.104 640.885 847.538C640.442 847.971 640.1 848.45 639.861 848.972H639.436V852.464H640.234V852.438C640.234 851.783 640.389 851.204 640.699 850.699C641.018 850.185 641.443 849.787 641.975 849.504C642.508 849.212 643.105 849.065 643.77 849.065C644.435 849.065 645.029 849.216 645.552 849.516C646.075 849.809 646.487 850.217 646.788 850.739C647.09 851.251 647.24 851.84 647.24 852.505V852.531C647.24 853.177 647.081 853.766 646.762 854.297C646.452 854.819 646.031 855.236 645.499 855.546C644.976 855.846 644.386 855.997 643.73 855.997C643.083 855.997 642.494 855.842 641.962 855.532C641.431 855.222 641.008 854.802 640.699 854.271C640.389 853.73 640.234 853.129 640.234 852.464L639.635 849.265C639.635 849.123 639.635 848.99 639.635 848.866C639.635 848.733 639.64 848.601 639.648 848.468C639.701 847.317 639.874 846.277 640.167 845.347C640.468 844.409 640.916 843.665 641.51 843.116C642.113 842.568 642.875 842.293 643.797 842.293C644.32 842.293 644.785 842.377 645.192 842.544C645.601 842.713 645.947 842.948 646.23 843.249C646.523 843.541 646.745 843.887 646.894 844.285L646.947 844.405H650.884L650.856 844.285C650.662 843.284 650.241 842.395 649.594 841.616C648.946 840.837 648.127 840.226 647.134 839.783C646.141 839.331 645.029 839.105 643.797 839.105C642.148 839.105 640.729 839.513 639.542 840.328C638.355 841.133 637.437 842.297 636.789 843.82C636.142 845.343 635.82 847.166 635.82 849.29V849.318C635.82 850.99 636.018 852.447 636.417 853.687C636.824 854.917 637.388 855.94 638.106 856.754C638.833 857.569 639.676 858.18 640.633 858.586C641.598 858.985 642.645 859.184 643.77 859.184ZM662.039 859.118C663.573 859.118 664.925 858.883 666.095 858.413C667.264 857.944 668.178 857.29 668.834 856.449C669.489 855.599 669.817 854.625 669.817 853.528V853.5C669.817 852.66 669.623 851.907 669.233 851.243C668.852 850.57 668.324 850.013 667.65 849.569C666.985 849.118 666.219 848.809 665.35 848.641V848.56C666.466 848.286 667.371 847.773 668.062 847.02C668.763 846.259 669.113 845.361 669.113 844.324V844.299C669.113 843.306 668.811 842.426 668.209 841.655C667.606 840.876 666.773 840.265 665.709 839.823C664.645 839.38 663.422 839.159 662.039 839.159C660.647 839.159 659.421 839.38 658.356 839.823C657.292 840.265 656.459 840.876 655.856 841.655C655.262 842.426 654.966 843.306 654.966 844.299V844.324C654.966 845.361 655.311 846.259 656.003 847.02C656.703 847.773 657.611 848.286 658.729 848.56V848.641C657.86 848.809 657.088 849.118 656.416 849.569C655.742 850.013 655.213 850.57 654.832 851.243C654.451 851.907 654.26 852.66 654.26 853.5V853.528C654.26 854.625 654.588 855.599 655.245 856.449C655.901 857.29 656.809 857.944 657.971 858.413C659.14 858.883 660.498 859.118 662.039 859.118ZM662.039 856.209C661.339 856.209 660.718 856.085 660.178 855.838C659.637 855.581 659.212 855.232 658.902 854.788C658.6 854.337 658.45 853.828 658.45 853.261V853.235C658.45 852.66 658.6 852.15 658.902 851.708C659.203 851.257 659.623 850.902 660.164 850.645C660.706 850.389 661.331 850.26 662.039 850.26C662.748 850.26 663.369 850.389 663.901 850.645C664.442 850.902 664.863 851.257 665.164 851.708C665.474 852.15 665.629 852.66 665.629 853.235V853.261C665.629 853.828 665.474 854.337 665.164 854.788C664.853 855.232 664.428 855.581 663.888 855.838C663.355 856.085 662.74 856.209 662.039 856.209ZM662.039 847.353C661.427 847.353 660.887 847.241 660.417 847.02C659.947 846.799 659.58 846.489 659.313 846.091C659.057 845.692 658.928 845.231 658.928 844.709V844.683C658.928 844.161 659.061 843.704 659.327 843.315C659.592 842.917 659.956 842.607 660.417 842.385C660.887 842.165 661.427 842.054 662.039 842.054C662.642 842.054 663.174 842.165 663.635 842.385C664.104 842.607 664.472 842.917 664.739 843.315C665.004 843.704 665.138 844.161 665.138 844.683V844.709C665.138 845.231 665.004 845.692 664.739 846.091C664.481 846.489 664.118 846.799 663.648 847.02C663.187 847.241 662.651 847.353 662.039 847.353ZM674.884 859.025C675.548 859.025 676.098 858.808 676.532 858.374C676.967 857.94 677.183 857.4 677.183 856.754C677.183 856.107 676.967 855.573 676.532 855.147C676.098 854.713 675.548 854.497 674.884 854.497C674.227 854.497 673.679 854.713 673.235 855.147C672.8 855.573 672.584 856.107 672.584 856.754C672.584 857.4 672.8 857.94 673.235 858.374C673.679 858.808 674.227 859.025 674.884 859.025ZM681.133 858.719H685.335L693.351 842.784V839.557H679.63V842.744H689.336V842.931L681.133 858.719ZM697.779 858.719H701.981L709.999 842.784V839.557H696.277V842.744H705.984V842.931L697.779 858.719ZM720.224 859.171C721.669 859.171 722.94 858.888 724.039 858.321C725.139 857.754 725.998 856.963 726.619 855.944C727.24 854.926 727.551 853.748 727.551 852.411V852.385C727.551 851.163 727.284 850.083 726.753 849.145C726.22 848.197 725.489 847.453 724.558 846.914C723.628 846.374 722.559 846.104 721.354 846.104C720.743 846.104 720.166 846.189 719.625 846.356C719.094 846.525 718.624 846.764 718.216 847.074C717.809 847.383 717.471 847.755 717.206 848.189H717.005L717.485 842.744H726.393V839.557H714.346L713.456 850.884H716.913C717.019 850.672 717.148 850.478 717.298 850.301C717.457 850.123 717.626 849.959 717.803 849.809C718.131 849.543 718.499 849.344 718.908 849.212C719.324 849.07 719.772 848.999 720.25 848.999C720.934 848.999 721.535 849.145 722.058 849.437C722.59 849.73 723.007 850.136 723.308 850.658C723.61 851.172 723.76 851.769 723.76 852.452V852.478C723.76 853.159 723.61 853.766 723.308 854.297C723.007 854.819 722.59 855.232 722.058 855.532C721.535 855.834 720.928 855.983 720.238 855.983C719.635 855.983 719.089 855.873 718.601 855.652C718.123 855.422 717.728 855.116 717.418 854.735C717.117 854.346 716.917 853.912 716.82 853.434L716.793 853.341H713.137L713.15 853.54C713.23 854.603 713.566 855.559 714.161 856.409C714.763 857.259 715.584 857.932 716.62 858.427C717.658 858.923 718.859 859.171 720.224 859.171Z" fill="white"/>
<path d="M362.697 788.689L728.952 791.409" stroke="white" stroke-opacity="0.6"/>
<path d="M362.697 881.157L728.952 883.876" stroke="white" stroke-opacity="0.6"/>
<path d="M332.345 378.115L319.652 365.114C319.46 364.917 319.323 364.704 319.242 364.474C319.162 364.244 319.122 363.998 319.123 363.735C319.123 363.473 319.164 363.226 319.244 362.997C319.325 362.767 319.461 362.554 319.652 362.356L332.345 349.356C332.698 348.995 333.139 348.806 333.668 348.791C334.198 348.775 334.654 348.963 335.038 349.356C335.422 349.717 335.623 350.169 335.639 350.711C335.656 351.254 335.472 351.721 335.086 352.114L325.662 361.766H347.154C347.699 361.766 348.156 361.955 348.525 362.333C348.894 362.711 349.078 363.179 349.077 363.735C349.077 364.293 348.893 364.762 348.525 365.14C348.157 365.518 347.7 365.706 347.154 365.705H325.662L335.086 375.357C335.438 375.718 335.623 376.178 335.639 376.736C335.656 377.294 335.472 377.754 335.086 378.115C334.733 378.509 334.284 378.706 333.739 378.706C333.194 378.706 332.73 378.509 332.345 378.115Z" fill="white"/>
<path d="M746.646 373.266H771.154M746.646 363.748H771.154M746.646 354.229H771.154" stroke="white" stroke-width="3" stroke-linecap="round" stroke-linejoin="round"/>
</g>
</g>
<path d="M251.67 555.682H255.011V699.836H251.67V555.682Z" fill="url(#paint3_linear_12_227)"/>
<path d="M251.67 699.614V555.682L250 557.63C250.835 572.942 250.557 682.631 250 697.943L251.67 699.614Z" fill="url(#paint4_linear_12_227)"/>
<path d="M840.216 525.336H842.165V616.651H840.216V525.336Z" fill="url(#paint5_linear_12_227)"/>
<path d="M841.886 616.651V525.336L843 526.45C842.443 536.194 842.443 605.793 843 615.259L841.886 616.651Z" fill="url(#paint6_linear_12_227)"/>
<path d="M838.267 525.336H840.216V616.651H838.267V525.336Z" fill="url(#paint7_linear_12_227)"/>
<path d="M840.216 640.036H842.165V731.351H840.216V640.036Z" fill="url(#paint8_linear_12_227)"/>
<path d="M841.886 731.351V640.036L843 641.428C842.443 651.172 842.443 720.494 843 730.238L841.886 731.351Z" fill="url(#paint9_linear_12_227)"/>
<path d="M838.267 640.036H840.216V731.351H838.267V640.036Z" fill="url(#paint10_linear_12_227)"/>
<path d="M840.216 439.033H842.165V485.915H840.216V439.033Z" fill="url(#paint11_linear_12_227)"/>
<path d="M841.886 485.804V439.033L843 440.146C842.443 449.333 842.443 475.503 843 484.69L841.886 485.804Z" fill="url(#paint12_linear_12_227)"/>
<path d="M838.267 439.033H840.216V485.915H838.267V439.033Z" fill="url(#paint13_linear_12_227)"/>
<path d="M502.512 333.798H595.499C598.009 333.798 600.493 333.299 602.809 332.331C605.124 331.362 607.223 329.942 608.985 328.155C610.747 326.367 612.135 324.248 613.07 321.918C614.005 319.589 614.467 317.098 614.43 314.588C614.43 309.567 612.436 304.752 608.886 301.202C605.335 297.652 600.52 295.657 595.499 295.657H502.512C497.491 295.657 492.676 297.652 489.126 301.202C485.575 304.752 483.581 309.567 483.581 314.588C483.544 317.098 484.006 319.589 484.941 321.918C485.876 324.248 487.265 326.367 489.026 328.155C490.788 329.942 492.887 331.362 495.203 332.331C497.518 333.299 500.002 333.798 502.512 333.798Z" fill="#121212"/>
<path d="M507.802 322.94C503.189 322.94 499.45 319.201 499.45 314.588C499.45 309.976 503.189 306.236 507.802 306.236C512.415 306.236 516.154 309.976 516.154 314.588C516.154 319.201 512.415 322.94 507.802 322.94Z" fill="url(#paint14_linear_12_227)"/>
<path d="M507.802 319.321C505.188 319.321 503.069 317.202 503.069 314.588C503.069 311.974 505.188 309.855 507.802 309.855C510.416 309.855 512.535 311.974 512.535 314.588C512.535 317.202 510.416 319.321 507.802 319.321Z" fill="url(#paint15_linear_12_227)"/>
<path d="M503.626 314.588C503.584 315.147 503.664 315.709 503.859 316.234C504.054 316.76 504.36 317.237 504.757 317.633C505.153 318.03 505.63 318.336 506.156 318.531C506.681 318.726 507.243 318.806 507.802 318.764C508.338 318.766 508.869 318.656 509.361 318.443C509.853 318.23 510.295 317.918 510.661 317.526C511.027 317.134 511.308 316.671 511.487 316.165C511.665 315.66 511.738 315.123 511.7 314.588C511.7 313.554 511.289 312.563 510.558 311.832C509.827 311.101 508.836 310.691 507.802 310.691C507.267 310.652 506.73 310.725 506.225 310.903C505.719 311.082 505.256 311.363 504.864 311.729C504.472 312.095 504.16 312.537 503.947 313.029C503.734 313.521 503.624 314.052 503.626 314.588Z" fill="url(#paint16_linear_12_227)"/>
<path style="mix-blend-mode:multiply" d="M503.626 314.588C503.584 315.147 503.664 315.709 503.859 316.234C504.054 316.76 504.36 317.237 504.757 317.633C505.153 318.03 505.63 318.336 506.156 318.531C506.681 318.726 507.243 318.806 507.802 318.764C508.338 318.766 508.869 318.656 509.361 318.443C509.853 318.23 510.295 317.918 510.661 317.526C511.027 317.134 511.308 316.671 511.487 316.165C511.665 315.66 511.738 315.123 511.7 314.588C511.7 313.554 511.289 312.563 510.558 311.832C509.827 311.101 508.836 310.691 507.802 310.691C507.267 310.652 506.73 310.725 506.225 310.903C505.719 311.082 505.256 311.363 504.864 311.729C504.472 312.095 504.16 312.537 503.947 313.029C503.734 313.521 503.624 314.052 503.626 314.588Z" fill="url(#paint17_radial_12_227)"/>
<path style="mix-blend-mode:screen" d="M503.904 316.815C503.904 316.446 504.051 316.092 504.312 315.831C504.573 315.57 504.927 315.424 505.296 315.424C505.695 315.418 506.083 315.555 506.389 315.811C506.695 316.066 506.9 316.422 506.967 316.815C506.967 317.259 506.791 317.683 506.477 317.997C506.164 318.31 505.739 318.486 505.296 318.486C504.903 318.419 504.546 318.215 504.291 317.908C504.036 317.602 503.899 317.214 503.904 316.815Z" fill="url(#paint18_radial_12_227)"/>
</g>
</g>
<defs>
<filter id="filter0_d_12_227" x="0" y="0" width="1093" height="1490" filterUnits="userSpaceOnUse" color-interpolation-filters="sRGB">
<feFlood flood-opacity="0" result="BackgroundImageFix"/>
<feColorMatrix in="SourceAlpha" type="matrix" values="0 0 0 0 0 0 0 0 0 0 0 0 0 0 0 0 0 0 127 0" result="hardAlpha"/>
<feOffset/>
<feGaussianBlur stdDeviation="125"/>
<feColorMatrix type="matrix" values="0 0 0 0 0.28 0 0 0 0 0.396533 0 0 0 0 0.533333 0 0 0 0.2 0"/>
<feBlend mode="normal" in2="BackgroundImageFix" result="effect1_dropShadow_12_227"/>
<feBlend mode="normal" in="SourceGraphic" in2="effect1_dropShadow_12_227" result="shape"/>
</filter>
<filter id="filter1_f_12_227" x="-238.362" y="-1073.49" width="1569.72" height="2161.93" filterUnits="userSpaceOnUse" color-interpolation-filters="sRGB">
<feFlood flood-opacity="0" result="BackgroundImageFix"/>
<feBlend mode="normal" in="SourceGraphic" in2="BackgroundImageFix" result="shape"/>
<feGaussianBlur stdDeviation="259" result="effect1_foregroundBlur_12_227"/>
</filter>
<linearGradient id="paint0_linear_12_227" x1="546.5" y1="274" x2="546.5" y2="1438" gradientUnits="userSpaceOnUse">
<stop stop-color="#14181A"/>
<stop offset="1" stop-color="#0D1011"/>
</linearGradient>
<linearGradient id="paint1_linear_12_227" x1="546.5" y1="-555.486" x2="546.5" y2="570.439" gradientUnits="userSpaceOnUse">
<stop stop-color="#E46BDF"/>
<stop offset="1" stop-color="#2400FF" stop-opacity="0"/>
</linearGradient>
<linearGradient id="paint2_linear_12_227" x1="729.627" y1="570.439" x2="729.627" y2="661.547" gradientUnits="userSpaceOnUse">
<stop stop-color="white"/>
<stop offset="1" stop-color="white" stop-opacity="0"/>
</linearGradient>
<linearGradient id="paint3_linear_12_227" x1="253.369" y1="555.598" x2="253.369" y2="699.753" gradientUnits="userSpaceOnUse">
<stop stop-color="#68595F"/>
<stop offset="0.02" stop-color="#896E80"/>
<stop offset="0.04" stop-color="#5E3B5B"/>
<stop offset="0.08" stop-color="#2B1D2A"/>
<stop offset="0.11" stop-color="#704A6A"/>
<stop offset="0.9" stop-color="#615060"/>
<stop offset="0.94" stop-color="#2B1D2A"/>
<stop offset="0.96" stop-color="#5E3B5B"/>
<stop offset="0.98" stop-color="#845675"/>
<stop offset="1" stop-color="#5B4A5C"/>
</linearGradient>
<linearGradient id="paint4_linear_12_227" x1="250.807" y1="555.626" x2="250.807" y2="699.753" gradientUnits="userSpaceOnUse">
<stop stop-color="#676067"/>
<stop offset="0.06" stop-color="#654E63"/>
<stop offset="0.19" stop-color="#786F77"/>
<stop offset="0.81" stop-color="#786F77"/>
<stop offset="0.92" stop-color="#654E63"/>
<stop offset="1" stop-color="#676067"/>
</linearGradient>
<linearGradient id="paint5_linear_12_227" x1="841.051" y1="525.253" x2="841.051" y2="616.567" gradientUnits="userSpaceOnUse">
<stop stop-color="#68595F"/>
<stop offset="0.02" stop-color="#896E80"/>
<stop offset="0.04" stop-color="#5E3B5B"/>
<stop offset="0.08" stop-color="#2D1E2C"/>
<stop offset="0.11" stop-color="#704A6A"/>
<stop offset="0.9" stop-color="#615060"/>
<stop offset="0.94" stop-color="#2D1E2C"/>
<stop offset="0.96" stop-color="#5E3B5B"/>
<stop offset="0.98" stop-color="#845675"/>
<stop offset="1" stop-color="#5B4A5C"/>
</linearGradient>
<linearGradient id="paint6_linear_12_227" x1="842.499" y1="525.281" x2="842.499" y2="616.567" gradientUnits="userSpaceOnUse">
<stop stop-color="#676067"/>
<stop offset="0.06" stop-color="#654E63"/>
<stop offset="0.19" stop-color="#786F77"/>
<stop offset="0.81" stop-color="#786F77"/>
<stop offset="0.92" stop-color="#654E63"/>
<stop offset="1" stop-color="#676067"/>
</linearGradient>
<linearGradient id="paint7_linear_12_227" x1="839.047" y1="616.595" x2="839.047" y2="525.253" gradientUnits="userSpaceOnUse">
<stop stop-color="#68595F"/>
<stop offset="0.05" stop-color="#2D1E2C"/>
<stop offset="0.52" stop-color="#5E3B5B"/>
<stop offset="0.96" stop-color="#2D1E2C"/>
<stop offset="1" stop-color="#5B4A5C"/>
</linearGradient>
<linearGradient id="paint8_linear_12_227" x1="841.051" y1="640.148" x2="841.051" y2="731.462" gradientUnits="userSpaceOnUse">
<stop stop-color="#68595F"/>
<stop offset="0.02" stop-color="#896E80"/>
<stop offset="0.04" stop-color="#5E3B5B"/>
<stop offset="0.08" stop-color="#2D1E2C"/>
<stop offset="0.11" stop-color="#704A6A"/>
<stop offset="0.9" stop-color="#615060"/>
<stop offset="0.94" stop-color="#2D1E2C"/>
<stop offset="0.96" stop-color="#5E3B5B"/>
<stop offset="0.98" stop-color="#845675"/>
<stop offset="1" stop-color="#5B4A5C"/>
</linearGradient>
<linearGradient id="paint9_linear_12_227" x1="842.499" y1="640.148" x2="842.499" y2="731.462" gradientUnits="userSpaceOnUse">
<stop stop-color="#676067"/>
<stop offset="0.06" stop-color="#654E63"/>
<stop offset="0.19" stop-color="#786F77"/>
<stop offset="0.81" stop-color="#786F77"/>
<stop offset="0.92" stop-color="#654E63"/>
<stop offset="1" stop-color="#676067"/>
</linearGradient>
<linearGradient id="paint10_linear_12_227" x1="839.047" y1="731.462" x2="839.047" y2="640.148" gradientUnits="userSpaceOnUse">
<stop stop-color="#68595F"/>
<stop offset="0.05" stop-color="#2D1E2C"/>
<stop offset="0.52" stop-color="#5E3B5B"/>
<stop offset="0.96" stop-color="#2D1E2C"/>
<stop offset="1" stop-color="#5B4A5C"/>
</linearGradient>
<linearGradient id="paint11_linear_12_227" x1="841.051" y1="438.977" x2="841.051" y2="485.831" gradientUnits="userSpaceOnUse">
<stop stop-color="#68595F"/>
<stop offset="0.02" stop-color="#896E80"/>
<stop offset="0.04" stop-color="#5E3B5B"/>
<stop offset="0.08" stop-color="#2D1E2C"/>
<stop offset="0.11" stop-color="#704A6A"/>
<stop offset="0.9" stop-color="#615060"/>
<stop offset="0.94" stop-color="#2D1E2C"/>
<stop offset="0.96" stop-color="#5E3B5B"/>
<stop offset="0.98" stop-color="#845675"/>
<stop offset="1" stop-color="#5B4A5C"/>
</linearGradient>
<linearGradient id="paint12_linear_12_227" x1="842.499" y1="439.005" x2="842.499" y2="485.859" gradientUnits="userSpaceOnUse">
<stop stop-color="#676067"/>
<stop offset="0.06" stop-color="#654E63"/>
<stop offset="0.19" stop-color="#786F77"/>
<stop offset="0.81" stop-color="#786F77"/>
<stop offset="0.92" stop-color="#654E63"/>
<stop offset="1" stop-color="#676067"/>
</linearGradient>
<linearGradient id="paint13_linear_12_227" x1="839.047" y1="485.859" x2="839.047" y2="438.977" gradientUnits="userSpaceOnUse">
<stop stop-color="#68595F"/>
<stop offset="0.05" stop-color="#2D1E2C"/>
<stop offset="0.52" stop-color="#5E3B5B"/>
<stop offset="0.96" stop-color="#2D1E2C"/>
<stop offset="1" stop-color="#5B4A5C"/>
</linearGradient>
<linearGradient id="paint14_linear_12_227" x1="507.718" y1="322.467" x2="507.718" y2="306.153" gradientUnits="userSpaceOnUse">
<stop stop-color="#666666"/>
<stop offset="1" stop-color="#010104"/>
</linearGradient>
<linearGradient id="paint15_linear_12_227" x1="507.579" y1="310.217" x2="507.579" y2="319.544" gradientUnits="userSpaceOnUse">
<stop stop-color="#0B131C"/>
<stop offset="1" stop-color="#354039"/>
</linearGradient>
<linearGradient id="paint16_linear_12_227" x1="504.767" y1="317.651" x2="510.614" y2="311.776" gradientUnits="userSpaceOnUse">
<stop stop-color="#231F20"/>
<stop offset="0.08" stop-color="#222326"/>
<stop offset="0.2" stop-color="#1F2C37"/>
<stop offset="0.33" stop-color="#1A3D54"/>
<stop offset="0.47" stop-color="#13537C"/>
<stop offset="0.62" stop-color="#0B71AE"/>
<stop offset="0.78" stop-color="#0095EE"/>
<stop offset="0.8" stop-color="#0488D6"/>
<stop offset="0.84" stop-color="#0D689F"/>
<stop offset="0.88" stop-color="#154E72"/>
<stop offset="0.91" stop-color="#1B394E"/>
<stop offset="0.95" stop-color="#1F2B35"/>
<stop offset="0.98" stop-color="#222225"/>
<stop offset="1" stop-color="#231F20"/>
</linearGradient>
<radialGradient id="paint17_radial_12_227" cx="0" cy="0" r="1" gradientUnits="userSpaceOnUse" gradientTransform="translate(507.691 314.7) rotate(180) scale(4.14821 4.14813)">
<stop stop-color="#231F20"/>
<stop offset="0.2" stop-color="#175168"/>
<stop offset="0.38" stop-color="#0D78A2"/>
<stop offset="0.54" stop-color="#0695CB"/>
<stop offset="0.66" stop-color="#02A7E5"/>
<stop offset="0.73" stop-color="#00ADEE"/>
<stop offset="0.76" stop-color="#02A6E4"/>
<stop offset="0.81" stop-color="#0693C8"/>
<stop offset="0.87" stop-color="#0E749C"/>
<stop offset="0.94" stop-color="#184A5F"/>
<stop offset="1" stop-color="#231F20"/>
</radialGradient>
<radialGradient id="paint18_radial_12_227" cx="0" cy="0" r="1" gradientUnits="userSpaceOnUse" gradientTransform="translate(505.408 316.871) rotate(180) scale(1.47555 1.47552)">
<stop stop-color="#CCCCCC"/>
<stop offset="0.02" stop-color="#C4C4C4"/>
<stop offset="0.22" stop-color="#898989"/>
<stop offset="0.41" stop-color="#585858"/>
<stop offset="0.59" stop-color="#323232"/>
<stop offset="0.75" stop-color="#161616"/>
<stop offset="0.89" stop-color="#060606"/>
<stop offset="1"/>
</radialGradient>
<clipPath id="clip0_12_227">
<rect x="281" y="274" width="531" height="1164" rx="68" fill="white"/>
</clipPath>
</defs>
</svg>
