
<svg width="14" height="14" viewBox="0 0 14 14" fill="none" xmlns="http://www.w3.org/2000/svg">
    <path d="M7 14C5.05 14 3.39583 13.3208 2.0375 11.9625C0.679167 10.6042 0 8.95 0 7C0 5.05 0.679167 3.39583 2.0375 2.0375C3.39583 0.679167 5.05 0 7 0C8.95 0 10.6042 0.679167 11.9625 2.0375C13.3208 3.39583 14 5.05 14 7C14 8.95 13.3208 10.6042 11.9625 11.9625C10.6042 13.3208 8.95 14 7 14ZM7 12.5C8.53333 12.5 9.83333 11.9667 10.9 10.9C11.9667 9.83333 12.5 8.53333 12.5 7C12.5 5.46667 11.9667 4.16667 10.9 3.1C9.83333 2.03333 8.53333 1.5 7 1.5C5.46667 1.5 4.16667 2.03333 3.1 3.1C2.03333 4.16667 1.5 5.46667 1.5 7C1.5 8.53333 2.03333 9.83333 3.1 10.9C4.16667 11.9667 5.46667 12.5 7 12.5Z" fill="white"/>
</svg>
