<svg width="11" height="12" viewBox="0 0 11 12" fill="none" xmlns="http://www.w3.org/2000/svg">
    <path d="M7.02829 4H0.958403C0.426004 4 0 4.426 0 4.9584V11.0416C0 11.5607 0.426004 12 0.958403 12H7.0416C7.56073 12 8 11.574 8 11.0416L7.99991 4.9584C7.98663 4.426 7.56064 4 7.02822 4H7.02829ZM7.18799 11.0283C7.18799 11.1081 7.12142 11.1747 7.04156 11.1747H0.958369C0.878517 11.1747 0.811942 11.1081 0.811942 11.0283V4.9584C0.811942 4.87855 0.878517 4.81198 0.958369 4.81198H7.04156C7.12142 4.81198 7.18799 4.87855 7.18799 4.9584V11.0283Z" fill="#828282"/>
    <path d="M10.04 4.05993e-05H3.96C3.42672 4.05993e-05 3 0.426755 3 0.960041V3.19999H3.80005V0.960041C3.80005 0.880055 3.86674 0.813369 3.94672 0.813369H10.0401C10.1201 0.813369 10.1868 0.880055 10.1868 0.960041V7.05337C10.1868 7.13336 10.1201 7.20005 10.0401 7.20005L8.59999 7.19995V8H10.04C10.56 8 11 7.57329 11 7.04V0.96C11 0.426714 10.5734 0 10.04 0L10.04 4.05993e-05Z" fill="#828282"/>
</svg>
