
<svg width="14" height="12" viewBox="0 0 14 12" fill="none" xmlns="http://www.w3.org/2000/svg">
    <path d="M13.9273 0.0622145C13.8845 0.0213725 13.8292 0 13.7734 0C13.7397 0 13.7062 0.00772924 13.6744 0.0238904L0.223554 6.85396C0.0860717 6.92391 -0.000925893 7.06924 7.43561e-06 7.22822C0.000940765 7.38699 0.089409 7.53133 0.227881 7.59972L3.77289 9.34828L10.8611 3.31743L4.65121 9.78147L9.06741 11.9597C9.12166 11.9866 9.18088 12 9.23948 12C9.28949 12 9.33901 11.9906 9.38616 11.9714C9.48902 11.9293 9.57076 11.845 9.61157 11.7385L13.984 0.320266C14.0186 0.230413 13.996 0.127679 13.9273 0.0622145Z" fill="white"/>
</svg>
