<svg width="196" height="60" viewBox="0 0 196 60" fill="none" xmlns="http://www.w3.org/2000/svg">
<g clip-path="url(#clip0_1_5)">
<path d="M187.547 0.216797H7.54117C3.3763 0.216797 0 3.591 0 7.75328V51.9718C0 56.134 3.3763 59.5082 7.54117 59.5082H187.547C191.712 59.5082 195.088 56.134 195.088 51.9718V7.75328C195.088 3.591 191.712 0.216797 187.547 0.216797Z" fill="black"/>
<path d="M19.716 25.4444C16.5511 30.9324 18.5629 39.2632 22.061 44.3115C23.8076 46.8369 25.576 49.1036 27.9987 49.1036C28.0439 49.1036 28.09 49.1036 28.1369 49.1036C29.2747 49.0584 30.0978 48.7077 30.8927 48.3699C31.7822 47.9893 32.7089 47.5965 34.1579 47.5965C35.5326 47.5965 36.4148 47.9771 37.2646 48.344C38.1145 48.7109 38.9627 49.0818 40.2411 49.0576C42.9702 49.0067 44.6457 46.5613 46.1238 44.4036C47.2324 42.7763 48.1021 40.9987 48.7066 39.125L48.7171 39.0919C48.741 39.0203 48.7378 38.9425 48.7079 38.8732C48.6781 38.8039 48.6238 38.748 48.5553 38.7161L48.5335 38.7064C48.0524 38.5101 43.8371 36.6409 43.7934 31.5481C43.7522 27.4098 46.9551 25.219 47.5979 24.8214L47.6279 24.802C47.6623 24.7799 47.6919 24.7511 47.715 24.7173C47.738 24.6835 47.7541 24.6454 47.7621 24.6053C47.7702 24.5652 47.7701 24.5239 47.7619 24.4839C47.7537 24.4438 47.7376 24.4058 47.7144 24.3721C45.5036 21.1396 42.1155 20.6547 40.7506 20.5925C40.5533 20.5731 40.3463 20.5626 40.1433 20.5626C38.5414 20.5626 37.0059 21.1671 35.7768 21.6536C34.9253 21.9898 34.1894 22.2791 33.6832 22.2791C33.1132 22.2791 32.3733 21.9857 31.5178 21.6463C30.372 21.1921 29.0741 20.6766 27.7003 20.6766H27.6032C24.3987 20.725 21.3793 22.5522 19.716 25.4444Z" fill="white"/>
<path d="M40.7481 11.6927C38.8131 11.7735 36.4924 12.9615 35.1056 14.585C33.9258 15.9499 32.7752 18.2215 33.0784 20.519C33.0875 20.5886 33.1202 20.6531 33.1711 20.7015C33.2221 20.7499 33.2881 20.7793 33.3582 20.7848C33.4892 20.7945 33.6226 20.8002 33.7552 20.8002C35.6466 20.8002 37.6875 19.7537 39.0816 18.0696C40.5484 16.2917 41.2899 14.0096 41.0659 11.9651C41.057 11.888 41.0193 11.8172 40.9604 11.7667C40.9015 11.7162 40.8257 11.6898 40.7481 11.6927Z" fill="white"/>
<path d="M63.8045 12.2485H67.4732C68.4354 12.2485 69.2896 12.4471 70.0357 12.8441C70.7592 13.2195 71.3628 13.7904 71.7774 14.4919C72.1857 15.2221 72.4 16.0446 72.4 16.8811C72.4 17.7175 72.1857 18.5401 71.7774 19.2703C71.3628 19.9717 70.7592 20.5427 70.0357 20.918C69.289 21.3151 68.4349 21.5136 67.4732 21.5136H63.8045V12.2485ZM67.4198 20.9051C68.2764 20.9051 69.0311 20.7351 69.6839 20.3952C70.3145 20.0771 70.839 19.5826 71.1936 18.9721C71.5412 18.3297 71.7233 17.6109 71.7233 16.8807C71.7233 16.1504 71.5412 15.4316 71.1936 14.7893C70.8388 14.1791 70.3143 13.685 69.6839 13.367C69.0305 13.0265 68.2758 12.8565 67.4198 12.857H64.4796V20.9051H67.4198Z" fill="white"/>
<path d="M75.4655 21.1167C74.9453 20.8218 74.5169 20.3889 74.2275 19.8658C73.9318 19.3093 73.7772 18.6889 73.7772 18.0588C73.7772 17.4288 73.9318 16.8083 74.2275 16.2519C74.5173 15.7291 74.9457 15.2963 75.4655 15.0009C76.0081 14.7055 76.6161 14.5508 77.234 14.5508C77.8518 14.5508 78.4598 14.7055 79.0024 15.0009C79.5223 15.2963 79.9507 15.7291 80.2404 16.2519C80.5361 16.8083 80.6908 17.4288 80.6908 18.0588C80.6908 18.6889 80.5361 19.3093 80.2404 19.8658C79.9511 20.3889 79.5226 20.8218 79.0024 21.1167C78.4598 21.4121 77.8518 21.5668 77.234 21.5668C76.6161 21.5668 76.0081 21.4121 75.4655 21.1167ZM78.658 20.6003C79.077 20.353 79.4204 19.9959 79.6509 19.5676C79.8906 19.1007 80.0156 18.5835 80.0156 18.0588C80.0156 17.5341 79.8906 17.0169 79.6509 16.5501C79.4204 16.1218 79.077 15.7646 78.658 15.5173C78.2226 15.2746 77.7324 15.1472 77.234 15.1472C76.7355 15.1472 76.2453 15.2746 75.81 15.5173C75.3907 15.7643 75.0473 16.1215 74.817 16.5501C74.5774 17.0169 74.4523 17.5341 74.4523 18.0588C74.4523 18.5835 74.5774 19.1007 74.817 19.5676C75.0473 19.9961 75.3907 20.3533 75.81 20.6003C76.2453 20.843 76.7355 20.9704 77.234 20.9704C77.7324 20.9704 78.2226 20.843 78.658 20.6003Z" fill="white"/>
<path d="M92.4255 14.6041L89.8031 21.5135H89.1805L86.8493 15.5173L84.5043 21.5135H83.8954L81.273 14.6041H81.9086L84.2132 20.7725L86.5703 14.6041H87.1363L89.4813 20.7587L91.8117 14.6041H92.4255Z" fill="white"/>
<path d="M99.3942 15.3056C99.8982 15.8094 100.15 16.5329 100.149 17.4762V21.5168H99.4872V17.5328C99.4872 16.7565 99.2907 16.1639 98.8977 15.755C98.5047 15.346 97.9551 15.1432 97.2489 15.1464C96.4365 15.1464 95.7964 15.3889 95.3284 15.8737C94.8605 16.3586 94.6266 17.0118 94.6266 17.8334V21.5128H93.9643V14.6034H94.5999V16.0992C94.8319 15.6205 95.2038 15.2235 95.6664 14.9606C96.1387 14.6874 96.6972 14.5506 97.3419 14.55C98.2055 14.5527 98.8896 14.8046 99.3942 15.3056Z" fill="white"/>
<path d="M102.875 11.6925H103.538V21.5135H102.875V11.6925Z" fill="white"/>
<path d="M107.265 21.1167C106.745 20.8218 106.317 20.3889 106.027 19.8658C105.732 19.3093 105.577 18.6889 105.577 18.0588C105.577 17.4288 105.732 16.8083 106.027 16.2519C106.317 15.7291 106.745 15.2963 107.265 15.0009C107.808 14.7055 108.416 14.5508 109.034 14.5508C109.652 14.5508 110.26 14.7055 110.802 15.0009C111.322 15.2963 111.75 15.7291 112.04 16.2519C112.336 16.8083 112.491 17.4288 112.491 18.0588C112.491 18.6889 112.336 19.3093 112.04 19.8658C111.751 20.3889 111.322 20.8218 110.802 21.1167C110.26 21.4121 109.652 21.5668 109.034 21.5668C108.416 21.5668 107.808 21.4121 107.265 21.1167ZM110.458 20.6003C110.877 20.3521 111.221 19.9938 111.451 19.5643C111.69 19.0975 111.815 18.5803 111.815 18.0556C111.815 17.5309 111.69 17.0137 111.451 16.5468C111.22 16.1185 110.877 15.7614 110.458 15.5141C110.022 15.2714 109.532 15.144 109.034 15.144C108.535 15.144 108.045 15.2714 107.61 15.5141C107.191 15.7614 106.847 16.1185 106.617 16.5468C106.377 17.0137 106.252 17.5309 106.252 18.0556C106.252 18.5803 106.377 19.0975 106.617 19.5643C106.847 19.9926 107.191 20.3498 107.61 20.5971C108.045 20.8398 108.535 20.9672 109.034 20.9672C109.532 20.9672 110.022 20.8398 110.458 20.5971V20.6003Z" fill="white"/>
<path d="M118.821 15.2062C119.281 15.6436 119.51 16.2858 119.51 17.1327V21.5135H118.875V20.2827C118.653 20.6883 118.315 21.0179 117.904 21.229C117.481 21.4537 116.973 21.5663 116.382 21.5668C115.613 21.5668 115.006 21.3858 114.56 21.0238C114.354 20.8514 114.188 20.6371 114.073 20.3952C113.957 20.1533 113.895 19.8895 113.89 19.6215C113.885 19.3535 113.937 19.0876 114.044 18.8416C114.15 18.5956 114.308 18.3752 114.507 18.1954C114.918 17.8382 115.574 17.6596 116.474 17.6596H118.845V17.1036C118.845 16.4571 118.67 15.9674 118.321 15.6345C117.973 15.3015 117.463 15.1337 116.792 15.131C116.342 15.1296 115.895 15.2104 115.474 15.3694C115.082 15.5121 114.72 15.7276 114.408 16.0046L114.077 15.5286C114.44 15.2081 114.863 14.9628 115.322 14.807C115.811 14.6342 116.326 14.5467 116.845 14.5484C117.704 14.5521 118.362 14.7714 118.821 15.2062ZM117.941 20.627C118.355 20.3463 118.672 19.9439 118.848 19.4754V18.1776H116.491C115.81 18.1776 115.318 18.3013 115.013 18.5485C114.709 18.7958 114.557 19.1355 114.557 19.5676C114.548 19.7726 114.59 19.9767 114.678 20.1622C114.765 20.3478 114.897 20.5095 115.06 20.6335C115.395 20.8937 115.867 21.0238 116.477 21.0238C117.051 21.0238 117.539 20.8915 117.941 20.627Z" fill="white"/>
<path d="M128.397 11.6925V21.5135H127.75V19.8876C127.495 20.4056 127.095 20.8381 126.598 21.1321C126.087 21.4276 125.505 21.5787 124.915 21.5693C124.303 21.5774 123.699 21.422 123.167 21.1192C122.652 20.8248 122.228 20.3942 121.942 19.8747C121.639 19.3188 121.486 18.694 121.498 18.0613C121.487 17.4266 121.64 16.7998 121.942 16.2414C122.225 15.72 122.65 15.2887 123.167 14.9969C123.7 14.6979 124.303 14.5449 124.915 14.5532C125.499 14.5443 126.074 14.6955 126.577 14.9904C127.068 15.2823 127.469 15.7037 127.736 16.2083V11.6949L128.397 11.6925ZM126.375 20.6004C126.796 20.3527 127.141 19.9944 127.372 19.5644C127.611 19.0973 127.736 18.5802 127.736 18.0556C127.736 17.531 127.611 17.0139 127.372 16.5469C127.142 16.1184 126.798 15.7613 126.379 15.5141C125.943 15.2714 125.453 15.144 124.955 15.144C124.457 15.144 123.967 15.2714 123.531 15.5141C123.112 15.7613 122.768 16.1184 122.538 16.5469C122.299 17.0139 122.174 17.531 122.174 18.0556C122.174 18.5802 122.299 19.0973 122.538 19.5644C122.768 19.9928 123.112 20.3499 123.531 20.5971C123.967 20.8398 124.457 20.9672 124.955 20.9672C125.453 20.9672 125.943 20.8398 126.379 20.5971L126.375 20.6004Z" fill="white"/>
<path d="M135.529 21.1167C135.008 20.8222 134.58 20.3891 134.291 19.8658C133.995 19.3093 133.841 18.6889 133.841 18.0588C133.841 17.4288 133.995 16.8083 134.291 16.2519C134.58 15.7289 135.009 15.2961 135.529 15.0009C136.071 14.7055 136.679 14.5508 137.297 14.5508C137.915 14.5508 138.523 14.7055 139.065 15.0009C139.585 15.2962 140.014 15.7291 140.304 16.2519C140.599 16.8083 140.754 17.4288 140.754 18.0588C140.754 18.6889 140.599 19.3093 140.304 19.8658C140.014 20.3889 139.585 20.8219 139.065 21.1167C138.523 21.4121 137.915 21.5668 137.297 21.5668C136.679 21.5668 136.071 21.4121 135.529 21.1167ZM138.72 20.6003C139.14 20.3531 139.483 19.996 139.714 19.5676C139.953 19.1005 140.078 18.5834 140.078 18.0588C140.078 17.5342 139.953 17.0171 139.714 16.5501C139.483 16.1216 139.14 15.7645 138.72 15.5173C138.285 15.2746 137.795 15.1472 137.297 15.1472C136.799 15.1472 136.309 15.2746 135.873 15.5173C135.454 15.7645 135.11 16.1216 134.88 16.5501C134.641 17.0171 134.516 17.5342 134.516 18.0588C134.516 18.5834 134.641 19.1005 134.88 19.5676C135.11 19.996 135.454 20.3531 135.873 20.6003C136.309 20.843 136.799 20.9704 137.297 20.9704C137.795 20.9704 138.285 20.843 138.72 20.6003Z" fill="white"/>
<path d="M148.235 15.3056C148.738 15.8094 148.989 16.5329 148.99 17.4762V21.5168H148.327V17.5328C148.327 16.7565 148.131 16.1639 147.738 15.755C147.346 15.346 146.796 15.1432 146.089 15.1464C145.277 15.1464 144.637 15.3889 144.168 15.8737C143.7 16.3586 143.466 17.0118 143.466 17.8334V21.5128H142.804V14.6034H143.44V16.0992C143.672 15.6206 144.044 15.2235 144.506 14.9606C144.978 14.6874 145.537 14.5506 146.182 14.55C147.048 14.5527 147.733 14.8046 148.235 15.3056Z" fill="white"/>
<path d="M158.554 21.0764C158.374 21.2426 158.159 21.3671 157.925 21.4409C157.671 21.5253 157.405 21.5679 157.137 21.5669C156.537 21.5669 156.073 21.4013 155.747 21.0699C155.42 20.7386 155.256 20.2777 155.256 19.6872V15.1731H153.985V14.6074H155.256V13.0995H155.917V14.6082H158.115V15.1739H155.917V19.6186C155.917 20.0684 156.024 20.4102 156.24 20.6441C156.456 20.8779 156.776 20.9948 157.2 20.9948C157.594 21.009 157.978 20.8716 158.273 20.6109L158.554 21.0764Z" fill="white"/>
<path d="M165.825 15.3056C166.328 15.8093 166.58 16.5329 166.581 17.4762V21.5168H165.918V17.5328C165.918 16.7564 165.722 16.1638 165.329 15.7549C164.936 15.346 164.386 15.1432 163.68 15.1464C162.867 15.1464 162.227 15.3888 161.76 15.8737C161.292 16.3586 161.058 17.0118 161.058 17.8334V21.5127H160.395V11.6925H161.058V16.0466C161.288 15.578 161.658 15.1922 162.117 14.9419C162.584 14.6817 163.136 14.5513 163.772 14.5508C164.637 14.553 165.322 14.8046 165.825 15.3056Z" fill="white"/>
<path d="M175.162 18.2181H169.215C169.224 18.7243 169.365 19.2195 169.625 19.6541C169.876 20.0664 170.236 20.4019 170.665 20.6238C171.087 20.8318 171.548 20.9481 172.019 20.9651C172.489 20.9821 172.957 20.8994 173.393 20.7224C173.769 20.5662 174.099 20.3183 174.354 20.0016L174.738 20.438C174.434 20.8033 174.045 21.0895 173.606 21.2719C173.075 21.4877 172.503 21.5851 171.93 21.5572C171.358 21.5293 170.798 21.3768 170.291 21.1103C169.762 20.8203 169.324 20.3895 169.025 19.8658C168.715 19.3125 168.557 18.6867 168.568 18.0524C168.558 17.4236 168.706 16.8024 168.998 16.2455C169.271 15.7275 169.681 15.2946 170.184 14.9945C170.699 14.7006 171.282 14.5455 171.875 14.5443C172.468 14.5432 173.052 14.6961 173.568 14.988C174.067 15.2843 174.475 15.7127 174.747 16.2261C175.04 16.7801 175.188 17.3992 175.177 18.0257L175.162 18.2181ZM170.565 15.4575C170.178 15.6732 169.856 15.9888 169.632 16.3715C169.394 16.7767 169.256 17.2326 169.228 17.7017H174.526C174.507 17.234 174.371 16.7786 174.128 16.378C173.899 15.9979 173.575 15.6834 173.189 15.4648C172.788 15.2411 172.336 15.1269 171.877 15.1335C171.419 15.1268 170.968 15.2384 170.566 15.4575H170.565Z" fill="white"/>
<path d="M73.6098 41.9968H65.6853L64.1239 45.6608H61.0932L68.2227 29.8274H71.12L78.2722 45.6608H75.1938L73.6098 41.9968ZM72.6394 39.6896L69.6524 32.7673L66.6839 39.6864L72.6394 39.6896Z" fill="white"/>
<path d="M89.8719 34.2156C90.7903 34.7187 91.5472 35.4716 92.0551 36.387C92.5834 37.3222 92.8476 38.3997 92.8476 39.6194C92.8476 40.8392 92.5834 41.9209 92.0551 42.8648C91.5499 43.7849 90.7925 44.5418 89.8719 45.0467C88.9436 45.5602 87.8924 45.8166 86.7183 45.8161C85.0886 45.8161 83.7986 45.2733 82.8482 44.1877V50.0457H80.0181V33.582H82.7116V35.1651C83.1714 34.5963 83.7666 34.1517 84.4428 33.8721C85.1648 33.579 85.9382 33.4328 86.7174 33.4422C87.891 33.4449 88.9425 33.7027 89.8719 34.2156ZM88.963 42.3581C89.6341 41.6648 89.97 40.7527 89.9705 39.6219C89.9711 38.491 89.6352 37.5787 88.963 36.8848C88.2918 36.1914 87.4355 35.8445 86.394 35.8439C85.7528 35.8347 85.1204 35.9947 84.5609 36.3078C84.0155 36.6193 83.5686 37.0777 83.2711 37.6307C82.9541 38.2044 82.7957 38.8682 82.7957 39.6219C82.7957 40.3756 82.9541 41.039 83.2711 41.6122C83.5683 42.1654 84.0153 42.6238 84.5609 42.9351C85.1203 43.2485 85.7527 43.4085 86.394 43.399C87.4377 43.399 88.294 43.052 88.963 42.3581Z" fill="white"/>
<path d="M105.398 34.2156C106.317 34.7187 107.074 35.4716 107.581 36.387C108.109 37.3222 108.373 38.3997 108.374 39.6194C108.374 40.8392 108.11 41.9209 107.581 42.8648C107.076 43.7849 106.319 44.5418 105.398 45.0467C104.471 45.5602 103.42 45.8166 102.245 45.8161C100.615 45.8161 99.3249 45.2733 98.3745 44.1877V50.0457H95.5443V33.582H98.2378V35.1651C98.6977 34.5963 99.2929 34.1517 99.9691 33.8721C100.691 33.579 101.464 33.4328 102.244 33.4422C103.417 33.4449 104.468 33.7027 105.398 34.2156ZM104.493 42.3581C105.164 41.6648 105.5 40.7527 105.5 39.6219C105.5 38.491 105.164 37.5787 104.493 36.8848C103.822 36.1914 102.965 35.8445 101.924 35.8439C101.283 35.8345 100.65 35.9946 100.09 36.3078C99.5451 36.6195 99.0983 37.0779 98.8006 37.6307C98.4837 38.2044 98.3252 38.8682 98.3252 39.6219C98.3252 40.3756 98.4837 41.039 98.8006 41.6122C99.0981 42.1652 99.545 42.6236 100.09 42.9351C100.65 43.2486 101.283 43.4087 101.924 43.399C102.965 43.399 103.822 43.052 104.493 42.3581Z" fill="white"/>
<path d="M118.955 45.3667C117.816 45.0203 116.914 44.5605 116.251 43.9873L117.269 41.7027C117.916 42.2151 118.712 42.6334 119.657 42.9577C120.57 43.2766 121.53 43.4405 122.497 43.4426C123.675 43.4426 124.553 43.254 125.134 42.8769C125.715 42.4998 126.005 42.002 126.006 41.3835C126.011 41.1728 125.971 40.9633 125.887 40.7698C125.803 40.5764 125.678 40.4035 125.521 40.2635C125.162 39.9502 124.742 39.7154 124.287 39.5741C123.789 39.4077 123.11 39.2191 122.25 39.0085C121.043 38.7224 120.066 38.4358 119.319 38.1486C118.577 37.8656 117.915 37.4033 117.395 36.8031C116.859 36.1922 116.592 35.3665 116.592 34.3262C116.584 33.4772 116.833 32.6456 117.305 31.9399C117.779 31.2239 118.496 30.6547 119.455 30.2323C120.414 29.8099 121.587 29.5988 122.974 29.5988C123.936 29.5982 124.895 29.7198 125.826 29.9608C126.688 30.1685 127.508 30.5201 128.252 31.0008L127.324 33.2854C126.643 32.8837 125.912 32.5722 125.151 32.3585C124.437 32.1532 123.699 32.0466 122.956 32.0417C121.794 32.0417 120.931 32.2378 120.368 32.63C119.805 33.0222 119.519 33.5426 119.51 34.1913C119.504 34.4004 119.544 34.6083 119.628 34.7999C119.712 34.9915 119.837 35.1621 119.995 35.2992C120.356 35.6066 120.776 35.8375 121.229 35.978C121.727 36.1445 122.406 36.333 123.266 36.5437C124.444 36.8131 125.409 37.0956 126.163 37.3914C126.907 37.6786 127.571 38.1403 128.098 38.7377C128.634 39.3417 128.902 40.156 128.902 41.1807C128.911 42.0263 128.662 42.8546 128.189 43.5557C127.714 44.2642 126.993 44.8298 126.028 45.2528C125.062 45.6757 123.885 45.8869 122.496 45.8863C121.297 45.8896 120.103 45.7145 118.955 45.3667Z" fill="white"/>
<path d="M138.816 45.0047C138.458 45.2896 138.045 45.4976 137.603 45.6156C137.113 45.7534 136.607 45.8219 136.098 45.8193C134.77 45.8193 133.744 45.4723 133.02 44.7784C132.296 44.0845 131.933 43.0744 131.933 41.748V35.9344H129.944V33.6717H131.935V30.912H134.766V33.6717H138V35.9344H134.766V41.6801C134.766 42.2674 134.909 42.7159 135.196 43.0256C135.483 43.3354 135.897 43.49 136.44 43.4895C137.074 43.4895 137.602 43.3236 138.025 42.9917L138.816 45.0047Z" fill="white"/>
<path d="M142.868 45.0273C141.91 44.5221 141.114 43.7579 140.571 42.8219C140.02 41.8797 139.745 40.8129 139.744 39.6218C139.744 38.4306 140.019 37.3674 140.571 36.4322C141.117 35.5013 141.913 34.7414 142.868 34.2381C143.848 33.7101 144.95 33.4462 146.173 33.4462C147.409 33.4462 148.518 33.7101 149.499 34.2381C150.455 34.7414 151.25 35.5013 151.797 36.4322C152.348 37.3674 152.623 38.4306 152.623 39.6218C152.623 40.8129 152.348 41.8797 151.797 42.8219C151.253 43.7579 150.457 44.5221 149.499 45.0273C148.518 45.5558 147.409 45.8198 146.173 45.8192C144.95 45.8192 143.848 45.5552 142.868 45.0273ZM148.753 42.3605C149.431 41.6671 149.771 40.755 149.771 39.6242C149.772 38.4934 149.432 37.581 148.753 36.8871C148.074 36.1938 147.214 35.8468 146.173 35.8463C145.132 35.8457 144.275 36.1927 143.604 36.8871C142.932 37.5805 142.596 38.4928 142.596 39.6242C142.596 40.7556 142.932 41.6677 143.604 42.3605C144.275 43.0549 145.131 43.4019 146.173 43.4013C147.214 43.4008 148.074 43.053 148.753 42.3581V42.3605Z" fill="white"/>
<path d="M162.333 33.4462V36.138C162.117 36.0953 161.897 36.0726 161.676 36.0701C160.574 36.0701 159.714 36.3907 159.096 37.0318C158.478 37.6729 158.169 38.5966 158.168 39.8028V45.6608H155.338V33.5819H158.031V35.346C158.847 34.08 160.281 33.4467 162.333 33.4462Z" fill="white"/>
<path d="M175.936 40.5261H166.452C166.592 41.3739 167.059 42.1331 167.753 42.6409C168.454 43.1613 169.325 43.4215 170.367 43.4215C171.695 43.4215 172.789 42.9844 173.65 42.11L175.166 43.8515C174.614 44.5065 173.905 45.012 173.106 45.3214C172.277 45.6533 171.341 45.8192 170.299 45.8192C168.972 45.8192 167.802 45.5552 166.792 45.0273C165.814 44.5328 165 43.7671 164.447 42.8219C163.895 41.8797 163.62 40.8129 163.62 39.6218C163.62 38.4452 163.888 37.3857 164.424 36.4435C164.946 35.5143 165.718 34.7502 166.653 34.2381C167.604 33.7101 168.675 33.4462 169.868 33.4462C171.044 33.4462 172.096 33.7064 173.021 34.2268C173.939 34.7369 174.693 35.498 175.194 36.4208C175.715 37.3631 175.975 38.4527 175.975 39.6897C175.979 39.8852 175.966 40.164 175.936 40.5261ZM167.572 36.5113C166.946 37.0463 166.565 37.7588 166.429 38.6488H173.287C173.167 37.7744 172.797 37.0657 172.179 36.5227C171.56 35.9796 170.791 35.7081 169.87 35.7081C168.964 35.7081 168.198 35.9758 167.572 36.5113Z" fill="white"/>
</g>
<rect x="0.5" y="0.716797" width="194.088" height="58.2915" rx="9.5" stroke="url(#paint0_linear_1_5)" stroke-opacity="0.2"/>
<defs>
<linearGradient id="paint0_linear_1_5" x1="97.544" y1="0.216797" x2="97.544" y2="59.5082" gradientUnits="userSpaceOnUse">
<stop stop-color="white"/>
<stop offset="1" stop-color="white" stop-opacity="0"/>
</linearGradient>
<clipPath id="clip0_1_5">
<rect y="0.216797" width="195.088" height="59.2915" rx="10" fill="white"/>
</clipPath>
</defs>
</svg>
