<svg width="100" height="100" viewBox="0 0 100 100" fill="none" xmlns="http://www.w3.org/2000/svg">
<rect width="100" height="100" rx="50" fill="white" fill-opacity="0.07"/>
<g clip-path="url(#clip0_0_184)">
<path d="M77.4619 41.2671L64.6747 28.509H36.1389L28.7697 35.917C28.9533 38.2034 28.1728 39.4152 26.428 39.4609C26.0838 39.4733 25.7406 39.416 25.4192 39.2926C25.0978 39.1692 24.8049 38.9821 24.5582 38.7428C24.3114 38.5034 24.1159 38.2167 23.9835 37.9C23.8512 37.5833 23.7846 37.2432 23.7879 36.9001C23.8339 35.1853 25.0965 34.3851 27.6907 34.568L35.1747 27H65.3634L79 40.6498V50.1841C78.449 50.5957 77.7603 51.1444 77.2093 51.5331C77.5767 53.7509 77.2094 54.7341 76.0385 55.3057C74.8677 55.8773 73.7658 55.5572 73.0541 54.8026C72.7022 54.4002 72.4791 53.9021 72.4137 53.3725C72.3482 52.8428 72.4433 52.3057 72.6868 51.8303C73.3066 50.7329 74.4315 50.3442 76.0615 50.7557L77.4619 49.201V41.2671Z" fill="white"/>
<path d="M21.7218 45.1769C20.2066 44.1252 19.7475 43.142 20.1378 41.8845C20.311 41.3792 20.644 40.9434 21.0868 40.6425C21.5297 40.3416 22.0586 40.1918 22.5942 40.2154C23.1306 40.2063 23.6556 40.3708 24.0903 40.6841C24.5249 40.9974 24.8458 41.4427 25.0047 41.9531C25.349 43.1878 24.8899 44.1481 23.4436 45.1312V51.4188L30.3307 58.2552H40.1564C41.442 56.609 42.2455 56.2203 43.5082 56.6547C44.0407 56.8098 44.504 57.1414 44.8213 57.5947C45.1386 58.048 45.2909 58.5956 45.2529 59.1469C45.2433 59.6663 45.0663 60.169 44.748 60.5806C44.4297 60.9923 43.987 61.2912 43.4852 61.4333C42.1996 61.8219 41.3502 61.4333 40.2023 59.8556H29.2977C28.2646 58.7582 27.1397 57.5464 25.9689 56.3346C24.7981 55.1228 23.7191 54.0482 22.5712 52.9507C22.2815 52.7037 22.0522 52.394 21.901 52.0453C21.7498 51.6966 21.6807 51.3181 21.6988 50.9387C21.7677 49.041 21.7218 47.1432 21.7218 45.1769Z" fill="white"/>
<path d="M62.2642 78.8785C63.9171 80.0675 64.3304 80.9591 63.8942 82.2167C63.7307 82.728 63.41 83.1752 62.9775 83.4952C62.5449 83.8152 62.0224 83.9918 61.4837 84.0001C60.9431 83.984 60.4214 83.7985 59.9928 83.4702C59.5641 83.1418 59.2504 82.6871 59.0961 82.1709C58.7058 80.8677 59.1191 80.0217 60.7031 78.9471V70.5332C62.0117 69.2756 63.3662 67.9038 64.8125 66.6005C65.042 66.3719 65.5012 66.349 65.8685 66.349C67.3377 66.3033 68.7841 66.3262 69.6794 66.3262L73.7658 62.2106C73.0082 61.639 71.9751 60.9531 72.2276 59.627C72.3347 58.9686 72.6205 58.3519 73.0541 57.8436C74.0872 56.8147 75.786 57.0205 76.6813 58.1866C77.5767 59.3526 77.3012 60.976 75.6483 62.1421L75.8549 62.3021C75.3957 62.988 74.9825 63.7197 74.4315 64.337C73.3296 65.5488 72.1588 66.7149 71.0338 67.8809H65.9833C64.6517 69.1384 63.458 70.2588 62.2642 71.4248V78.8785Z" fill="white"/>
<path d="M30.4685 49.0409C31.7311 50.2756 32.9708 51.5331 34.2564 52.8364H42.7965L46.4696 49.1781C46.3089 46.7545 47.0895 45.5656 48.8113 45.497C49.1545 45.4845 49.4966 45.5419 49.8167 45.6655C50.1369 45.7892 50.4284 45.9766 50.6733 46.2163C50.9183 46.456 51.1116 46.7429 51.2414 47.0595C51.3713 47.3762 51.4349 47.7158 51.4284 48.0578C51.4054 49.7726 50.1658 50.55 47.5257 50.4128C46.4926 51.4645 45.3907 52.562 44.3346 53.7052C44.0942 53.9757 43.7965 54.1898 43.4631 54.3321C43.1297 54.4744 42.7687 54.5414 42.4062 54.5283C39.8121 54.4826 37.2179 54.5512 34.6237 54.4826C33.9939 54.4242 33.399 54.1679 32.9249 53.7509C31.6852 52.6306 30.5374 51.4188 29.3895 50.2527C26.8642 50.4814 25.6245 49.7269 25.5786 47.9663C25.5597 47.6228 25.6119 47.279 25.7317 46.9563C25.8516 46.6336 26.0367 46.3388 26.2756 46.0902C26.5144 45.8416 26.802 45.6444 27.1204 45.511C27.4388 45.3775 27.7814 45.3105 28.1268 45.3141C29.8946 45.3598 30.7669 46.7545 30.4685 49.0409Z" fill="white"/>
<path d="M68.0265 38.5464L62.6774 33.219H49.8673C48.2374 35.5512 46.5156 35.1168 45.5284 34.2251C45.273 33.983 45.0712 33.6903 44.9363 33.3659C44.8013 33.0414 44.736 32.6924 44.7447 32.3414C44.7533 31.9903 44.8357 31.6449 44.9865 31.3275C45.1373 31.01 45.3532 30.7275 45.6202 30.4982C46.8829 29.4236 48.4899 29.8123 49.7984 31.5728C53.8389 31.5728 57.9253 31.6186 62.0346 31.55C62.4863 31.5279 62.9373 31.6068 63.3544 31.7808C63.7715 31.9549 64.1442 32.2198 64.4451 32.556C65.9374 34.1793 67.5444 35.7112 69.0595 37.2431C71.4471 36.8087 72.1817 37.6089 72.6638 38.5464C72.8808 39.0357 72.9399 39.58 72.8329 40.1042C72.726 40.6284 72.4584 41.1067 72.0669 41.4729C71.6729 41.8353 71.1724 42.0621 70.6392 42.1197C70.106 42.1773 69.5684 42.0628 69.1055 41.793C68.0035 41.1529 67.6362 40.0782 68.0265 38.5464Z" fill="white"/>
<path d="M62.0346 45.337L53.2879 53.8652C53.5175 56.3803 52.737 57.6607 51.0152 57.7521C50.6715 57.7612 50.3293 57.7028 50.0083 57.5802C49.6872 57.4576 49.3936 57.2732 49.1442 57.0375C48.8947 56.8018 48.6943 56.5194 48.5545 56.2066C48.4147 55.8938 48.3381 55.5565 48.3292 55.2142C48.3521 53.4994 49.6148 52.6992 52.0023 52.8135L60.4047 44.4681V40.3069C58.7977 39.0722 58.3615 38.1805 58.7977 36.9687C58.9557 36.456 59.2757 36.0078 59.71 35.6906C60.1442 35.3734 60.6697 35.2043 61.2082 35.2082C61.7228 35.2264 62.2209 35.3941 62.641 35.6907C63.0611 35.9872 63.385 36.3997 63.5728 36.8773C63.986 38.1348 63.5498 39.1179 62.0346 40.284V45.337Z" fill="white"/>
<path d="M51.8646 41.5186H46.286L39.858 35.0252C37.7918 35.2767 36.8276 34.9338 36.2767 33.8134C36.0334 33.3342 35.949 32.7905 36.0356 32.2606C36.1223 31.7306 36.3754 31.2416 36.7588 30.864C37.1485 30.4987 37.6414 30.2611 38.171 30.1835C38.7005 30.1058 39.2412 30.1917 39.7202 30.4296C40.8451 31.0469 41.2125 32.0529 40.937 33.6534L47.2502 39.9639H51.7957C53.6093 37.4946 55.2163 38.0204 56.2494 39.0264C57.2825 40.0325 57.1677 41.7244 56.0658 42.6618C54.9638 43.5992 53.2191 43.3935 51.8646 41.5186Z" fill="white"/>
<path d="M59.1191 52.219C61.5066 49.8411 63.8712 47.4632 66.2587 45.0397H70.3222C71.5619 43.3706 72.3883 42.9819 73.6739 43.4163C74.1912 43.5653 74.6457 43.8779 74.9687 44.3069C75.2918 44.7359 75.4658 45.2579 75.4646 45.7942C75.4646 46.9374 74.73 47.8748 73.5591 48.2178C72.3883 48.5607 71.4471 48.1263 70.437 46.6173H67.1082C64.8124 48.8808 62.5626 51.1444 60.221 53.4993C60.244 56.1287 59.5323 57.1347 57.6498 57.089C57.315 57.0743 56.9865 56.994 56.6829 56.8527C56.3794 56.7114 56.1068 56.5119 55.8807 56.2655C55.6547 56.0192 55.4797 55.7309 55.3657 55.4171C55.2517 55.1033 55.2009 54.7701 55.2163 54.4368C55.3541 52.722 56.6856 51.9217 59.1191 52.219Z" fill="white"/>
<path d="M57.03 69.2299V73.7569C58.6599 75.0144 59.0961 75.9519 58.6829 77.1408C58.2697 78.3297 57.3743 78.8785 56.1117 78.8327C55.6124 78.8214 55.1287 78.6574 54.7262 78.3629C54.3237 78.0684 54.0219 77.6577 53.8619 77.1865C53.4716 75.8833 53.9078 74.9001 55.4 73.917V70.1901L49.0868 63.994C47.4339 64.3369 46.4237 63.9711 45.7809 62.8508C45.5248 62.3551 45.4335 61.7913 45.5202 61.2406C45.6068 60.6899 45.867 60.1809 46.263 59.787C46.6724 59.4456 47.1733 59.2312 47.7037 59.1703C48.2341 59.1093 48.7708 59.2045 49.2475 59.444C50.3494 60.0614 50.7397 61.1588 50.3494 62.7365L57.03 69.2299Z" fill="white"/>
<path d="M67.2 57.5463H64.491L60.1751 62.1191H56.5019C55.3082 63.7424 54.344 64.154 53.0354 63.6739C52.5509 63.4912 52.1368 63.1606 51.8523 62.7294C51.5678 62.2982 51.4275 61.7885 51.4514 61.2731C51.4517 60.7179 51.6399 60.179 51.9857 59.7434C52.3314 59.3078 52.8144 59.0009 53.3568 58.8724C54.4817 58.5294 55.423 59.0324 56.479 60.5186H59.4405L63.7794 55.9687H67.0163C68.7152 54.0252 70.2533 53.6823 71.493 54.9169C72.7327 56.1516 72.4113 57.7749 71.2864 58.6666C70.1615 59.5583 68.3708 59.2382 67.2 57.5463Z" fill="white"/>
<path d="M38.205 45.5427V42.456C37.4475 41.7244 36.5981 40.9699 35.7716 40.1696C35.5576 39.9143 35.3583 39.6471 35.1747 39.3694C32.9019 39.6209 31.9148 39.2322 31.4097 38.0433C31.1974 37.5551 31.143 37.0132 31.2541 36.4928C31.3651 35.9725 31.6362 35.4995 32.0296 35.1395C32.4349 34.7883 32.9397 34.5711 33.4743 34.5178C34.0089 34.4646 34.5469 34.578 35.014 34.8423C36.07 35.4825 36.4144 36.4885 36.0471 38.2948L39.7661 41.6787V45.4055C41.465 46.7773 41.8552 47.6233 41.4191 48.858C40.9829 50.0926 40.1335 50.527 38.9397 50.5042C37.7459 50.4813 36.8735 49.7725 36.621 48.8122C36.2767 47.4632 36.6899 46.5716 38.205 45.5427Z" fill="white"/>
</g>
<rect x="2" y="2" width="96" height="96" rx="48" stroke="white" stroke-opacity="0.06" stroke-width="4"/>
<defs>
<clipPath id="clip0_0_184">
<rect width="59" height="57" fill="white" transform="translate(20 27)"/>
</clipPath>
</defs>
</svg>
