<svg width="100" height="100" viewBox="0 0 100 100" fill="none" xmlns="http://www.w3.org/2000/svg">
<rect width="100" height="100" rx="50" fill="white" fill-opacity="0.07"/>
<g clip-path="url(#clip0_0_147)">
<path d="M55.7959 34.9543C55.3811 34.7547 55.0166 34.605 54.6772 34.4178C54.3379 34.2307 54.2373 33.9313 54.6395 33.6942L58.0709 31.8726C58.4103 31.698 58.6365 31.7728 58.7245 32.1596C59.001 33.4072 59.2901 34.6674 59.5415 35.9275C59.6546 36.439 59.4409 36.5763 58.9507 36.3766C58.4605 36.177 58.2343 36.0647 57.8321 35.8901C56.2358 39.3086 54.6647 42.6648 53.0809 46.0833C54.8281 47.1313 55.8713 48.6535 56.1855 50.6372H64.0789C64.0789 50.2255 64.0664 49.8387 64.0789 49.452C64.0915 49.0652 64.3429 48.7907 64.7451 49.0777C65.7883 49.8387 66.819 50.6248 67.8497 51.4108C68.1513 51.6353 68.1639 51.8724 67.8497 52.1095C66.8064 52.883 65.7883 53.6815 64.7325 54.4426C64.3303 54.7295 64.0915 54.5798 64.0789 54.0683C64.0664 53.5567 64.0789 53.3197 64.0789 52.8331H56.6506C56.2358 52.8206 56.0096 52.9079 55.8839 53.3446C55.5822 54.3677 54.9789 55.2036 54.1996 55.9272C54.0613 56.0645 53.9482 56.3764 54.0111 56.5261C54.9537 58.8093 55.9216 61.08 56.8894 63.3632C56.902 63.4006 56.9397 63.4256 57.0025 63.488L58.1337 63.0388C58.5485 62.8766 58.7748 63.0388 58.6742 63.463C58.36 64.7606 58.0206 66.0457 57.6812 67.3307C57.5807 67.6926 57.3419 67.705 57.0528 67.5304C55.9341 66.8941 54.8029 66.2578 53.6843 65.5965C53.2443 65.3345 53.2821 65.085 53.7723 64.8604C54.2624 64.6358 54.4887 64.536 54.8909 64.3738C53.9985 62.2528 53.1061 60.1692 52.2514 58.0857C52.0126 57.4868 51.7989 57.2248 51.0447 57.3745C49.5867 57.6615 48.179 57.362 46.8341 56.5386L38.5133 65.1598C38.8401 65.4468 39.1544 65.7088 39.4434 65.9958C39.7325 66.2827 39.7451 66.5946 39.2675 66.6695C37.9729 66.9065 36.6657 67.0937 35.371 67.3058C35.0065 67.3557 34.8557 67.1935 34.8934 66.8442C35.0442 65.5341 35.1699 64.2366 35.3333 62.939C35.3962 62.5273 35.6601 62.415 35.9995 62.7144C36.3389 63.0139 36.6028 63.2759 36.9548 63.6003L45.1875 55.0539C44.3957 53.9185 43.8175 52.6709 44.0312 51.3609C44.2449 50.0508 43.7044 49.7389 42.724 49.3771C41.5048 48.903 40.3359 48.2917 39.0915 47.7302C38.8904 48.1295 38.727 48.5162 38.5259 48.8656C38.3248 49.2149 38.0357 49.3022 37.8095 48.8905C37.1936 47.7801 36.6028 46.6572 35.9995 45.5344C35.7984 45.1601 35.8612 44.923 36.3263 44.8232C37.5706 44.5612 38.815 44.2618 40.0593 43.9998C40.5244 43.9124 40.7004 44.1245 40.537 44.5612C40.3736 44.9979 40.2102 45.2724 40.0342 45.6716C40.1456 45.7552 40.2633 45.8302 40.3861 45.8962C41.7687 46.5325 43.1639 47.1563 44.5339 47.8175C44.8733 47.9797 45.0744 47.9548 45.3132 47.6429C46.6456 45.996 48.3927 45.2724 50.4917 45.3472C50.8311 45.3597 51.007 45.2973 51.1579 44.9729C52.6536 41.7166 54.1745 38.4852 55.6828 35.2413L55.7959 34.9543Z" fill="white"/>
<path d="M30.4691 75.403C30.0247 75.4047 29.5844 75.3185 29.174 75.1493C28.7636 74.9802 28.3913 74.7315 28.0788 74.4179C27.7664 74.1042 27.52 73.7319 27.3542 73.3226C27.1884 72.9134 27.1064 72.4754 27.1131 72.0344C27.1172 71.592 27.2091 71.1548 27.3835 70.7476C27.5578 70.3405 27.8113 69.9714 28.1293 69.6615C28.4474 69.3516 28.8238 69.1069 29.2371 68.9414C29.6504 68.7759 30.0925 68.6928 30.5382 68.6969C30.9839 68.701 31.4243 68.7922 31.8345 68.9653C32.2447 69.1384 32.6165 69.3899 32.9287 69.7056C33.2409 70.0213 33.4874 70.395 33.6541 70.8053C33.8209 71.2155 33.9046 71.6544 33.9004 72.0968C33.8879 73.9557 32.3796 75.4155 30.4691 75.403Z" fill="white"/>
<path d="M55.8839 73.6438C55.8855 73.2014 55.9749 72.7637 56.147 72.3556C56.3191 71.9475 56.5704 71.5771 56.8867 71.2655C57.203 70.9538 57.5781 70.707 57.9905 70.5393C58.4028 70.3715 58.8444 70.286 59.2901 70.2876C59.7358 70.2893 60.1767 70.378 60.5879 70.5488C60.999 70.7196 61.3721 70.9691 61.6861 71.2831C62.0001 71.5971 62.2487 71.9693 62.4177 72.3787C62.5867 72.788 62.6729 73.2264 62.6712 73.6687C62.6679 74.5622 62.3071 75.4177 61.6683 76.0471C61.0295 76.6765 60.165 77.0282 59.265 77.0249C58.3649 77.0216 57.503 76.6635 56.869 76.0294C56.2349 75.3954 55.8805 74.5372 55.8839 73.6438Z" fill="white"/>
<path d="M61.6028 30.7373C61.1584 30.7422 60.7173 30.6598 60.3051 30.4948C59.8928 30.3297 59.5176 30.0853 59.201 29.7757C58.8843 29.466 58.6326 29.0972 58.4602 28.6905C58.2878 28.2838 58.1982 27.8473 58.1966 27.4061C58.1966 26.9588 58.2853 26.5159 58.4578 26.1026C58.6302 25.6894 58.883 25.3139 59.2016 24.9976C59.5203 24.6813 59.8985 24.4304 60.3148 24.2593C60.7311 24.0881 61.1774 24 61.628 24C62.528 24.0033 63.3899 24.3614 64.024 24.9955C64.658 25.6296 65.0124 26.4877 65.0091 27.3811C65.0057 28.2745 64.645 29.1301 64.0062 29.7595C63.3674 30.3889 62.5029 30.7406 61.6028 30.7373Z" fill="white"/>
<path d="M33.7873 42.2655C33.7923 42.7072 33.7088 43.1454 33.5416 43.5547C33.3744 43.9641 33.1269 44.3363 32.8134 44.6498C32.5 44.9632 32.1268 45.2117 31.7157 45.3807C31.3046 45.5497 30.8638 45.6359 30.4188 45.6342C29.9715 45.6334 29.5287 45.5451 29.1158 45.3744C28.7028 45.2038 28.3278 44.954 28.0121 44.6395C27.6964 44.3249 27.4462 43.9517 27.2757 43.5412C27.1053 43.1307 27.018 42.6909 27.0189 42.2468C27.0197 41.8028 27.1086 41.3633 27.2806 40.9534C27.4525 40.5435 27.7041 40.1712 28.021 39.8578C28.3379 39.5445 28.7138 39.2961 29.1274 39.1269C29.541 38.9578 29.9841 38.8711 30.4314 38.872C30.8769 38.8736 31.3178 38.9629 31.7283 39.1348C32.1389 39.3067 32.511 39.5577 32.8231 39.8733C33.1352 40.1889 33.3812 40.5629 33.5467 40.9735C33.7122 41.3842 33.794 41.8233 33.7873 42.2655Z" fill="white"/>
<path d="M70.2253 51.6103C70.2278 50.9436 70.4296 50.2925 70.8051 49.7397C71.1806 49.1868 71.713 48.757 72.3348 48.5047C72.9566 48.2524 73.6398 48.189 74.298 48.3224C74.9561 48.4558 75.5596 48.7801 76.0319 49.2542C76.5042 49.7283 76.8242 50.3309 76.9513 50.9856C77.0784 51.6404 77.0068 52.3178 76.7457 52.9322C76.4847 53.5465 76.0458 54.0702 75.4847 54.4368C74.9236 54.8034 74.2655 54.9964 73.5938 54.9915C73.1487 54.9898 72.7083 54.901 72.2979 54.73C71.8875 54.5591 71.5152 54.3094 71.2022 53.9952C70.8892 53.6811 70.6418 53.3087 70.4742 52.8995C70.3065 52.4902 70.2219 52.0521 70.2253 51.6103Z" fill="white"/>
</g>
<rect x="2" y="2" width="96" height="96" rx="48" stroke="white" stroke-opacity="0.06" stroke-width="4"/>
<defs>
<clipPath id="clip0_0_147">
<rect width="50" height="53" fill="white" transform="translate(27 24)"/>
</clipPath>
</defs>
</svg>
