<svg width="100" height="100" viewBox="0 0 100 100" fill="none" xmlns="http://www.w3.org/2000/svg">
<rect width="100" height="100" rx="50" fill="white" fill-opacity="0.07"/>
<path d="M64.5 28.25C65.7819 28.25 67.0112 28.7592 67.9177 29.6656C68.8241 30.5721 69.3333 31.8015 69.3333 33.0833C69.3333 34.3652 68.8241 35.5946 67.9177 36.501C67.0112 37.4074 65.7819 37.9167 64.5 37.9167C63.2181 37.9167 61.9887 37.4074 61.0823 36.501C60.1759 35.5946 59.6667 34.3652 59.6667 33.0833C59.6667 31.8015 60.1759 30.5721 61.0823 29.6656C61.9887 28.7592 63.2181 28.25 64.5 28.25ZM35.5 62.0833C36.7819 62.0833 38.0112 62.5926 38.9177 63.499C39.8241 64.4054 40.3333 65.6348 40.3333 66.9167C40.3333 68.1985 39.8241 69.4279 38.9177 70.3343C38.0112 71.2408 36.7819 71.75 35.5 71.75C34.2181 71.75 32.9887 71.2408 32.0823 70.3343C31.1759 69.4279 30.6667 68.1985 30.6667 66.9167C30.6667 65.6348 31.1759 64.4054 32.0823 63.499C32.9887 62.5926 34.2181 62.0833 35.5 62.0833Z" stroke="white" stroke-width="2" stroke-linecap="round" stroke-linejoin="round"/>
<path d="M40.3333 66.9167L52.4167 66.9167C55.6214 66.9167 58.6948 65.6436 60.9609 63.3776C63.2269 61.1115 64.5 58.0381 64.5 54.8334L64.5 47.5834M64.5 47.5834L57.25 54.8334M64.5 47.5834L71.75 54.8334M59.6667 33.0834L47.5833 33.0834C44.3786 33.0834 41.3052 34.3564 39.0391 36.6225C36.7731 38.8886 35.5 41.962 35.5 45.1667L35.5 52.4167M35.5 52.4167L28.25 45.1667M35.5 52.4167L42.75 45.1667" stroke="white" stroke-width="2" stroke-linecap="round" stroke-linejoin="round"/>
<rect x="2" y="2" width="96" height="96" rx="48" stroke="white" stroke-opacity="0.06" stroke-width="4"/>
</svg>
